<svg width="139" height="33" viewBox="0 0 139 33" fill="none" xmlns="http://www.w3.org/2000/svg">
<g clip-path="url(#clip0_107_332)">
<g opacity="0.2">
<path opacity="0.2" d="M34.2679 20.2106C31.8601 20.2106 30.0542 18.281 30.0542 16.0545C30.0542 13.828 32.0106 11.8983 34.2679 11.8983C36.5253 11.8983 38.4817 13.828 38.4817 16.0545C38.4817 18.281 36.5253 20.2106 34.2679 20.2106ZM34.2679 13.3827C32.763 13.3827 31.5591 14.5701 31.5591 16.0545C31.5591 17.5388 32.763 18.7263 34.2679 18.7263C35.7728 18.7263 36.9768 17.5388 36.9768 16.0545C36.9768 14.5701 35.7728 13.3827 34.2679 13.3827Z" fill="white"/>
</g>
<g opacity="0.4">
<path opacity="0.4" d="M29.9038 23.3281C25.8406 23.3281 22.5298 20.0625 22.5298 16.0548C22.5298 12.0471 25.8406 8.78156 29.9038 8.78156C33.9671 8.78156 37.2779 12.0471 37.2779 16.0548C37.2779 20.0625 33.9671 23.3281 29.9038 23.3281ZM29.9038 10.4143C26.7435 10.4143 24.0347 12.9377 24.0347 16.2033C24.0347 19.4688 26.593 21.9922 29.9038 21.9922C33.2146 21.9922 35.773 19.4688 35.773 16.2033C35.773 12.9377 33.0641 10.4143 29.9038 10.4143Z" fill="white"/>
</g>
<g opacity="0.6">
<path opacity="0.6" d="M25.5377 26.4447C19.819 26.4447 15.1538 21.8432 15.1538 16.2027C15.1538 10.5622 19.819 5.96075 25.5377 5.96075C31.2563 5.96075 35.9215 10.5622 35.9215 16.2027C35.9215 21.8432 31.2563 26.4447 25.5377 26.4447ZM25.5377 7.59353C20.722 7.59353 16.6587 11.4528 16.6587 16.3511C16.6587 21.101 20.5715 25.1087 25.5377 25.1087C30.5039 25.1087 34.4166 21.2495 34.4166 16.3511C34.4166 11.4528 30.3534 7.59353 25.5377 7.59353Z" fill="white"/>
</g>
<g opacity="0.8">
<path opacity="0.8" d="M21.1715 29.5623C13.7975 29.5623 7.77783 23.6249 7.77783 16.3516C7.77783 9.07835 13.7975 3.14099 21.1715 3.14099C28.5456 3.14099 34.5652 9.07835 34.5652 16.3516C34.5652 23.6249 28.5456 29.5623 21.1715 29.5623ZM21.1715 4.62533C14.5499 4.62533 9.28274 9.82052 9.28274 16.3516C9.28274 22.8827 14.5499 28.0779 21.1715 28.0779C27.7931 28.0779 33.0603 22.8827 33.0603 16.3516C33.0603 9.82052 27.7931 4.62533 21.1715 4.62533Z" fill="white"/>
</g>
<path d="M16.8093 32.6793C7.77981 32.6793 0.405762 25.406 0.405762 16.5C0.405762 7.59395 7.77981 0.320679 16.8093 0.320679C25.8387 0.320679 33.2128 7.59395 33.2128 16.5C33.2128 25.406 25.8387 32.6793 16.8093 32.6793ZM16.8093 1.80502C8.68276 1.80502 1.91067 8.48455 1.91067 16.5C1.91067 24.5154 8.68276 31.195 16.8093 31.195C24.9358 31.195 31.7078 24.5154 31.7078 16.5C31.7078 8.48455 25.0863 1.80502 16.8093 1.80502Z" fill="white"/>
<path d="M118.843 12.4918L119.144 10.8591H116.134L113.576 22.2885H116.585L117.94 16.2027C118.391 13.9762 119.896 13.6793 120.95 13.6793C121.552 13.6793 122.003 13.6793 122.455 13.8277L123.057 10.8591C122.906 10.8591 122.455 10.8591 122.003 10.8591C120.498 10.7106 119.445 11.4528 118.843 12.4918Z" fill="white"/>
<path d="M104.999 10.5623C101.237 10.5623 98.6782 13.2341 98.6782 16.7965C98.6782 20.062 101.086 22.5854 104.547 22.5854C106.654 22.5854 108.009 21.6948 108.761 20.8042L109.062 22.437H111.921L111.319 16.6481C110.868 13.0856 108.912 10.5623 104.999 10.5623ZM104.848 19.9136C103.042 19.9136 101.839 18.4293 101.839 16.7965C101.839 14.8668 103.042 13.3825 104.999 13.3825C106.805 13.3825 108.009 14.8668 108.009 16.4996C108.009 18.2808 106.805 19.9136 104.848 19.9136Z" fill="white"/>
<path d="M74.2988 12.4918L74.5998 10.8591H71.7405L69.1821 22.2885H72.1919L73.5464 16.2027C74.1483 14.1246 75.5027 13.6793 76.7067 13.6793C77.3086 13.6793 77.6096 13.6793 78.0611 13.8277L78.663 10.8591C78.5126 10.8591 78.0611 10.8591 77.6096 10.8591C76.1047 10.7106 74.9008 11.4528 74.2988 12.4918Z" fill="white"/>
<path d="M61.9559 10.5623C58.0431 10.5623 55.6353 13.2341 55.6353 16.9449C55.6353 20.062 57.8926 22.5854 61.6549 22.5854C65.5676 22.5854 67.9755 19.9136 67.9755 16.3512C67.9755 13.2341 65.7181 10.5623 61.9559 10.5623ZM61.8054 19.9136C59.9995 19.9136 58.7956 18.4293 58.7956 16.7965C58.7956 14.8668 59.9995 13.3825 61.9559 13.3825C63.7618 13.3825 64.9657 14.8668 64.9657 16.4996C64.9657 18.2808 63.7618 19.9136 61.8054 19.9136Z" fill="white"/>
<path d="M52.9272 10.2653C53.2282 8.781 54.1312 8.48413 55.0341 8.48413C55.4856 8.48413 55.7866 8.48413 56.0876 8.63257L56.6895 6.25762C56.238 6.10919 55.4856 5.96075 54.7331 5.96075C52.1748 5.96075 50.6699 7.14823 50.0679 10.1169L49.9174 10.8591H47.6601L47.0581 13.3825H49.3155L47.5096 22.2885H50.5194L52.3253 13.3825H54.8836L55.3351 10.8591H52.6263L52.9272 10.2653Z" fill="white"/>
<path d="M91.7553 18.132L90.5514 10.8587H87.8425L84.0802 17.8351L83.1773 10.8587H80.1675L81.5219 22.2881H84.3812L88.4445 14.5696L89.6484 22.2881H92.6582L98.5274 10.8587H95.2166L91.7553 18.132Z" fill="white"/>
<path d="M133.892 12.3434C133.14 11.3044 131.635 10.5622 129.678 10.5622C126.067 10.5622 123.508 13.0856 123.508 16.7965C123.508 19.9136 125.916 22.5854 129.528 22.5854C132.989 22.5854 135.397 20.5073 136.15 16.648L138.256 6.40607H135.247L133.892 12.3434ZM129.528 19.7651C127.722 19.7651 126.518 18.2808 126.518 16.648C126.518 14.7184 127.722 13.234 129.678 13.234C131.484 13.234 132.688 14.7184 132.688 16.3511C132.839 18.2808 131.635 19.7651 129.528 19.7651Z" fill="white"/>
</g>
<defs>
<clipPath id="clip0_107_332">
<rect width="138" height="32.3586" fill="white" transform="translate(0.405762 0.320679)"/>
</clipPath>
</defs>
</svg>
