<svg width="25" height="21" viewBox="0 0 25 21" fill="none" xmlns="http://www.w3.org/2000/svg">
<g opacity="0.2">
<path opacity="0.2" d="M3.10532 12.8775C4.6481 12.8775 5.80518 11.6411 5.80518 10.2145C5.80518 8.78795 4.55167 7.55157 3.10532 7.55157C1.65897 7.55157 0.405469 8.78795 0.405469 10.2145C0.405469 11.6411 1.65897 12.8775 3.10532 12.8775ZM3.10532 8.50263C4.06956 8.50263 4.84094 9.26348 4.84094 10.2145C4.84094 11.1656 4.06956 11.9264 3.10532 11.9264C2.14109 11.9264 1.3697 11.1656 1.3697 10.2145C1.3697 9.26348 2.14109 8.50263 3.10532 8.50263Z" fill="white"/>
</g>
<g opacity="0.4">
<path opacity="0.4" d="M5.90172 14.8749C8.50515 14.8749 10.6265 12.7826 10.6265 10.2147C10.6265 7.64686 8.50515 5.55453 5.90172 5.55453C3.29829 5.55453 1.17698 7.64686 1.17698 10.2147C1.17698 12.7826 3.29829 14.8749 5.90172 14.8749ZM5.90172 6.6007C7.92661 6.6007 9.66223 8.21749 9.66223 10.3098C9.66223 12.4021 8.02303 14.0189 5.90172 14.0189C3.78041 14.0189 2.14121 12.4021 2.14121 10.3098C2.14121 8.21749 3.87683 6.6007 5.90172 6.6007Z" fill="white"/>
</g>
<g opacity="0.6">
<path opacity="0.6" d="M8.69933 16.8718C12.3634 16.8718 15.3525 13.9235 15.3525 10.3095C15.3525 6.69549 12.3634 3.74722 8.69933 3.74722C5.03524 3.74722 2.04611 6.69549 2.04611 10.3095C2.04611 13.9235 5.03524 16.8718 8.69933 16.8718ZM8.69933 4.79338C11.7849 4.79338 14.3883 7.26613 14.3883 10.4046C14.3883 13.448 11.8813 16.0158 8.69933 16.0158C5.51735 16.0158 3.01035 13.5431 3.01035 10.4046C3.01035 7.26613 5.61378 4.79338 8.69933 4.79338Z" fill="white"/>
</g>
<g opacity="0.8">
<path opacity="0.8" d="M11.4964 18.8693C16.2212 18.8693 20.0781 15.0651 20.0781 10.4049C20.0781 5.74474 16.2212 1.94052 11.4964 1.94052C6.7717 1.94052 2.91476 5.74474 2.91476 10.4049C2.91476 15.0651 6.7717 18.8693 11.4964 18.8693ZM11.4964 2.89158C15.7391 2.89158 19.1139 6.22027 19.1139 10.4049C19.1139 14.5896 15.7391 17.9183 11.4964 17.9183C7.25382 17.9183 3.879 14.5896 3.879 10.4049C3.879 6.22027 7.25382 2.89158 11.4964 2.89158Z" fill="white"/>
</g>
<path d="M14.2916 20.8665C20.077 20.8665 24.8018 16.2063 24.8018 10.5C24.8018 4.79365 20.077 0.133484 14.2916 0.133484C8.50621 0.133484 3.78146 4.79365 3.78146 10.5C3.78146 16.2063 8.50621 20.8665 14.2916 20.8665ZM14.2916 1.08454C19.4985 1.08454 23.8375 5.36429 23.8375 10.5C23.8375 15.6357 19.4985 19.9154 14.2916 19.9154C9.08475 19.9154 4.7457 15.6357 4.7457 10.5C4.7457 5.36429 8.98833 1.08454 14.2916 1.08454Z" fill="white"/>
</svg>
