<svg width="87" height="55" viewBox="0 0 87 55" fill="none" xmlns="http://www.w3.org/2000/svg">
<path d="M54.9923 6.31226H31.8604V47.9481H54.9923V6.31226Z" fill="#FF5F00"/>
<path d="M33.3284 27.1338C33.3198 19.0078 37.0434 11.3294 43.4257 6.3122C32.5866 -2.2194 17.0212 -0.976698 7.66847 9.16697C-1.68425 19.3106 -1.68425 34.9496 7.66847 45.0933C17.0212 55.237 32.5866 56.4797 43.4257 47.9481C37.0454 42.9325 33.322 35.2573 33.3284 27.1338Z" fill="#EB001B"/>
<path d="M86.2035 27.1341C86.2033 37.2716 80.4238 46.5191 71.3196 50.9491C62.2155 55.3791 51.385 54.2139 43.4279 47.9484C49.8054 42.9285 53.5291 35.2543 53.5291 27.1304C53.5291 19.0066 49.8054 11.3323 43.4279 6.3125C51.385 0.0469759 62.2155 -1.11821 71.3196 3.3118C80.4238 7.74181 86.2033 16.9893 86.2035 27.1268V27.1341Z" fill="#F79E1B"/>
</svg>
