<svg width="118" height="37" viewBox="0 0 118 37" fill="none" xmlns="http://www.w3.org/2000/svg">
<g clip-path="url(#clip0_1_881)">
<path d="M50.3019 36.9999H40.8032L46.7444 1.08813H56.2425L50.3019 36.9999Z" fill="#00579F"/>
<path d="M84.9162 1.52487C83.0309 0.800164 80.0406 0 76.343 0C66.9037 0 60.2566 4.87695 60.2158 11.8495C60.1374 16.9939 64.9749 19.8512 68.593 21.5665C72.2911 23.3192 73.5482 24.4632 73.5482 26.0256C73.5105 28.4251 70.5599 29.5311 67.8079 29.5311C63.9918 29.5311 61.947 28.9609 58.8396 27.6259L57.5809 27.0537L56.2433 35.0938C58.4852 36.0834 62.6155 36.9615 66.9037 37C76.9331 37 83.4626 32.1985 83.54 24.7681C83.5781 20.6908 81.0237 17.5666 75.5166 15.0137C72.1735 13.3749 70.1261 12.2699 70.1261 10.5931C70.1653 9.0687 71.8578 7.50736 75.6316 7.50736C78.739 7.43089 81.0222 8.15458 82.7518 8.87878L83.6163 9.25912L84.9162 1.52487Z" fill="#00579F"/>
<path d="M98.5529 24.278C99.3375 22.2149 102.357 14.23 102.357 14.23C102.317 14.3067 103.14 12.1288 103.61 10.7918L104.276 13.8862C104.276 13.8862 106.08 22.4825 106.472 24.278C104.983 24.278 100.435 24.278 98.5529 24.278ZM110.313 1.08813H102.944C100.671 1.08813 98.9447 1.73708 97.9642 4.06779L83.8125 36.9999H93.8093C93.8093 36.9999 95.4551 32.5675 95.8089 31.6129C96.9056 31.6129 106.63 31.6129 108.041 31.6129C108.315 32.8737 109.178 36.9999 109.178 36.9999H117.999L110.313 1.08813Z" fill="#00579F"/>
<path d="M34.1914 1.08826L25.0033 25.6026L23.9993 20.6308C22.3006 14.894 16.9732 8.6611 11.028 5.56191L19.444 37H29.3652L44.1121 1.08826H34.1914Z" fill="#00579F"/>
<path d="M15.5048 1.08826H0.157015L0 1.81628C11.9722 4.8063 20.4526 12.0136 23.7103 20.6765L19.8224 4.117C19.2732 1.81577 17.5851 1.16417 15.5048 1.08826Z" fill="#FAA61A"/>
</g>
<defs>
<clipPath id="clip0_1_881">
<rect width="118" height="37" fill="white"/>
</clipPath>
</defs>
</svg>
