<svg width="135" height="37" viewBox="0 0 135 37" fill="none" xmlns="http://www.w3.org/2000/svg">
<path fill-rule="evenodd" clip-rule="evenodd" d="M12.4839 0.00631387C13.69 -0.000935689 17.2744 -0.325303 18.7927 4.82329C19.8154 8.29144 21.4446 13.9724 23.6801 21.8663H24.5906C26.988 13.544 28.6349 7.86304 29.5313 4.82329C31.0654 -0.378934 34.9007 0.00641582 36.4348 0.00641582L48.2707 0.00643065V36.9999H36.2072V15.199H35.3983L28.6735 36.9999H19.5972L12.8724 15.1829H12.0635V36.9999H0V0.00643065L12.4839 0.00631387ZM65.5936 0.00643065V21.8235H66.556L74.7361 3.88349C76.324 0.313364 79.7083 0.00643065 79.7083 0.00643065H91.3822V37H79.0667V15.1829H78.1044L70.0847 33.1229C68.4968 36.6769 64.952 37 64.952 37H53.2782V0.00643065H65.5936ZM133.95 17.586C132.232 22.4772 126.837 25.9802 120.864 25.9802H107.949V37H96.2379V17.586H133.95Z" fill="#0F754E"/>
<path fill-rule="evenodd" clip-rule="evenodd" d="M121.427 0.00610352H95.6219C96.2361 8.24213 103.295 15.2927 110.603 15.2927H134.762C136.156 8.4476 131.356 0.00610352 121.427 0.00610352Z" fill="url(#paint0_linear_1_883)"/>
<defs>
<linearGradient id="paint0_linear_1_883" x1="134.999" y1="9.62203" x2="95.6219" y2="9.62203" gradientUnits="userSpaceOnUse">
<stop stop-color="#1F5CD7"/>
<stop offset="1" stop-color="#02AEFF"/>
</linearGradient>
</defs>
</svg>
