<svg xmlns="http://www.w3.org/2000/svg" viewBox="0 0 311 219.57"><defs><style>.cls-1{fill:#9588c8;}</style></defs><path class="cls-1" d="M10.1,127.82l1.43-.12a5.09,5.09,0,0,0,1.31,3.94c1.45,1.57,2.76,1.29,3.44.67,2.27-2.1-3.81-6.16-.66-9.07,1.46-1.34,3.65-1,5.25.77a5.65,5.65,0,0,1,1.66,4.27l-1.42.09a4.54,4.54,0,0,0-1.3-3.53c-1-1.06-2.24-1.29-3.07-.52-2,1.83,4,6,.68,9-1.28,1.19-3.4,1.52-5.6-.86A6,6,0,0,1,10.1,127.82Z"/><path class="cls-1" d="M20.69,141.23l.69-.71a3.77,3.77,0,0,1-2.9-1.15,2.89,2.89,0,0,1-.17-4.18,2.85,2.85,0,0,1,4.18.07,3.64,3.64,0,0,1,1.23,2.86L24.81,137a1.92,1.92,0,0,0-.29-2.85,3.43,3.43,0,0,0-2.75-1l.2-1.11a4.55,4.55,0,0,1,3.5,1.39c1.31,1.28,1.83,2.94.36,4.45l-4.17,4.28ZM22,139.91l1.15-1.17a2.9,2.9,0,0,0-1-2.44A1.91,1.91,0,1,0,19.51,139,2.91,2.91,0,0,0,22,139.91Z"/><path class="cls-1" d="M32,151.22l3.84-4.49a1.53,1.53,0,0,0,0-2.41,3,3,0,0,0-2.62-.49L29,148.68l-1-.88,3.84-4.49c.72-.84.82-1.67-.05-2.41a3,3,0,0,0-2.61-.46L25,145.27l-1-.88,5.65-6.61,1,.88-.82,1a3.75,3.75,0,0,1,3.09.7,2.24,2.24,0,0,1,.73,2.76,3.65,3.65,0,0,1,3.27.66c1.21,1,1.28,2.25.14,3.58L33,152.09Z"/><path class="cls-1" d="M35.6,152.62l1.15-.35A3.87,3.87,0,0,0,38.28,155c1.07.81,2,.74,2.54.05,1.27-1.69-3.81-3.89-1.87-6.46.81-1.08,2.44-1.3,4.09,0a4.41,4.41,0,0,1,1.82,2.94l-1.07.37a3.4,3.4,0,0,0-1.41-2.43c-1-.72-1.89-.69-2.36-.07-1.15,1.52,3.91,3.76,1.87,6.46-.88,1.16-2.51,1.39-4.31,0A4.62,4.62,0,0,1,35.6,152.62Z"/><path class="cls-1" d="M47.38,162.51l.69-1A4.25,4.25,0,0,1,44.7,161,2.44,2.44,0,0,1,44,157.1L47.41,152l1.12.76-3.22,4.73a1.7,1.7,0,0,0,.5,2.73,3.31,3.31,0,0,0,2.87.36l3.59-5.28,1.11.75-4.88,7.2Z"/><path class="cls-1" d="M56.14,168l2.94-4.87a1.73,1.73,0,0,0-.62-2.73,3.39,3.39,0,0,0-2.9-.17l-3.28,5.44-1.16-.7,4.49-7.44,1.15.7-.65,1.08a4.32,4.32,0,0,1,3.42.33,2.48,2.48,0,0,1,.92,3.84l-3.15,5.22Z"/><path class="cls-1" d="M58.94,172.18l1.08-.57A3.3,3.3,0,0,0,62,174a2.49,2.49,0,0,0,3.69-1l.58-1.09a3.65,3.65,0,0,1-3.3,0c-2-1.07-2.63-3.31-1.31-5.79s3.52-3.25,5.54-2.18A3.64,3.64,0,0,1,69,166.64l.61-1.16,1.19.63-3.95,7.46c-1.35,2.54-3.56,2.39-5.43,1.4A4.48,4.48,0,0,1,58.94,172.18ZM66.73,171l1.78-3.36a3.21,3.21,0,0,0-1.63-2.45c-1.54-.82-3.12-.09-4,1.61s-.63,3.42.91,4.24A3.24,3.24,0,0,0,66.73,171Z"/><path class="cls-1" d="M73.9,177.22l3.45-8,1.24.54-1.43,3.32,4.16,1.8,1.44-3.33,1.24.54-3.45,8-1.24-.53L80.85,176l-4.17-1.8-1.54,3.57Z"/><path class="cls-1" d="M88.54,183.13l.34-.92a3.8,3.8,0,0,1-3.12.13,2.9,2.9,0,0,1-1.85-3.76A2.85,2.85,0,0,1,87.76,177,3.62,3.62,0,0,1,90,179.07l.55-1.47a1.92,1.92,0,0,0-1.42-2.49,3.46,3.46,0,0,0-2.92.21l-.26-1.1a4.53,4.53,0,0,1,3.75-.14c1.72.64,2.87,1.95,2.14,3.92l-2.08,5.6Zm.63-1.72.57-1.53A2.88,2.88,0,0,0,87.88,178a1.91,1.91,0,1,0-1.32,3.56A2.87,2.87,0,0,0,89.17,181.41Z"/><path class="cls-1" d="M96.42,176.65,95.7,179c-.49,1.54.12,2.2,1.49,2.63a5.44,5.44,0,0,0,2.34.24l1.21-3.87,1.29.41-2.59,8.3-1.29-.41,1.06-3.38a6.18,6.18,0,0,1-2.7-.24c-2.17-.67-2.81-1.8-2.22-3.69l.85-2.73Z"/><path class="cls-1" d="M102.44,187.55l2.14-8.43,1.31.34L105,183l4.39,1.12.89-3.51,1.31.33-2.13,8.43-1.31-.33.95-3.77-4.39-1.12-1,3.77Z"/><path class="cls-1" d="M112.84,185.65a4.35,4.35,0,0,1,5.08-3.64c2.58.51,3.7,2.82,3.2,5.38l-.07.34-6.9-1.36a3.06,3.06,0,0,0,2.49,3.55,3.79,3.79,0,0,0,2.84-.56l.47,1a4.76,4.76,0,0,1-3.65.64A4.31,4.31,0,0,1,112.84,185.65Zm4.85-2.55a2.9,2.9,0,0,0-3.35,2.29l5.59,1.11A2.81,2.81,0,0,0,117.69,183.1Z"/><path class="cls-1" d="M124.37,192.17l1.1-7.43-2.5-.37.18-1.17,6.34.94-.18,1.17-2.51-.37-1.1,7.43Z"/><path class="cls-1" d="M141,194l.56-7.48-4.52-.35-.57,7.49-1.34-.1.65-8.67,7.22.54-.66,8.67Z"/><path class="cls-1" d="M146.83,193l-.1,4.62-1.35,0,.26-12,1.35,0,0,1.3a3.62,3.62,0,0,1,3-1.45c2.28.05,3.83,1.81,3.77,4.64s-1.69,4.53-4,4.48A3.58,3.58,0,0,1,146.83,193Zm5.44-2.92c0-1.93-1-3.37-2.71-3.41a3.18,3.18,0,0,0-2.62,1.33l-.09,3.92a3.26,3.26,0,0,0,2.56,1.46C151.16,193.37,152.23,192,152.27,190Z"/><path class="cls-1" d="M155.45,190a4.31,4.31,0,1,1,4.46,4.43A4.26,4.26,0,0,1,155.45,190Zm7.18-.24c-.06-1.76-1.13-3.31-3-3.25s-2.84,1.68-2.78,3.44,1.15,3.33,3,3.27S162.69,191.58,162.63,189.8Z"/><path class="cls-1" d="M165.68,192.92c.8-.22,1.25-.83,1.36-3.43l.18-4.31,6-.53.65,7.48,1-.09.3,3.39-1.35.11-.19-2.2-6.55.57.2,2.21-1.35.12Zm2.72-3.38c-.07,1.65-.4,2.6-1,3.15l5.15-.45L172,186l-3.5.31Z"/><path class="cls-1" d="M182.63,192.18l-.14-1a3.74,3.74,0,0,1-2.68,1.59,2.9,2.9,0,0,1-3.42-2.42,2.85,2.85,0,0,1,2.62-3.26,3.61,3.61,0,0,1,3,.77l-.21-1.55c-.17-1.16-1.19-1.68-2.44-1.51a3.45,3.45,0,0,0-2.46,1.57l-.76-.84a4.56,4.56,0,0,1,3.24-1.91c1.82-.26,3.45.35,3.74,2.43L184,192Zm-.26-1.82-.22-1.62a2.94,2.94,0,0,0-2.53-.74,1.91,1.91,0,1,0,.54,3.76A2.87,2.87,0,0,0,182.37,190.36Z"/><path class="cls-1" d="M187,191.48,185.37,183l4.7-.92a2.2,2.2,0,0,1,2.83,1.72,2,2,0,0,1-1,2.21,2.22,2.22,0,0,1,2,1.79,2.28,2.28,0,0,1-2,2.8Zm4.54-7.27a1.17,1.17,0,0,0-1.51-1l-3.15.61.47,2.41,3.15-.62A1.17,1.17,0,0,0,191.58,184.21Zm.87,3.65a1.31,1.31,0,0,0-1.63-1.06l-3.2.62.51,2.64,3.2-.63A1.26,1.26,0,0,0,192.45,187.86Z"/><path class="cls-1" d="M202.47,188.08l-.24-1a3.75,3.75,0,0,1-2.5,1.87,2.89,2.89,0,0,1-3.65-2.05,2.84,2.84,0,0,1,2.25-3.51,3.61,3.61,0,0,1,3.08.45l-.38-1.52a1.92,1.92,0,0,0-2.57-1.25,3.46,3.46,0,0,0-2.29,1.82l-.84-.75a4.53,4.53,0,0,1,3-2.24c1.78-.45,3.46,0,4,2l1.45,5.8ZM202,186.3l-.4-1.58a2.92,2.92,0,0,0-2.58-.47,2,2,0,0,0-1.61,2.37,1.93,1.93,0,0,0,2.53,1.31A2.89,2.89,0,0,0,202,186.3Z"/><path class="cls-1" d="M208.21,186.47l-2.15-7.19-2.42.73-.34-1.14,6.14-1.84.34,1.14-2.43.73,2.16,7.18Z"/><path class="cls-1" d="M212.36,176.05l1.11,3.18,3.08-1.08a2.67,2.67,0,1,1,1.76,5L214,184.7l-2.87-8.2Zm1.51,4.3,1,2.78,2.94-1a1.48,1.48,0,1,0-1-2.79Z"/><path class="cls-1" d="M229.43,170.74l-1.91-4.21,1.23-.55,1.9,4.19a2.8,2.8,0,0,1,1.52-2.35c1.67-.76,3.57.28,4.74,2.85s.71,4.7-1,5.46a2.76,2.76,0,0,1-2.78-.42l1.91,4.21-1.23.56-1.9-4.2a2.83,2.83,0,0,1-1.54,2.36c-1.67.76-3.57-.27-4.74-2.85s-.71-4.7,1-5.45A2.8,2.8,0,0,1,229.43,170.74Zm-2.51,4.49c.79,1.75,2.1,2.72,3.33,2.16a2.38,2.38,0,0,0,1.25-2.09l-1.62-3.57a2.39,2.39,0,0,0-2.4-.45C226.25,171.84,226.12,173.47,226.92,175.23Zm8.74-4c-.79-1.76-2.1-2.73-3.33-2.17a2.38,2.38,0,0,0-1.23,2.08l1.62,3.58a2.41,2.41,0,0,0,2.38.46C236.33,174.63,236.46,173,235.66,171.24Z"/><path class="cls-1" d="M239.91,173c.71-.38.71-1.45-.2-3.88l-1.54-4,5.33-2.86,4.11,7.65-1.19.64-3.55-6.61-3.09,1.66,1.19,3.06c1.19,3,.94,4.56-.53,5.35Z"/><path class="cls-1" d="M254.94,165.5l-.51-.84a3.73,3.73,0,0,1-1.84,2.52,2.89,2.89,0,0,1-4.09-.88,2.85,2.85,0,0,1,1.11-4,3.66,3.66,0,0,1,3.08-.48l-.81-1.34a1.92,1.92,0,0,0-2.83-.43,3.46,3.46,0,0,0-1.65,2.42l-1-.48a4.57,4.57,0,0,1,2.23-3c1.57-1,3.31-1,4.4.76l3.1,5.11Zm-.95-1.57-.85-1.4a3,3,0,0,0-2.61.32,1.91,1.91,0,1,0,2,3.25A2.91,2.91,0,0,0,254,163.93Z"/><path class="cls-1" d="M259.53,153.52l-3.93,2.64,4.18,6.23-1.12.75-4.85-7.21,5.05-3.4Z"/><path class="cls-1" d="M271.49,154l-4.1-5.46,1.84,7.16-.4.3-6.37-3.74,4.09,5.45-1.07.81-5.23-7,1.42-1.07,6,3.55-1.77-6.73,1.43-1.08,5.23,6.95Z"/><path class="cls-1" d="M279.17,147.69l-.64-.75a3.78,3.78,0,0,1-1.42,2.78,2.9,2.9,0,0,1-4.18-.24,2.84,2.84,0,0,1,.48-4.15,3.59,3.59,0,0,1,3-1l-1-1.2a1.92,1.92,0,0,0-2.86,0,3.45,3.45,0,0,0-1.26,2.64l-1.08-.31a4.57,4.57,0,0,1,1.72-3.34c1.41-1.19,3.11-1.54,4.47.07l3.85,4.56Zm-1.18-1.4L276.93,145a2.92,2.92,0,0,0-2.53.72,1.91,1.91,0,1,0,2.45,2.9A2.93,2.93,0,0,0,278,146.29Z"/><path class="cls-1" d="M282.52,144.77l-5.95-6.34,1-.92,2.47,2.63,3.31-3.1-2.48-2.64,1-.92,5.95,6.34-1,.92-2.66-2.83-3.31,3.1,2.66,2.84Z"/><path class="cls-1" d="M284.67,130.67l2.45,2.31,2.24-2.37a2.66,2.66,0,1,1,3.87,3.66l-3.16,3.35-6.32-6Zm3.32,3.12,2.14,2,2.14-2.27a1.48,1.48,0,1,0-2.15-2Zm8.1-2.55-6.32-6,.92-1,6.33,6Z"/><path class="cls-1" d="M63,199.92l3.47-8,4.39,1.91a2.2,2.2,0,0,1,1.35,3,2,2,0,0,1-2.08,1.26,2.22,2.22,0,0,1,.61,2.57,2.28,2.28,0,0,1-3.27,1.15Zm6.51.09a1.31,1.31,0,0,0-.74-1.79l-3-1.3-1.07,2.45,3,1.3A1.26,1.26,0,0,0,69.55,200Zm1.35-3.49a1.17,1.17,0,0,0-.69-1.66l-2.94-1.28-1,2.25,2.93,1.28A1.17,1.17,0,0,0,70.9,196.52Z"/><path class="cls-1" d="M77.07,205.74l4-11.32L85.62,196a3.62,3.62,0,1,1-2.41,6.82l-3.14-1.11-1.59,4.5Zm9.43-5.56a2.23,2.23,0,0,0-1.49-3l-3-1-1.53,4.31,3,1A2.24,2.24,0,0,0,86.5,200.18Z"/><path class="cls-1" d="M87.91,204.9a4.31,4.31,0,1,1,2.81,5.62A4.26,4.26,0,0,1,87.91,204.9ZM94.79,207c.51-1.69,0-3.5-1.8-4s-3.23.69-3.73,2.38,0,3.52,1.81,4.05S94.28,208.67,94.79,207Z"/><path class="cls-1" d="M98,207.84a4.29,4.29,0,0,1,5.31-3.37A3.7,3.7,0,0,1,106,206.7l-1.07.59a2.55,2.55,0,0,0-1.87-1.63,3,3,0,0,0-3.73,2.52c-.47,1.87.3,3.54,2.1,4a2.63,2.63,0,0,0,2.43-.56l.67,1a3.73,3.73,0,0,1-3.46.7A4.3,4.3,0,0,1,98,207.84Z"/><path class="cls-1" d="M106.73,210a4.29,4.29,0,0,1,5.16-3.6,3.73,3.73,0,0,1,2.82,2.12l-1,.63a2.58,2.58,0,0,0-1.94-1.55c-1.82-.37-3.23.79-3.62,2.68s.46,3.53,2.28,3.9a2.62,2.62,0,0,0,2.39-.67l.72,1a3.73,3.73,0,0,1-3.43.84A4.28,4.28,0,0,1,106.73,210Z"/><path class="cls-1" d="M115.43,216.15l1.35-8.59,1.34.21-1,6.56,5.53-5.85,1.32.21-1.35,8.58-1.33-.21,1-6.68-5.59,6Z"/><path class="cls-1" d="M125.62,217.68l.94-8.65,1.34.15-.72,6.6,5.25-6.11,1.32.15-.94,8.64-1.34-.14.73-6.73-5.3,6.23Z"/><path class="cls-1" d="M146.53,219.28l.3-7.5-4.53-.19-.3,7.51-1.35-.06.35-8.69,7.23.29-.35,8.69Z"/><path class="cls-1" d="M150.38,215.07a4.31,4.31,0,1,1,4.37,4.5A4.26,4.26,0,0,1,150.38,215.07Zm7.18-.12c0-1.76-1.08-3.33-2.93-3.3s-2.87,1.63-2.84,3.39,1.09,3.35,3,3.32S157.59,216.73,157.56,215Z"/><path class="cls-1" d="M172.17,218.53l-.58-7.48-4.52.35.58,7.48-1.35.11-.67-8.67,7.22-.56.67,8.67Z"/><path class="cls-1" d="M175.53,213.87a4.31,4.31,0,1,1,4.84,4A4.25,4.25,0,0,1,175.53,213.87Zm7.12-.9c-.22-1.75-1.43-3.19-3.27-3s-2.68,1.93-2.46,3.68,1.46,3.21,3.29,3S182.87,214.74,182.65,213Z"/><path class="cls-1" d="M186,215.79c.77-.28,1.17-.93,1.06-3.53l-.19-4.31,6-1,1.29,7.39,1-.17.59,3.35-1.33.23-.39-2.18-6.47,1.14.39,2.18-1.33.23Zm2.42-3.6c.07,1.65-.18,2.63-.71,3.23l5.08-.89-1.09-6.23-3.45.61Z"/><path class="cls-1" d="M203.2,213.54l-1.66-7.33-4.42,1,1.65,7.33-1.32.29-1.91-8.48,7.06-1.6,1.91,8.49Z"/><path class="cls-1" d="M207.47,212.5l-2.31-8.38,1.3-.36,1.77,6.4,2.62-7.62,1.28-.35,2.31,8.38-1.3.36-1.8-6.52-2.62,7.74Z"/><path class="cls-1" d="M215.53,205.69a4.3,4.3,0,0,1,2.71-5.68,3.74,3.74,0,0,1,3.5.45l-.6,1.07a2.59,2.59,0,0,0-2.46-.39c-1.76.57-2.42,2.28-1.82,4.12s2.14,2.84,3.9,2.27a2.65,2.65,0,0,0,1.76-1.77l1.11.51a3.69,3.69,0,0,1-2.56,2.42A4.29,4.29,0,0,1,215.53,205.69Z"/><path class="cls-1" d="M231.68,204.67l-4.3-2.55-.85,1.83.87,2.33-1.26.47-3-8.14,1.26-.47,1.62,4.33,2.66-5.93,1.6-.6L228,201l5.29,3.09Z"/><path class="cls-1" d="M232.89,199.53a4.34,4.34,0,0,1,2.15-5.87c2.41-1,4.64.24,5.67,2.63l.14.32-6.47,2.77a3.05,3.05,0,0,0,4.06,1.53,3.79,3.79,0,0,0,2-2.06l.95.55a4.75,4.75,0,0,1-2.65,2.59A4.32,4.32,0,0,1,232.89,199.53Zm2.57-4.84a2.9,2.9,0,0,0-1.47,3.78l5.24-2.25A2.82,2.82,0,0,0,235.46,194.69Z"/></svg>