<?xml version="1.0" encoding="utf-8"?>
<!-- Generator: Adobe Illustrator 24.0.3, SVG Export Plug-In . SVG Version: 6.00 Build 0)  -->
<svg version="1.1" id="Layer_1" xmlns="http://www.w3.org/2000/svg" xmlns:xlink="http://www.w3.org/1999/xlink" x="0px" y="0px"
	 viewBox="0 0 314.5 297.3" style="enable-background:new 0 0 314.5 297.3;" xml:space="preserve">
<style type="text/css">
	.st0{fill:#9588C8;}
	.st1{fill:none;}
</style>
<title>cnews-text</title>
<g>
	<path class="st0" d="M17.1,215.4l-1.1-1l8.2-8.7l3.5,3.3c0.8,0.7,1.3,1.6,1.3,2.6c0,1-0.3,1.9-1,2.6c-0.6,0.7-1.5,1.1-2.5,1.2
		c-1,0-2-0.4-2.7-1.1l-2.4-2.3L17.1,215.4z M23.6,213.1c0.4,0.5,1.1,0.7,1.7,0.7c0.6,0,1.2-0.3,1.6-0.7c0.4-0.4,0.7-1,0.6-1.6
		c0-0.6-0.3-1.2-0.8-1.6l-2.3-2.2l-3.1,3.3L23.6,213.1z"/>
	<path class="st0" d="M29.8,225.2c-2.4,0.2-4.5-1.5-4.8-3.9c0,0,0,0,0-0.1c0-1.2,0.4-2.4,1.2-3.2c0.7-0.9,1.8-1.5,3-1.7
		c2.4-0.2,4.6,1.6,4.8,4c0,0,0,0,0,0C34,222.8,32.3,224.9,29.8,225.2L29.8,225.2z M26.4,221.2c0,1.5,1.2,2.8,2.7,2.8
		c0.2,0,0.3,0,0.5,0c0.8-0.2,1.6-0.6,2.1-1.3c0.6-0.6,0.9-1.4,1-2.3c0-0.8-0.3-1.6-1-2.1c-0.6-0.6-1.4-0.8-2.2-0.6
		C27.8,218,26.6,219.4,26.4,221.2L26.4,221.2z"/>
	<path class="st0" d="M35,231c-1-0.7-1.6-1.7-1.7-2.9c-0.1-2.5,1.6-4.7,4-5.2c1.2-0.2,2.4,0.1,3.3,0.9c1,0.7,1.6,1.9,1.6,3.1
		l-1.2,0.1c0.1-0.9-0.3-1.7-1.1-2.2c-0.6-0.5-1.5-0.8-2.3-0.6c-0.9,0.2-1.6,0.7-2.1,1.4c-0.6,0.7-0.9,1.5-0.8,2.4
		c0.1,0.8,0.5,1.6,1.1,2.1c0.7,0.5,1.6,0.7,2.4,0.4l0.2,1.2C37.2,232,35.9,231.8,35,231z"/>
	<path class="st0" d="M42.4,236.4c-1-0.6-1.7-1.7-1.8-2.9c-0.2-1.2,0.2-2.4,0.9-3.4c0.7-1,1.7-1.7,2.8-2c1.2-0.2,2.4,0,3.3,0.7
		c1,0.7,1.7,1.8,1.8,3.1l-1.2,0.2c0-0.9-0.4-1.7-1.2-2.2c-0.7-0.5-1.5-0.7-2.3-0.5c-1.7,0.6-2.9,2.2-2.8,4c0.1,0.8,0.6,1.5,1.2,2
		c0.7,0.5,1.6,0.6,2.5,0.3l0.3,1.2C44.7,237.4,43.4,237.1,42.4,236.4z"/>
	<path class="st0" d="M48.1,240l-1.1-0.7l4.6-7.4l1.1,0.7l-3.5,5.6l7.4-3.2l1.1,0.7l-4.6,7.4l-1.1-0.7l3.6-5.7L48.1,240z"/>
	<path class="st0" d="M57,245.4l-1.4-0.8l3.7-1.9c-0.5-0.4-0.9-0.9-1-1.5c-0.1-0.6,0-1.3,0.3-1.9c0.3-0.6,0.9-1.1,1.6-1.3
		c0.7-0.2,1.5-0.1,2.1,0.3l4,2.2l-4.2,7.6l-1.2-0.7l1.6-2.9l-2.1-1.1L57,245.4z M60.5,242.1l2.7,1.5l1.5-2.5l-2.7-1.5
		c-0.7-0.4-1.7-0.1-2.1,0.6c-0.2,0.3-0.2,0.7-0.1,1.1C59.8,241.6,60.1,241.9,60.5,242.1z"/>
	<path class="st0" d="M66.1,250.2l-1.2-0.6l3.8-7.8l1.2,0.6l-1.6,3.2l4.1,2l1.6-3.2l1.2,0.6l-3.8,7.8l-1.2-0.6l1.7-3.5l-4.1-2
		L66.1,250.2z"/>
	<path class="st0" d="M80.4,256.8l-1.2-0.5l0.4-0.9c-1,0.5-2.1,0.5-3.1,0c-0.7-0.3-1.3-0.8-1.7-1.6c-0.4-0.7-0.4-1.6,0-2.3
		c0.3-0.8,0.9-1.3,1.7-1.6c0.7-0.2,1.6-0.2,2.3,0.2c1,0.4,1.8,1.2,2.2,2.2l0.6-1.4c0.2-0.5,0.2-1,0-1.5c-0.3-0.5-0.8-0.9-1.3-1.1
		c-0.9-0.4-2-0.4-2.9,0.1l-0.2-1.1c1.2-0.5,2.6-0.5,3.8,0.1c0.8,0.3,1.5,0.9,2,1.6c0.4,0.8,0.4,1.7,0,2.4L80.4,256.8z M77.2,254.6
		c0.8,0.4,1.8,0.4,2.6,0l0.7-1.5c-0.2-0.9-0.9-1.6-1.8-1.9c-0.5-0.2-1.1-0.3-1.6-0.1c-1,0.3-1.5,1.4-1.1,2.4c0,0,0,0.1,0.1,0.1
		C76.3,254.1,76.7,254.4,77.2,254.6z"/>
	<path class="st0" d="M91.6,261.1l-1.3-0.5l2.3-6.4l-5,5.4l-0.5-0.2l-0.3-7.4l-2.3,6.4l-1.3-0.5l3-8.2l1.7,0.6l0.3,7l4.7-5.1
		l1.7,0.6L91.6,261.1z"/>
	<path class="st0" d="M100.5,263.8l-1.3-0.4l2.3-8.4l1.3,0.4l-1,3.5l4.4,1.2l1-3.5l1.3,0.4l-2.4,8.4l-1.3-0.4l1-3.8l-4.3-1.2
		L100.5,263.8z"/>
	<path class="st0" d="M115.8,267.6l-1.3-0.3l0.2-1c-0.9,0.6-2,0.8-3.1,0.5c-0.8-0.2-1.4-0.6-1.9-1.2c-0.9-1.3-0.6-3.1,0.8-4
		c0,0,0.1-0.1,0.1-0.1c0.7-0.4,1.5-0.4,2.2-0.3c1.1,0.2,2,0.8,2.6,1.8l0.3-1.5c0.1-0.5,0-1-0.3-1.4c-0.4-0.4-0.9-0.7-1.4-0.8
		c-1-0.2-2,0-2.9,0.6l-0.4-1c1.1-0.7,2.4-1,3.7-0.6c0.9,0.2,1.6,0.6,2.2,1.2c0.5,0.7,0.7,1.5,0.4,2.4L115.8,267.6z M112.3,266.1
		c0.9,0.3,1.9,0.1,2.6-0.5l0.3-1.6c-0.4-0.9-1.2-1.4-2.1-1.6c-0.5-0.1-1.1-0.1-1.6,0.2c-0.5,0.3-0.8,0.7-0.9,1.2
		c-0.1,0.5,0,1,0.3,1.4C111.3,265.7,111.7,266,112.3,266.1z"/>
	<path class="st0" d="M120.1,259.6l1.3,0.2l-0.4,2.4c-0.2,0.6-0.1,1.2,0.3,1.7c0.4,0.4,1,0.7,1.6,0.7c0.8,0.2,1.6,0.1,2.3-0.1l0.7-4
		l1.3,0.2l-1.5,8.6l-1.3-0.2l0.6-3.5c-0.9,0.2-1.8,0.3-2.7,0.1c-0.9-0.1-1.7-0.5-2.3-1.1c-0.5-0.7-0.6-1.5-0.4-2.3L120.1,259.6z"/>
	<path class="st0" d="M135.5,270.7l-1.3-0.2l0.1-1c-0.8,0.7-1.9,1-3,0.8c-0.8-0.1-1.5-0.4-2-1c-1-1.2-0.9-3,0.4-4.1
		c0,0,0.1-0.1,0.1-0.1c0.6-0.4,1.4-0.6,2.2-0.5c1.1,0.1,2.1,0.6,2.7,1.5l0.2-1.6c0.1-0.5-0.1-1-0.4-1.4c-0.4-0.4-0.9-0.6-1.5-0.7
		c-1-0.1-2,0.2-2.8,0.9l-0.5-1c1-0.8,2.3-1.2,3.6-1c0.9,0.1,1.7,0.4,2.3,1c0.6,0.6,0.8,1.5,0.7,2.3L135.5,270.7z M131.9,269.5
		c0.9,0.2,1.9-0.1,2.5-0.8l0.2-1.6c-0.5-0.8-1.3-1.3-2.2-1.4c-0.6-0.1-1.1,0-1.6,0.3c-0.8,0.6-1,1.8-0.4,2.6c0,0,0.1,0.1,0.1,0.1
		C130.8,269.2,131.3,269.4,131.9,269.5z"/>
	<path class="st0" d="M137.6,271.1l0.1-1.1c0.4,0,0.8-0.2,1.1-0.7c0.4-0.8,0.7-1.7,0.8-2.7l0.9-4.2l6,0.4l-0.6,8.7l-1.4-0.1l0.5-7.5
		l-3.5-0.2l-0.6,3.2c-0.2,1.2-0.6,2.3-1.2,3.4C139.1,270.8,138.3,271.2,137.6,271.1z"/>
	<path class="st0" d="M150.2,271.6h-1.3l0.2-8.7h1.4l-0.1,6.6l4.7-6.6h1.3l-0.2,8.7h-1.4l0.1-6.8L150.2,271.6z"/>
	<path class="st0" d="M167.9,271.6c-1.2,0.1-2.3-0.3-3.2-1.1c-0.9-0.8-1.4-2-1.4-3.2c-0.1-1.2,0.2-2.4,1-3.3
		c0.8-0.9,1.9-1.4,3.1-1.5c1.2-0.1,2.5,0.4,3.3,1.3l-0.9,0.9c-0.5-0.7-1.4-1.1-2.3-1c-0.8,0-1.6,0.4-2.1,1.1c-1,1.5-0.9,3.5,0.3,4.8
		c0.6,0.6,1.4,0.9,2.2,0.8c0.9,0,1.7-0.5,2.1-1.2l1,0.8C170.3,271,169.1,271.6,167.9,271.6z"/>
	<path class="st0" d="M172.5,273.3l-0.4-3.3c0.5-0.1,0.8-0.5,1-0.9c0.3-0.8,0.4-1.7,0.4-2.5l0.1-4.3l6-0.6l0.8,7.5l1-0.1l0.4,3.4
		l-1.4,0.1l-0.2-2.2l-6.5,0.7l0.2,2.2L172.5,273.3z M174.9,263.3l-0.1,3.3c0.1,1.1-0.3,2.3-0.9,3.2l5.1-0.5l-0.6-6.3L174.9,263.3z"
		/>
	<path class="st0" d="M190.4,268.8l-1.3,0.2l-0.1-1c-0.6,0.9-1.6,1.5-2.7,1.6c-0.8,0.1-1.6,0-2.2-0.4c-0.7-0.4-1.1-1.1-1.2-1.9
		c-0.2-0.8,0-1.6,0.6-2.2c0.5-0.6,1.2-1,2-1.1c1.1-0.2,2.2,0,3,0.7l-0.2-1.5c-0.1-0.5-0.4-1-0.8-1.2c-0.5-0.3-1.1-0.3-1.6-0.2
		c-1,0.2-1.9,0.7-2.4,1.6l-0.8-0.8c0.7-1.1,1.9-1.8,3.2-2c0.9-0.2,1.7-0.1,2.5,0.3c0.7,0.4,1.2,1.2,1.3,2L190.4,268.8z M186.6,268.7
		c0.9-0.1,1.8-0.6,2.2-1.4l-0.2-1.6c-0.7-0.6-1.6-0.9-2.5-0.7c-0.6,0.1-1.1,0.3-1.4,0.8c-0.3,0.4-0.5,0.9-0.4,1.5
		c0.1,0.5,0.4,1,0.8,1.2C185.5,268.7,186.1,268.8,186.6,268.7z"/>
	<path class="st0" d="M198.2,267.3l-4.8,1l-1.8-8.5l4.7-1c0.6-0.2,1.3-0.1,1.9,0.2c0.5,0.3,0.9,0.8,1,1.5c0.1,0.4,0.1,0.9-0.1,1.3
		c-0.2,0.4-0.5,0.7-0.8,0.9c0.5,0,0.9,0.2,1.3,0.5c0.4,0.3,0.6,0.8,0.7,1.2c0.2,0.6,0,1.3-0.3,1.8
		C199.5,266.9,198.9,267.2,198.2,267.3z M196.9,262.4c0.3,0,0.7-0.2,0.9-0.5c0.3-0.6,0.2-1.3-0.4-1.7c-0.3-0.2-0.7-0.2-1-0.1
		l-3.1,0.7l0.5,2.4L196.9,262.4z M197.7,266.2c0.4-0.1,0.7-0.3,0.9-0.6c0.2-0.3,0.3-0.7,0.2-1c-0.1-0.3-0.3-0.7-0.6-0.9
		c-0.3-0.2-0.7-0.3-1.1-0.2l-3.2,0.7l0.5,2.6L197.7,266.2z"/>
	<path class="st0" d="M210.1,264.4l-1.3,0.3l-0.2-1c-0.5,1-1.4,1.7-2.5,1.9c-0.8,0.2-1.5,0.1-2.2-0.2c-0.7-0.4-1.2-1-1.4-1.8
		c-0.2-0.8-0.1-1.6,0.4-2.3c0.5-0.6,1.1-1.1,1.9-1.3c1-0.3,2.2-0.2,3.1,0.4l-0.4-1.5c-0.1-0.5-0.5-0.9-0.9-1.1
		c-0.5-0.2-1.1-0.2-1.7-0.1c-1,0.3-1.8,0.9-2.3,1.8l-0.9-0.8c0.6-1.1,1.7-2,3-2.3c0.8-0.3,1.7-0.2,2.5,0.1c0.8,0.4,1.3,1.1,1.5,1.9
		L210.1,264.4z M206.3,264.6c0.9-0.2,1.7-0.8,2-1.6l-0.4-1.6c-0.7-0.6-1.7-0.7-2.6-0.4c-0.5,0.1-1,0.4-1.4,0.9
		c-0.3,0.4-0.4,1-0.2,1.5c0.1,0.5,0.5,0.9,0.9,1.2C205.2,264.8,205.8,264.8,206.3,264.6L206.3,264.6z"/>
	<path class="st0" d="M215.9,262.7l-1.3,0.4l-2.2-7.2l-2.4,0.7l-0.4-1.1l6.1-1.9l0.4,1.1l-2.4,0.8L215.9,262.7z"/>
	<path class="st0" d="M217.4,253.1l1.3-0.5l1.1,3.2l3.1-1.1c0.7-0.3,1.5-0.3,2.1,0.1c1.3,0.7,1.8,2.2,1.3,3.6
		c-0.3,0.7-0.9,1.2-1.6,1.4l-4.3,1.5L217.4,253.1z M223.1,255.9l-2.9,1l1,2.8l2.9-1c0.8-0.3,1.2-1.2,0.9-2c-0.1-0.3-0.4-0.6-0.7-0.8
		C223.9,255.8,223.5,255.7,223.1,255.9L223.1,255.9z"/>
	<path class="st0" d="M235.1,255.6l-1.2,0.6l-3.5-7.9l1.2-0.6l1.5,3.3l4.1-1.8l-1.5-3.3l1.2-0.6l3.5,7.9l-1.2,0.6l-1.6-3.6l-4.1,1.9
		L235.1,255.6z"/>
	<path class="st0" d="M249.4,248.8l-1.2,0.6l-0.4-0.9c-0.3,1-1,1.9-2,2.4c-0.7,0.4-1.5,0.5-2.2,0.3c-1.5-0.4-2.4-2-2-3.6
		c0-0.1,0-0.1,0.1-0.2c0.3-0.7,0.9-1.3,1.6-1.6c0.9-0.5,2.1-0.6,3.1-0.2l-0.7-1.4c-0.2-0.5-0.6-0.8-1.1-0.9c-0.6-0.1-1.1,0-1.6,0.3
		c-0.9,0.5-1.6,1.3-1.8,2.3l-1-0.6c0.4-1.3,1.3-2.3,2.4-2.9c0.8-0.4,1.6-0.6,2.5-0.4c0.8,0.2,1.5,0.8,1.8,1.6L249.4,248.8z
		 M245.7,249.8c0.8-0.4,1.5-1.1,1.6-2l-0.7-1.5c-0.8-0.4-1.8-0.4-2.6,0.1c-0.5,0.2-0.9,0.7-1.1,1.2c-0.2,0.5-0.2,1,0.1,1.5
		c0.2,0.5,0.7,0.8,1.2,0.9C244.7,250.2,245.2,250.1,245.7,249.8L245.7,249.8z"/>
	<path class="st0" d="M258.4,243.8l-1.2,0.7l-3.7-6.5l-3.9,2.2l3.7,6.5l-1.2,0.7l-4.3-7.6l6.3-3.6L258.4,243.8z"/>
	<path class="st0" d="M264.8,240.1c-1,0.7-2.2,0.8-3.3,0.3l2.5,3.9l-1.1,0.7l-6.5-10.1l1.1-0.7l0.7,1.1c0.1-1.2,0.7-2.2,1.6-2.9
		c0.9-0.6,2-0.8,3-0.5c1.1,0.4,2.1,1.2,2.7,2.2c0.7,1,1,2.2,0.9,3.4C266.3,238.6,265.7,239.5,264.8,240.1z M263.9,239.2
		c0.7-0.4,1.1-1.1,1.2-1.9c0.1-0.9-0.2-1.7-0.7-2.4c-0.4-0.8-1.1-1.3-1.9-1.6c-0.7-0.3-1.6-0.1-2.2,0.3c-0.4,0.3-0.8,0.7-1,1.2
		c-0.2,0.4-0.4,0.9-0.4,1.4l2.1,3.3c0.5,0.2,1,0.3,1.5,0.2C262.9,239.7,263.4,239.5,263.9,239.2L263.9,239.2z"/>
	<path class="st0" d="M275,231.3c-0.4,2.4-2.6,4-5,3.7c0,0-0.1,0-0.1,0c-2.4-0.6-4-2.8-3.8-5.3c0.4-2.4,2.6-4,5-3.7c0,0,0,0,0.1,0
		C273.6,226.7,275.2,228.9,275,231.3L275,231.3z M270.3,233.7c1.5,0.4,3-0.5,3.4-2c0-0.1,0.1-0.3,0.1-0.5c0-0.9-0.2-1.7-0.8-2.4
		c-0.5-0.7-1.2-1.2-2-1.5c-0.8-0.2-1.6-0.1-2.3,0.4c-0.7,0.4-1.1,1.2-1.1,2c0,0.9,0.2,1.7,0.8,2.4
		C268.7,232.9,269.4,233.5,270.3,233.7z"/>
	<path class="st0" d="M284.6,225.2l-1.4,1.1l-4.9-1.1l-0.2,2l1.5,1.9l-1,0.8l-5.4-6.8l1.1-0.8l2.9,3.6l0.7-6.5l1.3-1.1l-0.5,5.5
		L284.6,225.2z"/>
	<path class="st0" d="M291.2,219.4l-1,0.9l-0.7-0.8c0,1.1-0.5,2.1-1.4,2.8c-0.6,0.5-1.3,0.8-2.1,0.8c-0.8,0-1.6-0.4-2.1-1
		c-0.6-0.6-0.8-1.4-0.7-2.2c0.1-0.8,0.5-1.5,1.1-2c0.8-0.8,1.9-1.1,3-1l-1-1.2c-0.3-0.4-0.8-0.6-1.4-0.6c-0.6,0-1.1,0.3-1.5,0.7
		c-0.8,0.7-1.2,1.6-1.2,2.7l-1.1-0.3c0-1.3,0.6-2.5,1.6-3.4c0.6-0.6,1.4-1,2.3-1.1c0.8,0,1.6,0.3,2.2,1L291.2,219.4z M287.9,221.3
		c0.7-0.6,1.2-1.5,1.1-2.4l-1.1-1.2c-0.9-0.2-1.9,0.1-2.5,0.8c-0.4,0.3-0.7,0.9-0.8,1.4c-0.1,1,0.7,1.9,1.7,2c0,0,0.1,0,0.1,0
		C287,221.9,287.5,221.7,287.9,221.3L287.9,221.3z"/>
	<path class="st0" d="M295.5,215.3l-1,0.9l-5.2-5.4l-1.8,1.8l-0.8-0.9l4.6-4.4l0.8,0.9l-1.8,1.8L295.5,215.3z"/>
</g>
<g>
	<path class="st0" d="M0.9,234.5L0,233.6l5.9-6.3l1,0.9l-4.6,4.9l7.9-1.7l1,0.9l-6,6.3l-1-0.9l4.6-4.9L0.9,234.5z"/>
	<path class="st0" d="M17.8,238l-0.8,0.9l-3.6-3.1l-4.9,5.7l-1-0.9l5.7-6.6L17.8,238z"/>
	<path class="st0" d="M16.9,248.7c-0.9-0.7-1.4-1.8-1.3-3l-2.9,3.6l-1.1-0.8l7.5-9.4l1,0.8l-0.8,1c0.5-0.2,1.1-0.2,1.7-0.1
		c1.7,0.3,2.9,1.7,3,3.4c0,1.2-0.4,2.4-1.2,3.3c-0.7,1-1.7,1.7-2.9,1.9C18.8,249.7,17.7,249.4,16.9,248.7z M17.4,247.5
		c0.6,0.5,1.4,0.7,2.2,0.5c0.8-0.2,1.6-0.7,2.1-1.4c0.6-0.7,0.9-1.5,0.9-2.4c0-0.8-0.4-1.5-1-2c-0.4-0.3-0.9-0.5-1.4-0.6
		c-0.5-0.1-1-0.1-1.5,0.1l-2.5,3.1c-0.1,0.5,0,1,0.2,1.5C16.7,246.8,17,247.2,17.4,247.5z"/>
	<path class="st0" d="M28.3,255.6c-2.4,0.4-4.6-1.2-5.1-3.6c0,0,0-0.1,0-0.1c-0.1-1.2,0.3-2.4,1-3.3c0.7-1,1.7-1.7,2.9-1.9
		c2.4-0.4,4.7,1.3,5,3.7C32.3,252.8,30.7,255,28.3,255.6L28.3,255.6z M24.6,251.8c0.1,1.5,1.4,2.7,3,2.5c0.2,0,0.3,0,0.5-0.1
		c0.8-0.2,1.5-0.8,2-1.5c0.5-0.7,0.8-1.5,0.8-2.4c0-0.8-0.5-1.6-1.1-2c-0.6-0.5-1.5-0.7-2.3-0.4c-0.8,0.2-1.5,0.8-2,1.5
		C24.8,250.1,24.5,251,24.6,251.8z"/>
	<path class="st0" d="M34.8,261.3l-4.1-2.7l4.8-7.3l4,2.6c0.6,0.3,1,0.9,1.2,1.5c0.1,0.6,0,1.2-0.3,1.7c-0.2,0.4-0.6,0.7-1,0.8
		c-0.4,0.1-0.8,0.1-1.2,0c0.3,0.3,0.5,0.8,0.5,1.3c0,0.5-0.1,1-0.3,1.4c-0.3,0.5-0.9,0.9-1.5,1.1C36.1,261.8,35.4,261.7,34.8,261.3z
		 M35.2,260.1c0.3,0.2,0.6,0.3,1,0.3c0.4-0.1,0.7-0.3,0.8-0.6c0.2-0.3,0.3-0.7,0.2-1c-0.1-0.4-0.3-0.7-0.6-0.9l-2.7-1.8l-1.5,2.2
		L35.2,260.1z M37.3,256.9c0.3,0.2,0.6,0.3,1,0.2c0.3-0.1,0.6-0.3,0.8-0.5c0.2-0.3,0.3-0.6,0.2-1c-0.1-0.3-0.3-0.6-0.6-0.8l-2.7-1.8
		l-1.3,2L37.3,256.9z"/>
	<path class="st0" d="M43.8,256.8l1.2,0.7l-1.7,2.9l2.9,1.6c0.7,0.3,1.2,0.9,1.4,1.7c0.4,1.4-0.5,2.9-1.9,3.3
		c-0.7,0.2-1.5,0.1-2.1-0.3l-4-2.3L43.8,256.8z M45.4,262.9l-2.7-1.6l-1.5,2.5l2.7,1.6c0.3,0.2,0.8,0.3,1.2,0.2
		c0.4-0.1,0.7-0.4,0.9-0.7c0.2-0.3,0.3-0.7,0.2-1.1C46,263.4,45.7,263.1,45.4,262.9z M48.2,269.3l-1.2-0.7l4.4-7.5l1.2,0.7
		L48.2,269.3z"/>
	<path class="st0" d="M54.3,272.8c-1.1-0.5-1.9-1.4-2.3-2.6c-0.3-1.2-0.2-2.4,0.4-3.5c0.5-1.1,1.4-1.9,2.6-2.3
		c1.1-0.4,2.3-0.3,3.3,0.2c1.1,0.5,1.8,1.4,2.1,2.6c0.3,1.2,0.1,2.4-0.5,3.5l-0.2,0.3l-6.3-3.2c-0.3,0.7-0.4,1.6-0.1,2.3
		c0.3,0.8,0.8,1.4,1.6,1.8c0.9,0.5,1.9,0.6,2.9,0.2l0.2,1.1C56.8,273.6,55.5,273.4,54.3,272.8z M59.1,269.5c0.3-0.7,0.4-1.4,0.2-2.1
		c-0.2-0.8-0.7-1.4-1.5-1.8c-0.7-0.4-1.5-0.5-2.2-0.1c-0.7,0.3-1.3,0.8-1.6,1.4L59.1,269.5z"/>
	<path class="st0" d="M71.3,280.4l-1.2-0.5l3-6.9l-4.2-1.8l-3,6.9l-1.2-0.5l3.4-8l6.6,2.9L71.3,280.4z"/>
	<path class="st0" d="M78.1,283.3c-1.1-0.4-1.9-1.3-2.2-2.5l-1.6,4.3l-1.3-0.5l4.2-11.2l1.3,0.5l-0.5,1.2c0.5-0.3,1-0.5,1.6-0.6
		c0.6-0.1,1.2,0,1.7,0.2c1,0.3,1.8,1.1,2.2,2.1c0.4,1.1,0.3,2.4-0.2,3.5c-0.4,1.1-1.1,2.1-2.2,2.7C80.2,283.6,79.1,283.7,78.1,283.3
		z M78.1,282.1c0.7,0.3,1.6,0.2,2.2-0.2c1.5-1,2.1-2.8,1.7-4.5c-0.2-0.8-0.8-1.3-1.6-1.6c-0.5-0.2-1-0.2-1.6-0.2
		c-0.5,0.1-1,0.2-1.4,0.5l-1.4,3.7c0.1,0.5,0.3,0.9,0.7,1.3C77.2,281.6,77.7,281.9,78.1,282.1z"/>
	<path class="st0" d="M85.4,285.6l-1.2-0.4l2.7-8.3l1.3,0.4l-2,6.3l6.4-4.9l1.3,0.4l-2.7,8.3l-1.3-0.4l2.1-6.4L85.4,285.6z"/>
	<path class="st0" d="M97.6,289.5c-1.2-0.3-2.1-1-2.7-2.1c-0.5-1.1-0.6-2.3-0.3-3.5c0.3-1.2,1-2.2,2-2.8c1-0.6,2.2-0.8,3.4-0.4
		c1.2,0.3,2.2,1.1,2.7,2.3l-1.1,0.6c-0.3-0.8-1-1.5-1.8-1.7c-0.8-0.3-1.7-0.1-2.4,0.3c-1.4,1.1-1.9,3-1.3,4.7c0.4,0.8,1,1.3,1.8,1.5
		c0.8,0.3,1.8,0.1,2.4-0.5l0.7,1C100,289.7,98.7,289.9,97.6,289.5z"/>
	<path class="st0" d="M105.7,291.4l-1.3-0.3l1.8-7.3l-2.4-0.6l0.3-1.1l6.2,1.5l-0.3,1.2l-2.5-0.6L105.7,291.4z"/>
	<path class="st0" d="M116.8,293.7l-1.3-0.3l0.2-1c-0.9,0.6-2,0.9-3.1,0.6c-0.8-0.1-1.5-0.6-1.9-1.2c-0.5-0.6-0.7-1.5-0.5-2.2
		c0.1-0.8,0.6-1.5,1.3-1.9c0.7-0.4,1.5-0.5,2.2-0.3c1.1,0.1,2,0.8,2.6,1.7l0.3-1.5c0.1-0.5,0-1-0.3-1.4c-0.4-0.4-0.9-0.7-1.5-0.8
		c-1-0.2-2,0.1-2.8,0.7l-0.4-1c1.1-0.8,2.4-1,3.7-0.7c0.9,0.1,1.7,0.5,2.2,1.2c0.5,0.7,0.7,1.5,0.5,2.4L116.8,293.7z M113.3,292.2
		c0.9,0.2,1.9,0,2.6-0.6l0.3-1.6c-0.4-0.8-1.2-1.4-2.2-1.5c-0.5-0.1-1.1,0-1.6,0.2c-0.5,0.3-0.8,0.7-0.8,1.2c-0.1,0.5,0,1,0.3,1.4
		C112.2,291.9,112.7,292.2,113.3,292.2z"/>
	<path class="st0" d="M124.6,294.9l-4.8-0.7l1.3-8.6l4.7,0.7c0.7,0.1,1.3,0.4,1.7,0.9c0.4,0.5,0.5,1.1,0.4,1.7
		c-0.1,0.5-0.3,0.9-0.6,1.2c-0.3,0.3-0.7,0.5-1.1,0.6c0.4,0.2,0.8,0.5,1,0.9c0.2,0.4,0.3,0.9,0.2,1.4c-0.1,0.6-0.4,1.2-0.9,1.6
		C126,294.9,125.3,295.1,124.6,294.9z M124.5,293.7c0.4,0.1,0.7,0,1.1-0.2c0.3-0.2,0.5-0.5,0.5-0.9c0.1-0.4,0-0.7-0.2-1
		c-0.2-0.3-0.6-0.5-1-0.5l-3.2-0.5l-0.4,2.6L124.5,293.7z M125,289.9c0.3,0.1,0.7,0,1-0.2c0.3-0.2,0.4-0.5,0.5-0.8
		c0.1-0.3,0-0.7-0.2-1c-0.2-0.3-0.5-0.4-0.9-0.5l-3.2-0.5l-0.4,2.4L125,289.9z"/>
	<path class="st0" d="M137.6,296.5l-1.7-0.2l-2.7-4.2l-1.6,1.3l-0.3,2.5l-1.3-0.1l0.9-8.6l1.3,0.1l-0.5,4.6l5-4.1l1.7,0.2l-4.2,3.5
		L137.6,296.5z"/>
	<path class="st0" d="M140.9,296.7l-1.3-0.1l0.5-8.7l1.4,0.1l-0.4,6.6l4.9-6.4l1.3,0.1l-0.5,8.7l-1.4-0.1l0.4-6.8L140.9,296.7z"/>
	<path class="st0" d="M166.5,297.1H165l-0.2-9.9l-3.9,10h-0.6l-4.2-9.8l0.2,9.9h-1.5l-0.2-12h2.1l3.9,9l3.6-9.1h2.1L166.5,297.1z"/>
	<path class="st0" d="M169.6,286.9c-0.2,0-0.5-0.1-0.6-0.2c-0.2-0.2-0.3-0.4-0.3-0.6c0-0.2,0.1-0.5,0.2-0.7c0.2-0.2,0.4-0.3,0.6-0.3
		c0.5-0.1,0.9,0.3,1,0.8c0,0,0,0,0,0c0,0.2-0.1,0.5-0.2,0.6C170.1,286.8,169.9,286.9,169.6,286.9z M170.9,296.8l-1.4,0.1l-0.5-8.7
		l1.4-0.1L170.9,296.8z"/>
	<path class="st0" d="M177.7,296.5c-1.2,0.2-2.4-0.2-3.2-1c-1.8-1.7-2-4.5-0.6-6.5c0.7-0.9,1.8-1.5,3-1.6c1.2-0.2,2.5,0.3,3.3,1.2
		l-0.8,0.9c-0.6-0.7-1.4-1-2.3-0.9c-0.8,0-1.6,0.5-2.1,1.1c-0.5,0.7-0.7,1.6-0.6,2.5c0,0.9,0.4,1.7,1,2.3c0.6,0.6,1.4,0.9,2.3,0.8
		c0.9-0.1,1.7-0.6,2.1-1.3l1,0.8C180.1,295.8,178.9,296.4,177.7,296.5z"/>
	<path class="st0" d="M184.3,295.5l-1.3,0.2l-1.1-8.7l1.3-0.2l0.2,1.4c0.5-1,1.5-1.8,2.7-1.9l0.2,1.4c-0.2,0-0.4,0-0.5,0
		c-0.5,0.1-0.9,0.3-1.3,0.6c-0.4,0.3-0.7,0.6-0.9,1.1L184.3,295.5z"/>
	<path class="st0" d="M195.8,292.8c-1.4,2-4.1,2.4-6.1,1.1c0,0-0.1,0-0.1-0.1c-1.8-1.6-2.3-4.3-1-6.4c1.4-2,4.1-2.4,6.1-1
		c0,0,0,0,0,0C196.6,288,197.1,290.7,195.8,292.8L195.8,292.8z M190.5,292.8c0.6,0.6,1.4,0.8,2.2,0.6c0.8-0.1,1.5-0.6,1.9-1.3
		c0.8-1.6,0.5-3.5-0.8-4.7c-1.2-1-2.9-0.9-3.9,0.3c-0.1,0.1-0.2,0.3-0.3,0.4C188.9,289.6,189.2,291.5,190.5,292.8z"/>
	<path class="st0" d="M202.4,292.8c-1.3,0.3-2.6,0.1-3.7-0.6l0.5-1.1c0.4,0.3,0.9,0.5,1.4,0.6c0.6,0.1,1.1,0.1,1.7,0
		c0.5-0.1,1-0.3,1.4-0.7c0.3-0.3,0.4-0.8,0.3-1.2c-0.1-0.4-0.4-0.7-0.8-0.7c-0.5-0.1-0.9-0.2-1.4-0.2c-0.5,0-1.1,0-1.6-0.1
		c-0.5,0-1-0.2-1.5-0.5c-0.4-0.3-0.8-0.8-0.8-1.3c-0.1-0.7,0-1.4,0.5-1.9c0.6-0.6,1.3-1.1,2.2-1.2c1.2-0.3,2.4-0.1,3.4,0.6l-0.4,1
		c-0.8-0.6-1.8-0.8-2.8-0.5c-0.5,0.1-0.9,0.3-1.3,0.7c-0.3,0.3-0.4,0.7-0.3,1.1c0.1,0.4,0.4,0.6,0.7,0.7c0.5,0.1,0.9,0.2,1.4,0.2
		c0.5,0,1.1,0,1.6,0.1c0.5,0,1,0.2,1.5,0.5c0.5,0.3,0.8,0.8,0.9,1.4c0.1,0.7,0,1.4-0.5,2C204.1,292.2,203.2,292.7,202.4,292.8z"/>
	<path class="st0" d="M214.6,288.6c-1.2,2.1-3.9,2.8-6,1.6c0,0-0.1,0-0.1-0.1c-2-1.5-2.6-4.1-1.6-6.3c1.2-2.1,3.9-2.8,6-1.5
		c0,0,0,0,0,0C214.9,283.8,215.6,286.4,214.6,288.6L214.6,288.6z M209.3,289c1.2,0.9,2.9,0.6,3.8-0.6c0.1-0.1,0.2-0.3,0.2-0.4
		c0.3-0.8,0.4-1.7,0.2-2.5c-0.2-0.8-0.7-1.6-1.3-2.1c-0.6-0.5-1.5-0.7-2.3-0.4c-0.8,0.2-1.5,0.7-1.8,1.5
		C207.4,286.1,207.9,288,209.3,289L209.3,289z"/>
	<path class="st0" d="M220,288.2l-1.3,0.4l-2.1-7.2l-1.4,0.4l-0.3-1.1l1.4-0.4l-0.2-0.6c-0.2-0.7-0.2-1.5,0.1-2.2
		c0.3-0.6,0.9-1.1,1.6-1.2c0.6-0.2,1.3-0.2,1.9,0.1l-0.3,1c-0.4-0.2-0.8-0.2-1.2-0.1c-0.4,0.1-0.7,0.4-0.9,0.7
		c-0.1,0.4-0.1,0.9,0,1.3l0.2,0.6l1.7-0.5l0.3,1.1l-1.7,0.5L220,288.2z"/>
	<path class="st0" d="M225.6,286.8c-0.5,0.2-1.1,0.2-1.5-0.1c-0.5-0.3-0.8-0.8-0.9-1.3l-1.7-5.4l-1.4,0.4l-0.4-1.1l1.4-0.4l-0.7-2.3
		l1.3-0.4l0.7,2.3l1.7-0.5l0.4,1.1l-1.7,0.5l1.6,5.2c0.1,0.3,0.2,0.5,0.4,0.7c0.2,0.1,0.5,0.2,0.7,0.1c0.3-0.1,0.6-0.3,0.8-0.6
		l0.7,0.8C226.6,286.2,226.1,286.6,225.6,286.8z"/>
	<path class="st0" d="M242.8,280.3l-1.7,0.7l-5.4-3.4l-1.7,6.2l-1.7,0.6l2.2-7.4l-6.2-3.9l1.7-0.6l5,3.2l1.6-5.8l1.7-0.6l-2,7
		L242.8,280.3z"/>
	<path class="st0" d="M245.8,279l-1.2,0.5l-4.9-11l1.2-0.5l1.9,4.2c0.2-1.2,1-2.1,2.1-2.6c1-0.5,2.1-0.5,3.1,0
		c1.1,0.6,1.9,1.5,2.3,2.6c0.5,1.1,0.7,2.3,0.4,3.5c-0.3,1-1.1,1.9-2.1,2.3c-1.1,0.5-2.3,0.4-3.3-0.2L245.8,279z M244.8,276.8
		c0.4,0.3,0.9,0.4,1.4,0.4c0.5,0.1,1,0,1.5-0.2c0.7-0.3,1.3-0.9,1.5-1.7c0.3-1.7-0.5-3.5-2-4.4c-0.7-0.4-1.5-0.4-2.3,0
		c-0.5,0.2-0.9,0.6-1.2,1c-0.3,0.4-0.5,0.9-0.6,1.3L244.8,276.8z"/>
	<path class="st0" d="M260,271c-0.7,2.3-3.2,3.6-5.5,2.8c0,0-0.1,0-0.1,0c-2.2-1-3.5-3.4-2.9-5.8c0.7-2.3,3.2-3.6,5.5-2.8
		c0,0,0,0,0.1,0c1.1,0.4,2,1.3,2.5,2.4C260.2,268.6,260.3,269.8,260,271z M255,272.6c0.7,0.3,1.6,0.3,2.3-0.1c0.7-0.3,1.3-1,1.4-1.8
		c0.2-0.8,0-1.7-0.4-2.5c-0.4-0.8-1-1.4-1.8-1.8c-1.4-0.6-3,0.1-3.6,1.5c-0.1,0.1-0.1,0.3-0.1,0.4c-0.2,0.8,0,1.7,0.4,2.5
		C253.6,271.6,254.2,272.2,255,272.6z"/>
	<path class="st0" d="M269.5,267.1l-1.4,0.8l-4-1.9l-0.5,4.4l-1.4,0.8l0.7-5.5l-4.8-2.2l1.4-0.8l3.7,1.7l0.5-4.1l1.4-0.8l-0.7,5.2
		L269.5,267.1z"/>
	<path class="st0" d="M280,260.8c-1.3,0.9-3,1.3-4.6,0.9c-3.2-0.9-5.3-4.1-4.9-7.4c0.7-3.3,3.9-5.4,7.2-4.7c3.3,0.9,5.3,4.1,4.9,7.4
		C282.4,258.5,281.4,259.9,280,260.8z M279.3,259.7c1-0.6,1.8-1.7,1.9-2.9c0.2-1.3-0.2-2.5-0.9-3.6c-0.7-1.1-1.7-1.9-2.9-2.3
		c-2.4-0.6-4.7,0.9-5.3,3.3c0,0.1,0,0.1,0,0.2c-0.2,2.6,1.4,5,3.8,5.9C277,260.6,278.3,260.4,279.3,259.7z"/>
	<path class="st0" d="M292.9,251.5l-1.1,0.8l-3.4-4.6c-0.4-0.9-1.5-1.2-2.3-0.8c-0.2,0.1-0.3,0.2-0.4,0.3c-0.4,0.3-0.8,0.7-1,1.2
		c-0.2,0.4-0.3,0.9-0.3,1.4l3.8,5.1l-1.1,0.8l-5.1-7l1.1-0.8l0.7,1c0.1-0.6,0.2-1.1,0.5-1.6c0.3-0.5,0.7-1,1.1-1.4
		c1-0.9,2.5-0.9,3.5,0.1c0.2,0.2,0.3,0.4,0.4,0.6L292.9,251.5z"/>
	<path class="st0" d="M298.5,247.3c-0.9,0.8-2.1,1.1-3.3,1c-1.2-0.2-2.3-0.8-3-1.8c-0.8-0.9-1.2-2.1-1.1-3.3
		c0.1-1.2,0.6-2.2,1.5-2.9c0.9-0.8,2.1-1.1,3.2-0.9c1.2,0.2,2.3,0.9,3,1.9l0.2,0.3l-5.5,4.4c0.5,0.6,1.3,1,2.1,1.1
		c0.8,0.1,1.6-0.2,2.3-0.7c0.8-0.6,1.3-1.5,1.4-2.5l1.1,0.3C300.3,245.4,299.6,246.5,298.5,247.3z M297.4,241.6
		c-0.5-0.6-1.1-1-1.9-1.1c-0.8-0.1-1.6,0.1-2.2,0.6c-0.6,0.5-1,1.2-1,2c0,0.7,0.2,1.5,0.6,2.1L297.4,241.6z"/>
	<path class="st0" d="M314.5,232.8l-1.4,1.2l-6.3-1.1l0.7,6.4l-1.3,1.2l-0.8-7.7l-7.2-1.3l1.3-1.2l5.9,1.1l-0.7-5.9l1.3-1.2l0.8,7.3
		L314.5,232.8z"/>
</g>
<path class="st1" d="M311.8,71.9c0,85.6-69.4,155-155,155s-155-69.4-155-155"/>
</svg>
