<svg xmlns="http://www.w3.org/2000/svg" viewBox="0 0 310 228.49">
  <defs>
    <style>
      .cls-1 {
        fill: #9488c0;
      }

      .cls-2 {
        fill: none;
      }
    </style>
  </defs>
  <title>Ресурс 2</title>
  <g id="Слой_2" data-name="Слой 2">
    <g id="Слой_1-2" data-name="Слой 1">
      <g>
        <path class="cls-1" d="M40,163.81,38.81,163l.68-1A6.69,6.69,0,0,1,37,158.43,4.48,4.48,0,0,1,40.85,153,6.75,6.75,0,0,1,45,154.12l.7-1L47,154l-.69,1a6.82,6.82,0,0,1,2.48,3.57A4.46,4.46,0,0,1,44.91,164a6.87,6.87,0,0,1-4.2-1.16Zm1.18-9.41a3.17,3.17,0,0,0-2.74,3.89,5,5,0,0,0,1.79,2.6l4-5.68A5,5,0,0,0,41.22,154.4Zm3.33,8.16a3.14,3.14,0,0,0,2.73-3.88,5,5,0,0,0-1.79-2.61l-4,5.68A5,5,0,0,0,44.55,162.56Z"/>
        <path class="cls-1" d="M53.45,171.17a4.36,4.36,0,0,1-5.32-3.26,5.06,5.06,0,0,1,3.39-5.55,4.39,4.39,0,0,1,5.33,3.26,4.65,4.65,0,0,1-.69,3.39A4.74,4.74,0,0,1,53.45,171.17Zm-4-3.48a2.59,2.59,0,0,0,1.29,1.94,2.52,2.52,0,0,0,2.31.26A3.71,3.71,0,0,0,55,168.26a3.66,3.66,0,0,0,.58-2.42,2.78,2.78,0,0,0-3.61-2.2,3.65,3.65,0,0,0-1.9,1.61A3.71,3.71,0,0,0,49.44,167.69Z"/>
        <path class="cls-1" d="M59.83,176.25A3.43,3.43,0,0,1,58,173.5l-2.2,4.07-1.19-.64,5.71-10.56,1.19.64-.62,1.14a3.6,3.6,0,0,1,1.63-.36,3.41,3.41,0,0,1,1.67.43,3.55,3.55,0,0,1,1.88,2.41,4.93,4.93,0,0,1-.64,3.43,4.87,4.87,0,0,1-2.53,2.42A3.53,3.53,0,0,1,59.83,176.25ZM60.1,175a2.47,2.47,0,0,0,2.24.14,3.83,3.83,0,0,0,1.82-1.77,3.68,3.68,0,0,0,.48-2.48,2.47,2.47,0,0,0-1.34-1.79,3,3,0,0,0-1.52-.36,2.87,2.87,0,0,0-1.42.34l-1.87,3.45A2.8,2.8,0,0,0,59,174,3,3,0,0,0,60.1,175Z"/>
        <path class="cls-1" d="M70,181.12,65.6,179l3.73-7.85,4.33,2.05A2.56,2.56,0,0,1,75,174.54a2.12,2.12,0,0,1-.1,1.75,2,2,0,0,1-.91,1,1.83,1.83,0,0,1-1.2.21,2,2,0,0,1,.68,1.19,2.19,2.19,0,0,1-.16,1.41A2.31,2.31,0,0,1,72,181.33,2.56,2.56,0,0,1,70,181.12Zm.27-1.19a1.44,1.44,0,0,0,1.08.11,1.39,1.39,0,0,0,.82-1.74,1.33,1.33,0,0,0-.75-.8l-3-1.39-1.15,2.42Zm1.61-3.52a1.28,1.28,0,0,0,1,.1,1.12,1.12,0,0,0,.68-.64,1.2,1.2,0,0,0,.09-1,1.33,1.33,0,0,0-.72-.7L70,172.82,69,175Z"/>
        <path class="cls-1" d="M81.27,186,80,185.46l.38-.91a3.72,3.72,0,0,1-3.13,0A3.16,3.16,0,0,1,75.61,183a2.89,2.89,0,0,1,1.6-3.91,3.27,3.27,0,0,1,2.26.13,3.59,3.59,0,0,1,2.21,2.2l.59-1.45a1.6,1.6,0,0,0,0-1.48A2.47,2.47,0,0,0,81,177.47a3.58,3.58,0,0,0-2.93.1l-.22-1.11a4.64,4.64,0,0,1,3.76,0,3.86,3.86,0,0,1,2,1.59,2.64,2.64,0,0,1,0,2.41Zm-3.18-2.13a2.76,2.76,0,0,0,2.63-.08l.63-1.52a2.78,2.78,0,0,0-1.8-1.91,2.27,2.27,0,0,0-1.63-.1,1.87,1.87,0,0,0-1,2.53A2.29,2.29,0,0,0,78.09,183.85Z"/>
        <path class="cls-1" d="M88.14,188.74a3.44,3.44,0,0,1-2.26-2.42l-1.54,4.36-1.27-.45,4-11.32,1.27.45-.43,1.22a3.67,3.67,0,0,1,1.56-.61,3.45,3.45,0,0,1,1.71.17,3.52,3.52,0,0,1,2.23,2.09,5.7,5.7,0,0,1-2.22,6.27A3.54,3.54,0,0,1,88.14,188.74Zm.08-1.25a2.5,2.5,0,0,0,2.23-.21,3.78,3.78,0,0,0,1.52-2,3.7,3.7,0,0,0,.09-2.53,2.44,2.44,0,0,0-1.6-1.56A3.14,3.14,0,0,0,88.9,181a3,3,0,0,0-1.35.56l-1.31,3.7a3,3,0,0,0,.69,1.3A3,3,0,0,0,88.22,187.49Z"/>
        <path class="cls-1" d="M92.67,192.43l.94-3.2a1.48,1.48,0,0,0,1.23-.47,7.61,7.61,0,0,0,1.29-2.22l1.75-3.95,5.8,1.71-2.12,7.2,1,.28-1,3.27-1.29-.38.62-2.13-6.3-1.86L94,192.81Zm6-8.37-1.3,3a4.75,4.75,0,0,1-2.07,2.58l5,1.46,1.79-6.06Z"/>
        <path class="cls-1" d="M116.14,196.14l-1.33-.28,1.57-7.34-4.44-1-1.56,7.34-1.32-.28,1.81-8.5,7.08,1.51Z"/>
        <path class="cls-1" d="M123.41,197.6a3.43,3.43,0,0,1-2.66-2L120,200.2l-1.33-.21,1.88-11.86,1.33.21-.2,1.28a3.54,3.54,0,0,1,1.42-.89,3.41,3.41,0,0,1,1.71-.14,3.55,3.55,0,0,1,2.58,1.65,5.72,5.72,0,0,1-1,6.57A3.49,3.49,0,0,1,123.41,197.6Zm-.15-1.25a2.44,2.44,0,0,0,2.15-.61,4.22,4.22,0,0,0,.76-4.77,2.49,2.49,0,0,0-1.86-1.25,3.08,3.08,0,0,0-1.55.17,3,3,0,0,0-1.23.8l-.61,3.87a2.78,2.78,0,0,0,.92,1.16A3,3,0,0,0,123.26,196.35Z"/>
        <path class="cls-1" d="M131,198.43l-1.29-.13.91-8.65,1.34.14-.7,6.61,5.23-6.13,1.32.14-.91,8.65-1.34-.15.71-6.73Z"/>
        <path class="cls-1" d="M143.08,199.68a5.31,5.31,0,0,1-3.84-1.64l.72-.82a4.49,4.49,0,0,0,3.18,1.34,3.58,3.58,0,0,0,1.89-.31,1.24,1.24,0,0,0,.75-1.05c.05-1-.83-1.49-2.65-1.59l-1.94-.11.06-1.1,1.94.11a4.07,4.07,0,0,0,1.87-.27,1.16,1.16,0,0,0,.78-1,1.15,1.15,0,0,0-.66-1,4.38,4.38,0,0,0-4.77.47l-.66-.87a4.77,4.77,0,0,1,3.64-1.19,5.73,5.73,0,0,1,2.85.77,1.9,1.9,0,0,1,1,1.77,1.75,1.75,0,0,1-.81,1.42,3.27,3.27,0,0,1-1.64.57,3.62,3.62,0,0,1,1.68.71,1.75,1.75,0,0,1,.72,1.55,2.15,2.15,0,0,1-1.17,1.77A5.23,5.23,0,0,1,143.08,199.68Z"/>
        <path class="cls-1" d="M150.94,199.74l-1.35,0,.14-8.69,1.35,0-.06,3.62,4.54.07.06-3.62,1.35,0-.14,8.69-1.35,0,.06-3.89-4.53-.07Z"/>
        <path class="cls-1" d="M166.75,199.44l-1.35.06-.05-1a3.66,3.66,0,0,1-2.82,1.33,3.19,3.19,0,0,1-2.16-.68,2.88,2.88,0,0,1-.19-4.21,3.18,3.18,0,0,1,2.1-.84,3.6,3.6,0,0,1,2.93,1.06l-.07-1.57a1.63,1.63,0,0,0-.67-1.32,2.56,2.56,0,0,0-1.6-.42,3.56,3.56,0,0,0-2.61,1.33l-.67-.91a4.6,4.6,0,0,1,3.41-1.59,3.82,3.82,0,0,1,2.45.61,2.63,2.63,0,0,1,1,2.17Zm-3.78-.59a2.77,2.77,0,0,0,2.35-1.18l-.07-1.64a2.73,2.73,0,0,0-2.44-1,2.22,2.22,0,0,0-1.52.59,1.79,1.79,0,0,0-.54,1.41,1.71,1.71,0,0,0,.66,1.33A2.27,2.27,0,0,0,163,198.85Z"/>
        <path class="cls-1" d="M171.16,199.11l-1.35.13-.81-8.66,1.34-.12.34,3.6,4.52-.42-.34-3.61,1.34-.12.82,8.65-1.35.13-.36-3.87-4.52.42Z"/>
        <path class="cls-1" d="M183.9,197.91l-.19-1.1c.41-.07.69-.39.86-1a9.69,9.69,0,0,0,.19-2.77l-.18-4.31,6-1,1.47,8.57-1.33.22-1.27-7.4-3.46.6.16,3.27a8,8,0,0,1-.41,3.55A2.31,2.31,0,0,1,183.9,197.91Z"/>
        <path class="cls-1" d="M196.31,195.42l-1.27.29-1.9-8.49,1.31-.29,1.46,6.48,3-7.48,1.3-.29,1.9,8.48-1.31.29-1.49-6.6Z"/>
        <path class="cls-1" d="M208.12,192.74a5.29,5.29,0,0,1-4.16-.32l.41-1a4.5,4.5,0,0,0,3.45.25,3.56,3.56,0,0,0,1.69-.89,1.26,1.26,0,0,0,.37-1.25c-.26-.92-1.27-1.14-3-.65l-1.88.52-.29-1.06,1.87-.52a4.12,4.12,0,0,0,1.69-.85,1.16,1.16,0,0,0,.4-1.24,1.13,1.13,0,0,0-1-.77,3.86,3.86,0,0,0-1.85.11,3.92,3.92,0,0,0-2.51,1.86l-.9-.61a4.74,4.74,0,0,1,3.06-2.29,5.76,5.76,0,0,1,2.94-.2,1.91,1.91,0,0,1,1.53,1.36,1.74,1.74,0,0,1-.31,1.6,3.34,3.34,0,0,1-1.37,1.08,3.44,3.44,0,0,1,1.82.13,1.69,1.69,0,0,1,1.17,1.24,2.13,2.13,0,0,1-.54,2.05A5.26,5.26,0,0,1,208.12,192.74Z"/>
        <path class="cls-1" d="M215.57,190.3l-1.23.41-2.74-8.25,1.28-.42,2.1,6.3,2.22-7.74,1.26-.42,2.75,8.24-1.28.43-2.14-6.42Z"/>
        <path class="cls-1" d="M225.37,186.88l-1.26.49-3.17-8.09,1.26-.5,1.32,3.37,4.22-1.65-1.32-3.37,1.26-.49,3.17,8.09-1.26.49-1.41-3.62L224,183.26Z"/>
        <path class="cls-1" d="M235.7,173.09l.49,1.08-4.32,1.94,3.06,6.85-1.23.55-3.55-7.94Z"/>
        <path class="cls-1" d="M246.83,176a3.94,3.94,0,0,1-2.19,2.58,4,4,0,0,1-3.38.24,5.08,5.08,0,0,1-2.93-5.81,4.37,4.37,0,0,1,5.57-2.82,5.07,5.07,0,0,1,2.93,5.81Zm-5.06,1.58a2.56,2.56,0,0,0,2.33-.08,2.51,2.51,0,0,0,1.43-1.82,4,4,0,0,0-2.14-4.25,2.54,2.54,0,0,0-2.32.08,2.57,2.57,0,0,0-1.45,1.83,4,4,0,0,0,2.15,4.24Z"/>
        <path class="cls-1" d="M254.9,172.8l-4.23,2.42-4.32-7.54,4.15-2.38a2.59,2.59,0,0,1,1.86-.36,2.12,2.12,0,0,1,1.37,1.08,2,2,0,0,1,.28,1.3,1.88,1.88,0,0,1-.51,1.12,2,2,0,0,1,1.36.11,2.14,2.14,0,0,1,1.07.94,2.3,2.3,0,0,1,.27,1.82A2.58,2.58,0,0,1,254.9,172.8Zm-2.79-4.23a1.3,1.3,0,0,0,.66-.76,1.19,1.19,0,0,0-.14-.93,1.22,1.22,0,0,0-.75-.62,1.31,1.31,0,0,0-1,.19L248.11,168l1.22,2.13Zm2,3.33a1.44,1.44,0,0,0,.71-.82,1.25,1.25,0,0,0-.16-1,1.31,1.31,0,0,0-.8-.64,1.36,1.36,0,0,0-1.09.17l-2.82,1.62,1.33,2.32Z"/>
        <path class="cls-1" d="M264.84,165.33a4.37,4.37,0,0,1-5.25,3.39,5.08,5.08,0,0,1-3.53-5.47,4,4,0,0,1,1.92-2.79,4,4,0,0,1,3.33-.59,4.64,4.64,0,0,1,2.75,2.09A4.73,4.73,0,0,1,264.84,165.33ZM260,167.44a2.76,2.76,0,0,0,3.55-2.29,4,4,0,0,0-2.58-4,2.58,2.58,0,0,0-2.3.33,2.54,2.54,0,0,0-1.24,2,3.63,3.63,0,0,0,.62,2.41A3.72,3.72,0,0,0,260,167.44Z"/>
        <path class="cls-1" d="M267.46,151a3.94,3.94,0,0,1-5.12,3.7l.2-.86a2.91,2.91,0,0,0,2.78-.41,2.86,2.86,0,0,0,1.26-2.51Zm2.16,12.34-1.05.76-5.09-7,1.09-.79,3.89,5.38-.2-8,1.08-.78,5.09,7-1.09.79-4-5.49Z"/>
      </g>
      <g>
        <path class="cls-1" d="M9.32,171.81,8,170.67l.25-5-2,.11L4.6,167.64l-1-.89,5.76-6.52,1,.9-3.07,3.46,6.49-.44,1.28,1.14-5.49.4Z"/>
        <path class="cls-1" d="M16.83,176.51a4,4,0,0,1-3.25-.94,4,4,0,0,1-1.6-3,4.63,4.63,0,0,1,1.13-3.27,4.68,4.68,0,0,1,2.95-1.79,4,4,0,0,1,3.25.95,4,4,0,0,1,1.61,3,4.67,4.67,0,0,1-1.12,3.27A4.75,4.75,0,0,1,16.83,176.51Zm-3.52-4a2.55,2.55,0,0,0,1,2.09,2.51,2.51,0,0,0,2.25.56,3.71,3.71,0,0,0,2.1-1.37,3.64,3.64,0,0,0,.89-2.33,2.53,2.53,0,0,0-1-2.08,2.58,2.58,0,0,0-2.27-.57,4,4,0,0,0-3,3.7Z"/>
        <path class="cls-1" d="M26.28,184.9l-1.09-.79,4-5.52-6.3,3.85-.41-.29L24.22,175l-4,5.51-1.09-.79,5.12-7,1.44,1L24,180.48,30,176.81l1.45,1.06Z"/>
        <path class="cls-1" d="M34.91,190.62l-1.13-.74,4.11-6.28-3.79-2.48L30,187.4l-1.13-.74,4.76-7.28,6.05,4Z"/>
        <path class="cls-1" d="M43.32,195.68,42.16,195l.51-.86a3.68,3.68,0,0,1-3.09-.43A3.19,3.19,0,0,1,38.14,192a2.64,2.64,0,0,1,.29-2.28,2.57,2.57,0,0,1,1.86-1.35,3.27,3.27,0,0,1,2.21.44,3.61,3.61,0,0,1,1.88,2.49l.79-1.34a1.64,1.64,0,0,0,.17-1.48,2.51,2.51,0,0,0-1.12-1.22,3.53,3.53,0,0,0-2.91-.32l-.06-1.13a4.63,4.63,0,0,1,3.72.53,3.93,3.93,0,0,1,1.73,1.86,2.61,2.61,0,0,1-.33,2.38Zm-2.83-2.56a2.74,2.74,0,0,0,2.61.3l.83-1.41a2.74,2.74,0,0,0-1.5-2.15,2.25,2.25,0,0,0-1.6-.33,1.76,1.76,0,0,0-1.22.88,1.7,1.7,0,0,0-.17,1.47A2.17,2.17,0,0,0,40.49,193.12Z"/>
        <path class="cls-1" d="M47.14,197.81,46,197.17l4.1-7.67,1.19.64-1.71,3.19,4,2.14,1.71-3.2,1.19.64-4.1,7.67-1.19-.64L53,196.51l-4-2.13Z"/>
        <path class="cls-1" d="M56.24,202.52,55.07,202l3.74-7.84,1.22.58-2.85,6,7-4,1.21.58-3.74,7.85-1.22-.58,2.91-6.11Z"/>
        <path class="cls-1" d="M67.92,208.05a4.29,4.29,0,0,1-2.44-2.41,4.47,4.47,0,0,1,.14-3.52A4.55,4.55,0,0,1,68,199.61a4,4,0,0,1,3.33,0,3.82,3.82,0,0,1,2.3,2.4,5,5,0,0,1-.26,3.52l-.13.31-6.49-2.73a3.36,3.36,0,0,0,0,2.34,3,3,0,0,0,1.69,1.65,3.57,3.57,0,0,0,2.9,0l.26,1.06A4.71,4.71,0,0,1,67.92,208.05Zm4.48-3.67a3.2,3.2,0,0,0,.08-2.14,2.62,2.62,0,0,0-1.6-1.64,2.54,2.54,0,0,0-2.22,0,3.26,3.26,0,0,0-1.52,1.55Z"/>
        <path class="cls-1" d="M75.3,210.77l-1.22-.45,3-8.16,1.27.47-2.29,6.23,6.56-4.66,1.25.46-3,8.16-1.27-.47L81.94,206Zm9-8.69a3.73,3.73,0,0,1-3.5.4,3.79,3.79,0,0,1-2.43-2.58l.82-.31a2.93,2.93,0,0,0,1.9,2.08,2.89,2.89,0,0,0,2.78-.36Z"/>
        <path class="cls-1" d="M96.63,208.65l-.34,1.14-4.54-1.35-2.14,7.2-1.29-.39,2.48-8.33Z"/>
        <path class="cls-1" d="M103.12,218.17a4,4,0,0,1-3.35.51,4,4,0,0,1-2.7-2,5.07,5.07,0,0,1,1.59-6.31,4.38,4.38,0,0,1,6,1.53,5.08,5.08,0,0,1-1.59,6.31ZM98.26,216a2.75,2.75,0,0,0,4.09,1,3.67,3.67,0,0,0,1.33-2.12,3.72,3.72,0,0,0-.16-2.5,2.79,2.79,0,0,0-4.1-1A4,4,0,0,0,98.26,216Z"/>
        <path class="cls-1" d="M105.06,222l.66-3.26a1.5,1.5,0,0,0,1.18-.58,7.8,7.8,0,0,0,1.1-2.32l1.39-4.09,5.93,1.2-1.49,7.36,1,.2-.68,3.33-1.32-.27.44-2.17-6.44-1.3-.44,2.17Zm5.26-8.85-1,3.11a4.67,4.67,0,0,1-1.84,2.75l5.06,1,1.25-6.19Z"/>
        <path class="cls-1" d="M123.44,223.11l-1.34-.21.16-1a3.7,3.7,0,0,1-3,.74,3.17,3.17,0,0,1-2-1.09,2.89,2.89,0,0,1,.65-4.17,3.26,3.26,0,0,1,2.22-.41,3.59,3.59,0,0,1,2.66,1.62l.24-1.55a1.61,1.61,0,0,0-.4-1.43,2.45,2.45,0,0,0-1.49-.72,3.51,3.51,0,0,0-2.81.78l-.48-1a4.62,4.62,0,0,1,3.65-.89,3.84,3.84,0,0,1,2.29,1.09,2.6,2.6,0,0,1,.59,2.33Zm-3.59-1.32a2.76,2.76,0,0,0,2.54-.7l.25-1.62a2.73,2.73,0,0,0-2.2-1.43,2.25,2.25,0,0,0-1.6.28,1.74,1.74,0,0,0-.81,1.27,1.69,1.69,0,0,0,.39,1.44A2.25,2.25,0,0,0,119.85,221.79Z"/>
        <path class="cls-1" d="M136.08,224.5l-4.86-.43.77-8.66,4.77.42a2.57,2.57,0,0,1,1.73.77,2.11,2.11,0,0,1,.51,1.67,2.09,2.09,0,0,1-.52,1.23,1.9,1.9,0,0,1-1.06.62,2,2,0,0,1,1.06.87,2.39,2.39,0,0,1-.49,3A2.58,2.58,0,0,1,136.08,224.5Zm-.17-1.2A1.53,1.53,0,0,0,137,223a1.31,1.31,0,0,0,.46-.94,1.33,1.33,0,0,0-1.28-1.47l-3.24-.28-.24,2.67Zm.29-3.86a1.34,1.34,0,0,0,1-.25,1.14,1.14,0,0,0,.42-.84,1.23,1.23,0,0,0-.26-.94,1.3,1.3,0,0,0-.92-.41l-3.19-.29-.22,2.44Z"/>
        <path class="cls-1" d="M150.63,225.46a3.45,3.45,0,0,1-2.9-1.59l-.1,4.62-1.35,0,.25-12,1.35,0,0,1.29a3.72,3.72,0,0,1,1.28-1.07,3.57,3.57,0,0,1,1.68-.38,3.53,3.53,0,0,1,2.77,1.3,4.85,4.85,0,0,1,1,3.34,5,5,0,0,1-1.14,3.31A3.53,3.53,0,0,1,150.63,225.46Zm-.32-1.21a2.48,2.48,0,0,0,2.05-.91,4.24,4.24,0,0,0,.11-4.83,2.5,2.5,0,0,0-2-1,3.08,3.08,0,0,0-1.51.38,2.92,2.92,0,0,0-1.11,1l-.08,3.93a2.85,2.85,0,0,0,1.07,1A3.17,3.17,0,0,0,150.31,224.25Z"/>
        <path class="cls-1" d="M163.86,224a4.35,4.35,0,0,1-6.24.16,5.08,5.08,0,0,1-.17-6.5,4.38,4.38,0,0,1,6.25-.16,5.07,5.07,0,0,1,.16,6.5Zm-5.26-.74a2.58,2.58,0,0,0,2.14.93,2.54,2.54,0,0,0,2.08-1,4,4,0,0,0-.12-4.76,2.54,2.54,0,0,0-2.13-.92,2.58,2.58,0,0,0-2.09,1,3.75,3.75,0,0,0-.72,2.39A3.67,3.67,0,0,0,158.6,223.29Z"/>
        <path class="cls-1" d="M170.7,225a5.28,5.28,0,0,1-4-1.15l.6-.9a4.55,4.55,0,0,0,3.33.94,3.74,3.74,0,0,0,1.83-.54,1.24,1.24,0,0,0,.62-1.15c-.07-1-1-1.37-2.83-1.25l-1.94.14-.08-1.1,1.94-.13a4,4,0,0,0,1.83-.5,1.17,1.17,0,0,0,.64-1.13,1.14,1.14,0,0,0-.79-.95,4.39,4.39,0,0,0-4.67,1.06l-.76-.78a4.74,4.74,0,0,1,3.46-1.63,5.74,5.74,0,0,1,2.93.4,1.91,1.91,0,0,1,1.22,1.64,1.74,1.74,0,0,1-.63,1.5,3.21,3.21,0,0,1-1.56.78,3.49,3.49,0,0,1,1.76.49,1.7,1.7,0,0,1,.9,1.45,2.11,2.11,0,0,1-.94,1.9A5.18,5.18,0,0,1,170.7,225Z"/>
        <path class="cls-1" d="M178.5,224.08l-1.34.16-1-8.64,1.34-.15.41,3.59,4.51-.51-.41-3.6,1.34-.15,1,8.64-1.35.15-.44-3.86-4.5.51Z"/>
        <path class="cls-1" d="M188.63,222.8l-1.28.2L186,214.42l1.33-.21,1.05,6.55,3.45-7.28,1.31-.21,1.38,8.59-1.33.21-1.08-6.68Z"/>
        <path class="cls-1" d="M195.56,212.83l1.32-.28.5,2.4a2,2,0,0,0,.86,1.48,2.61,2.61,0,0,0,1.73.1,5,5,0,0,0,2.16-.93l-.82-4,1.32-.28,1.76,8.51-1.32.28-.72-3.47a6,6,0,0,1-2.47,1.1,3.66,3.66,0,0,1-2.55-.17,2.82,2.82,0,0,1-1.19-2Z"/>
        <path class="cls-1" d="M208.7,218.85l-1.31.33-2.15-8.42,1.31-.33.89,3.5,4.4-1.12-.9-3.51,1.31-.33,2.15,8.42-1.31.33-1-3.76-4.39,1.12Z"/>
        <path class="cls-1" d="M223.63,213.5a4.38,4.38,0,0,1-6,1.83,4.77,4.77,0,0,1-2.08-2.77,4.67,4.67,0,0,1,.18-3.46,4.39,4.39,0,0,1,6-1.83,5.1,5.1,0,0,1,1.91,6.23Zm-5.27.7a2.57,2.57,0,0,0,2.31.31A2.52,2.52,0,0,0,222.4,213a3.78,3.78,0,0,0,0-2.51,3.69,3.69,0,0,0-1.43-2,2.78,2.78,0,0,0-4,1.24,3.6,3.6,0,0,0-.05,2.49A3.71,3.71,0,0,0,218.36,214.2Z"/>
        <path class="cls-1" d="M235.89,210.35l-1.27.46-2.32-6.41-.34,7.38-.47.17-5-5.44,2.33,6.41-1.27.46-3-8.17,1.68-.61,4.7,5.15.27-7,1.7-.61Z"/>
        <path class="cls-1" d="M246.75,206a4,4,0,0,1-3.39.08,5,5,0,0,1-2.64-6,4.06,4.06,0,0,1,2.34-2.45,3.83,3.83,0,0,1,3.52.09l-.48,1.12a2.65,2.65,0,0,0-2.49-.14A2.77,2.77,0,0,0,242,200.5a3.49,3.49,0,0,0,.23,2.53,3.53,3.53,0,0,0,1.73,1.88,2.72,2.72,0,0,0,2.38,0A2.65,2.65,0,0,0,247.9,203l1.15.39A3.78,3.78,0,0,1,246.75,206Z"/>
        <path class="cls-1" d="M255.21,202a4.3,4.3,0,0,1-3.42.28,4.5,4.5,0,0,1-2.58-2.41,4.56,4.56,0,0,1-.34-3.44,3.94,3.94,0,0,1,2.15-2.54,3.78,3.78,0,0,1,3.32-.17,4.94,4.94,0,0,1,2.49,2.49l.15.3-6.3,3.13a3.24,3.24,0,0,0,1.79,1.5,2.91,2.91,0,0,0,2.35-.2,3.57,3.57,0,0,0,1.92-2.17l1,.5A4.7,4.7,0,0,1,255.21,202Zm.14-5.78a3.11,3.11,0,0,0-1.57-1.46,2.86,2.86,0,0,0-3.72,1.83,3.37,3.37,0,0,0,.18,2.17Z"/>
        <path class="cls-1" d="M262,188.33l.57,1-4.15,2.28,3.61,6.58-1.18.65-4.18-7.62Z"/>
        <path class="cls-1" d="M275.64,190.29l-1.15.7-3.55-5.82,1.14,7.29-.43.27-6-4.35,3.55,5.83-1.15.7-4.53-7.43,1.53-.92,5.62,4.11-1.1-6.87,1.53-.93Z"/>
        <path class="cls-1" d="M281.59,186.59a4.29,4.29,0,0,1-3.35.74,4.95,4.95,0,0,1-3.69-5.4,4,4,0,0,1,1.79-2.81,3.78,3.78,0,0,1,3.26-.62,5,5,0,0,1,2.81,2.13l.19.28-5.82,4a3.3,3.3,0,0,0,2,1.24,2.91,2.91,0,0,0,2.3-.52,3.52,3.52,0,0,0,1.6-2.41l1,.36A4.7,4.7,0,0,1,281.59,186.59Zm-.64-5.75a3.14,3.14,0,0,0-1.76-1.23,2.85,2.85,0,0,0-3.43,2.32,3.21,3.21,0,0,0,.47,2.12Z"/>
        <path class="cls-1" d="M287.94,181.84l-1.08.81-5.21-7,1.08-.81,2.17,2.9,3.63-2.72-2.17-2.9,1.08-.81,5.22,7-1.08.81L289.24,176l-3.63,2.72Z"/>
        <path class="cls-1" d="M297.27,174.61l-1,.85-4.73-5.83-2,1.59-.75-.92,5-4,.75.92-2,1.6Z"/>
        <path class="cls-1" d="M303.94,169.22a4.22,4.22,0,0,1-3.22,1.15,4.51,4.51,0,0,1-3.12-1.65,4.61,4.61,0,0,1-1.22-3.24,4,4,0,0,1,1.43-3,3.8,3.8,0,0,1,3.16-1,5,5,0,0,1,3,1.77l.23.25L299,168.11a3.31,3.31,0,0,0,2.12,1,2.94,2.94,0,0,0,2.22-.8,3.58,3.58,0,0,0,1.29-2.6l1.07.24A4.67,4.67,0,0,1,303.94,169.22Zm-1.35-5.62a3.14,3.14,0,0,0-1.89-1,2.56,2.56,0,0,0-2.17.73,2.51,2.51,0,0,0-.95,2,3.26,3.26,0,0,0,.73,2Z"/>
      </g>
      <path class="cls-2" d="M310,0A155,155,0,0,1,155,155,155,155,0,0,1,0,0"/>
    </g>
  </g>
</svg>
