<svg id="Layer_1" data-name="Layer 1" xmlns="http://www.w3.org/2000/svg" viewBox="0 0 310 228.55">
  <defs>
    <style>
      .cls-1 {
        fill: #9588c8;
      }

      .cls-2 {
        fill: none;
      }
    </style>
  </defs>
  <title>forbes text</title>
  <g>
    <path class="cls-1" d="M81.41,189.88l-5.08-2,4.46-11.15,5,2a3.51,3.51,0,0,1,2,1.7,2.88,2.88,0,0,1,0,2.39,2.77,2.77,0,0,1-1.25,1.47,2.54,2.54,0,0,1-1.73.31,2.59,2.59,0,0,1,1.16,1.55,3.1,3.1,0,0,1-.08,2.06A3.14,3.14,0,0,1,84.1,190,3.52,3.52,0,0,1,81.41,189.88Zm.21-1.35a2.29,2.29,0,0,0,1.73.09,2,2,0,0,0,1.11-1.19,2,2,0,0,0,0-1.58,2.25,2.25,0,0,0-1.31-1.17l-3.41-1.36-1.54,3.84Zm2-5.11a2.07,2.07,0,0,0,1.63.07,2.06,2.06,0,0,0,1-2.59A2.06,2.06,0,0,0,85,179.83l-3.34-1.34-1.44,3.59Z" transform="translate(0 -3.87)"/>
    <path class="cls-1" d="M93.27,194.12l-1.43-.44,3.53-11.48,4.61,1.42a3.71,3.71,0,0,1,2.33,1.81,3.6,3.6,0,0,1,.2,2.76,3.55,3.55,0,0,1-1.73,2.16,3.67,3.67,0,0,1-2.93.19l-3.18-1Zm4.8-4.91a2.37,2.37,0,0,0,1.84-.1,2.12,2.12,0,0,0,1.12-1.38,2.17,2.17,0,0,0-.15-1.77,2.41,2.41,0,0,0-1.46-1.12l-3-.92-1.35,4.37Z" transform="translate(0 -3.87)"/>
    <path class="cls-1" d="M109.09,197.37a4.37,4.37,0,0,1-6.06-1.51,5.1,5.1,0,0,1,1.58-6.32,4.4,4.4,0,0,1,6.06,1.52,5.06,5.06,0,0,1-1.58,6.31Zm-4.87-2.12a2.56,2.56,0,0,0,1.82,1.47,2.52,2.52,0,0,0,2.28-.44,3.75,3.75,0,0,0,1.33-2.13,3.7,3.7,0,0,0-.18-2.49,2.76,2.76,0,0,0-4.09-1,4,4,0,0,0-1.16,4.6Z" transform="translate(0 -3.87)"/>
    <path class="cls-1" d="M116.21,200.21a4.07,4.07,0,0,1-2.82-1.89,4.57,4.57,0,0,1-.55-3.43,4.62,4.62,0,0,1,1.81-3,4.1,4.1,0,0,1,3.33-.66,3.82,3.82,0,0,1,2.83,2.1l-1,.64a2.6,2.6,0,0,0-2-1.54,2.72,2.72,0,0,0-2.32.49,4,4,0,0,0-.94,4.74,2.71,2.71,0,0,0,2,1.35,2.62,2.62,0,0,0,2.39-.68l.73,1A3.83,3.83,0,0,1,116.21,200.21Z" transform="translate(0 -3.87)"/>
    <path class="cls-1" d="M125.32,201.76a4.09,4.09,0,0,1-2.91-1.76,5,5,0,0,1,1-6.45,4.07,4.07,0,0,1,3.29-.82,3.84,3.84,0,0,1,2.93,2l-1,.68a2.59,2.59,0,0,0-2-1.45,2.77,2.77,0,0,0-2.3.61,3.54,3.54,0,0,0-1.17,2.26,3.65,3.65,0,0,0,.45,2.52,2.78,2.78,0,0,0,2,1.26,2.63,2.63,0,0,0,2.35-.8l.77.95A3.78,3.78,0,0,1,125.32,201.76Z" transform="translate(0 -3.87)"/>
    <path class="cls-1" d="M132.06,202.42l-1.29-.13.86-8.65,1.35.13-.66,6.61,5.19-6.15,1.32.13L138,203l-1.34-.13.67-6.74Z" transform="translate(0 -3.87)"/>
    <path class="cls-1" d="M142.33,203.3l-1.29-.06.42-8.68,1.35.06-.33,6.63,4.87-6.41,1.34.07-.43,8.68-1.34-.07.32-6.76Z" transform="translate(0 -3.87)"/>
    <path class="cls-1" d="M163.4,203.49l-1.35,0-.19-7.51-4.54.12.2,7.5-1.35,0-.23-8.69,7.24-.19Z" transform="translate(0 -3.87)"/>
    <path class="cls-1" d="M173.32,201.7a4.39,4.39,0,0,1-6.23.49,5.09,5.09,0,0,1-.51-6.49,4.41,4.41,0,0,1,6.23-.49,5.08,5.08,0,0,1,.51,6.49Zm-5.3-.46a2.59,2.59,0,0,0,2.19.81,2.54,2.54,0,0,0,2-1.14,4,4,0,0,0-.37-4.75,2.55,2.55,0,0,0-2.17-.8,2.58,2.58,0,0,0-2,1.14,3.74,3.74,0,0,0-.59,2.42A3.68,3.68,0,0,0,168,201.24Z" transform="translate(0 -3.87)"/>
    <path class="cls-1" d="M178.46,202.25l-1.57.2,1.86-3.69a2.51,2.51,0,0,1-1.71-.61,2.59,2.59,0,0,1-.84-1.69,2.64,2.64,0,0,1,.48-2,2.7,2.7,0,0,1,1.9-1l4.55-.59,1.13,8.62-1.34.17-.43-3.34-2.36.31Zm.8-4.7,3.07-.4-.38-2.93-3.07.4a1.5,1.5,0,0,0-1,.55,1.43,1.43,0,0,0-.26,1.11,1.49,1.49,0,0,0,.53,1A1.53,1.53,0,0,0,179.26,197.55Z" transform="translate(0 -3.87)"/>
    <path class="cls-1" d="M192.13,200.12l-4.8.88-1.57-8.55,4.71-.86a2.47,2.47,0,0,1,1.87.28,2.11,2.11,0,0,1,.94,1.47,2,2,0,0,1-.17,1.32,1.93,1.93,0,0,1-.86.88,2,2,0,0,1,1.25.56,2.19,2.19,0,0,1,.7,1.24,2.25,2.25,0,0,1-.36,1.81A2.56,2.56,0,0,1,192.13,200.12Zm-1.24-4.91a1.31,1.31,0,0,0,.88-.5,1.13,1.13,0,0,0,.18-.92,1.25,1.25,0,0,0-.5-.84,1.36,1.36,0,0,0-1-.15l-3.15.58.44,2.41Zm.76,3.79a1.39,1.39,0,0,0,.94-.54,1.26,1.26,0,0,0,.2-1,1.31,1.31,0,0,0-.55-.87,1.35,1.35,0,0,0-1.08-.2L188,197l.48,2.64Z" transform="translate(0 -3.87)"/>
    <path class="cls-1" d="M198.77,198.75l-1.26.3-2-8.46,1.31-.31,1.54,6.46,2.89-7.51,1.29-.31,2,8.45-1.31.32-1.57-6.59Z" transform="translate(0 -3.87)"/>
    <path class="cls-1" d="M206.6,197.08l-.31-1.07c.39-.12.63-.47.74-1.06a9.79,9.79,0,0,0-.14-2.78l-.68-4.26L212,186.2l2.45,8.34-1.3.38-2.11-7.2-3.37,1,.54,3.24a8,8,0,0,1,0,3.57A2.31,2.31,0,0,1,206.6,197.08Z" transform="translate(0 -3.87)"/>
    <path class="cls-1" d="M221.08,192.54a4.07,4.07,0,0,1-3.39-.21,5,5,0,0,1-2.15-6.16,4.09,4.09,0,0,1,2.53-2.25,3.81,3.81,0,0,1,3.51.38l-.58,1.08a2.59,2.59,0,0,0-2.46-.35,2.77,2.77,0,0,0-1.76,1.61,4,4,0,0,0,1.59,4.56,2.74,2.74,0,0,0,2.38.17,2.62,2.62,0,0,0,1.71-1.8l1.13.49A3.86,3.86,0,0,1,221.08,192.54Z" transform="translate(0 -3.87)"/>
    <path class="cls-1" d="M227.36,190l-1.47.6.87-4a2.5,2.5,0,0,1-1.81-.17,2.85,2.85,0,0,1-1.27-3.46,2.67,2.67,0,0,1,1.58-1.46l4.26-1.72,3.26,8.06-1.25.5-1.27-3.12-2.2.9Zm-.41-4.75,2.87-1.16-1.11-2.73-2.87,1.16a1.49,1.49,0,0,0-.87.79,1.46,1.46,0,0,0,0,1.14,1.38,1.38,0,0,0,2,.8Z" transform="translate(0 -3.87)"/>
  </g>
  <g>
    <path class="cls-1" d="M56.4,206.7a4.08,4.08,0,0,1-2.23-2.56,5,5,0,0,1,2.88-5.85,4.07,4.07,0,0,1,3.38.22,3.78,3.78,0,0,1,2.19,2.76l-1.17.35a2.6,2.6,0,0,0-1.49-2,2.75,2.75,0,0,0-2.37-.12,4,4,0,0,0-2.13,4.33A2.75,2.75,0,0,0,57,205.65a2.68,2.68,0,0,0,2.49,0l.44,1.14A3.83,3.83,0,0,1,56.4,206.7Z" transform="translate(0 -3.87)"/>
    <path class="cls-1" d="M64.89,210.62a4.31,4.31,0,0,1-2.41-2.44,4.94,4.94,0,0,1,2.61-6,4,4,0,0,1,3.33,0,3.83,3.83,0,0,1,2.27,2.44,5,5,0,0,1-.31,3.51l-.14.31-6.45-2.82a3.34,3.34,0,0,0,0,2.33,2.94,2.94,0,0,0,1.67,1.68,3.6,3.6,0,0,0,2.89.07l.24,1.07A4.7,4.7,0,0,1,64.89,210.62Zm4.53-3.6a3.14,3.14,0,0,0,.11-2.14,2.88,2.88,0,0,0-3.8-1.68,3.31,3.31,0,0,0-1.54,1.53Z" transform="translate(0 -3.87)"/>
    <path class="cls-1" d="M75,214.73a3.42,3.42,0,0,1-2.19-2.48l-1.66,4.32-1.26-.48,4.29-11.21,1.26.48-.46,1.21a3.73,3.73,0,0,1,1.57-.58,3.47,3.47,0,0,1,1.71.22,3.51,3.51,0,0,1,2.17,2.15,4.88,4.88,0,0,1-.18,3.48A5,5,0,0,1,78,214.57,3.53,3.53,0,0,1,75,214.73Zm.11-1.25a2.48,2.48,0,0,0,2.24-.15A4.27,4.27,0,0,0,79,208.81a2.48,2.48,0,0,0-1.57-1.6,3.09,3.09,0,0,0-1.55-.16,2.9,2.9,0,0,0-1.37.53l-1.4,3.66a2.75,2.75,0,0,0,.66,1.32A3,3,0,0,0,75.07,213.48Z" transform="translate(0 -3.87)"/>
    <path class="cls-1" d="M85.66,218.27,81,216.74l2.73-8.26,4.54,1.5a2.55,2.55,0,0,1,1.51,1.14,2.27,2.27,0,0,1-.66,2.83,2,2,0,0,1-1.17.36,2,2,0,0,1,.82,1.09,2.16,2.16,0,0,1,0,1.42,2.26,2.26,0,0,1-1.17,1.41A2.61,2.61,0,0,1,85.66,218.27Zm.11-1.22a1.41,1.41,0,0,0,1.09,0,1.28,1.28,0,0,0,.66-.8,1.32,1.32,0,0,0-.91-1.72l-3.09-1L82.68,216Zm1.16-3.69a1.29,1.29,0,0,0,1,0,1.15,1.15,0,0,0,.6-.72,1.2,1.2,0,0,0,0-1,1.28,1.28,0,0,0-.8-.61l-3-1-.77,2.33Z" transform="translate(0 -3.87)"/>
    <path class="cls-1" d="M92.09,220.25l-1.25-.35,2.34-8.37,1.3.36-1.79,6.4,6.18-5.17,1.28.36-2.34,8.37-1.3-.36L98.33,215Z" transform="translate(0 -3.87)"/>
    <path class="cls-1" d="M104.43,223.67a4.08,4.08,0,0,1-2.76-2,4.65,4.65,0,0,1-.43-3.46,4.58,4.58,0,0,1,1.91-2.9,4.1,4.1,0,0,1,3.35-.55,3.82,3.82,0,0,1,2.76,2.2l-1.07.6a2.61,2.61,0,0,0-1.9-1.61,2.72,2.72,0,0,0-2.34.42,3.5,3.5,0,0,0-1.34,2.16,3.56,3.56,0,0,0,.24,2.54,2.76,2.76,0,0,0,1.92,1.42,2.61,2.61,0,0,0,2.41-.6l.69,1A3.84,3.84,0,0,1,104.43,223.67Z" transform="translate(0 -3.87)"/>
    <path class="cls-1" d="M121.61,226.72l-1.34-.22,1.23-7.41-4.48-.73-1.22,7.4-1.33-.22,1.42-8.58,7.13,1.18Z" transform="translate(0 -3.87)"/>
    <path class="cls-1" d="M131.65,226.87a4.38,4.38,0,0,1-6.21-.73,5.08,5.08,0,0,1,.76-6.46,4.4,4.4,0,0,1,6.21.73,5.08,5.08,0,0,1-.76,6.46Zm-5.1-1.48a2.77,2.77,0,0,0,4.19.5,3.74,3.74,0,0,0,1-2.28,3.67,3.67,0,0,0-.5-2.45,2.5,2.5,0,0,0-2-1.21,2.57,2.57,0,0,0-2.22.72,4,4,0,0,0-.55,4.72Z" transform="translate(0 -3.87)"/>
    <path class="cls-1" d="M146.77,229l-1.35-.07.05-1a3.7,3.7,0,0,1-2.94,1.06,3.19,3.19,0,0,1-2.08-.88,2.64,2.64,0,0,1-.81-2.15,2.61,2.61,0,0,1,1-2.07,3.23,3.23,0,0,1,2.16-.63,3.57,3.57,0,0,1,2.82,1.33l.08-1.57a1.61,1.61,0,0,0-.54-1.37,2.42,2.42,0,0,0-1.56-.57,3.52,3.52,0,0,0-2.72,1.07l-.58-1a4.62,4.62,0,0,1,3.54-1.26,3.89,3.89,0,0,1,2.39.84,2.62,2.62,0,0,1,.82,2.26Zm-3.7-.95a2.72,2.72,0,0,0,2.44-1l.09-1.64a2.78,2.78,0,0,0-2.34-1.2,2.26,2.26,0,0,0-1.56.45,1.85,1.85,0,0,0-.14,2.74A2.23,2.23,0,0,0,143.07,228.08Z" transform="translate(0 -3.87)"/>
    <path class="cls-1" d="M154,229.37a3.43,3.43,0,0,1-2.91-1.58l-.07,4.63-1.35,0,.19-12,1.35,0,0,1.3a3.64,3.64,0,0,1,1.28-1.08,3.57,3.57,0,0,1,1.68-.38,3.51,3.51,0,0,1,2.78,1.27,5.72,5.72,0,0,1-.11,6.65A3.52,3.52,0,0,1,154,229.37Zm-.32-1.21a2.5,2.5,0,0,0,2-.91,3.75,3.75,0,0,0,.79-2.41,3.71,3.71,0,0,0-.71-2.42,2.46,2.46,0,0,0-2-1,3.27,3.27,0,0,0-2.62,1.34l-.06,3.92a2.85,2.85,0,0,0,1.07,1A3,3,0,0,0,153.71,228.16Z" transform="translate(0 -3.87)"/>
    <path class="cls-1" d="M164.41,229.18a4.28,4.28,0,0,1-3.23-1.14,4.93,4.93,0,0,1-.28-6.53,4,4,0,0,1,3-1.45,3.8,3.8,0,0,1,3.1,1.2,4.93,4.93,0,0,1,1.26,3.29v.35l-7,.28a3.33,3.33,0,0,0,1,2.1,3,3,0,0,0,2.23.78,3.61,3.61,0,0,0,2.64-1.21l.68.86A4.69,4.69,0,0,1,164.41,229.18ZM166.9,224a3.19,3.19,0,0,0-.83-2,2.58,2.58,0,0,0-2.14-.8,2.55,2.55,0,0,0-2,1,3.34,3.34,0,0,0-.72,2.05Z" transform="translate(0 -3.87)"/>
    <path class="cls-1" d="M172.28,228.51l-1.34.12-.75-8.67,1.35-.11.31,3.6,4.52-.39-.31-3.6,1.34-.12.75,8.66-1.35.12-.33-3.87-4.52.39Z" transform="translate(0 -3.87)"/>
    <path class="cls-1" d="M180.45,230l-.43-3.3a1.57,1.57,0,0,0,.93-.94,7.84,7.84,0,0,0,.28-2.55V218.9l6-.79,1,7.44,1-.13.44,3.37-1.33.18-.3-2.2-6.51.86.29,2.2Zm2.1-10.09,0,3.29a4.71,4.71,0,0,1-.84,3.2l5.12-.68-.83-6.27Z" transform="translate(0 -3.87)"/>
    <path class="cls-1" d="M195.42,225.75a4.28,4.28,0,0,1-3.36-.68,4.52,4.52,0,0,1-1.81-3,4.6,4.6,0,0,1,.63-3.4,4,4,0,0,1,2.78-1.84,3.79,3.79,0,0,1,3.24.76,5,5,0,0,1,1.7,3.08l.06.34-6.93,1.25a3.27,3.27,0,0,0,1.3,1.94,2.92,2.92,0,0,0,2.31.46,3.56,3.56,0,0,0,2.45-1.56l.79.76A4.66,4.66,0,0,1,195.42,225.75Zm1.75-5.51a3.13,3.13,0,0,0-1.1-1.84,2.57,2.57,0,0,0-2.23-.5,2.5,2.5,0,0,0-1.85,1.23,3.29,3.29,0,0,0-.44,2.12Z" transform="translate(0 -3.87)"/>
    <path class="cls-1" d="M204.79,213.43a.88.88,0,0,1-.67-.11.83.83,0,0,1-.41-.56.88.88,0,0,1,.11-.69.84.84,0,0,1,.55-.41.93.93,0,0,1,1.11.68.86.86,0,0,1-.12.68A.92.92,0,0,1,204.79,213.43Zm3,9.51-1.32.31-2-8.46,1.31-.31Z" transform="translate(0 -3.87)"/>
    <path class="cls-1" d="M212.13,221.85l-1.45.39-3.16-11.58,4.65-1.27a3.71,3.71,0,0,1,2.94.28,3.6,3.6,0,0,1,1.65,2.22,3.54,3.54,0,0,1-.31,2.75,3.64,3.64,0,0,1-2.37,1.73l-3.21.88Zm1.43-6.72a2.38,2.38,0,0,0,1.5-1.07,2.4,2.4,0,0,0-.87-3.18,2.45,2.45,0,0,0-1.84-.16l-3,.83,1.21,4.41Z" transform="translate(0 -3.87)"/>
    <path class="cls-1" d="M228,217.07l-1.28.42L225,212a2,2,0,0,0-1-1.3,2.15,2.15,0,0,0-1.52,0,3,3,0,0,0-1.26.83,3.35,3.35,0,0,0-.77,1.25l2,6-1.28.41-3.71-11.42,1.28-.41,1.41,4.35a4.37,4.37,0,0,1,1-1.4,3.7,3.7,0,0,1,1.54-1,2.45,2.45,0,0,1,3.49,1.78Z" transform="translate(0 -3.87)"/>
    <path class="cls-1" d="M237,212.59a4.39,4.39,0,0,1-5.85,2.21,4.74,4.74,0,0,1-2.25-2.64,4.63,4.63,0,0,1-.05-3.45,4.39,4.39,0,0,1,5.85-2.21,5.09,5.09,0,0,1,2.3,6.09Zm-5.21,1a2.77,2.77,0,0,0,4-1.49,3.73,3.73,0,0,0-.12-2.5,3.68,3.68,0,0,0-1.57-1.95,2.53,2.53,0,0,0-2.31-.17,2.58,2.58,0,0,0-1.63,1.67,4,4,0,0,0,1.68,4.44Z" transform="translate(0 -3.87)"/>
    <path class="cls-1" d="M247.47,209.37l-1.24.53L244,204.68a1.73,1.73,0,0,0-2.59-1.08,3,3,0,0,0-1.19,1,3.39,3.39,0,0,0-.64,1.31l2.52,5.83-1.24.54-3.44-8,1.24-.54.5,1.16a4.43,4.43,0,0,1,.82-1.49,3.67,3.67,0,0,1,1.43-1.09,2.46,2.46,0,0,1,3.66,1.47Z" transform="translate(0 -3.87)"/>
    <path class="cls-1" d="M253.87,206.57a4.29,4.29,0,0,1-3.42.25,4.5,4.5,0,0,1-2.57-2.42,4.6,4.6,0,0,1-.31-3.44,4,4,0,0,1,2.17-2.53,3.81,3.81,0,0,1,3.32-.15,5,5,0,0,1,2.47,2.51l.15.3-6.32,3.09a3.28,3.28,0,0,0,1.78,1.51,3,3,0,0,0,2.35-.18,3.62,3.62,0,0,0,1.93-2.17l1,.51A4.72,4.72,0,0,1,253.87,206.57Zm.18-5.78a3.1,3.1,0,0,0-1.56-1.47,2.57,2.57,0,0,0-2.28.12,2.53,2.53,0,0,0-1.45,1.69,3.26,3.26,0,0,0,.16,2.16Z" transform="translate(0 -3.87)"/>
  </g>
  <path class="cls-2" d="M310,3.87a155,155,0,0,1-310,0" transform="translate(0 -3.87)"/>
</svg>
