<svg xmlns="http://www.w3.org/2000/svg" viewBox="0 0 310 220"><defs><style>.cls-1{fill:#9588c8;}</style></defs><path class="cls-1" d="M47.51,160.9l6.21-8.68L48,148.13l-6.21,8.69L40.58,156l7-9.77L55.71,152l-7,9.77Z"/><path class="cls-1" d="M53.26,163.14l-2.45,3.92-1.14-.72L56,156.17l1.14.71-.68,1.1a3.64,3.64,0,0,1,3.29.27c1.93,1.21,2.36,3.52.86,5.91s-3.76,3-5.7,1.83A3.56,3.56,0,0,1,53.26,163.14Zm6.18.27c1-1.63.89-3.39-.59-4.32a3.23,3.23,0,0,0-2.93-.2l-2.08,3.33a3.23,3.23,0,0,0,1.45,2.57C56.77,165.71,58.42,165,59.44,163.41Z"/><path class="cls-1" d="M62.21,165.08a4.31,4.31,0,1,1,1.57,6.08A4.26,4.26,0,0,1,62.21,165.08Zm6.29,3.46c.85-1.55.72-3.43-.91-4.33s-3.3,0-4.15,1.54-.7,3.46.92,4.35S67.65,170.1,68.5,168.54Z"/><path class="cls-1" d="M78.73,170.12,74.48,168l-3.29,6.75L70,174.2l3.81-7.82,5.47,2.67Z"/><path class="cls-1" d="M79.13,177.07l-1.82,4.26-1.24-.53,4.72-11.05,1.24.54-.51,1.19a3.63,3.63,0,0,1,3.3-.24c2.1.9,2.88,3.11,1.76,5.71s-3.25,3.58-5.35,2.68A3.53,3.53,0,0,1,79.13,177.07Zm6.15-.68c.75-1.77.35-3.49-1.25-4.17a3.21,3.21,0,0,0-2.93.25l-1.55,3.61a3.25,3.25,0,0,0,1.84,2.31C83,179.08,84.52,178.16,85.28,176.39Z"/><path class="cls-1" d="M92.37,183.75l.34-.93a3.8,3.8,0,0,1-3.12.14,2.89,2.89,0,0,1-1.87-3.75,2.84,2.84,0,0,1,3.84-1.64,3.61,3.61,0,0,1,2.3,2.1l.54-1.47A1.92,1.92,0,0,0,93,175.72a3.44,3.44,0,0,0-2.91.22l-.27-1.1a4.59,4.59,0,0,1,3.76-.16c1.72.64,2.87,1.94,2.15,3.92l-2,5.61ZM93,182l.56-1.54a2.89,2.89,0,0,0-1.88-1.83,1.91,1.91,0,1,0-1.3,3.56A2.9,2.9,0,0,0,93,182Z"/><path class="cls-1" d="M103.8,187.4l2-6.53-4.67,5.71-.49-.14-.75-7.35-2,6.53-1.29-.39,2.51-8.33,1.71.52.68,6.94,4.38-5.41,1.73.52-2.52,8.32Z"/><path class="cls-1" d="M115.49,190.32l1.56-6.64-4.31,6-.49-.12L111,182.27l-1.55,6.64-1.32-.3,2-8.47,1.74.41,1.12,6.88,4-5.68,1.76.41-2,8.47Z"/><path class="cls-1" d="M125.23,192.16l.17-1a3.77,3.77,0,0,1-3,.69,2.89,2.89,0,0,1-2.5-3.36,2.85,2.85,0,0,1,3.49-2.3,3.64,3.64,0,0,1,2.63,1.67l.27-1.54c.2-1.16-.61-2-1.85-2.19a3.45,3.45,0,0,0-2.83.73l-.46-1a4.52,4.52,0,0,1,3.67-.82c1.81.31,3.17,1.39,2.81,3.47l-1,5.88Zm.32-1.81.28-1.61a2.92,2.92,0,0,0-2.17-1.48A1.91,1.91,0,1,0,123,191,2.9,2.9,0,0,0,125.55,190.35Z"/><path class="cls-1" d="M133.92,191.71l1-1a5.09,5.09,0,0,0,3.6,2.05c2.14.2,2.93-.88,3-1.8.29-3.08-7-2-6.55-6.31.18-2,2.07-3.15,4.41-2.93a5.64,5.64,0,0,1,4.1,2.07l-1,1a4.61,4.61,0,0,0-3.33-1.76c-1.43-.14-2.52.54-2.63,1.67-.25,2.69,7,1.81,6.56,6.27-.17,1.74-1.52,3.41-4.74,3.1A5.94,5.94,0,0,1,133.92,191.71Z"/><path class="cls-1" d="M150.79,194.6l0-1a3.71,3.71,0,0,1-2.92,1.09,2.9,2.9,0,0,1-2.93-3,2.86,2.86,0,0,1,3.15-2.74,3.66,3.66,0,0,1,2.84,1.31l.06-1.57c.05-1.17-.86-1.87-2.12-1.92a3.43,3.43,0,0,0-2.71,1.1l-.6-1a4.53,4.53,0,0,1,3.53-1.3c1.84.07,3.33,1,3.25,3.06l-.24,6Zm.08-1.83.06-1.64a2.87,2.87,0,0,0-2.35-1.17,1.91,1.91,0,1,0-.15,3.79A2.91,2.91,0,0,0,150.87,192.77Z"/><path class="cls-1" d="M165.75,194.51l-.15-5.9c0-1.1-.52-1.79-1.64-1.76a3,3,0,0,0-2.27,1.38l.15,6.37-1.35,0-.14-5.9c0-1.09-.51-1.78-1.64-1.76a3,3,0,0,0-2.25,1.41l.15,6.35-1.35,0-.21-8.69,1.35,0,0,1.26a3.75,3.75,0,0,1,2.77-1.55,2.24,2.24,0,0,1,2.38,1.57,3.62,3.62,0,0,1,2.87-1.69c1.59,0,2.45.82,2.5,2.57l.14,6.28Z"/><path class="cls-1" d="M169.41,193.13l.62-1a4,4,0,0,0,2.95,1c1.33-.11,2-.8,1.92-1.66-.18-2.1-5.43-.35-5.7-3.56-.12-1.34,1-2.59,3-2.77a4.43,4.43,0,0,1,3.32,1l-.55,1a3.37,3.37,0,0,0-2.68-.87c-1.18.1-1.86.75-1.8,1.52.16,1.9,5.42.19,5.7,3.56.13,1.46-.94,2.72-3.18,2.91A4.64,4.64,0,0,1,169.41,193.13Z"/><path class="cls-1" d="M184.78,192.62l-.17-1.21a4.23,4.23,0,0,1-2.87,1.84,2.44,2.44,0,0,1-3.12-2.37l-.82-6.08,1.33-.19.77,5.68c.21,1.51,1,1.85,2.19,1.7a3.34,3.34,0,0,0,2.38-1.65l-.86-6.33,1.34-.18,1.16,8.61Z"/><path class="cls-1" d="M195,190.84l-1.07-5.58c-.28-1.51-1.14-1.84-2.28-1.62a3.33,3.33,0,0,0-2.28,1.81l1.19,6.24-1.33.25-1.63-8.54,1.33-.25.24,1.24a4.26,4.26,0,0,1,2.76-2,2.47,2.47,0,0,1,3.25,2.24l1.15,6Z"/><path class="cls-1" d="M199.84,192.1l.42-1.14a3.3,3.3,0,0,0,3,.47,2.49,2.49,0,0,0,2.08-3.2l-.3-1.21a3.65,3.65,0,0,1-2.46,2.21c-2.2.54-4.16-.71-4.84-3.44s.45-4.77,2.67-5.32a3.6,3.6,0,0,1,3.2.79l-.32-1.28,1.31-.32,2,8.19c.7,2.8-1,4.16-3.1,4.67A4.43,4.43,0,0,1,199.84,192.1Zm5-6.11-.91-3.68a3.19,3.19,0,0,0-2.86-.74c-1.69.42-2.37,2-1.91,3.88s1.81,3,3.51,2.55A3.2,3.2,0,0,0,204.81,186Z"/><path class="cls-1" d="M214.42,185.84l-3.81-11.38,7.45-2.5.43,1.26-6,2,1.23,3.67,5.92-2,.42,1.26-5.92,2,1.74,5.19Z"/><path class="cls-1" d="M222.06,178.64a4.31,4.31,0,1,1,5.68,2.65A4.27,4.27,0,0,1,222.06,178.64Zm6.67-2.66c-.65-1.64-2.19-2.73-3.91-2s-2.11,2.55-1.46,4.19,2.22,2.74,3.94,2S229.39,177.64,228.73,176Z"/><path class="cls-1" d="M234,178.46l-3.57-7.93,1.24-.55.57,1.28a3.71,3.71,0,0,1,2-2.64l.56,1.27a2.17,2.17,0,0,0-.51.17,3.16,3.16,0,0,0-1.58,2.23l2.52,5.62Z"/><path class="cls-1" d="M246.45,172.42l-5.22-5.17,1.18,7.25-1.2.62-6.44-6.46L236,168l5.07,5.19L239.94,166l1-.52,5.21,5.11-1.29-7.13,1.25-.65,1.52,9Z"/><path class="cls-1" d="M256.52,166.69l-.51-.85a3.76,3.76,0,0,1-1.85,2.51,2.9,2.9,0,0,1-4.09-.92,2.83,2.83,0,0,1,1.15-4,3.65,3.65,0,0,1,3.08-.46l-.8-1.34a1.91,1.91,0,0,0-2.82-.46,3.49,3.49,0,0,0-1.68,2.4l-1-.48a4.53,4.53,0,0,1,2.25-3c1.58-.94,3.32-1,4.4.8l3.05,5.13Zm-.94-1.57-.83-1.41a2.93,2.93,0,0,0-2.62.29,1.92,1.92,0,1,0,2,3.27A2.91,2.91,0,0,0,255.58,165.12Z"/><path class="cls-1" d="M260.21,164.38l-4.76-7.28,1.13-.74.77,1.18a3.72,3.72,0,0,1,1.56-2.91l.76,1.16a2.22,2.22,0,0,0-.48.25,3.2,3.2,0,0,0-1.22,2.45l3.37,5.16Z"/><path class="cls-1" d="M270.57,157.28l-.76-1.06a3.65,3.65,0,0,1-1.5,2.94c-1.85,1.32-4.15.85-5.8-1.45s-1.38-4.64.48-6a3.63,3.63,0,0,1,3.28-.46l-2.69-3.76,1.09-.79,7,9.76Zm-1.38-1.92-2.29-3.21a3.27,3.27,0,0,0-2.94.38c-1.42,1-1.43,2.8-.31,4.36s2.8,2.12,4.22,1.1A3.2,3.2,0,0,0,269.19,155.36Z"/><path class="cls-1" d="M51.08,191.45c.78.25,1.5,0,3-2.14l2.5-3.53,5.34,2.83-3.5,6.64.89.47-1.59,3-1.19-.63,1-2-5.81-3.07-1,2-1.2-.63Zm4.12-1.36c-1,1.34-1.75,2-2.54,2.11l4.56,2.41,3-5.58-3.1-1.64Z"/><path class="cls-1" d="M60.22,196.5c.73.34,1.58-.29,3-2.48l2.32-3.64L71,193l-3.7,7.87-1.22-.57,3.19-6.8L66.1,192l-1.74,2.78c-1.73,2.77-3.1,3.48-4.62,2.77Z"/><path class="cls-1" d="M69.83,201.93l3.45-2.28a2.49,2.49,0,0,1-1.07-3.26A2.56,2.56,0,0,1,75.77,195L80,196.72l-3.31,8-1.25-.52,1.28-3.11-2.2-.9-3.24,2.3Zm7.36-1.9,1.13-2.73-2.87-1.18a1.4,1.4,0,0,0-2,.79,1.38,1.38,0,0,0,.84,1.94Z"/><path class="cls-1" d="M91.34,202.14l1.41-4.41,1.29.41-1.41,4.39a2.8,2.8,0,0,1,2.7-.72c1.75.56,2.46,2.6,1.6,5.29s-2.63,4-4.38,3.4a2.75,2.75,0,0,1-1.78-2.18l-1.41,4.41-1.28-.41,1.4-4.39a2.81,2.81,0,0,1-2.72.71c-1.75-.56-2.46-2.6-1.59-5.29s2.62-4,4.37-3.39A2.79,2.79,0,0,1,91.34,202.14Zm-4.87,1.63c-.59,1.83-.27,3.43,1,3.84a2.39,2.39,0,0,0,2.32-.71l1.2-3.73a2.41,2.41,0,0,0-1.47-1.95C88.25,200.81,87.06,201.94,86.47,203.77Zm9.15,2.92c.59-1.84.27-3.43-1-3.85a2.4,2.4,0,0,0-2.31.72l-1.2,3.74a2.41,2.41,0,0,0,1.46,1.94C93.84,209.65,95,208.52,95.62,206.69Z"/><path class="cls-1" d="M97.54,210.83c.78.2,1.5-.58,2.47-3l1.61-4,5.86,1.51-2.17,8.42-1.31-.34,1.87-7.27-3.39-.87-1.2,3.05c-1.19,3-2.4,4-4,3.58Z"/><path class="cls-1" d="M113.61,215.54l.2-1a3.76,3.76,0,0,1-3.07.6,2.89,2.89,0,0,1-2.39-3.44,2.84,2.84,0,0,1,3.56-2.18,3.64,3.64,0,0,1,2.58,1.75l.32-1.54c.23-1.14-.55-2-1.78-2.24a3.43,3.43,0,0,0-2.85.64l-.43-1a4.54,4.54,0,0,1,3.69-.7c1.8.37,3.13,1.5,2.7,3.56l-1.21,5.85Zm.37-1.79.33-1.61a2.89,2.89,0,0,0-2.12-1.54,1.91,1.91,0,1,0-.77,3.72A3,3,0,0,0,114,213.75Z"/><path class="cls-1" d="M125.12,209.94l-4.67-.77-1.23,7.4-1.33-.22,1.42-8.58,6,1Z"/><path class="cls-1" d="M133.47,218.54l.8-6.78-3.61,6.45-.5-.06-2-7.11-.79,6.78-1.34-.16,1-8.64,1.77.21,1.9,6.72,3.36-6.1,1.79.21-1,8.64Z"/><path class="cls-1" d="M143.3,219.32l.07-1a3.76,3.76,0,0,1-3,1,2.9,2.9,0,0,1-2.85-3.08,2.85,2.85,0,0,1,3.23-2.65,3.6,3.6,0,0,1,2.79,1.38l.11-1.56c.08-1.17-.81-1.9-2.07-2a3.47,3.47,0,0,0-2.74,1l-.56-1a4.56,4.56,0,0,1,3.56-1.21c1.83.13,3.3,1.05,3.16,3.16l-.4,6Zm.13-1.83.11-1.64a3,3,0,0,0-2.32-1.24,1.91,1.91,0,1,0-.25,3.79A2.9,2.9,0,0,0,143.43,217.49Z"/><path class="cls-1" d="M147.7,219.55l.18-8.69,1.35,0-.08,3.61,4.54.1.07-3.62,1.35,0-.18,8.69-1.35,0,.08-3.88-4.53-.1-.08,3.89Z"/><path class="cls-1" d="M157.28,215.36a4.31,4.31,0,1,1,4.41,4.46A4.26,4.26,0,0,1,157.28,215.36Zm7.17-.19c0-1.76-1.11-3.32-3-3.27s-2.86,1.66-2.81,3.42,1.13,3.34,3,3.29S164.5,217,164.45,215.17Z"/><path class="cls-1" d="M168.55,219.35l-.64-8.67,4.78-.35a2.19,2.19,0,0,1,2.6,2,2,2,0,0,1-1.25,2.08,2.21,2.21,0,0,1,1.73,2,2.28,2.28,0,0,1-2.35,2.54Zm5.37-6.68a1.16,1.16,0,0,0-1.38-1.14l-3.19.23.18,2.44,3.19-.23A1.17,1.17,0,0,0,173.92,212.67Zm.44,3.72a1.31,1.31,0,0,0-1.5-1.24l-3.25.24.2,2.67,3.25-.24A1.26,1.26,0,0,0,174.36,216.39Z"/><path class="cls-1" d="M189.48,217.12l-3.65-3.42-1.23,1.61.35,2.46-1.34.19-1.22-8.61,1.34-.19.65,4.58,3.87-5.22,1.7-.24-3.26,4.44,4.5,4.16Z"/><path class="cls-1" d="M191.75,212.37a4.31,4.31,0,1,1,5.08,3.69A4.27,4.27,0,0,1,191.75,212.37Zm7.06-1.34c-.33-1.73-1.64-3.1-3.46-2.75s-2.55,2.1-2.22,3.83,1.65,3.11,3.47,2.77S199.14,212.78,198.81,211Z"/><path class="cls-1" d="M210.87,212.7l-1.62-6.63-1.12,7.3-.5.12-4.38-6,1.62,6.63-1.31.32-2.07-8.44,1.73-.43,4.12,5.63,1-6.89,1.75-.43,2.07,8.45Z"/><path class="cls-1" d="M220.79,209.85l-2.16-7.19L214.28,204l2.16,7.19-1.29.39-2.51-8.33,6.94-2.09,2.5,8.33Z"/><path class="cls-1" d="M230.11,206.7l-.32-.94a3.79,3.79,0,0,1-2.32,2.1,2.89,2.89,0,0,1-3.82-1.71,2.83,2.83,0,0,1,1.91-3.7,3.62,3.62,0,0,1,3.11.16l-.52-1.48a1.92,1.92,0,0,0-2.68-1,3.5,3.5,0,0,0-2.11,2l-.9-.67a4.52,4.52,0,0,1,2.79-2.51c1.73-.61,3.45-.34,4.15,1.65l2,5.63ZM229.5,205l-.54-1.55a2.93,2.93,0,0,0-2.62-.22,1.91,1.91,0,1,0,1.27,3.58A2.9,2.9,0,0,0,229.5,205Z"/><path class="cls-1" d="M234.25,205.17,231,197.11l1.25-.51,1.36,3.36,4.2-1.71-1.36-3.35,1.25-.51,3.28,8.05-1.25.51-1.47-3.6-4.2,1.71,1.46,3.6Z"/><path class="cls-1" d="M243.78,201.22l-3.65-7.89,1.22-.57,2.79,6,1.34-7.94,1.21-.56,3.65,7.88-1.22.57-2.85-6.14L245,200.67Z"/><path class="cls-1" d="M253.08,196.83l-4-7.7,1.2-.63,3.08,5.89,1-8,1.18-.61,4,7.71-1.19.62-3.14-6-.93,8.12Z"/></svg>