<?xml version="1.0" encoding="utf-8"?>
<!-- Generator: Adobe Illustrator 24.0.3, SVG Export Plug-In . SVG Version: 6.00 Build 0)  -->
<svg version="1.1" id="Layer_1" xmlns="http://www.w3.org/2000/svg" xmlns:xlink="http://www.w3.org/1999/xlink" x="0px" y="0px"
	 viewBox="0 0 310 299.2" style="enable-background:new 0 0 310 299.2;" xml:space="preserve">
<style type="text/css">
	.st0{fill:#9588C8;}
	.st1{fill:none;}
</style>
<title>kommersant text</title>
<g>
	<path class="st0" d="M26.1,225.2l-1.1-1l7-8l-5.3-4.6l-7.1,8l-1.1-1l7.9-9l7.5,6.6L26.1,225.2z"/>
	<path class="st0" d="M34.8,230.6c-2.4,0.3-4.6-1.3-4.9-3.7c0,0,0-0.1,0-0.1c-0.1-2.5,1.6-4.6,4-5.1c2.4-0.3,4.6,1.4,4.9,3.8
		c0,0,0,0,0,0.1C38.8,227.9,37.2,230.1,34.8,230.6L34.8,230.6z M31.2,226.7c0.1,1.5,1.3,2.7,2.9,2.7c0.2,0,0.3,0,0.5-0.1
		c0.8-0.2,1.6-0.7,2.1-1.4c0.5-0.7,0.8-1.5,0.8-2.4c-0.1-1.5-1.4-2.7-2.9-2.6c-0.1,0-0.3,0-0.4,0.1c-0.8,0.2-1.6,0.7-2.1,1.4
		C31.5,225,31.2,225.8,31.2,226.7L31.2,226.7z"/>
	<path class="st0" d="M35,234.9l1.9-2.7c0.4,0.2,0.9,0.2,1.3-0.1c0.7-0.5,1.4-1,1.9-1.7l2.9-3.2l5,3.5l-4.3,6.1l0.8,0.6l-2,2.8
		l-1.1-0.8l1.3-1.8l-5.4-3.8l-1.3,1.8L35,234.9z M43.3,228.9l-2.2,2.4c-0.7,0.9-1.7,1.6-2.8,1.8l4.2,3l3.6-5.2L43.3,228.9z"/>
	<path class="st0" d="M51.9,243.5l-1.1-0.7l4-6.4L51,234l-4,6.4l-1.2-0.7l4.6-7.4l6.1,3.8L51.9,243.5z"/>
	<path class="st0" d="M55.8,245.7l-1.1-0.6l4.2-7.6l1.2,0.6l-3.2,5.8l7.2-3.6l1.2,0.6l-4.2,7.6l-1.2-0.6L63,242L55.8,245.7z"/>
	<path class="st0" d="M76.5,246.5l1.2,0.6l-3.8,7.8l-10.3-4.9l3.7-7.9l1.2,0.6l-3.2,6.8l3.3,1.6l3.2-6.8l1.2,0.6l-3.2,6.8l3.3,1.6
		L76.5,246.5z"/>
	<path class="st0" d="M78.2,256.6l-1.2-0.5l3.2-8.1l1.2,0.5l-2.4,6.2l6.7-4.5l1.2,0.5l-3.2,8.1l-1.3-0.5l2.5-6.3L78.2,256.6z"/>
	<path class="st0" d="M90.1,261.3c-1.1-0.4-2.1-1.2-2.5-2.3c-0.9-2.3,0-4.9,2.1-6.2c1-0.6,2.3-0.6,3.4-0.2c1.2,0.4,2.1,1.3,2.5,2.5
		l-1.1,0.5c-0.2-0.8-0.9-1.5-1.7-1.8c-0.8-0.3-1.6-0.2-2.4,0.2c-1.5,1-2.1,2.9-1.6,4.6c0.3,0.8,1,1.4,1.8,1.6
		c0.8,0.3,1.8,0.2,2.5-0.3l0.6,1.1C92.6,261.6,91.3,261.8,90.1,261.3z"/>
	<path class="st0" d="M97.8,254.5l1.3,0.4l-0.9,3.2l3.1,0.9c0.7,0.2,1.4,0.6,1.7,1.3c0.7,1.3,0.3,2.9-1,3.6
		c-0.7,0.4-1.5,0.4-2.2,0.2l-4.4-1.3L97.8,254.5z M100.8,260.1l-3-0.9l-0.8,2.8l3,0.9c0.4,0.1,0.8,0.1,1.2-0.1
		c0.3-0.2,0.6-0.5,0.7-0.9c0.1-0.4,0.1-0.8-0.1-1.1C101.6,260.4,101.2,260.2,100.8,260.1L100.8,260.1z"/>
	<path class="st0" d="M106.1,265.7c-0.2,0.1-0.5,0.2-0.8,0.1c-0.3-0.1-0.5-0.2-0.6-0.5c-0.1-0.2-0.2-0.5-0.1-0.8
		c0.1-0.3,0.2-0.5,0.4-0.6c0.2-0.1,0.5-0.2,0.8-0.1c0.3,0.1,0.5,0.2,0.6,0.4c0.1,0.2,0.2,0.5,0.1,0.8
		C106.5,265.3,106.3,265.6,106.1,265.7z"/>
	<path class="st0" d="M113.1,267.6c-1.2-0.2-2.1-1-2.6-2.1l-1,4.5l-1.3-0.3l2.5-11.7l1.3,0.3l-0.3,1.3c0.4-0.4,0.9-0.7,1.5-0.8
		c0.6-0.2,1.2-0.2,1.7-0.1c1.1,0.2,2,0.8,2.5,1.8c0.5,1.1,0.7,2.3,0.4,3.5c-0.2,1.2-0.8,2.2-1.7,3
		C115.2,267.6,114.1,267.9,113.1,267.6z M113,266.4c0.8,0.2,1.6,0,2.2-0.5c0.7-0.6,1.1-1.4,1.2-2.2c0.2-0.8,0.1-1.7-0.2-2.5
		c-0.3-0.7-1-1.2-1.8-1.3c-0.5-0.1-1.1-0.1-1.6,0.1c-0.5,0.1-0.9,0.4-1.3,0.7l-0.8,3.8c0.2,0.5,0.5,0.9,0.8,1.2
		C112,266,112.5,266.3,113,266.4L113,266.4z"/>
	<path class="st0" d="M123.6,260.3c1,0.2,1.8,0.9,2.1,1.9l0.7-4.6l1.3,0.2l-0.7,4.6c0.3-0.4,0.7-0.7,1.2-0.9
		c0.4-0.2,0.9-0.3,1.4-0.2c0.9,0.1,1.7,0.7,2.1,1.6c0.8,2.2,0.5,4.7-1,6.6c-0.6,0.7-1.5,1-2.4,0.9c-1-0.2-1.8-0.9-2.1-1.9l-0.7,4.6
		l-1.3-0.2l0.7-4.6c-0.3,0.4-0.7,0.7-1.2,0.9c-0.4,0.2-0.9,0.3-1.4,0.2c-0.9-0.1-1.7-0.7-2.1-1.6c-0.8-2.2-0.4-4.7,1-6.6
		C121.7,260.5,122.7,260.2,123.6,260.3z M123.8,261.6c-0.6-0.1-1.3,0.2-1.7,0.7c-1,1.4-1.2,3.2-0.7,4.8c0.2,0.6,0.8,1.1,1.4,1.1
		c0.4,0.1,0.8,0,1.2-0.2c0.4-0.2,0.8-0.5,1-0.9l0.6-3.9c-0.1-0.4-0.4-0.8-0.7-1.1C124.6,261.9,124.2,261.7,123.8,261.6z M128.1,269
		c0.6,0.1,1.3-0.2,1.7-0.7c1-1.4,1.2-3.2,0.7-4.8c-0.2-0.6-0.8-1.1-1.4-1.2c-0.4-0.1-0.8,0-1.2,0.2c-0.4,0.2-0.7,0.5-1,0.9l-0.6,3.9
		c0.1,0.4,0.4,0.8,0.7,1.1C127.2,268.7,127.6,268.9,128.1,269L128.1,269z"/>
	<path class="st0" d="M135.4,270.7c-0.2,0.2-0.5,0.2-0.7,0.2c-0.3,0-0.5-0.2-0.7-0.4c-0.2-0.2-0.3-0.5-0.2-0.7
		c0.1-0.5,0.5-0.9,1.1-0.9c0.3,0,0.5,0.1,0.7,0.4c0.2,0.2,0.2,0.5,0.2,0.7C135.8,270.3,135.6,270.5,135.4,270.7z"/>
	<path class="st0" d="M148.8,271.6l-5.5-0.2l0.4-12l5.3,0.2c0.9,0,1.8,0.3,2.4,0.9c0.6,0.6,0.9,1.4,0.8,2.2c0,0.7-0.2,1.3-0.7,1.8
		c-0.4,0.5-0.9,0.8-1.5,0.9c0.7,0.1,1.2,0.5,1.6,1.1c0.4,0.6,0.7,1.3,0.6,2c0,0.9-0.4,1.7-1,2.3
		C150.6,271.5,149.7,271.7,148.8,271.6z M148.5,270.3c0.6,0.1,1.2-0.1,1.6-0.5c0.4-0.4,0.7-0.9,0.6-1.5c0-0.5-0.2-1.1-0.5-1.5
		c-0.4-0.4-1-0.7-1.6-0.7l-3.6-0.1l-0.1,4.1L148.5,270.3z M148.6,264.8c0.6,0.1,1.1-0.1,1.6-0.5c0.4-0.4,0.6-0.8,0.6-1.4
		c0-0.5-0.1-1-0.5-1.4c-0.4-0.4-0.9-0.6-1.5-0.6l-3.6-0.1l-0.1,3.9L148.6,264.8z"/>
	<path class="st0" d="M161.4,271.6l-1.5,0.1l-0.5-12l4.8-0.2c1-0.1,2,0.2,2.8,0.9c1.4,1.4,1.5,3.6,0.2,5.2c-0.7,0.7-1.7,1.2-2.7,1.2
		l-3.3,0.2L161.4,271.6z M164.2,265.4c0.6,0,1.3-0.3,1.7-0.7c0.4-0.4,0.6-1.1,0.6-1.7c0-0.6-0.3-1.2-0.7-1.6
		c-0.5-0.4-1.1-0.6-1.8-0.6l-3.1,0.2l0.2,4.6L164.2,265.4z"/>
	<path class="st0" d="M177.3,269.3c-1.5,1.9-4.2,2.2-6.1,0.7c0,0-0.1,0-0.1-0.1c-1.8-1.7-2-4.5-0.6-6.5c1.5-1.9,4.3-2.2,6.2-0.6
		c0,0,0,0,0,0C178.5,264.6,178.7,267.3,177.3,269.3z M172,269c0.6,0.6,1.4,0.9,2.2,0.8c0.8-0.1,1.6-0.5,2-1.2
		c0.4-0.7,0.6-1.6,0.5-2.4c-0.1-0.9-0.4-1.7-1-2.3c-1.1-1.1-2.9-1-3.9,0.1c-0.1,0.1-0.2,0.2-0.3,0.3c-0.5,0.7-0.7,1.6-0.6,2.4
		C171.1,267.5,171.4,268.4,172,269L172,269z"/>
	<path class="st0" d="M185,269.6c-1.2,0.2-2.4-0.1-3.3-0.8c-1.9-1.6-2.3-4.4-1-6.5c0.7-1,1.7-1.6,2.9-1.7c1.2-0.2,2.5,0.1,3.4,1
		l-0.8,1c-0.6-0.6-1.5-0.9-2.4-0.8c-0.8,0.1-1.6,0.6-2,1.2c-0.9,1.6-0.6,3.5,0.7,4.8c0.6,0.5,1.5,0.8,2.3,0.6c0.9-0.1,1.6-0.7,2-1.4
		l1,0.7C187.3,268.7,186.2,269.5,185,269.6z"/>
	<path class="st0" d="M194.1,268.1c-1.2,0.3-2.4,0-3.3-0.7c-2-1.5-2.5-4.3-1.3-6.4c0.6-1,1.7-1.7,2.8-1.9c1.2-0.3,2.5,0,3.4,0.9
		l-0.7,1c-0.6-0.6-1.5-0.9-2.4-0.7c-0.8,0.1-1.6,0.6-2,1.3c-0.8,1.6-0.4,3.5,0.9,4.7c0.7,0.5,1.5,0.7,2.3,0.5c0.9-0.1,1.6-0.7,2-1.5
		l1,0.6C196.4,267.1,195.3,267.9,194.1,268.1z"/>
	<path class="st0" d="M200.7,266.4l-1.3,0.3l-2.1-8.4l1.3-0.3l1.6,6.5l2.8-7.5l1.3-0.3l2.1,8.4l-1.3,0.3l-1.6-6.6L200.7,266.4z"/>
	<path class="st0" d="M210.6,263.7l-1.2,0.4l-2.5-8.3l1.3-0.4l1.9,6.4l2.4-7.7l1.3-0.4l2.5,8.3l-1.3,0.4l-2-6.5L210.6,263.7z"/>
	<path class="st0" d="M230.6,256.8l-1.3,0.5l-2.7-7l-4.2,1.6l2.7,7l-1.3,0.5l-3.2-8.1l6.7-2.6L230.6,256.8z"/>
	<path class="st0" d="M239.3,251.7c-0.4,1.1-1.2,2-2.3,2.5c-1.1,0.5-2.3,0.6-3.4,0.1c-2.2-1.1-3.3-3.6-2.7-5.9
		c0.4-1.1,1.2-2,2.3-2.5c1.1-0.5,2.3-0.6,3.4-0.1C238.8,246.9,239.9,249.4,239.3,251.7L239.3,251.7z M234.1,253.1
		c0.7,0.4,1.6,0.4,2.3,0c0.8-0.3,1.3-1,1.5-1.8c0.3-1.7-0.5-3.5-2-4.3c-1.4-0.7-3-0.1-3.7,1.3c-0.1,0.1-0.1,0.3-0.2,0.4
		c-0.2,0.8-0.1,1.7,0.3,2.5C232.8,252,233.4,252.7,234.1,253.1z"/>
	<path class="st0" d="M244.3,250.5l-1.4,0.7l0.5-4.1c-0.6,0.2-1.2,0.2-1.8,0c-0.6-0.2-1.1-0.7-1.4-1.3c-0.3-0.6-0.4-1.3-0.2-2
		c0.2-0.7,0.8-1.3,1.4-1.6l4.1-2.1l4,7.7l-1.2,0.6l-1.6-3l-2.1,1.1L244.3,250.5z M243.4,245.8l2.8-1.4l-1.4-2.6l-2.8,1.4
		c-0.8,0.3-1.1,1.2-0.8,1.9c0.3,0.8,1.2,1.1,1.9,0.8C243.3,245.9,243.3,245.9,243.4,245.8L243.4,245.8z"/>
	<path class="st0" d="M256.4,243.8l-4.2,2.5l-4.4-7.5l4.1-2.4c0.5-0.4,1.2-0.5,1.9-0.4c0.6,0.1,1.1,0.5,1.4,1.1
		c0.2,0.4,0.3,0.8,0.3,1.3c0,0.4-0.2,0.8-0.5,1.1c0.5-0.1,0.9-0.1,1.4,0.1c1.1,0.5,1.6,1.6,1.4,2.8C257.5,243,257,243.5,256.4,243.8
		z M253.6,239.6c0.3-0.2,0.5-0.4,0.6-0.8c0.1-0.3,0-0.7-0.1-0.9c-0.2-0.3-0.4-0.5-0.8-0.6c-0.3-0.1-0.7,0-1,0.2l-2.8,1.6l1.2,2.1
		L253.6,239.6z M255.6,243c0.3-0.2,0.6-0.5,0.7-0.8c0.1-0.3,0-0.7-0.2-1c-0.2-0.3-0.5-0.5-0.8-0.6c-0.4-0.1-0.8,0-1.1,0.2l-2.8,1.6
		l1.4,2.3L255.6,243z"/>
	<path class="st0" d="M262.2,240.3l-1.1,0.7l-4.8-7.3l1.1-0.7l3.6,5.6l0.2-8.1l1.1-0.7l4.8,7.3l-1.1,0.7l-3.7-5.7L262.2,240.3z"/>
	<path class="st0" d="M269,236.1l-0.7-0.9c0.4-0.3,0.5-0.8,0.3-1.2c-0.2-0.9-0.6-1.8-1.1-2.6l-2.1-3.8l4.9-3.6l5.1,7l-1.1,0.8
		l-4.4-6l-2.8,2.1l1.6,2.9c0.7,1,1.1,2.2,1.2,3.4C270,234.9,269.7,235.6,269,236.1z"/>
	<path class="st0" d="M281.1,226.9c-0.9,0.8-2.1,1.2-3.3,1c-1.2-0.2-2.3-0.8-3-1.8c-0.8-0.9-1.2-2.1-1.1-3.3c0.1-1.2,0.7-2.3,1.6-3
		c0.9-0.8,2.2-1.1,3.4-0.8l-0.2,1.2c-0.8-0.3-1.8-0.1-2.4,0.5c-0.7,0.5-1.1,1.3-1.1,2.1c0,0.9,0.3,1.7,0.9,2.4
		c0.5,0.7,1.3,1.2,2.2,1.4c0.8,0.1,1.7-0.1,2.3-0.6c0.7-0.5,1.1-1.4,1-2.3l1.2,0.1C282.6,224.9,282,226.1,281.1,226.9z"/>
	<path class="st0" d="M286.1,222.3l-1.2,1.1l-0.5-4.1c-0.5,0.4-1.1,0.5-1.8,0.5c-0.6-0.1-1.2-0.4-1.6-0.9c-0.5-0.5-0.7-1.2-0.7-1.9
		c0.1-0.7,0.4-1.4,1-1.9l3.4-3.1l5.8,6.5l-1,0.9l-2.2-2.5l-1.8,1.6L286.1,222.3z M284.1,218l2.3-2.1l-2-2.2l-2.3,2.1
		c-0.3,0.2-0.5,0.6-0.6,1c0,0.4,0.1,0.8,0.4,1.1c0.3,0.3,0.6,0.5,1,0.5C283.4,218.5,283.8,218.3,284.1,218L284.1,218z"/>
</g>
<g>
	<path class="st0" d="M28.6,258.4l-1.1-0.8l4.8-7.2l1.1,0.7l-2,3l3.8,2.5l2-3l1.1,0.7l-4.8,7.2l-1.1-0.8l2.2-3.2l-3.8-2.5
		L28.6,258.4z"/>
	<path class="st0" d="M42.6,265.9c-2.3,0.6-4.7-0.8-5.3-3.1c0,0,0-0.1,0-0.1c-0.4-2.4,1-4.8,3.3-5.6c2.3-0.6,4.7,0.8,5.3,3.2
		c0,0,0,0,0,0.1c0.2,1.2,0,2.4-0.7,3.4C44.7,264.8,43.7,265.6,42.6,265.9z M38.6,262.5c0.2,1.5,1.7,2.5,3.2,2.3
		c0.1,0,0.3-0.1,0.4-0.1c0.8-0.3,1.5-0.9,1.9-1.6c0.5-0.7,0.7-1.6,0.6-2.4c-0.1-0.8-0.6-1.5-1.3-1.9c-0.7-0.4-1.5-0.5-2.3-0.2
		c-0.8,0.3-1.5,0.9-1.9,1.7C38.6,260.8,38.4,261.6,38.6,262.5L38.6,262.5z"/>
	<path class="st0" d="M49.6,271.1l-4.3-2.3l4.1-7.7l4.2,2.3c0.6,0.3,1.1,0.8,1.3,1.4c0.2,0.6,0.1,1.2-0.2,1.7
		c-0.2,0.4-0.6,0.7-1,0.9c-0.4,0.2-0.8,0.2-1.2,0.1c0.3,0.3,0.6,0.8,0.6,1.2c0.1,0.5,0,1-0.2,1.4c-0.3,0.6-0.8,1-1.4,1.2
		C50.8,271.5,50.1,271.4,49.6,271.1z M49.9,269.9c0.3,0.2,0.7,0.3,1.1,0.2c0.3-0.1,0.6-0.3,0.8-0.7c0.2-0.3,0.2-0.7,0.1-1
		c-0.1-0.4-0.4-0.7-0.7-0.8l-2.9-1.5l-1.3,2.3L49.9,269.9z M51.7,266.5c0.3,0.2,0.7,0.2,1,0.2c0.3-0.1,0.6-0.3,0.7-0.6
		c0.2-0.3,0.2-0.7,0.1-1c-0.1-0.3-0.4-0.6-0.7-0.7l-2.8-1.5l-1.2,2.1L51.7,266.5z"/>
	<path class="st0" d="M58.1,265.7l1.2,0.6l-1.4,3l3,1.4c0.7,0.3,1.2,0.8,1.5,1.5c0.2,0.7,0.2,1.4-0.2,2c-0.6,1.3-2.1,1.9-3.4,1.4
		c-0.1,0-0.2-0.1-0.2-0.1l-4.2-2L58.1,265.7z M60.2,271.7l-2.8-1.3l-1.3,2.7l2.8,1.4c0.4,0.2,0.8,0.2,1.2,0.1
		c0.4-0.2,0.7-0.4,0.8-0.8c0.4-0.6,0.2-1.5-0.4-1.9C60.4,271.8,60.4,271.8,60.2,271.7L60.2,271.7z M63.6,277.9l-1.2-0.6l3.7-7.9
		l1.2,0.6L63.6,277.9z"/>
	<path class="st0" d="M67.6,279.6l-1.2-0.5l3.3-8l1.2,0.5l-2.5,6.1l6.7-4.4l1.2,0.5l-3.3,8l-1.2-0.5l2.6-6.3L67.6,279.6z
		 M76.9,271.3c-1.1,0.7-2.4,0.8-3.5,0.3c-1.2-0.4-2-1.4-2.3-2.7l0.8-0.3c0.2,1,0.9,1.8,1.8,2.1c0.9,0.4,2,0.3,2.8-0.3L76.9,271.3z"
		/>
	<path class="st0" d="M84,286.1c-1.1-0.3-2.1-1.2-2.6-2.2c-0.9-2.3-0.1-4.9,2.1-6.2c1-0.6,2.3-0.6,3.4-0.2c1.2,0.3,2.1,1.3,2.5,2.4
		l-1.1,0.5c-0.2-0.8-0.9-1.5-1.7-1.8c-0.8-0.3-1.7-0.2-2.4,0.2c-0.7,0.4-1.3,1.2-1.5,2c-0.3,0.8-0.3,1.7,0,2.6
		c0.3,0.8,1,1.4,1.8,1.6c0.8,0.3,1.8,0.2,2.5-0.4l0.6,1.1C86.5,286.3,85.2,286.5,84,286.1z"/>
	<path class="st0" d="M93,288.8c-1.2-0.3-2.1-1-2.7-2.1c-0.6-1.1-0.7-2.4-0.3-3.5c0.3-1.1,1-2.1,2-2.8c1-0.6,2.2-0.8,3.3-0.4
		c1.1,0.3,2.1,1,2.6,2.1c0.5,1.1,0.5,2.4,0.2,3.5l-0.1,0.3l-6.8-2c-0.2,0.8-0.1,1.6,0.3,2.3c0.4,0.7,1.1,1.2,1.9,1.4
		c1,0.3,2,0.2,2.9-0.3l0.4,1C95.5,289,94.2,289.1,93,288.8z M97,284.6c0.2-0.7,0.1-1.5-0.2-2.1c-0.7-1.4-2.4-2-3.8-1.2
		c-0.1,0-0.1,0.1-0.2,0.1c-0.6,0.4-1.1,1-1.3,1.8L97,284.6z"/>
	<path class="st0" d="M103.5,291.5c-1.2-0.2-2.1-1.1-2.5-2.2l-1.1,4.5l-1.3-0.3l2.8-11.7l1.3,0.3l-0.3,1.3c0.9-0.8,2.1-1.1,3.2-0.8
		c1.1,0.2,1.9,0.9,2.4,1.9c0.9,2.3,0.3,4.9-1.5,6.5C105.6,291.6,104.5,291.8,103.5,291.5z M103.4,290.2c0.8,0.2,1.6,0,2.2-0.5
		c0.7-0.6,1.1-1.3,1.3-2.2c0.2-0.8,0.2-1.7-0.2-2.5c-0.3-0.7-1-1.2-1.8-1.4c-0.5-0.1-1.1-0.1-1.6,0.1c-0.5,0.1-0.9,0.4-1.3,0.7
		l-0.9,3.8c0.2,0.5,0.4,0.9,0.8,1.2C102.4,289.9,102.9,290.1,103.4,290.2z"/>
	<path class="st0" d="M114.5,293.6l-4.8-0.9l1.6-8.5l4.7,0.9c0.6,0.1,1.2,0.4,1.7,0.9c0.4,0.5,0.5,1.1,0.3,1.7
		c-0.1,0.4-0.3,0.9-0.6,1.2c-0.3,0.3-0.7,0.5-1.1,0.5c0.4,0.2,0.8,0.6,1,1c0.2,0.4,0.3,0.9,0.2,1.4c-0.1,0.6-0.5,1.2-1,1.5
		C115.9,293.7,115.2,293.8,114.5,293.6z M114.5,292.4c0.4,0.1,0.8,0,1.1-0.2c0.3-0.2,0.5-0.5,0.6-0.9c0.1-0.3,0-0.7-0.2-1
		c-0.2-0.3-0.6-0.5-0.9-0.6l-3.2-0.6l-0.5,2.6L114.5,292.4z M115.2,288.6c0.3,0.1,0.7,0,1-0.2c0.3-0.2,0.4-0.5,0.5-0.8
		c0.1-0.3,0-0.7-0.2-1c-0.2-0.3-0.5-0.5-0.9-0.5l-3.2-0.6l-0.4,2.4L115.2,288.6z"/>
	<path class="st0" d="M121.2,294.7l-1.3-0.2l1.2-8.6l1.3,0.2l-0.9,6.6l5.4-6l1.3,0.2l-1.2,8.6l-1.3-0.2l0.9-6.7L121.2,294.7z"/>
	<path class="st0" d="M133.9,296.5c-1.2-0.1-2.3-0.7-3-1.6c-1.4-2-1.2-4.8,0.6-6.5c0.9-0.8,2.1-1.2,3.2-1c1.2,0.1,2.4,0.8,3,1.8
		l-1,0.7c-0.4-0.8-1.2-1.3-2.1-1.3c-0.8-0.1-1.7,0.2-2.3,0.7c-0.6,0.6-1,1.5-1,2.3c-0.1,0.9,0.1,1.7,0.6,2.5c0.5,0.7,1.2,1.1,2,1.2
		c0.9,0.1,1.7-0.2,2.3-0.9l0.8,0.9C136.3,296.2,135.1,296.6,133.9,296.5z"/>
	<path class="st0" d="M151.3,297.2H150l0.2-7.5l-4.5-0.1l-0.2,7.5h-1.4l0.3-8.7l7.2,0.2L151.3,297.2z"/>
	<path class="st0" d="M161.3,296.1c-0.8,0.9-1.9,1.4-3.1,1.4c-1.2,0.1-2.3-0.4-3.1-1.3c-1.6-1.9-1.6-4.6-0.1-6.5
		c0.8-0.9,1.9-1.4,3.1-1.4c1.2-0.1,2.3,0.4,3.1,1.2C162.8,291.4,162.8,294.1,161.3,296.1L161.3,296.1z M156,295.3
		c0.5,0.6,1.3,1,2.1,0.9c0.8,0,1.6-0.3,2.1-1c0.5-0.7,0.8-1.5,0.7-2.4c0-0.9-0.3-1.7-0.8-2.4c-0.5-0.6-1.3-1-2.1-0.9
		c-0.8,0-1.6,0.3-2.1,1c-0.5,0.7-0.8,1.5-0.7,2.4C155.2,293.8,155.5,294.6,156,295.3L156,295.3z"/>
	<path class="st0" d="M176.5,296.2l-1.3,0.1l-0.1-1c-0.7,0.9-1.7,1.4-2.8,1.4c-0.8,0.1-1.5-0.1-2.2-0.6c-1.3-1-1.5-2.8-0.5-4.1
		c0-0.1,0.1-0.1,0.1-0.2c0.6-0.5,1.3-0.9,2.1-0.9c1.1-0.2,2.2,0.2,3,1l-0.1-1.6c0-0.5-0.3-1-0.7-1.3c-0.5-0.3-1.1-0.4-1.6-0.4
		c-1,0.1-1.9,0.6-2.6,1.4l-0.7-0.9c0.8-1,2-1.6,3.4-1.7c0.9-0.1,1.7,0.1,2.5,0.5c0.7,0.5,1.1,1.3,1.1,2.1L176.5,296.2z M172.8,295.8
		c0.9,0,1.8-0.5,2.3-1.3l-0.1-1.6c-0.6-0.7-1.6-1-2.5-0.9c-0.6,0-1.1,0.3-1.5,0.7c-0.4,0.4-0.6,0.9-0.5,1.4c0,0.5,0.3,1,0.7,1.3
		C171.6,295.7,172.2,295.8,172.8,295.8z"/>
	<path class="st0" d="M183.9,295.6c-1.2,0.2-2.3-0.3-3.1-1.2l0.6,4.6l-1.3,0.2l-1.5-11.9l1.3-0.2l0.2,1.3c0.3-0.5,0.6-0.9,1.1-1.2
		c1.4-1,3.3-0.9,4.5,0.3c0.9,0.8,1.4,2,1.5,3.2c0.2,1.2,0,2.4-0.6,3.4C185.9,294.9,184.9,295.5,183.9,295.6z M183.4,294.4
		c0.8-0.1,1.5-0.5,1.9-1.2c0.4-0.8,0.6-1.6,0.4-2.5c-0.1-0.9-0.4-1.7-1.1-2.3c-0.6-0.6-1.4-0.8-2.1-0.7c-0.5,0.1-1,0.3-1.4,0.6
		c-0.4,0.3-0.8,0.7-1,1.1l0.5,3.9c0.3,0.4,0.7,0.7,1.2,0.9C182.3,294.4,182.8,294.5,183.4,294.4L183.4,294.4z"/>
	<path class="st0" d="M194,294.1c-1.2,0.2-2.4,0-3.4-0.7c-1-0.7-1.6-1.8-1.8-3c-0.2-1.2,0-2.4,0.6-3.4c0.6-1,1.6-1.7,2.8-1.8
		c1.1-0.2,2.3,0,3.2,0.8c0.9,0.8,1.5,1.9,1.7,3.1l0.1,0.3l-6.9,1.2c0.2,0.8,0.6,1.5,1.3,2c0.7,0.5,1.5,0.6,2.3,0.5
		c1-0.1,1.9-0.7,2.4-1.5l0.8,0.8C196.4,293.3,195.3,293.9,194,294.1z M195.8,288.6c-0.1-0.7-0.5-1.4-1.1-1.9
		c-0.6-0.5-1.4-0.7-2.2-0.5c-0.8,0.1-1.5,0.6-1.9,1.2c-0.4,0.6-0.5,1.4-0.4,2.1L195.8,288.6z"/>
	<path class="st0" d="M201.8,292.4l-1.3,0.3l-1.9-8.5l1.3-0.3l0.8,3.5l4.4-1l-0.8-3.5l1.3-0.3l1.9,8.5l-1.3,0.3l-0.8-3.8l-4.4,1
		L201.8,292.4z"/>
	<path class="st0" d="M210.1,292.8l-0.9-3.2c0.4-0.2,0.7-0.6,0.8-1c0.1-0.9,0.1-1.7-0.1-2.6l-0.6-4.3l5.8-1.6l2,7.2l1-0.3l0.9,3.3
		l-1.3,0.4l-0.6-2.1l-6.3,1.7l0.6,2.1L210.1,292.8z M210.8,282.5l0.5,3.2c0.3,1.1,0.1,2.3-0.4,3.3l5-1.4l-1.7-6.1L210.8,282.5z"/>
	<path class="st0" d="M224.4,286.5c-1.1,0.4-2.4,0.3-3.4-0.2c-1.1-0.6-1.9-1.6-2.2-2.8c-0.4-1.1-0.3-2.4,0.2-3.5
		c0.5-1.1,1.4-1.9,2.5-2.2c1.1-0.4,2.3-0.3,3.3,0.3c1,0.7,1.8,1.7,2.1,2.8l0.1,0.3l-6.7,2.2c0.3,0.8,0.8,1.4,1.6,1.8
		c0.7,0.4,1.6,0.4,2.4,0.1c1-0.3,1.8-1,2.2-1.9l0.9,0.6C226.6,285.4,225.6,286.2,224.4,286.5z M225.4,280.9
		c-0.2-0.7-0.7-1.3-1.3-1.7c-1.4-0.8-3.1-0.3-3.9,1.1c0,0.1-0.1,0.1-0.1,0.2c-0.3,0.7-0.3,1.4-0.1,2.2L225.4,280.9z"/>
	<path class="st0" d="M232,273.1c-0.2,0.1-0.5,0.1-0.7,0c-0.5-0.2-0.7-0.7-0.5-1.2c0,0,0,0,0,0c0.1-0.2,0.3-0.4,0.5-0.5
		c0.5-0.2,1,0.1,1.2,0.5c0,0,0,0,0,0c0.1,0.2,0.1,0.5,0,0.7C232.4,272.8,232.2,273,232,273.1z M236.2,282.1l-1.2,0.5l-3.1-8.1
		l1.3-0.5L236.2,282.1z"/>
	<path class="st0" d="M240.4,280.5l-1.4,0.6l-4.7-11.1l4.4-1.9c0.9-0.4,2-0.5,2.9-0.1c1.8,0.8,2.7,2.9,2,4.8c-0.4,0.9-1.2,1.7-2.1,2
		l-3.1,1.3L240.4,280.5z M240.9,273.6c0.6-0.2,1.1-0.7,1.3-1.3c0.3-0.6,0.3-1.2,0-1.8c-0.2-0.6-0.7-1-1.3-1.2
		c-0.6-0.2-1.3-0.2-1.8,0.1l-2.9,1.2l1.8,4.2L240.9,273.6z"/>
	<path class="st0" d="M255.5,273.6l-1.2,0.6l-2.5-5.1c-0.2-0.5-0.6-0.9-1.1-1.2c-0.5-0.1-1.1,0-1.5,0.2c-0.5,0.2-0.8,0.6-1.1,1
		c-0.3,0.4-0.5,0.9-0.6,1.3l2.8,5.7l-1.2,0.6l-5.2-10.8l1.2-0.6l2,4.1c0.2-0.5,0.4-1.1,0.8-1.5c0.4-0.5,0.8-0.9,1.4-1.2
		c1.1-0.7,2.7-0.4,3.4,0.7c0.1,0.2,0.2,0.4,0.3,0.6L255.5,273.6z"/>
	<path class="st0" d="M263.8,268c-0.7,2.3-3.1,3.7-5.4,3c0,0-0.1,0-0.1,0c-2.3-0.9-3.6-3.3-3.1-5.7c0.7-2.3,3.1-3.7,5.4-3
		c0,0,0,0,0.1,0c1.1,0.4,2,1.2,2.6,2.3C263.9,265.6,264.1,266.8,263.8,268z M258.8,269.7c1.4,0.6,3-0.1,3.6-1.6
		c0.1-0.1,0.1-0.3,0.1-0.4c0.1-0.9,0-1.7-0.5-2.5c-0.4-0.8-1-1.4-1.8-1.7c-1.4-0.6-3,0.1-3.6,1.6c-0.1,0.1-0.1,0.3-0.1,0.4
		c-0.1,0.8,0,1.7,0.4,2.5C257.4,268.7,258,269.3,258.8,269.7L258.8,269.7z"/>
	<path class="st0" d="M273.8,263.4l-1.2,0.7l-2.9-4.9c-0.2-0.5-0.7-0.9-1.2-1.1c-0.5-0.1-1,0-1.5,0.4c-0.4,0.3-0.8,0.6-1,1.1
		c-0.3,0.4-0.4,0.9-0.5,1.4l3.3,5.5l-1.2,0.7l-4.5-7.5l1.2-0.7l0.6,1.1c0.1-0.6,0.3-1.1,0.6-1.6c0.3-0.5,0.7-1,1.3-1.3
		c1.1-0.8,2.6-0.7,3.5,0.4c0.1,0.2,0.3,0.4,0.4,0.6L273.8,263.4z"/>
	<path class="st0" d="M279.7,259.8c-1,0.7-2.2,1-3.4,0.7c-2.4-0.6-4-3-3.6-5.4c0.2-1.2,0.8-2.2,1.8-2.8c0.9-0.7,2.1-0.9,3.3-0.6
		c1.2,0.4,2.2,1.1,2.8,2.2l0.2,0.3l-5.9,3.9c0.5,0.7,1.2,1.1,2,1.3c0.8,0.2,1.6,0,2.3-0.5c0.9-0.5,1.4-1.4,1.6-2.4l1,0.4
		C281.6,258,280.8,259.1,279.7,259.8z M279.1,254c-0.4-0.6-1-1.1-1.7-1.2c-0.8-0.2-1.6-0.1-2.2,0.4c-0.7,0.4-1.1,1.1-1.2,1.9
		c-0.1,0.7,0.1,1.5,0.5,2.1L279.1,254z"/>
</g>
<path class="st1" d="M310,71.9c0,85.6-69.4,155-155,155S0,157.5,0,71.9"/>
</svg>
