<svg xmlns="http://www.w3.org/2000/svg" viewBox="0 0 283.6 85.3">
  <defs>
    <style>
      .cls-1 {
        fill: #9588c8;
      }
    </style>
  </defs>
  <title>Ресурс 1</title>
  <g id="Слой_2" data-name="Слой 2">
    <g id="Layer_1" data-name="Layer 1">
      <g>
        <path class="cls-1" d="M9.68,10.88l.78-.91A8.2,8.2,0,0,1,9,8.1a5.5,5.5,0,0,1-.68-1.91,4.23,4.23,0,0,1,.13-1.84,4.53,4.53,0,0,1,.92-1.67,4.4,4.4,0,0,1,1.5-1.14,4.25,4.25,0,0,1,1.8-.39,5.82,5.82,0,0,1,2,.38,8.36,8.36,0,0,1,2.08,1.16l.79-.91,1.13,1-.79.92a8,8,0,0,1,1.46,1.88A5.94,5.94,0,0,1,20,7.46a4.23,4.23,0,0,1-.11,1.84A4.49,4.49,0,0,1,19,11a4.44,4.44,0,0,1-1.52,1.17,4.21,4.21,0,0,1-1.8.38,5.61,5.61,0,0,1-2-.38A8.73,8.73,0,0,1,11.59,11l-.77.9Zm.86-7.18a3,3,0,0,0-.75,2.49A5,5,0,0,0,11.33,9L15.86,3.7a4.91,4.91,0,0,0-3-1.11A3,3,0,0,0,10.54,3.7ZM17.8,10a3.06,3.06,0,0,0,.74-2.5A5.11,5.11,0,0,0,17,4.67L12.46,9.94a5,5,0,0,0,3,1.11A3,3,0,0,0,17.8,10Z"/>
        <path class="cls-1" d="M20.14,19.62a4.42,4.42,0,0,1-1.21-1.36,4.12,4.12,0,0,1-.49-1.61A4.37,4.37,0,0,1,18.63,15a5.48,5.48,0,0,1,2.14-2.83,4.32,4.32,0,0,1,1.56-.65,4.11,4.11,0,0,1,1.67.05,4.22,4.22,0,0,1,1.64.79,4.38,4.38,0,0,1,1.22,1.37,4.09,4.09,0,0,1,.3,3.26,5,5,0,0,1-.83,1.6A5.29,5.29,0,0,1,25,19.81a4.44,4.44,0,0,1-1.55.64,4,4,0,0,1-1.68,0A4.32,4.32,0,0,1,20.14,19.62Zm.73-1a2.58,2.58,0,0,0,1.15.52,2.72,2.72,0,0,0,1.17-.05,3.09,3.09,0,0,0,1.09-.51,4.66,4.66,0,0,0,.92-.91,4.27,4.27,0,0,0,.61-1.13A3.26,3.26,0,0,0,26,15.4a3,3,0,0,0-.28-1.13,2.82,2.82,0,0,0-2-1.49,2.71,2.71,0,0,0-1.17,0,3,3,0,0,0-1.09.51,3.88,3.88,0,0,0-.91.9A4,4,0,0,0,20,15.36a3,3,0,0,0-.2,1.19,2.74,2.74,0,0,0,.28,1.14A2.67,2.67,0,0,0,20.87,18.66Z"/>
        <path class="cls-1" d="M29.27,26.12a3.47,3.47,0,0,1-1.57-2.9l-2.59,3.83L24,26.3l6.71-10,1.12.76-.72,1.07A3.7,3.7,0,0,1,32.74,18a3.6,3.6,0,0,1,1.64.6,4,4,0,0,1,1.13,1.14A3.67,3.67,0,0,1,36,21.13a4.2,4.2,0,0,1-.15,1.63A6.25,6.25,0,0,1,35,24.5a6,6,0,0,1-1.3,1.42,4.18,4.18,0,0,1-1.46.76,3.6,3.6,0,0,1-1.53.07A3.9,3.9,0,0,1,29.27,26.12Zm.39-1.19a2.64,2.64,0,0,0,1.11.45,2.54,2.54,0,0,0,1.13-.09A3.13,3.13,0,0,0,33,24.71a4.45,4.45,0,0,0,.91-1,4.51,4.51,0,0,0,.59-1.21,3.26,3.26,0,0,0,.14-1.18,2.54,2.54,0,0,0-1.17-1.94,3.07,3.07,0,0,0-1.49-.52,2.92,2.92,0,0,0-1.44.22L28.3,22.32a3.16,3.16,0,0,0,1.36,2.61Z"/>
        <path class="cls-1" d="M34.77,29.47,39.24,22l4.11,2.47a2.51,2.51,0,0,1,1.22,1.46,2.11,2.11,0,0,1-.27,1.71,2,2,0,0,1-1,.89,2.13,2.13,0,0,1-1.19.08,2.12,2.12,0,0,1,.55,1.24,2.18,2.18,0,0,1,0,.72,2,2,0,0,1-.26.68,2.28,2.28,0,0,1-1.45,1.12A2.54,2.54,0,0,1,39,32Zm4.57,1.34A1.51,1.51,0,0,0,40.4,31a1.26,1.26,0,0,0,.82-.65,1.32,1.32,0,0,0,.17-1,1.31,1.31,0,0,0-.68-.89l-2.79-1.68-1.38,2.29Zm1.94-3.35a1.28,1.28,0,0,0,1,.21,1.19,1.19,0,0,0,.73-.56,1.21,1.21,0,0,0,.17-.94,1.35,1.35,0,0,0-.66-.78l-2.74-1.65-1.24,2.07Z"/>
        <path class="cls-1" d="M48.49,37.29l.47-.88a3.69,3.69,0,0,1-3.11-.29,3.41,3.41,0,0,1-.89-.67,3,3,0,0,1-.6-1,3,3,0,0,1-.19-1.13,2.73,2.73,0,0,1,.35-1.22,2.83,2.83,0,0,1,.83-1,2.91,2.91,0,0,1,1-.46,2.77,2.77,0,0,1,1.11,0,3.84,3.84,0,0,1,1,.36,4.52,4.52,0,0,1,1.3,1,3,3,0,0,1,.68,1.38l.74-1.38a1.61,1.61,0,0,0,.09-1.5,2.5,2.5,0,0,0-1.16-1.16,3.56,3.56,0,0,0-2.92-.19l-.12-1.12a4.63,4.63,0,0,1,3.75.37,4.81,4.81,0,0,1,1.06.75,3,3,0,0,1,.71,1,2.42,2.42,0,0,1,.21,1.14,3.15,3.15,0,0,1-.4,1.32l-2.81,5.27Zm-1.76-1.8a3.41,3.41,0,0,0,1.33.4,2.45,2.45,0,0,0,1.29-.22l.77-1.45a2.41,2.41,0,0,0-.53-1.2,3.53,3.53,0,0,0-1.07-.88,2.2,2.2,0,0,0-1.61-.26,1.79,1.79,0,0,0-1.18.94,1.73,1.73,0,0,0-.11,1.47A2.22,2.22,0,0,0,46.73,35.49Z"/>
        <path class="cls-1" d="M56.21,41.32a3.48,3.48,0,0,1-1.33-1.06,3.57,3.57,0,0,1-.67-1.57l-2,4.19L51,42.31l5.1-10.87,1.22.57-.55,1.17a3.63,3.63,0,0,1,1.58-.46,3.58,3.58,0,0,1,1.72.34,3.8,3.8,0,0,1,1.29.95,3.49,3.49,0,0,1,.72,1.34A3.82,3.82,0,0,1,62.21,37a6,6,0,0,1-.55,1.85,6.18,6.18,0,0,1-1.07,1.61,4.09,4.09,0,0,1-1.32,1,3.4,3.4,0,0,1-1.5.31A3.9,3.9,0,0,1,56.21,41.32Zm.2-1.24a2.5,2.5,0,0,0,1.17.27,2.47,2.47,0,0,0,1.1-.26,3.23,3.23,0,0,0,1-.73,4.4,4.4,0,0,0,.74-1.14,4.58,4.58,0,0,0,.39-1.28,3.2,3.2,0,0,0,0-1.2A2.51,2.51,0,0,0,59.26,34a2.91,2.91,0,0,0-1.54-.28,3,3,0,0,0-1.39.43l-1.67,3.55a3.1,3.1,0,0,0,.55,1.35A2.82,2.82,0,0,0,56.41,40.08Z"/>
        <path class="cls-1" d="M61.62,42.36a1.47,1.47,0,0,0,.59,0,1.56,1.56,0,0,0,.62-.31,4.47,4.47,0,0,0,.7-.76,11.83,11.83,0,0,0,.86-1.36l2.13-3.76,5.61,2.27-2.82,6.94.94.38L69,48.93l-1.25-.51.83-2.05L62.45,43.9,61.62,46l-1.25-.51Zm4-1.78a7.25,7.25,0,0,1-1.17,1.63,2.76,2.76,0,0,1-1.14.72l4.79,1.94,2.36-5.82-3.25-1.32Z"/>
        <path class="cls-1" d="M79.31,50.38a6.31,6.31,0,0,1-2.07-1.07A4.72,4.72,0,0,1,76,47.83l.9-.62A4.06,4.06,0,0,0,78,48.48a5.35,5.35,0,0,0,1.63.84,3.61,3.61,0,0,0,1.9.17,1.24,1.24,0,0,0,1-.83,1.08,1.08,0,0,0,0-.71,1.6,1.6,0,0,0-.42-.61,3,3,0,0,0-.75-.49,7.18,7.18,0,0,0-1-.4l-1.85-.59.34-1,1.85.6a5.45,5.45,0,0,0,1,.22,3.13,3.13,0,0,0,.87,0,1.5,1.5,0,0,0,.66-.26,1,1,0,0,0,.38-.56,1,1,0,0,0,0-.6,1.84,1.84,0,0,0-.37-.58,3.17,3.17,0,0,0-.68-.51,4.92,4.92,0,0,0-.93-.4,3.93,3.93,0,0,0-3.12.17l-.41-1a4.41,4.41,0,0,1,1.73-.5,5.06,5.06,0,0,1,2.08.27,7.59,7.59,0,0,1,1.49.64,4.11,4.11,0,0,1,1.06.81A2.34,2.34,0,0,1,85,44a1.76,1.76,0,0,1,0,1,1.62,1.62,0,0,1-.48.75,2.19,2.19,0,0,1-.73.44,3,3,0,0,1-.85.16,4.33,4.33,0,0,1-.82,0,4.09,4.09,0,0,1,.73.4,2.6,2.6,0,0,1,.66.62,2.38,2.38,0,0,1,.41.81,1.67,1.67,0,0,1,0,1,2,2,0,0,1-.56.88,2.48,2.48,0,0,1-1,.53,4.18,4.18,0,0,1-1.36.12A6.88,6.88,0,0,1,79.31,50.38Z"/>
        <path class="cls-1" d="M90.88,53.51l.26-1a3.69,3.69,0,0,1-3.09.42,3.34,3.34,0,0,1-1-.46,3,3,0,0,1-.8-.78,2.87,2.87,0,0,1-.44-1.06,2.77,2.77,0,0,1,.06-1.27,2.69,2.69,0,0,1,.59-1.14,2.62,2.62,0,0,1,.91-.69,2.67,2.67,0,0,1,1.07-.26,3.74,3.74,0,0,1,1.11.11,4.52,4.52,0,0,1,1.5.7,3.09,3.09,0,0,1,1,1.2l.41-1.52a1.6,1.6,0,0,0-.25-1.47,2.6,2.6,0,0,0-1.4-.87,3.55,3.55,0,0,0-2.88.48l-.37-1.07a4.62,4.62,0,0,1,3.73-.49,5.2,5.2,0,0,1,1.21.49,3.22,3.22,0,0,1,.9.77,2.6,2.6,0,0,1,.47,1.07,3,3,0,0,1-.09,1.37l-1.54,5.77Zm-2.11-1.35a3.58,3.58,0,0,0,1.38.09,2.49,2.49,0,0,0,1.21-.52l.42-1.58a2.33,2.33,0,0,0-.79-1,3.51,3.51,0,0,0-1.24-.61,2.23,2.23,0,0,0-1.64.11,1.87,1.87,0,0,0-.7,2.65A2.26,2.26,0,0,0,88.77,52.16Z"/>
        <path class="cls-1" d="M95.21,54.59,97,46.08l1.32.28-.75,3.53,4.43.94.76-3.52,1.32.28-1.82,8.51L101,55.81l.81-3.8-4.43-.95-.81,3.81Z"/>
        <path class="cls-1" d="M105,56.62l2.84-3a2.51,2.51,0,0,1-1.46-1.06,2.59,2.59,0,0,1-.34-1.87,3,3,0,0,1,.35-1A2.32,2.32,0,0,1,108,48.5a3.15,3.15,0,0,1,1.19,0l4.54.73-1.38,8.58L111,57.58l.53-3.33-2.34-.37-2.63,3Zm6.73-3.56.46-2.88-3-.49a1.49,1.49,0,0,0-1.17.23,1.48,1.48,0,0,0-.56,1,1.5,1.5,0,0,0,.21,1.1,1.48,1.48,0,0,0,1.06.58Z"/>
        <path class="cls-1" d="M114.54,57.2a1.17,1.17,0,0,0,1.08-.68,9.5,9.5,0,0,0,.94-2.63l1-4.2,6,.64L122.66,59l-1.35-.15.8-7.44L118.62,51l-.74,3.19a11.86,11.86,0,0,1-.61,2,4.51,4.51,0,0,1-.77,1.3,2.24,2.24,0,0,1-.94.68,2.66,2.66,0,0,1-1.14.12Z"/>
        <path class="cls-1" d="M135.46,59.68l.1-3-5.71-.18,0-1.24,5.39-7.55,2.05.06-.24,7.63,1.69,0,0,1.34-1.69-.06-.1,3Zm.34-10.63-4.41,6.13,4.21.13Z"/>
        <path class="cls-1" d="M140.08,56l0-1.2,4.32-.07,0,1.21Z"/>
        <path class="cls-1" d="M150.52,59.73a4.79,4.79,0,0,1-1.8-.25,4.21,4.21,0,0,1-1.44-.87,4.46,4.46,0,0,1-1-1.4,5.19,5.19,0,0,1-.18-3.63,4.49,4.49,0,0,1,.82-1.49,4.28,4.28,0,0,1,1.31-1,4,4,0,0,1,1.7-.44,4.22,4.22,0,0,1,1.78.27,4,4,0,0,1,1.37.93,4.38,4.38,0,0,1,.89,1.44,6,6,0,0,1,.36,1.82l0,.34-7.05.33a3.45,3.45,0,0,0,.32,1.15,3.17,3.17,0,0,0,.69.92,2.92,2.92,0,0,0,1,.6,3.06,3.06,0,0,0,1.27.19,4,4,0,0,0,1.44-.36,3.56,3.56,0,0,0,1.19-.87l.69.85a4.33,4.33,0,0,1-1.47,1.06A5.21,5.21,0,0,1,150.52,59.73ZM153,54.49a3.06,3.06,0,0,0-.22-1,2.87,2.87,0,0,0-.56-.91,2.79,2.79,0,0,0-.92-.65,2.92,2.92,0,0,0-1.29-.21,2.56,2.56,0,0,0-1.21.33,2.84,2.84,0,0,0-.84.73,3,3,0,0,0-.5,1,3.34,3.34,0,0,0-.16,1Z"/>
        <path class="cls-1" d="M169.42,57.72,168.55,51l-1.94,7.12-.5.07-3.68-6.41.86,6.77-1.34.17-1.1-8.62,1.77-.23,3.46,6.05,1.79-6.72,1.78-.23,1.11,8.62Z"/>
        <path class="cls-1" d="M177.72,56.54a4.64,4.64,0,0,1-1.82,0,4.16,4.16,0,0,1-1.54-.66,4.52,4.52,0,0,1-1.17-1.25,4.93,4.93,0,0,1-.66-1.77,4.74,4.74,0,0,1,0-1.8,4.44,4.44,0,0,1,.62-1.59,4.1,4.1,0,0,1,1.15-1.2,3.89,3.89,0,0,1,1.63-.67,4.17,4.17,0,0,1,1.8,0,3.76,3.76,0,0,1,1.47.73,4.08,4.08,0,0,1,1.08,1.31,5.59,5.59,0,0,1,.61,1.75l.06.33L174,53a3.45,3.45,0,0,0,.48,1.09,2.88,2.88,0,0,0,.8.83,3.16,3.16,0,0,0,1.06.46,3.11,3.11,0,0,0,1.29,0,3.73,3.73,0,0,0,2.43-1.56l.8.74a4.43,4.43,0,0,1-1.3,1.25A5.23,5.23,0,0,1,177.72,56.54ZM179.44,51a3.22,3.22,0,0,0-.35-1,2.91,2.91,0,0,0-.69-.83,2.72,2.72,0,0,0-1-.52,2.86,2.86,0,0,0-1.31,0,2.68,2.68,0,0,0-1.15.49,2.86,2.86,0,0,0-.73.83,3,3,0,0,0-.36,1,3,3,0,0,0,0,1Z"/>
        <path class="cls-1" d="M187.94,54.36a4.47,4.47,0,0,1-1.81.07,4.08,4.08,0,0,1-1.55-.62,4.19,4.19,0,0,1-1.2-1.21,5.14,5.14,0,0,1-.72-1.69,4.92,4.92,0,0,1-.11-1.82,4.25,4.25,0,0,1,.52-1.6,3.92,3.92,0,0,1,1.11-1.26,4.34,4.34,0,0,1,1.64-.75,3.92,3.92,0,0,1,2,0,4.47,4.47,0,0,1,1.47.76l-.68,1a2.53,2.53,0,0,0-2.42-.59,2.88,2.88,0,0,0-1.16.53,2.7,2.7,0,0,0-.75.9,2.94,2.94,0,0,0-.34,1.18,3.89,3.89,0,0,0,.1,1.34,4.27,4.27,0,0,0,.51,1.26,3,3,0,0,0,.84.9,2.81,2.81,0,0,0,1.08.46,2.94,2.94,0,0,0,1.28,0,2.65,2.65,0,0,0,1.89-1.62l1.07.6a4.5,4.5,0,0,1-1,1.34A4,4,0,0,1,187.94,54.36Z"/>
        <path class="cls-1" d="M194.63,52.39l-2-7.21-2.42.69-.33-1.16L196,43l.32,1.16-2.44.7,2,7.2Z"/>
        <path class="cls-1" d="M204.07,49.72a4.31,4.31,0,0,1-1.82.23,4.16,4.16,0,0,1-1.6-.5,4.44,4.44,0,0,1-1.27-1.11A5.48,5.48,0,0,1,198.26,45a4.22,4.22,0,0,1,.35-1.64,4.18,4.18,0,0,1,1-1.36,4.4,4.4,0,0,1,1.59-.9,4.27,4.27,0,0,1,1.81-.23,4.1,4.1,0,0,1,1.6.49,4.29,4.29,0,0,1,1.27,1.11A5.25,5.25,0,0,1,206.7,44a5.05,5.05,0,0,1,.28,1.78,4.31,4.31,0,0,1-.35,1.65,4,4,0,0,1-1,1.36A4.3,4.3,0,0,1,204.07,49.72Zm-.39-1.14a2.64,2.64,0,0,0,1.09-.66,2.87,2.87,0,0,0,.62-1,3.34,3.34,0,0,0,.19-1.19,4.31,4.31,0,0,0-.23-1.27,4,4,0,0,0-.58-1.15,3.22,3.22,0,0,0-.86-.83,3,3,0,0,0-1.09-.42,2.65,2.65,0,0,0-1.26.13,2.71,2.71,0,0,0-1.09.66,2.88,2.88,0,0,0-.63,1,3,3,0,0,0-.19,1.18,4.28,4.28,0,0,0,.22,1.26,4.35,4.35,0,0,0,.58,1.16,3.46,3.46,0,0,0,.87.84,2.81,2.81,0,0,0,1.1.41A2.65,2.65,0,0,0,203.68,48.58Z"/>
        <path class="cls-1" d="M220.45,43.22l-2.91-6.9-4.18,1.77L216.27,45l-1.24.53-3.38-8,6.67-2.81,3.37,8Z"/>
        <path class="cls-1" d="M228,40a4.37,4.37,0,0,1-1.77.45,3.94,3.94,0,0,1-1.65-.29,4.14,4.14,0,0,1-1.41-.92,5.53,5.53,0,0,1-1-1.48,5.39,5.39,0,0,1-.51-1.72,4.27,4.27,0,0,1,.14-1.68,3.93,3.93,0,0,1,.8-1.47,4.65,4.65,0,0,1,3.22-1.56,4,4,0,0,1,1.65.28,4.08,4.08,0,0,1,1.4.93,5.43,5.43,0,0,1,1.55,3.2,4.23,4.23,0,0,1-.14,1.67,3.87,3.87,0,0,1-.79,1.48A4.41,4.41,0,0,1,228,40Zm-.53-1.09a2.63,2.63,0,0,0,1-.79A2.76,2.76,0,0,0,229,37a3.2,3.2,0,0,0,0-1.2,4.58,4.58,0,0,0-.39-1.24,4.34,4.34,0,0,0-.72-1,3.31,3.31,0,0,0-1-.72,3.07,3.07,0,0,0-1.13-.27,2.7,2.7,0,0,0-1.23.29,2.62,2.62,0,0,0-1.49,1.86,3.16,3.16,0,0,0,0,1.19,4.27,4.27,0,0,0,.38,1.23,4.7,4.7,0,0,0,.73,1.07,3.18,3.18,0,0,0,1,.72,3,3,0,0,0,1.14.26A2.59,2.59,0,0,0,227.51,38.87Z"/>
        <path class="cls-1" d="M235,26.26l1.23,2.12a3.06,3.06,0,0,0,.64.8,1.39,1.39,0,0,0,.68.33,1.55,1.55,0,0,0,.76-.07,3.9,3.9,0,0,0,.88-.39,6.46,6.46,0,0,0,1.05-.77,4,4,0,0,0,.7-.8l-2-3.49L240,23.3l4.38,7.51-1.17.68-1.78-3.06a5.25,5.25,0,0,1-.82,1,6.1,6.1,0,0,1-1.18.87,3.6,3.6,0,0,1-2.47.66,2.79,2.79,0,0,1-1.75-1.5l-1.45-2.48Z"/>
        <path class="cls-1" d="M247.07,29.18l-4.76-7.28,1.13-.74,3.64,5.56.17-8,1.11-.73,4.76,7.27L252,26l-3.7-5.66-.14,8.18Z"/>
        <path class="cls-1" d="M258.86,21.39a4.44,4.44,0,0,1-1.64.76,4.09,4.09,0,0,1-1.67,0,4.37,4.37,0,0,1-1.57-.65,5.16,5.16,0,0,1-1.32-1.28,5.09,5.09,0,0,1-.8-1.64,4.2,4.2,0,0,1-.13-1.68,3.86,3.86,0,0,1,.54-1.59A4.26,4.26,0,0,1,253.5,14a3.78,3.78,0,0,1,1.81-.79,4.12,4.12,0,0,1,1.65.14l-.24,1.19a2.69,2.69,0,0,0-1.3-.12,2.78,2.78,0,0,0-1.16.51,2.93,2.93,0,0,0-.86.94,2.62,2.62,0,0,0-.35,1.12,3.15,3.15,0,0,0,.13,1.21,4,4,0,0,0,.62,1.2,4.21,4.21,0,0,0,1,1,3.1,3.1,0,0,0,1.11.51,2.76,2.76,0,0,0,1.18,0,2.94,2.94,0,0,0,1.16-.53,2.63,2.63,0,0,0,1.12-2.22l1.22.14a4.17,4.17,0,0,1-.38,1.61A3.81,3.81,0,0,1,258.86,21.39Z"/>
        <path class="cls-1" d="M261.74,17.9a1.16,1.16,0,0,0,.29-1.25,9.28,9.28,0,0,0-1.19-2.53l-2.25-3.68,4.71-3.79,5.45,6.77-1.06.85L263,8.43l-2.73,2.2L262,13.41a13.17,13.17,0,0,1,1,1.86,4.86,4.86,0,0,1,.38,1.46,2.33,2.33,0,0,1-.19,1.14,2.57,2.57,0,0,1-.73.9Z"/>
        <path class="cls-1" d="M272.33,13.23a1.11,1.11,0,0,0,.34-.15,2.27,2.27,0,0,0,.31-.23,1.45,1.45,0,0,0,.44-.64,1.58,1.58,0,0,0-.08-.91l-.44-1.36-8.55-4.16,1.09-1,6.9,3.41L269.76,1l1.1-1,3.69,10.71a2.78,2.78,0,0,1,.11,1.71,2.91,2.91,0,0,1-.85,1.31,3.74,3.74,0,0,1-.4.31,3.54,3.54,0,0,1-.43.25Z"/>
      </g>
      <g>
        <path class="cls-1" d="M1.65,37A4.23,4.23,0,0,1,.48,35.66,4,4,0,0,1,0,34.06a4.42,4.42,0,0,1,.21-1.68,5.35,5.35,0,0,1,.88-1.62,5.19,5.19,0,0,1,1.37-1.21A4.56,4.56,0,0,1,4.06,29a4.13,4.13,0,0,1,1.67.1,4.38,4.38,0,0,1,1.6.83,3.85,3.85,0,0,1,1.25,1.54,4.45,4.45,0,0,1,.31,1.63l-1.22.09a2.78,2.78,0,0,0-.23-1.29,2.75,2.75,0,0,0-.8-1,2.94,2.94,0,0,0-1.14-.58,2.72,2.72,0,0,0-1.17,0,3.16,3.16,0,0,0-1.14.45,4.27,4.27,0,0,0-1,.92,4.11,4.11,0,0,0-.67,1.18A3,3,0,0,0,1.33,34a2.83,2.83,0,0,0,1.13,2.11,2.63,2.63,0,0,0,2.44.49l.19,1.21a4.4,4.4,0,0,1-1.66.07A3.86,3.86,0,0,1,1.65,37Z"/>
        <path class="cls-1" d="M5.85,38.67a1.51,1.51,0,0,0,.57.15,1.39,1.39,0,0,0,.67-.16A4,4,0,0,0,8,38.09,11.13,11.13,0,0,0,9.13,37l3-3.14L17,37.4l-4.41,6.06.82.59-2,2.77L10.3,46l1.3-1.79L6.29,40.37,5,42.16l-1.09-.79Zm4.27-.76A7.25,7.25,0,0,1,8.59,39.2a2.78,2.78,0,0,1-1.27.43l4.17,3,3.7-5.08-2.84-2.06Z"/>
        <path class="cls-1" d="M17.7,48.62a4.65,4.65,0,0,1-1.31-1.26,4,4,0,0,1-.65-1.55,4.29,4.29,0,0,1,0-1.71,5.08,5.08,0,0,1,.75-1.74,4.84,4.84,0,0,1,1.25-1.3,4.33,4.33,0,0,1,1.54-.72A4.4,4.4,0,0,1,21,40.27a4.44,4.44,0,0,1,2.92,1.92,3.85,3.85,0,0,1,.55,1.55,4.31,4.31,0,0,1-.13,1.7,5.75,5.75,0,0,1-.77,1.68l-.19.28-5.89-3.88A3.61,3.61,0,0,0,17,44.64a3,3,0,0,0,0,1.15,2.85,2.85,0,0,0,.45,1.07,2.91,2.91,0,0,0,.92.89,3.76,3.76,0,0,0,1.37.57,3.82,3.82,0,0,0,1.47,0l0,1.09a4.2,4.2,0,0,1-1.8,0A5.37,5.37,0,0,1,17.7,48.62Zm5.06-2.79a3,3,0,0,0,.41-.93,3,3,0,0,0,.08-1.07,2.69,2.69,0,0,0-.37-1.06,2.81,2.81,0,0,0-.92-.93,2.58,2.58,0,0,0-1.17-.45,2.87,2.87,0,0,0-2.06.57,3,3,0,0,0-.73.73Z"/>
        <path class="cls-1" d="M22.91,50.68a1.16,1.16,0,0,0,1.27-.16,9.31,9.31,0,0,0,1.95-2l2.66-3.4L34,48.2l-4.44,7.48L28.39,55l3.83-6.44-3-1.79-2,2.59a11.44,11.44,0,0,1-1.4,1.57,4.83,4.83,0,0,1-1.23.87,2.25,2.25,0,0,1-1.14.22,2.44,2.44,0,0,1-1.09-.37Z"/>
        <path class="cls-1" d="M35.49,59.17A4.19,4.19,0,0,1,34.08,58a3.94,3.94,0,0,1-.74-1.51,4.29,4.29,0,0,1-.08-1.68,5.33,5.33,0,0,1,.58-1.71,5.16,5.16,0,0,1,1.09-1.42,4.18,4.18,0,0,1,1.44-.88A4,4,0,0,1,38,50.59a4.6,4.6,0,0,1,3.16,1.68,4.21,4.21,0,0,1,.74,1.5A4.11,4.11,0,0,1,42,55.45a5,5,0,0,1-.57,1.71,5.24,5.24,0,0,1-1.1,1.43,4.36,4.36,0,0,1-1.43.88,4,4,0,0,1-1.66.22A4.29,4.29,0,0,1,35.49,59.17Zm.56-1.07a2.62,2.62,0,0,0,1.22.34,2.94,2.94,0,0,0,1.14-.23,3.29,3.29,0,0,0,1-.68,4.46,4.46,0,0,0,.77-1,4.39,4.39,0,0,0,.43-1.21,3.23,3.23,0,0,0,0-1.2A2.84,2.84,0,0,0,40.17,53a2.68,2.68,0,0,0-1-.82A2.72,2.72,0,0,0,38,51.84a3,3,0,0,0-1.15.22,3.25,3.25,0,0,0-1,.68,4.36,4.36,0,0,0-.76,1A4.26,4.26,0,0,0,34.64,55a3.29,3.29,0,0,0,0,1.21,2.9,2.9,0,0,0,.46,1.07A2.61,2.61,0,0,0,36.05,58.1Z"/>
        <path class="cls-1" d="M47,64.66l-1.15-4.87-1.91.66-1.07,2.24-1.22-.58,3.74-7.85,1.22.58-2,4.18,6.12-2.21,1.54.73L47.1,59.45l1.45,6Z"/>
        <path class="cls-1" d="M58.21,69.68a4.38,4.38,0,0,1-1.52-1,4.07,4.07,0,0,1-.91-1.4,4.43,4.43,0,0,1-.28-1.68,5.37,5.37,0,0,1,1.34-3.35,4.51,4.51,0,0,1,1.35-1,4.28,4.28,0,0,1,1.63-.38,4.38,4.38,0,0,1,1.78.33,3.8,3.8,0,0,1,1.63,1.12A4.13,4.13,0,0,1,64,63.8l-1.14.43a2.71,2.71,0,0,0-.59-1.16,2.68,2.68,0,0,0-1-.71A2.91,2.91,0,0,0,60,62.13a2.84,2.84,0,0,0-1.14.3,3.1,3.1,0,0,0-1,.76,4.15,4.15,0,0,0-.69,1.16,4.22,4.22,0,0,0-.31,1.32A3.06,3.06,0,0,0,57,66.89a2.87,2.87,0,0,0,.61,1,3,3,0,0,0,1.07.7,2.65,2.65,0,0,0,2.48-.23l.53,1.1a4.25,4.25,0,0,1-1.57.54A3.77,3.77,0,0,1,58.21,69.68Z"/>
        <path class="cls-1" d="M67.29,73.06A3.5,3.5,0,0,1,65,70.65L63.5,75l-1.27-.44,4-11.33,1.27.44L67,64.9a3.58,3.58,0,0,1,1.53-.61,3.31,3.31,0,0,1,1.73.16,3.89,3.89,0,0,1,1.39.81,3.6,3.6,0,0,1,.85,1.26,4,4,0,0,1,.28,1.61A5.9,5.9,0,0,1,72.45,70a6,6,0,0,1-.89,1.71,4.2,4.2,0,0,1-1.22,1.1,3.46,3.46,0,0,1-1.46.45A3.9,3.9,0,0,1,67.29,73.06Zm.08-1.25a2.73,2.73,0,0,0,1.18.15,2.68,2.68,0,0,0,1.07-.37,3.25,3.25,0,0,0,.87-.83,4.45,4.45,0,0,0,.62-1.21,4.23,4.23,0,0,0,.26-1.32,3.25,3.25,0,0,0-.16-1.18,2.46,2.46,0,0,0-.61-1,2.52,2.52,0,0,0-1-.63,3.17,3.17,0,0,0-2.9.45l-1.3,3.71a3.2,3.2,0,0,0,2,2.18Z"/>
        <path class="cls-1" d="M77.11,76.22a4.78,4.78,0,0,1-1.62-.83,4.16,4.16,0,0,1-1.07-1.3A4.4,4.4,0,0,1,74,72.45a5.18,5.18,0,0,1,.21-1.88A4.76,4.76,0,0,1,75,69a4.41,4.41,0,0,1,1.27-1.14,4.25,4.25,0,0,1,1.57-.54,3.94,3.94,0,0,1,1.76.14,4.18,4.18,0,0,1,1.59.85,3.92,3.92,0,0,1,1,1.32,4.33,4.33,0,0,1,.36,1.66,5.57,5.57,0,0,1-.25,1.83l-.1.33-6.76-2a3.42,3.42,0,0,0-.07,1.19,3,3,0,0,0,.34,1.1,3.09,3.09,0,0,0,1.87,1.48,3.72,3.72,0,0,0,1.48.14,3.57,3.57,0,0,0,1.41-.43l.37,1a4.24,4.24,0,0,1-1.73.52A5.21,5.21,0,0,1,77.11,76.22Zm4-4.13a3.3,3.3,0,0,0,.12-1A3,3,0,0,0,81,70a2.86,2.86,0,0,0-.66-.91A3,3,0,0,0,78,68.4a2.93,2.93,0,0,0-1,.41,3.18,3.18,0,0,0-.78.73,3.42,3.42,0,0,0-.49.92Z"/>
        <path class="cls-1" d="M82.79,76.49A1.33,1.33,0,0,0,83.93,76a4,4,0,0,0,.6-.85,12.24,12.24,0,0,0,.65-1.47l1.57-4,5.87,1.45-1.79,7.27,1,.24L91,81.94l-1.31-.32.53-2.15L83.83,77.9l-.53,2.15L82,79.72Zm3.67-2.32A8,8,0,0,1,85.53,76a2.84,2.84,0,0,1-1,.87l5,1.24L91,72l-3.41-.84Z"/>
        <path class="cls-1" d="M93.67,80.25l1.69-8.53,1.32.26L95.39,78.5l5.76-5.63,1.31.26-1.69,8.53-1.33-.27,1.32-6.64L94.94,80.5Z"/>
        <path class="cls-1" d="M107.6,81.9a1.18,1.18,0,0,0,1.1-.66,9.34,9.34,0,0,0,1-2.61l1.1-4.18,6,.77-1.11,8.63-1.34-.18,1-7.42-3.48-.45L111,79a12.31,12.31,0,0,1-.66,2,4.93,4.93,0,0,1-.79,1.28,2.31,2.31,0,0,1-1,.66,2.52,2.52,0,0,1-1.14.09Z"/>
        <path class="cls-1" d="M118.71,84.17l.72-8.67,1.34.12-.55,6.61L125.31,76l1.33.11-.72,8.67-1.34-.12.56-6.74L120,84.27Z"/>
        <path class="cls-1" d="M132,85.28a6,6,0,0,1-2.27-.48,4.53,4.53,0,0,1-1.59-1.09l.7-.84a4,4,0,0,0,1.41.93,5.49,5.49,0,0,0,1.8.37,3.73,3.73,0,0,0,1.88-.34,1.26,1.26,0,0,0,.73-1.08,1,1,0,0,0-.19-.68,1.49,1.49,0,0,0-.57-.47,3.14,3.14,0,0,0-.85-.28,6.9,6.9,0,0,0-1.07-.11l-1.94-.08,0-1.09,1.95.07a4.75,4.75,0,0,0,1,0,3.24,3.24,0,0,0,.83-.24,1.62,1.62,0,0,0,.56-.42,1.08,1.08,0,0,0,.23-.64,1,1,0,0,0-.18-.58,1.75,1.75,0,0,0-.51-.46,3,3,0,0,0-.79-.31,5.24,5.24,0,0,0-1-.14,3.9,3.9,0,0,0-3,1l-.67-.85a4.41,4.41,0,0,1,1.53-1,5.21,5.21,0,0,1,2.08-.3,8.57,8.57,0,0,1,1.61.22,4.53,4.53,0,0,1,1.24.5,2.44,2.44,0,0,1,.8.76,1.7,1.7,0,0,1,.25,1,1.6,1.6,0,0,1-.25.85,2.09,2.09,0,0,1-.6.62,2.64,2.64,0,0,1-.77.38,4.15,4.15,0,0,1-.8.18,4.68,4.68,0,0,1,.81.19,3,3,0,0,1,.81.42,2.56,2.56,0,0,1,.6.67,1.7,1.7,0,0,1,.22.94,2.1,2.1,0,0,1-.31,1,2.47,2.47,0,0,1-.82.78,4.21,4.21,0,0,1-1.27.48A6.78,6.78,0,0,1,132,85.28Z"/>
        <path class="cls-1" d="M138.62,85.3l-.15-8.69,1.35,0,.11,6.64,4.45-6.72,1.33,0,.14,8.69-1.35,0-.11-6.77-4.48,6.84Z"/>
        <path class="cls-1" d="M148.79,85.15l-.42-8.68,1.34-.07.18,3.6,4.53-.23-.17-3.59,1.34-.07.43,8.68-1.35.07L154.48,81,150,81.2l.19,3.88Z"/>
        <path class="cls-1" d="M164.44,76.56l-4.71.42.67,7.46-1.34.12-.78-8.66,6.06-.54Z"/>
        <path class="cls-1" d="M171,83.51a4.23,4.23,0,0,1-1.82-.12,4,4,0,0,1-1.48-.8,4.2,4.2,0,0,1-1-1.32,5.14,5.14,0,0,1-.53-1.73,5.34,5.34,0,0,1,.06-1.79,4.07,4.07,0,0,1,.66-1.55,4,4,0,0,1,1.22-1.15,4.49,4.49,0,0,1,1.73-.59,4.38,4.38,0,0,1,1.82.13,4,4,0,0,1,1.47.78,4.16,4.16,0,0,1,1,1.33,5.17,5.17,0,0,1,.53,1.71,5.45,5.45,0,0,1-.06,1.81,4.57,4.57,0,0,1-.66,1.55,4.07,4.07,0,0,1-1.22,1.15A4.33,4.33,0,0,1,171,83.51Zm-.16-1.19a2.73,2.73,0,0,0,1.19-.44,2.78,2.78,0,0,0,.79-.85,3.12,3.12,0,0,0,.42-1.14,4.28,4.28,0,0,0,0-1.29,4.17,4.17,0,0,0-.36-1.23,3,3,0,0,0-.69-1,2.82,2.82,0,0,0-1-.62,2.69,2.69,0,0,0-1.25-.11,2.65,2.65,0,0,0-1.2.44,2.7,2.7,0,0,0-.8.85,3,3,0,0,0-.42,1.12,4.28,4.28,0,0,0,0,1.29,4.65,4.65,0,0,0,.35,1.24,3.11,3.11,0,0,0,.7,1,2.84,2.84,0,0,0,1,.61A2.62,2.62,0,0,0,170.81,82.32Z"/>
        <path class="cls-1" d="M177.7,82.33l-1.54-8.56,4.71-.85a2.52,2.52,0,0,1,1.88.3,2.14,2.14,0,0,1,.93,1.46,2,2,0,0,1-.19,1.35,2.17,2.17,0,0,1-.85.85,2.22,2.22,0,0,1,.66.17,2.46,2.46,0,0,1,.58.39,3.07,3.07,0,0,1,.45.56,2.27,2.27,0,0,1,.25.69,2.32,2.32,0,0,1-.35,1.81,2.63,2.63,0,0,1-1.73,1Zm3.58-5.8a1.33,1.33,0,0,0,.89-.5,1.16,1.16,0,0,0,.18-.9,1.19,1.19,0,0,0-.49-.82,1.32,1.32,0,0,0-1-.16l-3.15.57.43,2.37Zm.74,3.8a1.47,1.47,0,0,0,.95-.53,1.25,1.25,0,0,0,.2-1,1.42,1.42,0,0,0-.52-.86,1.31,1.31,0,0,0-1.1-.21l-3.21.57.47,2.62Z"/>
        <path class="cls-1" d="M187.25,71.67l.77,3.26,3.17-.74a2.75,2.75,0,0,1,1.2-.06,2.42,2.42,0,0,1,1,.37,2.26,2.26,0,0,1,.7.71,2.78,2.78,0,0,1,.4,1,2.66,2.66,0,0,1,.06,1,2.32,2.32,0,0,1-.31.94,2.51,2.51,0,0,1-.7.76,2.92,2.92,0,0,1-1.1.48l-4.48,1-2-8.46Zm1,4.44L189,79l3-.71a1.41,1.41,0,0,0,1-.66,1.49,1.49,0,0,0,.12-1.11,1.52,1.52,0,0,0-.59-.94,1.46,1.46,0,0,0-1.19-.15Zm8.17,2.33-2-8.46,1.32-.31,2,8.46Z"/>
        <path class="cls-1" d="M206.17,75.74l-3.5-2.7-1.52,4.14-1.48.43,2-5.21-4.2-3.19,1.5-.43,3.24,2.51,1.4-3.85,1.5-.43-1.85,4.93,4.45,3.36Z"/>
        <path class="cls-1" d="M219.59,71.23l-4.27-2.62-.88,1.82.84,2.34-1.27.46L211.08,65l1.27-.45,1.56,4.35,2.74-5.9,1.61-.57-2.29,5,5.24,3.16Z"/>
        <path class="cls-1" d="M226.56,68.72a4.37,4.37,0,0,1-1.8.35,3.92,3.92,0,0,1-1.63-.4,4.47,4.47,0,0,1-1.34-1,5.32,5.32,0,0,1-.95-1.54,5.23,5.23,0,0,1-.4-1.75,4.4,4.4,0,0,1,.25-1.67,3.89,3.89,0,0,1,.88-1.41,4.36,4.36,0,0,1,5-1,4.3,4.3,0,0,1,1.33,1,5,5,0,0,1,1,1.53,5.1,5.1,0,0,1,.4,1.76,4.16,4.16,0,0,1-.24,1.66,4.11,4.11,0,0,1-.88,1.43A4.44,4.44,0,0,1,226.56,68.72Zm-.46-1.12a2.55,2.55,0,0,0,1-.72,2.8,2.8,0,0,0,.56-1,3.15,3.15,0,0,0,.11-1.2,4.32,4.32,0,0,0-.31-1.25,4.41,4.41,0,0,0-.66-1.11,3.2,3.2,0,0,0-.92-.77,2.82,2.82,0,0,0-1.11-.34,2.58,2.58,0,0,0-1.25.21,2.67,2.67,0,0,0-1,.73,2.8,2.8,0,0,0-.56,1,3.35,3.35,0,0,0-.12,1.19,4.32,4.32,0,0,0,.31,1.25,4.41,4.41,0,0,0,.66,1.11,3.22,3.22,0,0,0,.92.78,2.92,2.92,0,0,0,1.12.34A2.72,2.72,0,0,0,226.1,67.6Z"/>
        <path class="cls-1" d="M239.64,62.64l-2.9-6.17.34,7.38-.45.21-5.48-5,2.9,6.17-1.22.58L229.13,58l1.61-.76,5.16,4.7-.37-7,1.63-.77,3.7,7.87Z"/>
        <path class="cls-1" d="M248.79,57.91l-3.52-6.61-4,2.13L244.78,60l-1.19.64L239.51,53l6.38-3.4L250,57.28Z"/>
        <path class="cls-1" d="M257.32,53l-.5-.85a3.71,3.71,0,0,1-1.87,2.5,3.4,3.4,0,0,1-1,.4,3,3,0,0,1-1.12,0,2.86,2.86,0,0,1-1.06-.43,2.79,2.79,0,0,1-.87-.93,2.85,2.85,0,0,1-.41-1.22,2.65,2.65,0,0,1,.15-1.13,2.82,2.82,0,0,1,.56-1,3.83,3.83,0,0,1,.86-.7,4.34,4.34,0,0,1,1.55-.58,3.11,3.11,0,0,1,1.54.13l-.8-1.34a1.61,1.61,0,0,0-1.23-.86,2.56,2.56,0,0,0-1.6.39,3.6,3.6,0,0,0-1.68,2.4l-1-.49a4.61,4.61,0,0,1,2.25-3,5.45,5.45,0,0,1,1.2-.52,3.21,3.21,0,0,1,1.18-.1,2.46,2.46,0,0,1,1.09.41,2.92,2.92,0,0,1,.92,1l3.05,5.14Zm-2.44.57a3.54,3.54,0,0,0,1-.93,2.35,2.35,0,0,0,.48-1.22L255.56,50a2.43,2.43,0,0,0-1.31-.17,3.37,3.37,0,0,0-1.31.46,2.22,2.22,0,0,0-1.06,1.24,1.88,1.88,0,0,0,1.4,2.36A2.27,2.27,0,0,0,254.88,53.58Z"/>
        <path class="cls-1" d="M261.07,50.72l-4.76-7.28,1.13-.74,2,3,3.8-2.48-2-3,1.13-.74,4.75,7.28L266,47.5l-2.13-3.25-3.8,2.48L262.2,50Z"/>
        <path class="cls-1" d="M269.64,45l-5.09-7,1.1-.79,3.88,5.38-.18-8,1.08-.78,5.08,7.06-1.1.79-4-5.49.23,8.17Z"/>
        <path class="cls-1" d="M275.89,27.7a3.76,3.76,0,0,1-1.14,1.44,3.66,3.66,0,0,1-1.67.78,4.06,4.06,0,0,1-1.8-.05l.17-.87a3.25,3.25,0,0,0,1.42.08,2.85,2.85,0,0,0,1.34-.61,3,3,0,0,0,.91-1.16,2.9,2.9,0,0,0,.24-1.4l.88,0A3.79,3.79,0,0,1,275.89,27.7Zm2,11.28-5.4-6.81,1.06-.84,4.12,5.2-.55-8,1-.83,5.4,6.82-1.06.84L278.34,30l.6,8.16Z"/>
      </g>
    </g>
  </g>
</svg>
