<?xml version="1.0" encoding="utf-8"?>
<!-- Generator: Adobe Illustrator 24.0.3, SVG Export Plug-In . SVG Version: 6.00 Build 0)  -->
<svg version="1.1" id="Layer_1" xmlns="http://www.w3.org/2000/svg" xmlns:xlink="http://www.w3.org/1999/xlink" x="0px" y="0px"
	 viewBox="0 0 310 297.3" style="enable-background:new 0 0 310 297.3;" xml:space="preserve">
<style type="text/css">
	.st0{fill:#9588C8;}
	.st1{fill:none;}
</style>
<title>rg - text</title>
<g>
	<path class="st0" d="M47.7,240.8l-1.1-0.7l4.7-7.3l1.1,0.7L47.7,240.8z M52.5,232.1c-0.2-0.1-0.3-0.3-0.4-0.6
		c-0.1-0.2,0-0.5,0.1-0.7c0.1-0.2,0.3-0.3,0.6-0.4c0.5-0.1,1,0.2,1.1,0.7c0,0,0,0,0,0c0.1,0.5-0.2,1-0.7,1.1c0,0,0,0,0,0
		C52.9,232.2,52.7,232.2,52.5,232.1z"/>
	<path class="st0" d="M51.6,243.2l-1.3-0.8l6.1-10.4l4.2,2.4c0.9,0.5,1.6,1.3,1.8,2.3c0.4,1.9-0.7,3.9-2.6,4.4c-1,0.2-2,0.1-2.9-0.5
		l-2.8-1.7L51.6,243.2z M57.4,239.6c0.5,0.3,1.2,0.5,1.8,0.3c1.2-0.3,2-1.6,1.7-2.8c-0.2-0.6-0.6-1.1-1.2-1.4l-2.7-1.6l-2.3,3.9
		L57.4,239.6z"/>
	<path class="st0" d="M66.2,251.2l-1.2-0.6l2.6-5.1c0.3-0.5,0.4-1,0.2-1.6c-0.2-0.5-0.6-0.9-1.1-1.1c-0.5-0.2-1-0.3-1.5-0.3
		c-0.5,0-1,0.1-1.4,0.3l-2.9,5.6l-1.2-0.6l5.5-10.7l1.2,0.6l-2.1,4.1c0.5-0.2,1.1-0.3,1.7-0.3c0.6,0,1.2,0.1,1.8,0.4
		c1.3,0.4,2,1.9,1.5,3.1c-0.1,0.2-0.2,0.4-0.3,0.6L66.2,251.2z"/>
	<path class="st0" d="M75.7,254.4c-2.3,0.9-4.8-0.2-5.7-2.5c0,0,0-0.1,0-0.1c-0.4-1.1-0.3-2.4,0.3-3.4c0.5-1.1,1.3-2,2.4-2.5
		c2.3-0.9,4.8,0.2,5.7,2.5c0,0,0,0,0,0.1c0.4,1.1,0.3,2.4-0.3,3.4C77.7,253.1,76.8,253.9,75.7,254.4z M71.3,251.5
		c0.2,0.8,0.8,1.5,1.5,1.8c0.7,0.4,1.6,0.4,2.3,0c1.6-0.8,2.4-2.6,2-4.3c-0.4-1.5-2-2.3-3.4-1.9c-0.1,0-0.3,0.1-0.4,0.2
		c-0.8,0.4-1.4,1-1.7,1.8C71.2,249.8,71.1,250.7,71.3,251.5L71.3,251.5z"/>
	<path class="st0" d="M85.5,259.5l-1.3-0.5l2.1-5.3c0.3-0.5,0.3-1.1,0.1-1.6c-0.3-0.5-0.7-0.8-1.2-0.9c-0.5-0.2-1-0.2-1.5-0.2
		c-0.5,0.1-1,0.2-1.4,0.5l-2.3,5.9l-1.3-0.5l3.2-8.1l1.3,0.5l-0.5,1.2c0.5-0.3,1.1-0.4,1.6-0.5c0.6-0.1,1.2,0,1.8,0.2
		c1.3,0.3,2.1,1.7,1.8,3c-0.1,0.2-0.1,0.4-0.3,0.6L85.5,259.5z"/>
	<path class="st0" d="M92.1,262c-1.1-0.3-2.1-1.1-2.6-2.2c-0.5-1.1-0.6-2.4-0.2-3.5c0.3-1.1,1.1-2.1,2.2-2.7c1-0.6,2.2-0.7,3.3-0.3
		c1.1,0.3,2,1.1,2.5,2.2c0.4,1.1,0.4,2.4,0,3.5l-0.1,0.3l-6.7-2.2c-0.2,0.8-0.1,1.6,0.2,2.3c0.4,0.7,1,1.3,1.8,1.5
		c1,0.3,2,0.3,2.9-0.2l0.3,1C94.6,262.3,93.3,262.4,92.1,262z M96.2,258c0.2-0.7,0.2-1.5-0.1-2.1c-0.3-0.7-0.9-1.3-1.7-1.5
		c-0.7-0.3-1.5-0.2-2.2,0.2c-0.6,0.4-1.1,1-1.4,1.7L96.2,258z"/>
	<path class="st0" d="M111.8,267.2l-1.3-0.3l1.6-6.6l-4.3,6l-0.5-0.1l-1.2-7.3l-1.6,6.6l-1.3-0.3l2-8.5l1.7,0.4l1.1,6.9l4.1-5.6
		l1.8,0.4L111.8,267.2z"/>
	<path class="st0" d="M121.8,268c-2,1.4-4.7,0.9-6.1-1c0,0,0,0,0-0.1c-1.2-2.1-0.7-4.8,1.2-6.4c0.9-0.7,2.1-1,3.3-0.7
		c1.2,0.2,2.2,0.8,2.8,1.8C124.2,263.7,123.7,266.4,121.8,268L121.8,268z M116.8,266.2c0.8,1.3,2.4,1.8,3.8,1
		c0.1-0.1,0.3-0.2,0.4-0.3c1.3-1.2,1.6-3.1,0.8-4.7c-0.8-1.3-2.5-1.8-3.8-1c-0.1,0.1-0.3,0.2-0.4,0.3c-0.6,0.6-1.1,1.3-1.2,2.2
		C116.3,264.5,116.4,265.4,116.8,266.2z"/>
	<path class="st0" d="M125.3,269.6l-1.7-0.2l4.4-4.2l-3.3-4.4l1.7,0.2l3.2,4.3l0.5-3.8l1.3,0.2l-0.5,3.8l4.2-3.3l1.7,0.2l-4.3,3.4
		l3.3,5.2l-1.7-0.2l-2.6-4.3l-0.7,0.5l-0.4,3.3l-1.3-0.2l0.4-3.3l-0.5-0.7L125.3,269.6z"/>
	<path class="st0" d="M139.2,271.1l-1.4-0.1l0.6-8.7l1.3,0.1l-0.2,3.6l4.5,0.3l0.2-3.6l1.4,0.1l-0.6,8.7l-1.4-0.1l0.2-3.9l-4.5-0.3
		L139.2,271.1z"/>
	<path class="st0" d="M155.1,270.6c-1.7,1.7-4.5,1.7-6.2,0c0,0,0,0-0.1-0.1c-1.5-1.9-1.4-4.6,0.1-6.5c1.7-1.7,4.5-1.7,6.2,0.1
		c0,0,0,0,0,0C156.8,266.1,156.7,268.8,155.1,270.6L155.1,270.6z M149.9,269.6c0.5,0.6,1.3,1,2.1,1c0.8,0,1.6-0.3,2.1-1
		c0.5-0.7,0.8-1.5,0.8-2.4c0-0.9-0.2-1.7-0.7-2.4c-0.5-0.6-1.3-1-2.1-1c-0.8,0-1.6,0.3-2.1,0.9C148.9,266.2,148.9,268.2,149.9,269.6
		L149.9,269.6z"/>
	<path class="st0" d="M170.6,270c-1.6,1.8-4.3,2-6.2,0.5c0,0,0,0-0.1-0.1c-0.9-0.8-1.3-2-1.4-3.2c-0.1-1.2,0.2-2.4,1-3.3
		c1.6-1.8,4.3-2,6.2-0.5c0,0,0,0,0.1,0.1c0.9,0.8,1.3,2,1.4,3.2C171.7,267.9,171.3,269.1,170.6,270z M165.3,269.5
		c0.5,0.6,1.4,0.9,2.2,0.8c0.8,0,1.6-0.4,2-1.1c0.5-0.7,0.7-1.6,0.6-2.4c0-0.9-0.4-1.7-0.9-2.3c-1.1-1.1-2.8-1.1-3.9,0
		c-0.1,0.1-0.2,0.2-0.3,0.3C164,266.2,164.1,268.1,165.3,269.5L165.3,269.5z"/>
	<path class="st0" d="M176.1,261.6c1-0.1,2,0.4,2.6,1.2l-0.6-4.6l1.3-0.2l0.6,4.6c0.2-0.5,0.5-0.9,0.9-1.2c0.4-0.3,0.8-0.5,1.3-0.6
		c0.9-0.1,1.8,0.2,2.4,0.9c0.7,0.9,1.2,2,1.3,3.2c0.2,1.2,0.1,2.3-0.4,3.4c-0.4,0.8-1.2,1.4-2.1,1.5c-1,0.1-2-0.4-2.5-1.2l0.6,4.6
		l-1.3,0.2l-0.6-4.6c-0.2,0.5-0.5,0.9-0.9,1.2c-0.4,0.3-0.8,0.5-1.3,0.6c-0.9,0.1-1.8-0.2-2.4-0.9c-0.7-0.9-1.2-2-1.3-3.2
		c-0.2-1.2-0.1-2.3,0.4-3.4C174.4,262.3,175.2,261.7,176.1,261.6z M176.7,262.8c-0.7,0.1-1.2,0.5-1.4,1.1c-0.3,0.8-0.4,1.6-0.3,2.5
		c0.1,0.8,0.4,1.6,0.9,2.3c0.4,0.5,1,0.8,1.7,0.7c0.4-0.1,0.8-0.2,1.1-0.5c0.3-0.3,0.6-0.7,0.7-1.1l-0.5-3.9c-0.3-0.4-0.6-0.7-1-0.9
		C177.5,262.8,177.1,262.7,176.7,262.8z M182.8,268.8c0.7-0.1,1.2-0.5,1.4-1.1c0.3-0.8,0.4-1.6,0.3-2.5c-0.1-0.8-0.4-1.6-0.9-2.3
		c-0.4-0.5-1-0.8-1.6-0.8c-0.4,0.1-0.8,0.3-1.1,0.5c-0.3,0.3-0.6,0.7-0.7,1.1l0.5,3.9c0.3,0.4,0.6,0.7,1,0.9
		C182,268.7,182.4,268.8,182.8,268.8L182.8,268.8z"/>
	<path class="st0" d="M190.5,268.5l-1.3,0.2l-1.7-8.5l1.3-0.2l1.3,6.5l3.2-7.4l1.3-0.2l1.6,8.5l-1.3,0.3l-1.3-6.6L190.5,268.5z"/>
	<path class="st0" d="M206.6,267.2l-0.6-2.1l-6.7,1.7l-2.1-8.4l1.3-0.3l1.8,7.3l4.4-1.1l-1.8-7.3l1.3-0.3l1.8,7.3l1-0.2l0.8,3.3
		L206.6,267.2z"/>
	<path class="st0" d="M210.7,263.7l-1.2,0.4l-2.5-8.3l1.3-0.4l1.9,6.4l2.4-7.7l1.3-0.4l2.5,8.3l-1.3,0.4l-2-6.5L210.7,263.7z"/>
	<path class="st0" d="M225.7,258.7l-1.3,0.5l-0.3-0.9c-0.4,1-1.3,1.8-2.3,2.1c-0.7,0.3-1.5,0.3-2.3,0c-1.5-0.6-2.2-2.3-1.5-3.8
		c0-0.1,0.1-0.2,0.1-0.2c0.4-0.7,1-1.2,1.8-1.4c1-0.4,2.2-0.4,3.1,0.1l-0.5-1.5c-0.1-0.5-0.5-0.9-1-1.1c-0.5-0.2-1.1-0.1-1.7,0.1
		c-1,0.3-1.7,1.1-2.1,2l-0.9-0.7c0.5-1.2,1.5-2.1,2.8-2.5c0.8-0.3,1.7-0.4,2.5-0.1c0.8,0.3,1.4,0.9,1.6,1.8L225.7,258.7z
		 M221.9,259.3c0.9-0.3,1.6-0.9,1.9-1.8l-0.6-1.5c-0.8-0.5-1.8-0.6-2.6-0.2c-0.5,0.2-1,0.5-1.3,1c-0.3,0.5-0.3,1-0.1,1.5
		c0.2,0.5,0.5,0.9,1,1.1C220.8,259.5,221.4,259.5,221.9,259.3L221.9,259.3z"/>
	<path class="st0" d="M227.7,258.2l-0.4-1c0.4-0.2,0.6-0.5,0.6-1.1c0-0.9-0.2-1.9-0.4-2.7l-1.1-4.2l5.6-2.4l3.4,8l-1.2,0.5l-2.9-6.9
		l-3.2,1.4l0.9,3.2c0.4,1.1,0.5,2.4,0.4,3.6C229,257.2,228.5,257.9,227.7,258.2z"/>
	<path class="st0" d="M234.3,245.7l1.2-0.6l1.5,3l2.9-1.4c0.7-0.4,1.4-0.4,2.1-0.2c0.7,0.3,1.2,0.8,1.5,1.4c0.7,1.2,0.2,2.8-1,3.5
		c-0.1,0-0.2,0.1-0.3,0.1l-4.1,2L234.3,245.7z M240.3,247.8l-2.8,1.4l1.3,2.7l2.8-1.4c0.4-0.2,0.7-0.5,0.8-0.8
		c0.1-0.4,0.1-0.8-0.1-1.1c-0.3-0.7-1.1-1.1-1.8-0.8C240.4,247.8,240.3,247.8,240.3,247.8L240.3,247.8z"/>
	<path class="st0" d="M248,248.6l-1.2,0.6l-4.2-7.6l1.2-0.6l1.7,3.2l4-2.2l-1.7-3.2l1.2-0.6l4.2,7.6l-1.2,0.6l-1.9-3.4l-4,2.2
		L248,248.6z"/>
	<path class="st0" d="M261.2,239.6c-0.5,2.4-2.9,3.8-5.2,3.3c0,0-0.1,0-0.1,0c-1.1-0.3-2.1-1.1-2.7-2.2c-0.7-1-0.9-2.2-0.7-3.4
		c0.6-2.4,2.9-3.8,5.3-3.3c0,0,0,0,0,0c1.1,0.3,2.1,1.1,2.7,2.1C261.2,237.2,261.4,238.5,261.2,239.6z M256.3,241.6
		c0.8,0.3,1.6,0.2,2.3-0.3c0.7-0.4,1.2-1.1,1.3-1.9c0.1-0.9-0.1-1.7-0.6-2.4c-0.4-0.7-1.1-1.3-1.9-1.6c-1.5-0.5-3,0.3-3.5,1.8
		c0,0.1-0.1,0.3-0.1,0.4c-0.1,0.8,0.1,1.7,0.6,2.4C254.8,240.8,255.5,241.3,256.3,241.6z"/>
</g>
<g>
	<path class="st0" d="M5.3,240.2l-1-0.9l0.7-0.7c-1.1,0.1-2.2-0.3-2.9-1.1c-0.6-0.5-0.9-1.2-1-2c-0.1-0.8,0.2-1.6,0.8-2.2
		c0.5-0.6,1.3-1,2.1-0.9c0.8,0,1.5,0.4,2.1,0.9c0.8,0.7,1.3,1.7,1.3,2.8l1.1-1.1c0.4-0.4,0.5-0.9,0.5-1.4c-0.1-0.6-0.4-1.1-0.8-1.4
		c-0.8-0.7-1.8-1-2.8-0.9l0.1-1.2c1.3-0.1,2.6,0.4,3.5,1.3c0.7,0.6,1.1,1.3,1.3,2.2c0.1,0.8-0.2,1.7-0.8,2.3L5.3,240.2z M3.1,237.1
		c0.6,0.7,1.6,1,2.5,0.8l1.1-1.2c0.1-0.9-0.3-1.8-1-2.4c-0.4-0.4-0.9-0.6-1.5-0.7c-0.5,0-1,0.2-1.4,0.6c-0.4,0.4-0.5,0.9-0.5,1.4
		C2.4,236.3,2.7,236.8,3.1,237.1z"/>
	<path class="st0" d="M10.7,245.1c-0.9-0.7-1.4-1.9-1.3-3.1l-3,3.6l-1-0.9l7.7-9.2l1,0.9l-0.8,1c0.5-0.1,1.1-0.1,1.7,0
		c0.6,0.1,1.1,0.4,1.5,0.8c0.8,0.7,1.3,1.7,1.4,2.7c0,1.2-0.5,2.4-1.3,3.2c-0.7,1-1.8,1.6-3,1.9C12.6,246.2,11.5,245.9,10.7,245.1z
		 M11.2,244c0.6,0.5,1.4,0.7,2.2,0.6c0.8-0.2,1.6-0.7,2.1-1.4c0.6-0.6,0.9-1.5,1-2.3c0-0.8-0.4-1.5-1-2c-0.4-0.3-0.9-0.6-1.4-0.6
		c-0.5-0.1-1-0.1-1.5,0l-2.5,3c-0.1,0.5,0,1,0.2,1.5C10.5,243.2,10.8,243.7,11.2,244L11.2,244z"/>
	<path class="st0" d="M18.8,251.6c-1-0.7-1.6-1.8-1.8-2.9c-0.1-1.2,0.2-2.4,1-3.4c0.7-1,1.8-1.6,3-1.8c1.1-0.2,2.3,0.1,3.2,0.8
		c1,0.7,1.6,1.7,1.6,2.9c0,1.2-0.4,2.4-1.1,3.3l-0.2,0.3l-5.6-4.3c-0.5,0.7-0.6,1.5-0.5,2.3c0.1,0.8,0.6,1.5,1.2,2
		c0.8,0.6,1.8,0.9,2.8,0.8v1.1C21.1,252.8,19.8,252.4,18.8,251.6z M24,249.2c0.4-0.6,0.7-1.3,0.6-2.1c0-0.8-0.5-1.6-1.1-2
		c-0.6-0.5-1.4-0.7-2.2-0.5c-0.7,0.2-1.4,0.5-1.9,1.1L24,249.2z"/>
	<path class="st0" d="M25.3,256.1l-1.1-0.8l4.9-7.1l1.1,0.8l-2.1,3l3.7,2.6l2.1-3l1.1,0.8l-5,7.2l-1.1-0.8l2.2-3.2l-3.7-2.6
		L25.3,256.1z"/>
	<path class="st0" d="M30.6,262.5l1.8-2.8c0.4,0.2,0.9,0.1,1.3-0.1c0.7-0.5,1.3-1.1,1.8-1.8l2.7-3.3l5.1,3.2l-4,6.4l0.8,0.5
		l-1.8,2.9l-1.2-0.7l1.2-1.9l-5.5-3.5l-1.2,1.9L30.6,262.5z M38.6,256l-2.1,2.5c-0.6,0.9-1.6,1.6-2.7,1.9l4.4,2.7l3.3-5.4L38.6,256z
		"/>
	<path class="st0" d="M48.2,269.1c-2.3,0.7-4.7-0.7-5.4-3c0,0,0-0.1,0-0.1c-0.4-2.4,0.9-4.8,3.2-5.7c2.3-0.7,4.8,0.7,5.4,3
		c0,0,0,0,0,0c0.3,1.2,0.1,2.4-0.6,3.4C50.2,267.9,49.3,268.7,48.2,269.1z M44,265.7c0.1,0.8,0.6,1.5,1.4,1.9
		c0.7,0.4,1.6,0.5,2.3,0.2c0.8-0.3,1.4-0.9,1.8-1.7c0.4-0.7,0.6-1.6,0.5-2.4c-0.3-1.5-1.8-2.5-3.3-2.2c-0.1,0-0.3,0.1-0.4,0.1
		c-0.8,0.3-1.4,0.9-1.8,1.7C44,264,43.9,264.9,44,265.7z"/>
	<path class="st0" d="M55.3,274l-4.4-2.2l3.9-7.8l4.3,2.1c0.6,0.3,1.1,0.8,1.3,1.4c0.2,0.6,0.2,1.2-0.1,1.7c-0.2,0.4-0.5,0.7-0.9,1
		c-0.4,0.2-0.8,0.3-1.2,0.2c0.4,0.3,0.6,0.7,0.7,1.2c0.2,1.1-0.5,2.3-1.6,2.6C56.6,274.4,55.9,274.3,55.3,274z M55.6,272.8
		c0.3,0.2,0.7,0.2,1.1,0.1c0.3-0.1,0.6-0.4,0.8-0.7c0.2-0.3,0.2-0.7,0.1-1c-0.1-0.4-0.4-0.7-0.7-0.8l-2.9-1.5l-1.2,2.4L55.6,272.8z
		 M57.3,269.3c0.3,0.2,0.7,0.2,1,0.1c0.3-0.1,0.6-0.3,0.7-0.6c0.2-0.3,0.2-0.7,0.1-1c-0.1-0.3-0.4-0.6-0.7-0.7l-2.9-1.4l-1.1,2.2
		L57.3,269.3z"/>
	<path class="st0" d="M66.4,279.1l-1.2-0.5l0.4-0.9c-1,0.4-2.1,0.4-3.1-0.1c-0.7-0.3-1.3-0.9-1.6-1.6c-0.4-0.7-0.4-1.6,0-2.3
		c0.3-0.8,0.9-1.3,1.7-1.6c0.7-0.2,1.5-0.1,2.3,0.2c1,0.4,1.8,1.2,2.1,2.3l0.6-1.4c0.2-0.5,0.2-1,0-1.5c-0.3-0.5-0.7-0.9-1.2-1.1
		c-0.9-0.4-2-0.4-2.9,0l-0.2-1.1c1.2-0.5,2.6-0.5,3.8,0.1c0.8,0.3,1.5,0.9,1.9,1.6c0.4,0.8,0.4,1.6,0,2.4L66.4,279.1z M63.2,276.9
		c0.8,0.4,1.8,0.4,2.6,0l0.7-1.5c-0.2-0.9-0.9-1.7-1.8-2c-0.5-0.2-1.1-0.3-1.6-0.1c-0.5,0.1-0.9,0.5-1.1,1c-0.2,0.5-0.2,1,0,1.5
		C62.3,276.3,62.7,276.7,63.2,276.9z"/>
	<path class="st0" d="M71.8,281.3l-1.2-0.5l2.8-7l-2.3-0.9l0.4-1.1l6,2.4l-0.5,1.2l-2.4-1L71.8,281.3z"/>
	<path class="st0" d="M79,274.8l1.3,0.4l-1.1,3.2l3.1,1.1c0.7,0.2,1.3,0.7,1.6,1.4c0.3,0.6,0.3,1.4,0,2c-0.4,1.4-1.9,2.1-3.2,1.7
		c-0.1,0-0.2-0.1-0.2-0.1l-4.3-1.5L79,274.8z M81.7,280.6l-2.9-1l-1,2.8l2.9,1.1c0.7,0.3,1.5,0,1.8-0.6c0-0.1,0.1-0.2,0.1-0.2
		c0.2-0.4,0.2-0.8,0-1.1C82.4,281,82.1,280.7,81.7,280.6L81.7,280.6z"/>
	<path class="st0" d="M94.6,289.1l-4.7-1.3l2.4-8.4l4.6,1.3c0.6,0.1,1.2,0.5,1.6,1.1c0.3,0.5,0.4,1.2,0.2,1.7
		c-0.1,0.4-0.4,0.8-0.7,1.1c-0.3,0.3-0.7,0.4-1.2,0.4c0.4,0.2,0.7,0.6,0.9,1c0.2,0.5,0.2,1,0.1,1.4c-0.2,0.6-0.6,1.2-1.1,1.5
		C96,289.2,95.2,289.3,94.6,289.1z M94.7,287.8c0.4,0.1,0.7,0.1,1.1-0.1c0.3-0.2,0.5-0.5,0.6-0.8c0.1-0.3,0.1-0.7-0.1-1
		c-0.2-0.3-0.5-0.6-0.9-0.7l-3.1-0.9l-0.7,2.6L94.7,287.8z M95.7,284.1c0.3,0.1,0.7,0.1,1-0.1c0.3-0.2,0.5-0.4,0.6-0.7
		c0.1-0.3,0.1-0.7-0.1-1c-0.2-0.3-0.5-0.5-0.8-0.6l-3.1-0.9l-0.7,2.4L95.7,284.1z"/>
	<path class="st0" d="M106,291.9l-1.5-0.3l2.5-11.7l4.7,1c1,0.2,1.9,0.7,2.5,1.6c1,1.7,0.5,3.9-1.1,5c-0.9,0.6-1.9,0.7-2.9,0.5
		l-3.3-0.7L106,291.9z M110.3,286.6c0.6,0.2,1.3,0.1,1.8-0.3c1.1-0.7,1.4-2.1,0.7-3.2c-0.4-0.5-0.9-0.9-1.6-1l-3.1-0.7l-0.9,4.5
		L110.3,286.6z"/>
	<path class="st0" d="M122,293.7c-1.9,1.4-4.7,1-6.1-0.9c0,0,0-0.1-0.1-0.1c-1.3-2.1-0.8-4.8,1-6.4c2-1.4,4.7-1,6.1,0.9
		c0,0,0,0,0,0.1C124.3,289.4,123.8,292.1,122,293.7z M117,292c0.8,1.3,2.5,1.7,3.8,1c0.1-0.1,0.3-0.2,0.4-0.3c0.6-0.6,1-1.4,1.1-2.2
		c0.2-0.8,0-1.7-0.4-2.5c-0.4-0.7-1.1-1.2-1.9-1.3c-0.8-0.2-1.6,0.1-2.2,0.6C116.5,288.6,116.2,290.5,117,292L117,292z"/>
	<path class="st0" d="M129.3,296c-1.2-0.1-2.3-0.7-3-1.7c-0.7-1-1-2.2-0.8-3.4c0.1-1.2,0.7-2.3,1.6-3.1c0.9-0.8,2.1-1.1,3.3-0.9
		c1.2,0.1,2.4,0.8,3,1.9l-1,0.7c-0.4-0.8-1.2-1.3-2.1-1.4c-0.8-0.1-1.7,0.1-2.3,0.7c-0.6,0.6-1,1.4-1.1,2.3
		c-0.1,0.9,0.1,1.8,0.5,2.5c0.5,0.7,1.2,1.1,2.1,1.2c0.9,0.1,1.8-0.2,2.3-0.9l0.8,0.9C131.7,295.7,130.5,296.2,129.3,296z"/>
	<path class="st0" d="M138.5,296.8c-1.2,0-2.3-0.6-3-1.5c-1.5-2-1.3-4.8,0.5-6.5c0.9-0.8,2-1.2,3.2-1.1c1.2,0,2.4,0.7,3.1,1.8
		l-1,0.8c-0.4-0.8-1.2-1.3-2.1-1.3c-0.8-0.1-1.7,0.2-2.2,0.8c-0.6,0.6-1,1.5-1,2.3c-0.1,0.9,0.1,1.8,0.6,2.5
		c0.5,0.7,1.3,1.1,2.1,1.1c0.9,0.1,1.7-0.3,2.3-1l0.8,0.9C140.9,296.5,139.7,297,138.5,296.8z"/>
	<path class="st0" d="M145.2,297.1h-1.3l0.3-8.7l1.4,0l-0.2,6.6l4.8-6.5h1.3l-0.3,8.7l-1.4-0.1l0.2-6.8L145.2,297.1z"/>
	<path class="st0" d="M155.5,297.2h-1.3l-0.1-8.7h1.4l0.1,6.6l4.5-6.7h1.3l0.1,8.7h-1.4l-0.1-6.8L155.5,297.2z"/>
	<path class="st0" d="M165.8,296.8c-0.2,0.2-0.4,0.3-0.7,0.3c-0.3,0-0.5-0.1-0.7-0.3c-0.2-0.2-0.3-0.4-0.3-0.7
		c0-0.3,0.1-0.5,0.2-0.7c0.2-0.2,0.4-0.3,0.7-0.3c0.3,0,0.5,0.1,0.7,0.3C166.1,295.8,166.1,296.4,165.8,296.8L165.8,296.8z"/>
	<path class="st0" d="M179.3,296.1c-1.6,0.2-3.3-0.3-4.6-1.3c-2.7-2.1-3.2-6-1-8.7c1.1-1.3,2.6-2.2,4.3-2.3c1.8-0.2,3.6,0.5,4.8,1.9
		l-1.2,0.8c-0.4-0.5-0.9-0.9-1.5-1.1c-0.6-0.3-1.3-0.4-1.9-0.3c-1.2,0.1-2.4,0.7-3.1,1.7c-0.8,1-1.2,2.3-1,3.6
		c0.1,1.3,0.7,2.5,1.7,3.4c0.9,0.8,2.2,1.2,3.4,1c0.7-0.1,1.3-0.3,1.8-0.7c0.5-0.4,1-0.8,1.3-1.4l1.3,0.6
		C182.7,294.9,181.1,296,179.3,296.1z"/>
	<path class="st0" d="M193.6,294l-1.7,0.3l-3.7-3.4l-1.2,1.6l0.4,2.5l-1.3,0.2l-1.3-8.6l1.3-0.2l0.7,4.6l3.8-5.3l1.7-0.3l-3.2,4.5
		L193.6,294z"/>
	<path class="st0" d="M202,291.2c-1.3,2-4,2.6-6.1,1.3c0,0,0,0-0.1,0c-1-0.7-1.6-1.8-1.8-3c-0.3-1.2-0.1-2.4,0.5-3.4
		c0.6-1,1.6-1.7,2.8-1.9c1.1-0.3,2.4,0,3.3,0.7C202.6,286.3,203.2,289,202,291.2L202,291.2z M196.7,291.4c1.2,1,2.9,0.8,3.9-0.4
		c0.1-0.1,0.2-0.3,0.3-0.4c0.4-0.8,0.5-1.7,0.3-2.5c-0.1-0.8-0.6-1.6-1.2-2.2c-1.2-0.9-3-0.7-3.9,0.5c-0.1,0.1-0.2,0.2-0.2,0.4
		c-0.4,0.8-0.5,1.6-0.3,2.5C195.6,290,196,290.8,196.7,291.4L196.7,291.4z"/>
	<path class="st0" d="M204.9,291.9l-0.3-1.1c0.4-0.1,0.7-0.4,0.8-1c0.1-0.9,0.1-1.9,0-2.8l-0.5-4.3l5.9-1.4l2.1,8.4l-1.3,0.3
		l-1.8-7.3l-3.4,0.8l0.4,3.3c0.2,1.2,0.2,2.4-0.1,3.6C206.4,291.2,205.7,291.8,204.9,291.9z"/>
	<path class="st0" d="M213.4,280.6l1.3-0.4l1,3.2l3.1-0.9c0.7-0.3,1.5-0.2,2.1,0.2c1.3,0.7,1.9,2.3,1.2,3.6c-0.4,0.7-1,1.2-1.8,1.4
		l-4.4,1.3L213.4,280.6z M218.9,283.7l-3,0.9l0.8,2.8l3-0.9c0.4-0.1,0.7-0.3,0.9-0.7c0.2-0.4,0.2-0.8,0.1-1.1
		c-0.1-0.4-0.3-0.7-0.7-0.9C219.8,283.6,219.4,283.6,218.9,283.7L218.9,283.7z"/>
	<path class="st0" d="M232.4,283.6l-1.6,0.6l-4.2-2.7l-0.9,1.8l0.8,2.4l-1.3,0.4l-2.8-8.2l1.3-0.4l1.5,4.4l2.8-5.9l1.6-0.6l-2.4,5
		L232.4,283.6z"/>
	<path class="st0" d="M240.2,279.4c-0.9,2.2-3.5,3.3-5.7,2.3c0,0-0.1,0-0.1,0c-1.1-0.5-1.9-1.5-2.3-2.6c-0.5-1.1-0.5-2.3-0.1-3.5
		c1-2.2,3.5-3.3,5.8-2.3c0,0,0,0,0,0c1.1,0.5,1.9,1.5,2.3,2.6C240.5,277,240.6,278.2,240.2,279.4z M235,280.5
		c0.7,0.4,1.6,0.5,2.3,0.1c0.8-0.3,1.4-0.9,1.6-1.7c0.2-0.8,0.2-1.7-0.2-2.5c-0.3-0.8-0.9-1.5-1.6-1.9c-1.3-0.7-3-0.2-3.7,1.1
		c-0.1,0.1-0.1,0.3-0.2,0.4c-0.2,0.8-0.2,1.7,0.1,2.5C233.7,279.4,234.2,280.1,235,280.5L235,280.5z"/>
	<path class="st0" d="M250.6,276.2c-1.1,0.6-2.4,0.6-3.5,0l0.4-1.1c1.4,0.7,3.1,0.2,3.9-1.2c0.1-0.1,0.1-0.2,0.1-0.3
		c0.2-0.8,0.2-1.6-0.1-2.3l-3.9,1.9l-0.5-1l3.9-1.9c-0.4-0.7-1-1.2-1.7-1.4c-0.7-0.2-1.5-0.2-2.1,0.2c-0.8,0.4-1.4,1.1-1.5,2
		l-1.1-0.3c0.2-1.2,1.1-2.2,2.2-2.7c1.1-0.5,2.3-0.6,3.4-0.2c1.1,0.4,2,1.3,2.5,2.4c0.5,1.1,0.7,2.3,0.3,3.5
		C252.5,274.8,251.7,275.7,250.6,276.2z"/>
	<path class="st0" d="M259.3,271.6l-1.2,0.6l-3.5-6.7l-2.2,1.2l-0.6-1.1l5.7-3l0.5,1.1l-2.2,1.2L259.3,271.6z"/>
	<path class="st0" d="M268.8,265.1c-0.6,2.3-3,3.7-5.3,3.1c0,0-0.1,0-0.1,0c-2.3-0.9-3.7-3.2-3.2-5.7c0.6-2.3,3-3.7,5.4-3.1
		c0,0,0,0,0,0c1.1,0.4,2.1,1.2,2.6,2.2C268.8,262.7,269,263.9,268.8,265.1z M263.8,267c1.4,0.5,3-0.2,3.5-1.6
		c0.1-0.1,0.1-0.3,0.1-0.4c0.1-0.9-0.1-1.7-0.5-2.5c-0.4-0.8-1.1-1.3-1.9-1.7c-1.4-0.5-3,0.2-3.5,1.7c-0.1,0.1-0.1,0.3-0.1,0.4
		c-0.1,0.8,0.1,1.7,0.5,2.4C262.3,266,263,266.6,263.8,267L263.8,267z"/>
	<path class="st0" d="M279.9,259.6c-1,0.7-2.2,0.9-3.3,0.6c-2.4-0.7-3.9-3-3.6-5.4c0.2-1.2,0.9-2.2,1.9-2.8c1-0.7,2.3-0.9,3.5-0.5
		l-0.3,1.2c-0.8-0.3-1.8-0.2-2.5,0.3c-0.7,0.4-1.2,1.2-1.3,2c-0.1,1.8,1,3.4,2.7,4c0.8,0.2,1.7,0.1,2.4-0.4c0.7-0.5,1.2-1.3,1.2-2.2
		l1.2,0.2C281.7,257.9,281,259,279.9,259.6z"/>
	<path class="st0" d="M286.6,254.7l-1.1,0.8l-4.4-6.1l-2,1.5l-0.7-1l5.2-3.7l0.7,1l-2.1,1.5L286.6,254.7z"/>
	<path class="st0" d="M295.1,246.9c-0.3,2.4-2.4,4.1-4.8,3.9c0,0-0.1,0-0.1,0c-2.4-0.5-4.1-2.7-4-5.1c0.1-1.2,0.7-2.3,1.7-2.9
		c0.9-0.8,2.1-1.1,3.3-0.9c1.2,0.2,2.2,0.9,2.9,1.8C294.8,244.5,295.2,245.7,295.1,246.9z M290.5,249.4c1.5,0.3,2.9-0.6,3.3-2.1
		c0-0.2,0.1-0.3,0.1-0.5c-0.1-1.8-1.2-3.3-2.9-3.8c-1.5-0.3-3,0.6-3.3,2.1c0,0.2-0.1,0.3-0.1,0.5
		C287.6,247.4,288.8,248.9,290.5,249.4L290.5,249.4z"/>
	<path class="st0" d="M299.7,244.6l-1,0.8l-5.7-6.6l1-0.9l4.3,5l-0.9-8l1-0.9l5.7,6.6l-1,0.9l-4.4-5.1L299.7,244.6z"/>
	<path class="st0" d="M308.5,236.7l-1,0.9l-5.1-5.5l-1.9,1.7l-0.8-0.9l4.7-4.4l0.8,0.9l-1.9,1.7L308.5,236.7z"/>
</g>
<path class="st1" d="M310,71.9c0,85.6-69.4,155-155,155S0,157.5,0,71.9"/>
</svg>
