<svg xmlns="http://www.w3.org/2000/svg" viewBox="0 0 310 227.78"><title>подпишись0</title><g id="Layer_2" data-name="Layer 2"><g id="Layer_1-2" data-name="Layer 1"><path d="M310,0A155,155,0,0,1,155,155,155,155,0,0,1,0,0" fill="none"/><path d="M55.9,173.83l-1.28-.77,5.52-9.13-6-3.64-5.53,9.13-1.28-.77,6.22-10.27,8.56,5.18Z" fill="#9588c8"/><path d="M65.34,177.62a4.36,4.36,0,0,1-5.52-2.9,5.08,5.08,0,0,1,3-5.76,4.4,4.4,0,0,1,5.53,2.91,5.07,5.07,0,0,1-3,5.75Zm-4.23-3.2a2.58,2.58,0,0,0,1.42,1.85,2.54,2.54,0,0,0,2.32.11,4.07,4.07,0,0,0,2.22-4.21,2.77,2.77,0,0,0-3.75-2,3.66,3.66,0,0,0-1.79,1.73A3.73,3.73,0,0,0,61.11,174.42Z" fill="#9588c8"/><path d="M66.37,181.87l1.39-3a1.49,1.49,0,0,0,1.28-.29,7.54,7.54,0,0,0,1.6-2l2.3-3.66,5.49,2.53-3.13,6.82.91.42-1.42,3.09-1.22-.57.92-2-6-2.74-.92,2Zm7.15-7.41-1.72,2.79a4.72,4.72,0,0,1-2.42,2.26l4.69,2.15,2.64-5.74Z" fill="#9588c8"/><path d="M84.5,187.25l-1.26-.5,2.77-7L81.8,178.1l-2.77,7-1.26-.5L81,176.5l6.73,2.67Z" fill="#9588c8"/><path d="M88.66,188.75l-1.23-.42,2.78-8.23,1.28.43-2.13,6.29L95.81,182l1.26.43-2.79,8.23L93,190.22l2.17-6.41Z" fill="#9588c8"/><path d="M109.24,185.85l1.3.35-2.26,8.4-11-3,2.26-8.39,1.3.35-2,7.24,3.54,1,2-7.25,1.3.35-2,7.25,3.54,1Z" fill="#9588c8"/><path d="M112.68,195.53l-1.26-.26,1.73-8.52,1.32.27-1.32,6.51,5.78-5.6,1.31.26-1.73,8.52-1.33-.27,1.35-6.63Z" fill="#9588c8"/><path d="M124.39,197.67l-1.34-.21,1.17-7.41-2.49-.39.18-1.18,6.33,1-.18,1.17-2.51-.39Z" fill="#9588c8"/><path d="M132.84,199a4.26,4.26,0,0,1-3-1.61,4.94,4.94,0,0,1,.7-6.49,4,4,0,0,1,3.19-1,3.79,3.79,0,0,1,2.89,1.65,5,5,0,0,1,.74,3.44l0,.34-7-.77a3.31,3.31,0,0,0,.7,2.23,2.94,2.94,0,0,0,2.08,1.1,3.57,3.57,0,0,0,2.79-.8l.55.95A4.65,4.65,0,0,1,132.84,199Zm3.25-4.78a3.13,3.13,0,0,0-.53-2.08,2.58,2.58,0,0,0-2-1.11,2.52,2.52,0,0,0-2.13.65,3.27,3.27,0,0,0-1,1.91Z" fill="#9588c8"/><path d="M143.27,199.88a4.08,4.08,0,0,1-3.05-1.5,5,5,0,0,1,.4-6.51,4.09,4.09,0,0,1,3.21-1.1,3.79,3.79,0,0,1,3.08,1.7l-.95.78a2.6,2.6,0,0,0-2.14-1.27,2.75,2.75,0,0,0-2.24.8,4,4,0,0,0-.29,4.82,2.75,2.75,0,0,0,2.12,1.08,2.63,2.63,0,0,0,2.28-1l.85.89A3.83,3.83,0,0,1,143.27,199.88Z" fill="#9588c8"/><path d="M148.81,191.23l1.35,0-.06,3.37,3.26,0a2.64,2.64,0,0,1,2,.8,2.68,2.68,0,0,1,.69,1.91,2.63,2.63,0,0,1-.76,1.89,2.66,2.66,0,0,1-2,.73l-4.61-.08Zm4.38,4.63-3.11-.05-.05,2.95,3.12.05a1.43,1.43,0,0,0,1.11-.39,1.65,1.65,0,0,0,0-2.14A1.48,1.48,0,0,0,153.19,195.86Z" fill="#9588c8"/><path d="M160.17,199.51a3.06,3.06,0,0,1-.39,1.53,3.58,3.58,0,0,1-1,1.21l-.67-.54a2.83,2.83,0,0,0,.76-.78,2,2,0,0,0,.37-.92.49.49,0,0,1-.25,0,.78.78,0,0,1-.62-.25.91.91,0,0,1-.26-.65,1,1,0,0,1,.26-.69,1,1,0,0,1,.67-.3,1,1,0,0,1,.81.35A1.45,1.45,0,0,1,160.17,199.51Z" fill="#9588c8"/><path d="M174.79,199.07l-1.35.1-.6-7.48-4.52.36.6,7.49-1.35.1-.69-8.66,7.21-.58Z" fill="#9588c8"/><path d="M184.6,196.74a4.37,4.37,0,0,1-6.2.83,4.72,4.72,0,0,1-1.59-3.08,4.58,4.58,0,0,1,.74-3.37,4,4,0,0,1,2.92-1.71,4,4,0,0,1,3.27.88,5.11,5.11,0,0,1,.86,6.45Zm-5.31-.17a2.76,2.76,0,0,0,4.18-.56,4.05,4.05,0,0,0-.63-4.72,2.76,2.76,0,0,0-4.18.57,4,4,0,0,0,.63,4.71Z" fill="#9588c8"/><path d="M188.48,197.26l-1.7.32,2.91-5.39L185.17,189l1.68-.32,4.4,3.06-.73-3.76,1.33-.26.72,3.75,3-4.45,1.68-.32-3.06,4.6,4.71,3.93-1.7.33-3.81-3.25-.48.72.62,3.23-1.33.26-.62-3.24-.72-.49Z" fill="#9588c8"/><path d="M207.41,193.09l-1.31.33-.24-1a3.71,3.71,0,0,1-2.5,1.88,3.24,3.24,0,0,1-2.25-.23,2.62,2.62,0,0,1-1.4-1.82,2.57,2.57,0,0,1,.36-2.27,3.3,3.3,0,0,1,1.89-1.25,3.61,3.61,0,0,1,3.08.45l-.38-1.52a1.61,1.61,0,0,0-.93-1.16,2.47,2.47,0,0,0-1.65-.08,3.54,3.54,0,0,0-2.29,1.82l-.84-.76a4.64,4.64,0,0,1,3-2.24,3.85,3.85,0,0,1,2.53.1A2.63,2.63,0,0,1,206,187.3Zm-3.81.19a2.75,2.75,0,0,0,2.05-1.64l-.4-1.59a2.75,2.75,0,0,0-2.58-.46,2.27,2.27,0,0,0-1.37.9,1.87,1.87,0,0,0,.67,2.65A2.3,2.3,0,0,0,203.6,193.28Z" fill="#9588c8"/><path d="M209.47,192.77l-.32-1.06q.58-.18.72-1.08a9.64,9.64,0,0,0-.17-2.77l-.73-4.25,5.78-1.78,2.56,8.31-1.29.4-2.21-7.18-3.35,1,.58,3.23a8.08,8.08,0,0,1,0,3.58A2.3,2.3,0,0,1,209.47,192.77Z" fill="#9588c8"/><path d="M220.94,192.51l-.21-1.23a1.78,1.78,0,0,0,.74-.11,1.38,1.38,0,0,0,.66-.45,1.54,1.54,0,0,0,.25-.86l.09-1.43-6.41-7,1.37-.5,5.16,5.72.28-7.69,1.38-.5-.53,11.32a2.64,2.64,0,0,1-1.8,2.53A4.15,4.15,0,0,1,220.94,192.51Z" fill="#9588c8"/><path d="M230.74,173a3.71,3.71,0,0,1-2.3,2.68,3.76,3.76,0,0,1-3.53-.24l.39-.79a2.91,2.91,0,0,0,2.81.23,2.85,2.85,0,0,0,1.79-2.15Zm-.7,12.51-1.19.5-3.36-8,1.24-.52,2.57,6.13,1.63-7.89,1.23-.51,3.36,8-1.24.52-2.62-6.24Z" fill="#9588c8"/><path d="M241.88,180.44a4.08,4.08,0,0,1-3.39.17,4.67,4.67,0,0,1-2.5-2.43,4.58,4.58,0,0,1-.31-3.46,4.09,4.09,0,0,1,2.26-2.52,3.83,3.83,0,0,1,3.53,0l-.46,1.14a2.57,2.57,0,0,0-2.48-.07,2.75,2.75,0,0,0-1.57,1.79,3.47,3.47,0,0,0,.3,2.53,3.57,3.57,0,0,0,1.78,1.83,2.77,2.77,0,0,0,2.38-.09,2.62,2.62,0,0,0,1.51-2l1.17.36A3.81,3.81,0,0,1,241.88,180.44Z" fill="#9588c8"/><path d="M249.19,176.48l-1.19.63-3.52-6.63-2.23,1.18-.55-1,5.66-3,.55,1-2.24,1.19Z" fill="#9588c8"/><path d="M259.11,170.83l-1.17.69-.5-.86a3.69,3.69,0,0,1-1.87,2.5,3.14,3.14,0,0,1-2.22.41,2.89,2.89,0,0,1-2.15-3.63,3.29,3.29,0,0,1,1.46-1.73,3.62,3.62,0,0,1,3.09-.43l-.8-1.35a1.63,1.63,0,0,0-1.21-.86,2.49,2.49,0,0,0-1.61.39,3.54,3.54,0,0,0-1.69,2.39l-1-.49a4.59,4.59,0,0,1,2.26-3,3.83,3.83,0,0,1,2.46-.61,2.58,2.58,0,0,1,1.93,1.43Zm-3.61,1.25a2.74,2.74,0,0,0,1.51-2.14l-.83-1.42a2.76,2.76,0,0,0-2.61.28,2.24,2.24,0,0,0-1,1.24,1.77,1.77,0,0,0,.17,1.5,1.75,1.75,0,0,0,1.21.86A2.24,2.24,0,0,0,255.5,172.08Z" fill="#9588c8"/><path d="M262.79,168.37a1,1,0,0,1-.43.62,1,1,0,0,1-.75.13.93.93,0,0,1-.62-.44,1,1,0,0,1,.3-1.36,1,1,0,0,1,1.37.3A.94.94,0,0,1,262.79,168.37Z" fill="#9588c8"/><path d="M24.73,183.68l-1.49-1.11-.4-7-1.79.37-2.42,3.23-1.19-.9,7.2-9.6,1.2.89-3.73,5,8-1.78,1.5,1.12-7.42,1.56Z" fill="#9588c8"/><path d="M31.73,188.46l-1.11-.76.56-.82a3.71,3.71,0,0,1-3.06-.62,3.19,3.19,0,0,1-1.32-1.84,2.61,2.61,0,0,1,.43-2.26,2.58,2.58,0,0,1,1.94-1.23,3.24,3.24,0,0,1,2.18.58,3.62,3.62,0,0,1,1.71,2.61l.88-1.3a1.62,1.62,0,0,0,.26-1.46,2.45,2.45,0,0,0-1-1.29,3.55,3.55,0,0,0-2.88-.51v-1.12a4.6,4.6,0,0,1,3.68.76,3.86,3.86,0,0,1,1.6,2,2.59,2.59,0,0,1-.47,2.35Zm-2.66-2.73a2.71,2.71,0,0,0,2.58.45l.93-1.35a2.77,2.77,0,0,0-1.37-2.24,2.3,2.3,0,0,0-1.58-.43,1.86,1.86,0,0,0-1.54,2.26A2.27,2.27,0,0,0,29.07,185.73Z" fill="#9588c8"/><path d="M40.78,194.14l-1.47-.91-.6-5-2,.45-1.31,2.11-1.14-.71,4.58-7.39,1.15.72-2.44,3.93,6.32-1.52,1.45.9L40,188.07Z" fill="#9588c8"/><path d="M54.5,201.66,53.31,201l3.18-6-5.68,4.71-.45-.23.67-7.36-3.18,6-1.2-.63,4.06-7.69,1.58.83-.65,6.94L57,193.13l1.59.84Z" fill="#9588c8"/><path d="M60.71,204.86a4.27,4.27,0,0,1-2.35-2.5,4.46,4.46,0,0,1,.27-3.52,4.55,4.55,0,0,1,2.47-2.41,4,4,0,0,1,3.33.09A3.78,3.78,0,0,1,66.64,199a4.94,4.94,0,0,1-.39,3.5l-.14.31-6.38-3a3.26,3.26,0,0,0-.06,2.34,2.94,2.94,0,0,0,1.63,1.71,3.6,3.6,0,0,0,2.89.14l.22,1.07A4.72,4.72,0,0,1,60.71,204.86Zm4.61-3.5a3.2,3.2,0,0,0,.16-2.14A2.6,2.6,0,0,0,64,197.53a2.54,2.54,0,0,0-2.23-.07A3.36,3.36,0,0,0,60.14,199Z" fill="#9588c8"/><path d="M68,207.88l-1.25-.51,3.3-8.05,1.25.52L70,203.18l4.2,1.73,1.37-3.35,1.25.51-3.3,8-1.25-.51,1.48-3.6-4.2-1.72Z" fill="#9588c8"/><path d="M77.57,211.65l-1.49-.53,3.34-2.44a2.49,2.49,0,0,1-1.24-1.32,2.57,2.57,0,0,1,0-1.89,2.61,2.61,0,0,1,1.33-1.55,2.69,2.69,0,0,1,2.16,0L86,205.43l-2.93,8.19-1.27-.45L82.94,210l-2.23-.8Zm2.86-3.81,2.91,1,1-2.78-2.92-1a1.38,1.38,0,0,0-1.92.88,1.45,1.45,0,0,0,0,1.14A1.53,1.53,0,0,0,80.43,207.84Z" fill="#9588c8"/><path d="M89.64,215.93A4.26,4.26,0,0,1,87,213.79a4.54,4.54,0,0,1-.22-3.53,4.61,4.61,0,0,1,2.12-2.73,4,4,0,0,1,3.31-.36,3.78,3.78,0,0,1,2.53,2.15,5,5,0,0,1,.1,3.53l-.1.32L88,211.11a3.3,3.3,0,0,0,.27,2.32,2.9,2.9,0,0,0,1.84,1.47,3.57,3.57,0,0,0,2.89-.26l.36,1A4.64,4.64,0,0,1,89.64,215.93Zm4.07-4.09a3.1,3.1,0,0,0-.13-2.14,2.55,2.55,0,0,0-1.75-1.47,2.52,2.52,0,0,0-2.21.24,3.25,3.25,0,0,0-1.36,1.7Z" fill="#9588c8"/><path d="M98.82,218.3,97.51,218l1.91-7.26L97,210.06l.31-1.15,6.19,1.63-.3,1.15-2.45-.65Z" fill="#9588c8"/><path d="M107,220.47a4,4,0,0,1-2.77-1.95,5,5,0,0,1,1.42-6.37,4.07,4.07,0,0,1,3.34-.58,3.81,3.81,0,0,1,2.78,2.17l-1.06.61a2.61,2.61,0,0,0-1.92-1.59,2.73,2.73,0,0,0-2.33.44,3.54,3.54,0,0,0-1.33,2.17,3.65,3.65,0,0,0,.27,2.55,2.74,2.74,0,0,0,1.93,1.39,2.64,2.64,0,0,0,2.41-.62l.7,1A3.78,3.78,0,0,1,107,220.47Z" fill="#9588c8"/><path d="M113.56,221.61l-1.56-.28,2.88-3a2.5,2.5,0,0,1-1.44-1.1,2.87,2.87,0,0,1,.77-3.61,2.66,2.66,0,0,1,2.11-.39l4.52.81-1.52,8.55L118,222.4l.59-3.32-2.34-.41Zm2.18-4.24,3.05.54.51-2.9-3-.54a1.39,1.39,0,0,0-1.75,1.18,1.38,1.38,0,0,0,1.23,1.72Z" fill="#9588c8"/><path d="M135.93,224.7l-1.34-.14.72-6.78-3.53,6.48-.5,0-2.11-7.08-.72,6.78-1.34-.14.91-8.65,1.78.19,2,6.69,3.29-6.13,1.79.19Z" fill="#9588c8"/><path d="M146,224.23a4.39,4.39,0,0,1-6.24-.35,5.11,5.11,0,0,1,.36-6.5,4.39,4.39,0,0,1,6.24.35,4.65,4.65,0,0,1,1,3.31A4.79,4.79,0,0,1,146,224.23Zm-5.18-1.17a2.76,2.76,0,0,0,4.21.24,4,4,0,0,0,.27-4.76,2.78,2.78,0,0,0-4.22-.22,4,4,0,0,0-.26,4.74Z" fill="#9588c8"/><path d="M148.56,227.63l.05-3.33a1.5,1.5,0,0,0,1.06-.79,7.47,7.47,0,0,0,.65-2.48l.63-4.27,6.05.09-.13,7.51,1,0,0,3.4-1.35,0,0-2.21-6.57-.11,0,2.22Zm3.56-9.67-.45,3.25a4.69,4.69,0,0,1-1.31,3l5.16.09.11-6.32Z" fill="#9588c8"/><path d="M164.05,225.56a4.32,4.32,0,0,1-3.23-1.15,4.94,4.94,0,0,1-.25-6.53,4,4,0,0,1,3-1.44,3.82,3.82,0,0,1,3.09,1.21,5,5,0,0,1,1.25,3.3v.34l-7,.26a3.27,3.27,0,0,0,1,2.1,3,3,0,0,0,2.23.79,3.57,3.57,0,0,0,2.64-1.2l.68.86A4.68,4.68,0,0,1,164.05,225.56Zm2.51-5.21a3.18,3.18,0,0,0-.82-2,2.62,2.62,0,0,0-2.14-.81,2.54,2.54,0,0,0-2,.95,3.29,3.29,0,0,0-.73,2.05Z" fill="#9588c8"/><path d="M169.58,225.33l-.09-1.11c.41,0,.72-.33.94-.89a9.45,9.45,0,0,0,.42-2.75l.21-4.31,6-.5.71,8.67-1.35.11-.61-7.48-3.5.29-.13,3.27a7.88,7.88,0,0,1-.72,3.5A2.3,2.3,0,0,1,169.58,225.33Z" fill="#9588c8"/><path d="M179.7,215.49l1.34-.17.42,3.34,3.23-.41a2.72,2.72,0,0,1,2.57,4.28,2.68,2.68,0,0,1-1.9,1l-4.57.58Zm5,4-3.09.39.37,2.93,3.09-.39a1.45,1.45,0,0,0,1.05-.54,1.68,1.68,0,0,0-.27-2.13A1.48,1.48,0,0,0,184.7,219.45Z" fill="#9588c8"/><path d="M202.29,220.66l-1.33.26-1.43-7.37-4.45.87,1.43,7.36-1.32.26-1.66-8.53,7.1-1.39Z" fill="#9588c8"/><path d="M211.76,217.3a4,4,0,0,1-2.72,2,4,4,0,0,1-3.35-.53,4.74,4.74,0,0,1-1.92-2.89,4.67,4.67,0,0,1,.38-3.43,4.39,4.39,0,0,1,6.07-1.48,4.61,4.61,0,0,1,1.91,2.87A4.68,4.68,0,0,1,211.76,217.3Zm-5.3.39a2.58,2.58,0,0,0,2.29.45,2.55,2.55,0,0,0,1.82-1.45,3.78,3.78,0,0,0,.18-2.5,3.67,3.67,0,0,0-1.31-2.12,2.77,2.77,0,0,0-4.1,1,4,4,0,0,0,1.12,4.62Z" fill="#9588c8"/><path d="M218.4,216.59l-1.29.37L215,209.75l-2.42.7-.33-1.15,6.16-1.77.33,1.14-2.44.71Z" fill="#9588c8"/><path d="M227,214.14a3.42,3.42,0,0,1-3.27-.53l1.46,4.39-1.28.43L220.09,207l1.28-.42.41,1.23a3.72,3.72,0,0,1,.85-1.44,3.6,3.6,0,0,1,1.46-.92,3.54,3.54,0,0,1,3,.29,5.69,5.69,0,0,1,2.09,6.31A3.52,3.52,0,0,1,227,214.14Zm-.71-1a2.45,2.45,0,0,0,1.63-1.53,3.76,3.76,0,0,0,0-2.54,3.7,3.7,0,0,0-1.48-2.05,2.47,2.47,0,0,0-2.22-.25,3,3,0,0,0-1.3.86,2.91,2.91,0,0,0-.73,1.27l1.24,3.73a2.8,2.8,0,0,0,1.35.6A2.9,2.9,0,0,0,226.26,213.1Z" fill="#9588c8"/><path d="M236.63,210.66a4.3,4.3,0,0,1-3.43,0,5,5,0,0,1-2.36-6.09,4,4,0,0,1,2.38-2.33,3.77,3.77,0,0,1,3.32.13,5,5,0,0,1,2.25,2.71l.12.32-6.56,2.53a3.3,3.3,0,0,0,1.64,1.67,2.93,2.93,0,0,0,2.36,0,3.58,3.58,0,0,0,2.11-2l.92.59A4.69,4.69,0,0,1,236.63,210.66Zm.68-5.74a3.08,3.08,0,0,0-1.42-1.6,2.61,2.61,0,0,0-2.29-.08A2.56,2.56,0,0,0,232,204.8a3.3,3.3,0,0,0,0,2.17Z" fill="#9588c8"/><path d="M246.23,206.7a3.93,3.93,0,0,1-3.43,0,5.38,5.38,0,0,1-2.51-2.81,7.65,7.65,0,0,1-.83-4.64,4.87,4.87,0,0,1,2.42-3,11,11,0,0,0,1.59-1.16c.27-.26.37-.47.3-.64l1.2-.53a1.28,1.28,0,0,1,.07.92,1.93,1.93,0,0,1-.56.89,8.91,8.91,0,0,1-.84.74q-.4.3-1,.66a4.79,4.79,0,0,0-2,2,3.59,3.59,0,0,0-.18,2.22,3.72,3.72,0,0,1,2.25-3,3.68,3.68,0,0,1,3.22,0,5.12,5.12,0,0,1,2.58,5.95A4,4,0,0,1,246.23,206.7Zm-2.82-1.15a2.76,2.76,0,0,0,3.86-1.71,3.77,3.77,0,0,0-.26-2.51,3.62,3.62,0,0,0-1.66-1.84,2.53,2.53,0,0,0-2.32,0,2.59,2.59,0,0,0-1.54,1.74,3.62,3.62,0,0,0,.23,2.47A3.79,3.79,0,0,0,243.41,205.55Z" fill="#9588c8"/><path d="M251.67,204.26l-.5-1a1.18,1.18,0,0,0,.54-1.17,9.25,9.25,0,0,0-.63-2.71l-1.41-4.08,5.42-2.7,3.87,7.78-1.2.61-3.35-6.72-3.14,1.56,1.1,3.1a7.73,7.73,0,0,1,.62,3.52A2.29,2.29,0,0,1,251.67,204.26Z" fill="#9588c8"/><path d="M265.2,197.24a4.32,4.32,0,0,1-3.41.45,4.94,4.94,0,0,1-3.19-5.7,4,4,0,0,1,2-2.65,3.84,3.84,0,0,1,3.31-.33,5,5,0,0,1,2.61,2.37l.17.3-6.15,3.43a3.33,3.33,0,0,0,1.86,1.41,3,3,0,0,0,2.34-.31,3.55,3.55,0,0,0,1.81-2.27l1,.46A4.68,4.68,0,0,1,265.2,197.24Zm-.14-5.78a3.13,3.13,0,0,0-1.63-1.38,2.57,2.57,0,0,0-2.28.25,2.53,2.53,0,0,0-1.35,1.76,3.25,3.25,0,0,0,.28,2.15Z" fill="#9588c8"/><path d="M271.91,193.1l-1.15.71-4.58-7.39,1.15-.71,1.9,3.08,3.86-2.39-1.91-3.08,1.15-.71,4.58,7.39-1.15.71-2.05-3.3-3.85,2.38Z" fill="#9588c8"/><path d="M280.54,187.6l-1.07.73-4.91-7.17,1.11-.76,3.75,5.48v-8.06l1.1-.75,4.91,7.17-1.11.77-3.83-5.59Z" fill="#9588c8"/><path d="M289,181.66l-1.27,1-.2-4.13a2.53,2.53,0,0,1-1.79.31,2.86,2.86,0,0,1-2.12-3,2.7,2.7,0,0,1,1.15-1.82l3.67-2.76,5.23,6.94-1.08.82-2-2.69-1.9,1.43Zm-1.62-4.48,2.47-1.86L288.05,173l-2.47,1.87a1.39,1.39,0,0,0-.32,2.08,1.38,1.38,0,0,0,2.1.27Z" fill="#9588c8"/></g></g></svg>