<?xml version="1.0" encoding="utf-8"?>
<!-- Generator: Adobe Illustrator 24.0.3, SVG Export Plug-In . SVG Version: 6.00 Build 0)  -->
<svg version="1.1" id="Layer_1" xmlns="http://www.w3.org/2000/svg" xmlns:xlink="http://www.w3.org/1999/xlink" x="0px" y="0px"
	 viewBox="0 0 310 227.7" style="enable-background:new 0 0 310 227.7;" xml:space="preserve">
<style type="text/css">
	.st0{fill:#9588C8;}
	.st1{fill:none;}
</style>
<title>xbox_svg</title>
<g>
	<path class="st0" d="M46,168.1l-4.6-3l6.6-10l4.5,2.9c0.9,0.6,1.4,1.2,1.6,2.1c0.2,0.8,0,1.6-0.5,2.4c-0.4,0.6-0.9,1-1.5,1.2
		c-0.6,0.2-1.2,0.2-1.8,0c0.5,0.4,0.8,1,0.8,1.7c0.1,0.7-0.1,1.4-0.5,2c-0.5,0.8-1.2,1.3-2.1,1.5S46.9,168.7,46,168.1z M46.5,166.8
		c0.6,0.4,1.1,0.5,1.7,0.4c0.5-0.1,1-0.4,1.3-0.9c0.3-0.5,0.4-1,0.3-1.6c-0.1-0.5-0.5-1-1.1-1.4l-3.1-2l-2.3,3.5L46.5,166.8z
		 M49.4,162.2c0.6,0.4,1.1,0.5,1.6,0.4c0.5-0.1,0.9-0.4,1.2-0.9c0.3-0.5,0.4-1,0.3-1.5c-0.1-0.5-0.4-0.9-1-1.3l-3-2l-2.1,3.2
		L49.4,162.2z"/>
	<path class="st0" d="M55.6,163.9l1.2,0.7l-1.7,2.9l2.8,1.6c0.8,0.4,1.2,1,1.4,1.7c0.2,0.7,0.1,1.3-0.3,2s-0.9,1.1-1.6,1.3
		s-1.4,0.1-2.1-0.3l-4-2.3L55.6,163.9z M57.3,170.1l-2.7-1.5l-1.5,2.6l2.7,1.5c0.4,0.2,0.8,0.3,1.2,0.2c0.4-0.1,0.6-0.4,0.9-0.7
		s0.3-0.8,0.2-1.1S57.7,170.3,57.3,170.1z M60.1,176.5l-1.2-0.7l4.3-7.6l1.2,0.7L60.1,176.5z"/>
	<path class="st0" d="M72.2,172.8l-0.5,1.1l-4.2-2.1l-3.4,6.7l-1.2-0.6l3.9-7.8L72.2,172.8z"/>
	<path class="st0" d="M77,183.3c-1.1,0.5-2.2,0.5-3.4-0.1c-1.2-0.5-2-1.3-2.3-2.5s-0.3-2.3,0.2-3.5c0.5-1.2,1.3-2,2.4-2.5
		c1.1-0.5,2.2-0.5,3.4,0.1c1.2,0.5,2,1.3,2.3,2.5c0.4,1.1,0.3,2.3-0.2,3.4C78.9,182,78.1,182.8,77,183.3z M72.6,180.4
		c0.2,0.8,0.7,1.4,1.5,1.8c0.8,0.4,1.6,0.3,2.3,0s1.3-1,1.7-1.9c0.4-0.9,0.5-1.7,0.3-2.5c-0.2-0.8-0.7-1.4-1.5-1.7s-1.6-0.3-2.3,0
		c-0.7,0.4-1.3,1-1.7,1.8C72.5,178.7,72.4,179.6,72.6,180.4z"/>
	<path class="st0" d="M78.3,187.5l1.2-3.1c0.4,0.1,0.9,0,1.3-0.4c0.4-0.3,0.9-1,1.5-2.1l2-3.8l5.7,2.1l-2.7,7l0.9,0.4l-1.2,3.2
		l-1.3-0.5l0.8-2.1l-6.1-2.3l-0.8,2.1L78.3,187.5z M84.9,179.6l-1.5,2.9c-0.7,1.4-1.5,2.2-2.3,2.4l4.8,1.8l2.2-5.9L84.9,179.6z"/>
	<path class="st0" d="M91.2,189.8l-1.3-0.4l2.7-8.3l1.3,0.4l-1.1,3.4l4.3,1.4l1.1-3.4l1.3,0.4l-2.7,8.3l-1.3-0.4l1.2-3.7l-4.3-1.4
		L91.2,189.8z"/>
	<path class="st0" d="M106.8,193.2c-1,0.6-2.1,0.8-3.4,0.5c-1.3-0.3-2.1-1-2.7-2.1c-0.5-1-0.6-2.2-0.3-3.5c0.3-1.3,1-2.2,2-2.8
		c1-0.6,2.1-0.8,3.4-0.5c1.3,0.3,2.1,1,2.7,2.1c0.5,1,0.6,2.2,0.3,3.4C108.4,191.6,107.8,192.6,106.8,193.2z M101.9,191
		c0.3,0.8,0.9,1.3,1.8,1.5c0.9,0.2,1.6,0.1,2.3-0.4c0.7-0.5,1.1-1.2,1.4-2.1s0.2-1.7-0.1-2.5c-0.3-0.8-0.9-1.2-1.8-1.5
		c-0.9-0.2-1.6-0.1-2.3,0.4c-0.7,0.5-1.1,1.2-1.4,2.1C101.5,189.4,101.6,190.3,101.9,191z"/>
	<path class="st0" d="M113.8,196.2l0.2-1.1c0.4,0.1,0.8-0.1,1.1-0.6c0.4-0.5,0.7-1.3,1.1-2.5l1.3-4.1l6,1.1l-1.6,8.6l-1.3-0.2
		l1.3-7.4l-3.5-0.6l-1,3.1c-0.5,1.5-1,2.6-1.6,3.2S114.7,196.3,113.8,196.2z"/>
	<path class="st0" d="M126.3,198.1l-1.3-0.2l1.1-8.6l1.3,0.2l-0.9,6.6l5.4-6l1.3,0.2l-1.1,8.6l-1.3-0.2l0.9-6.7L126.3,198.1z"/>
	<path class="st0" d="M145,199.8l-4.9-0.3l0.5-8.7l4.8,0.3c0.8,0,1.3,0.3,1.8,0.7c0.4,0.4,0.6,1,0.6,1.7c0,0.5-0.2,0.9-0.5,1.2
		c-0.3,0.3-0.6,0.6-1,0.7c0.4,0.1,0.8,0.4,1.1,0.8c0.3,0.4,0.4,0.9,0.4,1.4c0,0.7-0.3,1.3-0.8,1.7
		C146.4,199.7,145.8,199.9,145,199.8z M144.8,198.6c0.4,0,0.8-0.1,1-0.3c0.3-0.2,0.4-0.5,0.4-1c0-0.4-0.1-0.7-0.3-1
		c-0.2-0.3-0.6-0.4-1-0.4l-3.3-0.2l-0.1,2.7L144.8,198.6z M145,194.7c0.4,0,0.7-0.1,1-0.3s0.4-0.5,0.4-0.9c0-0.4-0.1-0.7-0.3-0.9
		c-0.2-0.2-0.5-0.4-0.9-0.4l-3.2-0.2l-0.1,2.4L145,194.7z"/>
	<path class="st0" d="M153.6,200.2c-1.7,0-3-0.5-3.9-1.5l0.7-0.9c0.8,0.8,1.9,1.2,3.2,1.2c0.8,0,1.4-0.1,1.9-0.4
		c0.5-0.3,0.7-0.6,0.7-1.1c0-1-0.9-1.5-2.7-1.5l-1.9,0l0-1.1l1.9,0c0.8,0,1.4-0.1,1.9-0.3c0.5-0.2,0.7-0.6,0.7-1.1
		c0-0.4-0.2-0.7-0.7-1c-0.5-0.3-1.1-0.4-1.8-0.4c-1.2,0-2.2,0.3-2.9,1.1l-0.7-0.8c0.9-0.9,2.1-1.4,3.6-1.3c1.2,0,2.1,0.2,2.9,0.6
		c0.7,0.4,1.1,1,1.1,1.7c0,0.6-0.3,1.1-0.8,1.4c-0.5,0.4-1,0.6-1.6,0.6c0.6,0.1,1.2,0.3,1.7,0.6c0.5,0.4,0.8,0.9,0.8,1.5
		c0,0.7-0.4,1.3-1.1,1.8C155.8,200,154.8,200.3,153.6,200.2z"/>
	<path class="st0" d="M161.4,199.9l-1.6,0.1l2.2-3.5c-0.7-0.1-1.2-0.3-1.6-0.8c-0.4-0.4-0.7-1-0.7-1.8c0-0.8,0.2-1.4,0.7-1.9
		c0.5-0.5,1.1-0.8,2-0.8l4.6-0.2l0.4,8.7l-1.3,0.1l-0.2-3.4l-2.4,0.1L161.4,199.9z M162.6,195.3l3.1-0.1l-0.1-2.9l-3.1,0.1
		c-0.5,0-0.8,0.2-1.1,0.5c-0.3,0.3-0.4,0.6-0.4,1.1c0,0.4,0.2,0.8,0.4,1.1C161.7,195.2,162.1,195.3,162.6,195.3z"/>
	<path class="st0" d="M173.2,199.2l-1.3,0.1l-0.7-7.5l-2.5,0.2l-0.1-1.2l6.4-0.6l0.1,1.2l-2.5,0.2L173.2,199.2z"/>
	<path class="st0" d="M176.6,190.1l1.3-0.2l0.4,3.3l3.2-0.4c0.9-0.1,1.6,0.1,2.1,0.5c0.5,0.4,0.9,1,1,1.8c0.1,0.7-0.1,1.4-0.5,2
		c-0.4,0.6-1,0.9-1.9,1l-4.6,0.6L176.6,190.1z M181.7,194l-3.1,0.4l0.4,2.9l3.1-0.4c0.5-0.1,0.8-0.2,1-0.5s0.3-0.7,0.2-1.1
		s-0.2-0.8-0.5-1C182.5,194.1,182.1,194,181.7,194z"/>
	<path class="st0" d="M196,195.9c-1.3,0.3-2.4,0-3.3-0.6c-1-0.7-1.6-1.7-1.8-3c-0.3-1.3-0.1-2.4,0.5-3.4c0.6-1,1.5-1.6,2.8-1.9
		c1.3-0.3,2.5,0,3.4,0.8l-0.7,1c-0.7-0.6-1.5-0.8-2.4-0.7c-0.9,0.2-1.5,0.6-2,1.4s-0.5,1.6-0.3,2.5s0.6,1.7,1.3,2.2
		c0.7,0.5,1.4,0.7,2.3,0.5c0.9-0.2,1.5-0.7,1.9-1.6l1,0.6C198.3,195,197.3,195.7,196,195.9z"/>
	<path class="st0" d="M209.9,192.3l-1.3,0.3l-1.7-6.6l-1,7.3l-0.5,0.1l-4.5-5.9l1.7,6.6l-1.3,0.3l-2.2-8.4l1.7-0.5l4.2,5.6l0.9-6.9
		l1.7-0.5L209.9,192.3z"/>
	<path class="st0" d="M219.3,189.3l-1.3,0.4l-0.3-0.9c-0.4,1-1.2,1.7-2.4,2c-0.8,0.2-1.5,0.2-2.3-0.1s-1.2-0.9-1.5-1.7
		c-0.3-0.9-0.2-1.6,0.2-2.3c0.4-0.7,1-1.1,1.8-1.4c1.2-0.4,2.2-0.3,3.1,0.2l-0.5-1.5c-0.2-0.5-0.5-0.9-1-1.1c-0.5-0.2-1-0.2-1.7,0
		c-1,0.3-1.7,1-2.2,2l-0.9-0.7c0.6-1.2,1.5-2,2.9-2.4c0.9-0.3,1.8-0.3,2.5-0.1s1.3,0.9,1.6,1.8L219.3,189.3z M215.5,189.8
		c1-0.3,1.7-0.9,1.9-1.8l-0.5-1.6c-0.7-0.5-1.6-0.6-2.6-0.3c-0.6,0.2-1,0.5-1.3,1c-0.3,0.5-0.3,1-0.2,1.5c0.2,0.5,0.5,0.9,1,1.1
		C214.4,189.9,214.9,189.9,215.5,189.8z"/>
	<path class="st0" d="M226.3,187c-1.1,0.4-2.2,0.3-3.3-0.4l1.6,4.3l-1.3,0.5l-4.3-11.2l1.3-0.5l0.5,1.2c0.1-0.5,0.4-1,0.8-1.5
		c0.4-0.4,0.9-0.8,1.4-1c1.1-0.4,2.1-0.4,3.1,0.2c1,0.5,1.7,1.4,2.2,2.7s0.6,2.5,0.2,3.5C228.1,185.8,227.4,186.6,226.3,187z
		 M225.6,186c0.8-0.3,1.3-0.8,1.6-1.6c0.2-0.8,0.2-1.6-0.2-2.5c-0.4-0.9-0.9-1.6-1.6-2s-1.4-0.5-2.2-0.1c-0.5,0.2-0.9,0.5-1.3,0.9
		c-0.4,0.4-0.6,0.9-0.7,1.3l1.4,3.7c0.4,0.3,0.8,0.5,1.4,0.5S225.1,186.2,225.6,186z"/>
	<path class="st0" d="M234.9,183.2l-1.2,0.5l-3-6.9l-2.3,1l-0.5-1.1l5.9-2.6l0.5,1.1l-2.3,1L234.9,183.2z"/>
	<path class="st0" d="M237.7,172.1c0.9-0.4,1.8-0.3,2.8,0.3l-2.1-4.1l1.2-0.6l2.1,4.1c0-0.5,0.2-1,0.4-1.4c0.2-0.4,0.6-0.8,1-1
		c0.8-0.4,1.7-0.4,2.6,0.1c0.9,0.5,1.6,1.3,2.3,2.6s0.9,2.4,0.7,3.4c-0.1,1-0.6,1.7-1.5,2.1c-0.9,0.4-1.8,0.3-2.8-0.3l2.1,4.1
		l-1.2,0.6l-2.1-4.1c0,0.5-0.2,1-0.4,1.4c-0.3,0.4-0.6,0.8-1,1c-0.8,0.4-1.7,0.4-2.6-0.1s-1.6-1.3-2.3-2.6c-0.6-1.2-0.9-2.4-0.7-3.4
		C236.4,173.3,236.9,172.6,237.7,172.1z M238.6,173.1c-0.6,0.3-0.9,0.8-1,1.5c-0.1,0.7,0.1,1.5,0.6,2.4c0.4,0.9,1,1.5,1.6,1.9
		c0.6,0.4,1.2,0.4,1.8,0.1c0.4-0.2,0.7-0.5,0.9-0.9c0.2-0.4,0.3-0.8,0.3-1.3l-1.8-3.5c-0.3-0.3-0.8-0.4-1.2-0.5
		C239.3,172.8,238.9,172.9,238.6,173.1z M246.3,176.7c0.6-0.3,0.9-0.8,1-1.5c0.1-0.7-0.1-1.5-0.6-2.4c-0.4-0.9-1-1.5-1.6-1.9
		c-0.6-0.4-1.2-0.4-1.8-0.1c-0.4,0.2-0.6,0.5-0.8,0.9c-0.2,0.4-0.3,0.8-0.3,1.2l1.8,3.5c0.3,0.3,0.7,0.4,1.2,0.5
		C245.6,176.9,246,176.8,246.3,176.7z"/>
	<path class="st0" d="M257.8,170.1c-0.2,1.2-0.9,2.1-2,2.7c-1.1,0.7-2.2,0.8-3.4,0.4c-1.1-0.4-2-1.1-2.7-2.2
		c-0.7-1.1-0.9-2.2-0.6-3.4c0.2-1.1,0.9-2.1,2-2.7c1.1-0.7,2.2-0.8,3.4-0.5c1.1,0.4,2,1.1,2.7,2.2
		C257.8,167.8,258.1,168.9,257.8,170.1z M252.9,172c0.8,0.3,1.6,0.2,2.3-0.2c0.8-0.4,1.2-1.1,1.3-1.9s-0.1-1.6-0.5-2.4
		c-0.5-0.8-1.1-1.4-1.9-1.7c-0.8-0.3-1.5-0.2-2.3,0.2s-1.2,1.1-1.3,1.9s0.1,1.6,0.5,2.4C251.5,171.1,252.1,171.7,252.9,172z"/>
	<path class="st0" d="M262.7,168.3l-1.1,0.7l-4.8-7.3l1.1-0.7l2,3l3.8-2.5l-2-3l1.1-0.7l4.8,7.3l-1.1,0.7l-2.1-3.2l-3.8,2.5
		L262.7,168.3z"/>
</g>
<g>
	<path class="st0" d="M16.1,177.6l-1-0.9l4.7-5.8l-3.5-2.9l-4.7,5.8l-1-0.9l5.5-6.7l5.6,4.6L16.1,177.6z"/>
	<path class="st0" d="M24.7,182.7c-1.2,0.2-2.2,0-3.3-0.8c-1-0.8-1.6-1.7-1.7-2.9c-0.1-1.2,0.2-2.3,1-3.3s1.7-1.7,2.9-1.9
		c1.1-0.2,2.2,0,3.3,0.8c1,0.8,1.6,1.7,1.7,2.9c0.1,1.2-0.2,2.3-1,3.3S25.9,182.4,24.7,182.7z M21,178.9c0,0.8,0.4,1.5,1.1,2
		c0.7,0.5,1.5,0.7,2.3,0.5c0.8-0.2,1.5-0.7,2-1.5c0.6-0.8,0.8-1.5,0.8-2.4s-0.4-1.5-1.1-2s-1.5-0.7-2.3-0.5c-0.8,0.2-1.5,0.7-2,1.4
		C21.3,177.2,21,178,21,178.9z"/>
	<path class="st0" d="M37.2,192.3l-1.1-0.7l4-6.3l-3.8-2.4l-4,6.3l-1.1-0.7l4.7-7.3l6.1,3.9L37.2,192.3z"/>
	<path class="st0" d="M46.4,196.4c-1.1,0.4-2.2,0.2-3.4-0.4s-1.8-1.5-2.1-2.7c-0.2-1.2,0-2.3,0.6-3.4c0.6-1.1,1.5-1.9,2.6-2.2
		c1.1-0.4,2.2-0.2,3.4,0.4s1.8,1.5,2.1,2.7c0.2,1.1,0,2.3-0.6,3.4S47.5,196,46.4,196.4z M42.3,193c0.1,0.8,0.6,1.5,1.3,1.9
		c0.8,0.4,1.5,0.5,2.3,0.2c0.8-0.3,1.4-0.9,1.9-1.7s0.6-1.6,0.5-2.4c-0.1-0.8-0.6-1.4-1.3-1.9c-0.8-0.4-1.5-0.5-2.3-0.2
		c-0.8,0.3-1.4,0.9-1.9,1.7C42.3,191.4,42.1,192.2,42.3,193z"/>
	<path class="st0" d="M47.2,200.6l1.5-3c0.4,0.1,0.9,0,1.3-0.2c0.4-0.3,1-0.9,1.7-1.9l2.5-3.6l5.4,2.8l-3.4,6.7l0.9,0.5l-1.6,3
		l-1.2-0.6l1-2l-5.8-3l-1,2L47.2,200.6z M54.6,193.5l-1.8,2.7c-0.9,1.3-1.7,2-2.5,2.1l4.6,2.4l2.9-5.6L54.6,193.5z"/>
	<path class="st0" d="M65,206.8l-1.2-0.6l3.1-6.8l-4.1-1.9l-3.1,6.8l-1.2-0.6l3.6-7.9l6.6,3L65,206.8z"/>
	<path class="st0" d="M69,208.5l-1.2-0.5L71,200l1.3,0.5l-2.5,6.2l6.7-4.5l1.2,0.5l-3.2,8.1l-1.3-0.5l2.5-6.3L69,208.5z"/>
	<path class="st0" d="M80.9,213.3c-1.2-0.4-2.1-1.2-2.5-2.3c-0.5-1.1-0.5-2.2-0.1-3.5c0.4-1.2,1.2-2.1,2.2-2.7
		c1-0.5,2.2-0.6,3.4-0.2c1.3,0.4,2.1,1.3,2.5,2.5l-1.1,0.5c-0.3-0.9-0.8-1.5-1.7-1.8c-0.9-0.3-1.7-0.2-2.4,0.2
		c-0.7,0.4-1.2,1.1-1.6,2c-0.3,0.9-0.3,1.8,0,2.6s0.9,1.3,1.8,1.6c0.9,0.3,1.7,0.2,2.5-0.3l0.6,1.1
		C83.4,213.6,82.2,213.7,80.9,213.3z"/>
	<path class="st0" d="M93.4,217l-1.7-0.5l-1.9-4.7l-1.8,0.9l-0.7,2.4l-1.3-0.4l2.5-8.3l1.3,0.4l-1.4,4.4l5.7-3.1l1.6,0.5l-4.8,2.6
		L93.4,217z"/>
	<path class="st0" d="M99,218.7c-1.3-0.3-2.2-1-2.8-2s-0.7-2.2-0.4-3.5c0.3-1.2,1-2.2,2-2.8c1-0.7,2.1-0.8,3.3-0.5
		c1.2,0.3,2.1,1,2.6,2c0.5,1,0.6,2.2,0.3,3.5l-0.1,0.3l-6.8-1.8c-0.2,0.8,0,1.6,0.4,2.3s1,1.2,1.9,1.4c1,0.3,2,0.1,2.9-0.4l0.4,1
		C101.6,218.9,100.4,219.1,99,218.7z M102.9,214.5c0.2-0.7,0.1-1.4-0.2-2.1c-0.3-0.7-0.9-1.2-1.8-1.4c-0.8-0.2-1.6-0.1-2.2,0.3
		c-0.6,0.4-1.1,1-1.3,1.8L102.9,214.5z"/>
	<path class="st0" d="M107.7,217.1c-0.4-0.5-0.5-1-0.4-1.6c0.1-0.4,0.2-0.7,0.4-0.9c0.2-0.3,0.5-0.5,0.7-0.6
		c0.3-0.1,0.6-0.3,0.9-0.4c0.3-0.1,0.6-0.3,0.9-0.4c0.3-0.1,0.5-0.3,0.7-0.5c0.2-0.2,0.3-0.5,0.4-0.8c0.1-0.5,0-0.9-0.3-1.3
		s-0.8-0.7-1.4-0.8c-1.1-0.2-2.2,0-3.1,0.8l-0.7-1.1c1.2-1,2.6-1.3,4.2-1c1,0.2,1.8,0.7,2.3,1.3c0.5,0.7,0.7,1.4,0.5,2.1
		c-0.1,0.6-0.4,1.1-0.9,1.5c-0.5,0.4-0.9,0.7-1.4,0.8c-0.5,0.2-0.9,0.4-1.4,0.6c-0.4,0.3-0.7,0.6-0.8,1c-0.1,0.3,0,0.7,0.3,1
		L107.7,217.1z M108.1,220.5c-0.2,0.1-0.5,0.2-0.7,0.1c-0.3-0.1-0.5-0.2-0.6-0.4c-0.2-0.2-0.2-0.5-0.1-0.7c0.1-0.3,0.2-0.5,0.4-0.6
		c0.2-0.1,0.5-0.2,0.7-0.1s0.5,0.2,0.6,0.4c0.2,0.2,0.2,0.5,0.1,0.7C108.4,220.2,108.3,220.4,108.1,220.5z"/>
	<path class="st0" d="M119.5,222.8l-1.5-0.2l1.8-11.9l4.8,0.7c1.2,0.2,2,0.6,2.6,1.4c0.6,0.8,0.8,1.7,0.6,2.7
		c-0.1,1-0.6,1.8-1.4,2.4c-0.8,0.6-1.7,0.8-2.9,0.6l-3.3-0.5L119.5,222.8z M123.5,217.2c0.7,0.1,1.3,0,1.8-0.4
		c0.5-0.4,0.8-0.9,0.9-1.5c0.1-0.7,0-1.2-0.4-1.7s-0.9-0.8-1.6-0.9l-3.1-0.5l-0.7,4.5L123.5,217.2z"/>
	<path class="st0" d="M135.1,224.7l-1.3-0.1l0.1-1c-0.8,0.7-1.8,1-3,0.9c-0.8-0.1-1.5-0.4-2-1c-0.6-0.6-0.8-1.3-0.7-2.2
		c0.1-0.9,0.5-1.6,1.1-2c0.7-0.4,1.4-0.6,2.2-0.5c1.2,0.1,2.1,0.6,2.7,1.5l0.2-1.6c0.1-0.6-0.1-1-0.5-1.4c-0.4-0.4-0.9-0.6-1.5-0.6
		c-1-0.1-1.9,0.2-2.8,0.9l-0.5-1c1-0.9,2.2-1.2,3.6-1.1c1,0.1,1.8,0.4,2.3,1c0.6,0.5,0.8,1.3,0.7,2.3L135.1,224.7z M131.5,223.6
		c1.1,0.1,1.9-0.2,2.5-0.8l0.2-1.6c-0.4-0.8-1.2-1.2-2.3-1.3c-0.6-0.1-1.1,0.1-1.6,0.4c-0.4,0.3-0.7,0.7-0.7,1.3
		c-0.1,0.5,0.1,1,0.5,1.4C130.3,223.3,130.8,223.5,131.5,223.6z"/>
	<path class="st0" d="M141.2,225.3c-1.7-0.1-2.9-0.7-3.8-1.7l0.7-0.8c0.8,0.8,1.8,1.3,3.2,1.4c0.8,0,1.4-0.1,1.9-0.3
		c0.5-0.2,0.7-0.6,0.8-1.1c0.1-1-0.8-1.5-2.6-1.6l-1.9-0.1l0.1-1.1l1.9,0.1c0.8,0,1.4,0,1.9-0.3c0.5-0.2,0.8-0.6,0.8-1
		c0-0.4-0.2-0.8-0.7-1c-0.5-0.3-1.1-0.5-1.8-0.5c-1.2-0.1-2.2,0.2-3,0.9l-0.7-0.9c1-0.9,2.2-1.3,3.6-1.2c1.2,0.1,2.1,0.3,2.8,0.8
		s1,1.1,1,1.8c0,0.6-0.3,1.1-0.8,1.4c-0.5,0.3-1.1,0.5-1.6,0.6c0.6,0.1,1.2,0.3,1.7,0.7c0.5,0.4,0.7,0.9,0.7,1.6
		c0,0.7-0.4,1.3-1.2,1.8C143.4,225.2,142.4,225.4,141.2,225.3z"/>
	<path class="st0" d="M151.5,225.7c-1.3,0-2.3-0.5-3.1-1.4c-0.8-0.9-1.1-2.1-1.1-3.6c0-2.1,0.4-3.6,1.2-4.6c0.8-1,1.9-1.6,3.5-1.7
		c0.9-0.1,1.6-0.3,1.9-0.4c0.4-0.1,0.5-0.3,0.5-0.5l1.3,0c0,0.3-0.1,0.6-0.3,0.9c-0.2,0.2-0.5,0.4-0.9,0.6c-0.4,0.1-0.7,0.2-1.1,0.3
		c-0.3,0.1-0.7,0.1-1.2,0.2c-1.2,0.1-2.1,0.5-2.6,0.9c-0.5,0.5-0.9,1.1-1.1,1.9c0.8-1.2,1.9-1.8,3.3-1.8c1.2,0,2.2,0.5,2.9,1.4
		c0.7,0.9,1.1,2,1.1,3.2c0,1.3-0.4,2.4-1.2,3.2C153.8,225.3,152.8,225.7,151.5,225.7z M149.4,223.5c0.5,0.7,1.2,1,2.1,1
		s1.6-0.3,2.1-0.9c0.5-0.6,0.8-1.4,0.8-2.4c0-0.9-0.2-1.7-0.7-2.4c-0.5-0.7-1.2-1-2.1-1c-0.9,0-1.6,0.3-2.1,0.9s-0.8,1.4-0.8,2.3
		C148.7,222,148.9,222.8,149.4,223.5z"/>
	<path class="st0" d="M162.4,225.6c-1.3,0-2.4-0.3-3.2-1.2c-0.9-0.8-1.3-1.9-1.3-3.3c0-1.3,0.3-2.4,1.1-3.3c0.8-0.9,1.8-1.4,3-1.4
		c1.3,0,2.3,0.4,3.1,1.2s1.2,2,1.2,3.3l0,0.3l-7,0.2c0.1,0.8,0.4,1.6,1,2.1c0.6,0.6,1.3,0.8,2.2,0.8c1.1,0,2-0.4,2.6-1.2l0.7,0.9
		C164.9,225.1,163.8,225.6,162.4,225.6z M164.9,220.4c0-0.7-0.3-1.4-0.8-2c-0.5-0.6-1.2-0.9-2.1-0.8c-0.9,0-1.5,0.3-2,0.9
		c-0.5,0.6-0.7,1.3-0.7,2L164.9,220.4z"/>
	<path class="st0" d="M173.2,225c-1.2,0.1-2.2-0.3-3-1.3l0.4,4.6l-1.3,0.1l-0.9-12l1.3-0.1l0.1,1.3c0.3-0.5,0.7-0.9,1.2-1.2
		c0.5-0.3,1-0.5,1.6-0.5c1.1-0.1,2.1,0.2,2.9,1c0.8,0.8,1.2,1.8,1.3,3.2c0.1,1.4-0.2,2.5-0.8,3.4C175.3,224.5,174.4,224.9,173.2,225
		z M172.8,223.9c0.8-0.1,1.5-0.4,2-1.1c0.5-0.7,0.6-1.5,0.6-2.5c-0.1-1-0.4-1.8-0.9-2.3s-1.2-0.8-2.1-0.8c-0.5,0-1,0.2-1.5,0.5
		c-0.5,0.3-0.8,0.7-1,1.1l0.3,3.9c0.3,0.4,0.7,0.7,1.2,0.9C171.8,223.8,172.3,223.9,172.8,223.9z"/>
	<path class="st0" d="M183.5,224c-1.3,0.2-2.4-0.1-3.3-0.9c-0.9-0.7-1.5-1.8-1.6-3.1c-0.2-1.3,0.1-2.4,0.8-3.4
		c0.7-1,1.7-1.5,2.9-1.7c1.3-0.2,2.3,0.2,3.2,0.9s1.4,1.8,1.5,3.2l0,0.3l-7,0.9c0.2,0.8,0.6,1.5,1.2,2c0.6,0.5,1.4,0.7,2.3,0.6
		c1.1-0.1,1.9-0.6,2.5-1.4l0.8,0.8C185.9,223.2,184.9,223.8,183.5,224z M185.5,218.6c-0.1-0.7-0.4-1.4-1-1.9
		c-0.6-0.5-1.3-0.7-2.2-0.6c-0.9,0.1-1.5,0.5-1.9,1.1s-0.6,1.3-0.5,2.1L185.5,218.6z"/>
	<path class="st0" d="M198.7,221.3l-1.3,0.2l-1.2-6.7l-1.6,7.2l-0.5,0.1l-4-6.2l1.2,6.7l-1.3,0.2l-1.5-8.6l1.8-0.3l3.7,5.9l1.5-6.8
		l1.8-0.3L198.7,221.3z"/>
	<path class="st0" d="M207.7,219.3l-1.3,0.3l-2.1-8.4l1.3-0.3l0.9,3.5l4.4-1.1l-0.9-3.5l1.3-0.3l2.1,8.4l-1.3,0.3l-0.9-3.8l-4.4,1.1
		L207.7,219.3z"/>
	<path class="st0" d="M222.9,215.1l-1.3,0.4l-0.3-0.9c-0.5,1-1.3,1.6-2.4,2c-0.8,0.2-1.5,0.2-2.3-0.1c-0.7-0.3-1.2-0.9-1.5-1.8
		c-0.3-0.9-0.2-1.6,0.3-2.3c0.4-0.7,1-1.1,1.8-1.3c1.2-0.4,2.2-0.3,3.1,0.3l-0.4-1.5c-0.2-0.6-0.5-0.9-1-1.1c-0.5-0.2-1-0.2-1.7,0
		c-1,0.3-1.7,0.9-2.2,1.9l-0.9-0.7c0.6-1.2,1.6-2,2.9-2.4c1-0.3,1.8-0.3,2.5,0c0.7,0.3,1.2,0.9,1.5,1.9L222.9,215.1z M219.1,215.5
		c1-0.3,1.7-0.9,2-1.7l-0.5-1.6c-0.7-0.5-1.6-0.7-2.6-0.3c-0.6,0.2-1,0.5-1.3,1c-0.3,0.5-0.3,1-0.2,1.5c0.2,0.5,0.5,0.9,1,1.1
		S218.5,215.7,219.1,215.5z"/>
	<path class="st0" d="M237.1,210.1l-1.3,0.5l-2.6-7l-4.2,1.6l2.6,7l-1.3,0.5l-3-8.1l6.8-2.5L237.1,210.1z"/>
	<path class="st0" d="M244,207.5c-1.1,0.5-2.2,0.4-3.3-0.3l1.8,4.3l-1.2,0.5l-4.7-11l1.2-0.5l0.5,1.2c0.1-0.5,0.4-1,0.7-1.5
		c0.4-0.5,0.8-0.8,1.4-1c1.1-0.5,2.1-0.4,3.1,0c1,0.5,1.7,1.4,2.3,2.6c0.5,1.3,0.7,2.4,0.3,3.5C245.7,206.3,245,207,244,207.5z
		 M243.2,206.5c0.8-0.3,1.3-0.9,1.5-1.7c0.2-0.8,0.1-1.6-0.3-2.5c-0.4-0.9-0.9-1.5-1.6-1.9c-0.7-0.4-1.5-0.4-2.2-0.1
		c-0.5,0.2-0.9,0.5-1.2,1s-0.5,0.9-0.6,1.3l1.5,3.6c0.4,0.3,0.8,0.4,1.4,0.5C242.2,206.8,242.7,206.7,243.2,206.5z"/>
	<path class="st0" d="M250.9,204.2l-1.2,0.6l-3.8-7.8l1.2-0.6l2.9,6l1.2-8l1.2-0.6l3.8,7.8l-1.2,0.6l-3-6.1L250.9,204.2z"/>
	<path class="st0" d="M266.7,195.9l-1.2,0.6l-3.3-6l0.8,7.3l-0.4,0.2l-5.8-4.6l3.3,6l-1.2,0.6l-4.2-7.6l1.6-0.9l5.4,4.4l-0.8-6.9
		l1.6-0.9L266.7,195.9z"/>
	<path class="st0" d="M272.9,192.5c-1.1,0.7-2.2,0.9-3.4,0.6c-1.1-0.3-2.1-1-2.8-2.2c-0.7-1.1-0.9-2.2-0.6-3.4
		c0.2-1.2,0.9-2.1,1.9-2.7c1.1-0.7,2.2-0.8,3.3-0.5c1.1,0.4,2,1.1,2.7,2.3l0.2,0.3l-6,3.7c0.5,0.7,1.1,1.1,1.9,1.3
		c0.8,0.2,1.6,0.1,2.3-0.4c0.9-0.6,1.5-1.3,1.7-2.3l1,0.4C274.8,190.8,274.1,191.7,272.9,192.5z M272.5,186.7
		c-0.4-0.6-1-1.1-1.7-1.3c-0.7-0.2-1.5-0.1-2.3,0.3c-0.7,0.5-1.2,1.1-1.3,1.8c-0.1,0.8,0,1.5,0.4,2.1L272.5,186.7z"/>
	<path class="st0" d="M282,186.6c-1,0.7-2.1,0.8-3.3,0.4l2.6,3.8l-1.1,0.8l-6.8-9.9l1.1-0.8l0.7,1.1c0-0.6,0.2-1.1,0.4-1.6
		s0.7-0.9,1.2-1.3c1-0.6,2-0.8,3-0.6c1.1,0.3,2,1,2.8,2.1c0.8,1.2,1.1,2.3,1,3.4C283.4,185.1,282.9,185.9,282,186.6z M281,185.8
		c0.7-0.5,1.1-1.1,1.2-1.9c0.1-0.8-0.2-1.6-0.7-2.4c-0.6-0.8-1.2-1.3-2-1.6s-1.5-0.1-2.2,0.4c-0.4,0.3-0.8,0.7-1,1.2s-0.4,1-0.3,1.4
		l2.2,3.2c0.4,0.2,0.9,0.3,1.5,0.2C280.1,186.2,280.6,186.1,281,185.8z"/>
	<path class="st0" d="M292.5,178.7l-1.1,0.8l-0.6-0.8c-0.1,1.1-0.6,2-1.6,2.7c-0.6,0.5-1.4,0.7-2.2,0.7s-1.5-0.4-2-1.1
		c-0.5-0.7-0.7-1.5-0.5-2.2c0.2-0.8,0.6-1.4,1.3-1.9c1-0.7,2-1,3-0.8l-0.9-1.3c-0.3-0.5-0.8-0.7-1.3-0.7c-0.5,0-1,0.2-1.6,0.6
		c-0.8,0.6-1.3,1.5-1.4,2.6l-1.1-0.4c0.2-1.3,0.8-2.4,1.9-3.2c0.8-0.6,1.6-0.9,2.4-0.9c0.8,0,1.5,0.4,2.1,1.2L292.5,178.7z
		 M289,180.3c0.9-0.6,1.3-1.4,1.3-2.3l-1-1.3c-0.8-0.3-1.7-0.1-2.6,0.6c-0.5,0.4-0.8,0.8-0.9,1.3c-0.1,0.5,0,1,0.3,1.5
		c0.3,0.4,0.8,0.7,1.3,0.7C288,180.9,288.5,180.7,289,180.3z"/>
	<path class="st0" d="M300.4,172.3l-1.2,1l-4.3-1.1l0.2,4.4l-1.2,1l-0.2-5.6l-5.1-1.3l1.2-1l4,1l-0.2-4.1l1.2-1l0.2,5.3L300.4,172.3
		z"/>
</g>
<path class="st1" d="M310,0.2c0,85.6-69.4,155-155,155S0,85.9,0,0.2"/>
</svg>
