<?xml version="1.0" encoding="utf-8"?>
<!-- Generator: Adobe Illustrator 24.0.3, SVG Export Plug-In . SVG Version: 6.00 Build 0)  -->
<svg version="1.1" id="Layer_1" xmlns="http://www.w3.org/2000/svg" xmlns:xlink="http://www.w3.org/1999/xlink" x="0px" y="0px"
	 viewBox="0 0 310 299.1" style="enable-background:new 0 0 310 299.1;" xml:space="preserve">
<style type="text/css">
	.st0{fill:#9588C8;}
	.st1{fill:none;}
</style>
<title>vc-text</title>
<g>
	<path class="st0" d="M32.6,230.3l-1.1-0.8l5.3-6.9l1.1,0.8l-0.8,1.1c1.1-0.4,2.3-0.2,3.3,0.5l-0.8,1.1c-0.1-0.1-0.3-0.3-0.4-0.4
		c-0.4-0.3-0.8-0.4-1.3-0.5c-0.5-0.1-0.9,0-1.4,0.1L32.6,230.3z"/>
	<path class="st0" d="M39.6,235.7c-1-0.7-1.7-1.7-1.9-2.9c-0.2-2.5,1.3-4.7,3.8-5.4c1.1-0.3,2.3,0,3.3,0.7c1,0.6,1.6,1.7,1.7,2.8
		c0.1,1.2-0.3,2.4-1,3.4l-0.2,0.3l-5.8-4.1c-0.4,0.7-0.6,1.5-0.5,2.3c0.1,0.8,0.6,1.5,1.3,2c0.8,0.6,1.8,0.8,2.8,0.6v1.1
		C41.9,236.8,40.6,236.5,39.6,235.7z M44.8,233.1c0.4-0.6,0.6-1.3,0.5-2.1c-0.1-0.8-0.5-1.5-1.2-1.9c-0.6-0.5-1.4-0.6-2.2-0.4
		c-0.7,0.2-1.4,0.6-1.8,1.2L44.8,233.1z"/>
	<path class="st0" d="M46.3,239.8c-0.3,0.1-0.5,0-0.7-0.1c-0.2-0.1-0.4-0.4-0.4-0.6c-0.1-0.3,0-0.5,0.1-0.8c0.3-0.5,0.9-0.6,1.4-0.3
		c0.2,0.1,0.4,0.4,0.4,0.6c0.1,0.3,0,0.5-0.1,0.7C46.8,239.6,46.6,239.8,46.3,239.8z M50.2,234c-0.3,0.1-0.5,0-0.8-0.1
		c-0.5-0.3-0.6-0.9-0.3-1.4c0.1-0.2,0.4-0.4,0.6-0.4c0.5-0.1,1.1,0.2,1.2,0.8c0.1,0.3,0,0.5-0.1,0.7C50.6,233.7,50.4,233.9,50.2,234
		z"/>
	<path class="st0" d="M52.1,243.8c-1.5-0.8-2.6-2.3-3-4l1.3-0.5c0.2,1.4,1.1,2.7,2.4,3.4c0.6,0.5,1.4,0.7,2.2,0.6
		c0.6-0.1,1-0.4,1.3-0.9c0.2-0.3,0.3-0.7,0.2-1.1c-0.1-0.4-0.3-0.8-0.5-1.1c-0.3-0.4-0.6-0.7-1-1.1c-0.4-0.4-0.7-0.8-1.1-1.2
		c-0.3-0.4-0.6-0.8-0.9-1.2c-0.2-0.4-0.4-0.9-0.4-1.4c0-0.5,0.1-1,0.4-1.5c0.5-0.8,1.3-1.4,2.2-1.5c1.1-0.1,2.1,0.1,3,0.7
		c1.4,0.8,2.4,2.1,2.8,3.6l-1.3,0.5c-0.3-1.3-1.1-2.4-2.2-3c-0.5-0.3-1.2-0.5-1.8-0.4c-0.5,0-1,0.4-1.3,0.8
		c-0.2,0.4-0.2,0.8-0.1,1.2c0.2,0.4,0.5,0.9,0.8,1.2c0.4,0.4,0.8,0.8,1.2,1.3s0.8,1,1.2,1.4c0.3,0.5,0.5,1,0.6,1.6
		c0,0.6-0.1,1.3-0.5,1.8c-0.5,0.8-1.3,1.4-2.2,1.6C54.3,244.8,53.1,244.5,52.1,243.8z"/>
	<path class="st0" d="M59.8,248.1c-0.5-0.2-0.8-0.6-1-1.1c-0.1-0.5,0-1.1,0.3-1.6l2.7-5l-1.3-0.7l0.6-1.1l1.3,0.7l1.1-2.1l1.2,0.6
		l-1.2,2.1l1.5,0.8l-0.6,1l-1.5-0.8l-2.6,4.7c-0.1,0.2-0.2,0.5-0.2,0.8c0,0.3,0.2,0.5,0.4,0.6c0.3,0.2,0.7,0.2,1,0.1l-0.1,1.1
		C60.9,248.5,60.3,248.5,59.8,248.1z"/>
	<path class="st0" d="M69.6,251.6c-2.3,0.8-4.8-0.4-5.6-2.7c0,0,0-0.1,0-0.1c-0.6-2.4,0.6-4.8,2.9-5.8c2.3-0.8,4.8,0.4,5.6,2.7
		c0,0,0,0,0,0.1c0.3,1.2,0.2,2.4-0.4,3.4C71.5,250.3,70.7,251.2,69.6,251.6z M65.2,248.5c0.4,1.5,1.9,2.4,3.4,2
		c0.1,0,0.3-0.1,0.4-0.1c0.8-0.4,1.4-1,1.8-1.8c0.4-0.8,0.5-1.6,0.4-2.5c-0.4-1.5-1.9-2.4-3.4-2c-0.2,0-0.3,0.1-0.4,0.2
		C65.8,245.1,64.9,246.8,65.2,248.5L65.2,248.5z"/>
	<path class="st0" d="M73.7,254.7l-1.2-0.6l3.5-7.9l1.2,0.5l-0.6,1.3c1-0.6,2.2-0.7,3.3-0.3l-0.6,1.3c-0.1-0.1-0.3-0.2-0.5-0.3
		c-0.4-0.2-0.9-0.2-1.4-0.1c-0.5,0-0.9,0.2-1.3,0.5L73.7,254.7z"/>
	<path class="st0" d="M81.7,258.3c-1.1-0.4-2-1.3-2.5-2.3c-0.5-1.1-0.4-2.4,0.1-3.5c0.4-1.1,1.2-2,2.3-2.6c1-0.5,2.3-0.6,3.3-0.1
		c1.1,0.4,2,1.2,2.4,2.3c0.4,1.2,0.3,2.4-0.2,3.5l-0.1,0.3l-6.6-2.6c-0.3,0.8-0.2,1.6,0.1,2.3c0.3,0.8,1,1.3,1.7,1.6
		c0.9,0.4,2,0.4,2.9,0l0.3,1.1C84.3,258.8,82.9,258.8,81.7,258.3z M86.1,254.5c0.2-0.7,0.2-1.4,0-2.1c-0.3-0.8-0.9-1.4-1.6-1.6
		c-0.7-0.3-1.5-0.3-2.2,0.1c-0.7,0.3-1.2,0.9-1.5,1.6L86.1,254.5z"/>
	<path class="st0" d="M96.2,263.3c-1.1-0.3-2.1-1.1-2.6-2.2c-0.5-1.1-0.6-2.3-0.2-3.5c0.3-1.2,1.1-2.1,2.1-2.8
		c1-0.6,2.3-0.7,3.4-0.3c1.2,0.3,2.2,1.2,2.6,2.4l-1.1,0.5c-0.3-0.8-0.9-1.5-1.8-1.7c-0.8-0.3-1.7-0.2-2.4,0.2
		c-0.7,0.5-1.3,1.2-1.5,2.1c-0.3,0.8-0.3,1.7,0.1,2.5c0.3,0.8,1,1.3,1.8,1.6c0.8,0.3,1.8,0.1,2.4-0.4l0.6,1
		C98.7,263.5,97.4,263.7,96.2,263.3z"/>
	<path class="st0" d="M113.2,267.5l-1.3-0.3l1.7-7.3l-4.4-1l-1.7,7.3l-1.3-0.3l1.9-8.5l7.1,1.6L113.2,267.5z"/>
	<path class="st0" d="M122.9,269.3l-1.3-0.2l0.2-1c-0.9,0.6-1.9,0.9-3,0.7c-0.8-0.1-1.5-0.5-2-1.1c-0.5-0.6-0.7-1.5-0.5-2.2
		c0.1-0.8,0.6-1.5,1.3-1.9c0.7-0.4,1.5-0.5,2.2-0.4c1.1,0.1,2,0.7,2.6,1.7l0.3-1.5c0.1-0.5,0-1-0.4-1.4c-0.4-0.4-0.9-0.7-1.5-0.8
		c-1-0.2-2,0.1-2.8,0.7l-0.5-1c1.1-0.8,2.4-1.1,3.7-0.8c0.9,0.1,1.7,0.5,2.3,1.2c0.5,0.6,0.7,1.5,0.5,2.3L122.9,269.3z M119.3,267.9
		c0.9,0.2,1.9,0,2.5-0.6l0.3-1.6c-0.4-0.8-1.2-1.4-2.2-1.5c-0.6-0.1-1.1,0-1.6,0.3c-0.5,0.3-0.8,0.7-0.8,1.2c-0.1,0.5,0,1,0.3,1.4
		C118.3,267.5,118.8,267.8,119.3,267.9z"/>
	<path class="st0" d="M130.2,270.5c-1.2-0.1-2.2-0.8-2.7-1.9l-0.6,4.6l-1.3-0.2l1.4-12l1.3,0.2l-0.2,1.3c0.4-0.4,0.9-0.7,1.4-0.9
		c1.6-0.6,3.4,0,4.3,1.4c1.2,2.1,0.8,4.8-0.8,6.6C132.3,270.3,131.2,270.6,130.2,270.5z M130,269.2c0.8,0.1,1.6-0.1,2.1-0.7
		c1.2-1.3,1.4-3.2,0.6-4.8c-0.4-0.7-1.1-1.1-1.9-1.2c-0.5-0.1-1.1,0-1.5,0.2c-0.5,0.2-0.9,0.5-1.2,0.8l-0.5,3.9
		c0.2,0.5,0.6,0.8,1,1.1C129,269,129.5,269.2,130,269.2z"/>
	<path class="st0" d="M139.5,271.2l-1.3-0.1l0.6-7.5l-2.5-0.2l0.1-1.2l6.4,0.5l-0.1,1.2l-2.5-0.2L139.5,271.2z"/>
	<path class="st0" d="M145.4,271.5h-1.4l0.3-8.7h1.4l-0.1,3.6l4.5,0.1l0.1-3.6h1.4l-0.3,8.7H150l0.1-3.9l-4.5-0.1L145.4,271.5z"/>
	<path class="st0" d="M158.4,271.9c-1.2,0.1-2.4-0.4-3.2-1.2c-0.9-0.9-1.3-2.1-1.3-3.3c-0.1-1.2,0.4-2.4,1.2-3.2
		c0.8-0.9,1.8-1.4,3-1.4c1.2-0.1,2.3,0.4,3.1,1.3c0.8,0.9,1.2,2.1,1.2,3.3v0.3l-7,0.1c0.1,0.8,0.4,1.6,1,2.1
		c0.6,0.6,1.4,0.9,2.2,0.8c1,0,2-0.4,2.7-1.1l0.7,0.9C160.9,271.4,159.6,271.9,158.4,271.9z M161,266.7c0-0.7-0.3-1.4-0.8-2
		c-0.5-0.6-1.3-0.9-2.1-0.8c-0.8,0-1.5,0.3-2,0.9c-0.5,0.6-0.7,1.3-0.8,2L161,266.7z M156.7,260.2c0.2,0.1,0.3,0.4,0.2,0.6
		c0,0.2-0.1,0.4-0.2,0.6c-0.1,0.2-0.4,0.3-0.6,0.3c-0.2,0-0.4-0.1-0.6-0.2c-0.2-0.2-0.3-0.4-0.2-0.6c0-0.2,0.1-0.4,0.2-0.6
		c0.2-0.2,0.4-0.3,0.6-0.3C156.4,260,156.6,260.1,156.7,260.2L156.7,260.2z M160.4,260.2c0.3,0.3,0.3,0.8,0,1.2c0,0,0,0,0,0
		c-0.2,0.2-0.4,0.3-0.6,0.3c-0.2,0-0.4-0.1-0.6-0.2c-0.2-0.1-0.3-0.4-0.3-0.6c0-0.2,0.1-0.4,0.2-0.6c0.2-0.2,0.4-0.2,0.6-0.2
		C160.1,259.9,160.3,260,160.4,260.2L160.4,260.2z"/>
	<path class="st0" d="M169.2,271.4c-1.2,0.1-2.3-0.4-3-1.3l0.3,4.6l-1.4,0.1l-0.8-12l1.4-0.1l0.1,1.3c0.3-0.5,0.7-0.9,1.2-1.2
		c0.5-0.3,1.1-0.5,1.6-0.5c1.1-0.1,2.1,0.2,2.9,1c1.6,1.9,1.7,4.5,0.5,6.6C171.3,270.8,170.3,271.4,169.2,271.4z M168.8,270.2
		c0.8,0,1.6-0.4,2-1.1c0.9-1.5,0.8-3.4-0.3-4.8c-0.5-0.6-1.3-0.9-2.1-0.8c-0.5,0-1,0.2-1.5,0.5c-0.4,0.3-0.8,0.6-1,1.1l0.3,3.9
		c0.3,0.4,0.7,0.7,1.2,0.9C167.7,270.1,168.3,270.3,168.8,270.2z"/>
	<path class="st0" d="M182.4,268.7c-1.5,1.9-4.2,2.3-6.1,0.8c0,0,0,0,0,0c-0.9-0.8-1.5-1.9-1.6-3.1c-0.2-1.2,0.1-2.4,0.8-3.4
		c0.7-1,1.8-1.6,2.9-1.7c1.2-0.2,2.4,0.1,3.3,0.9C183.3,263.9,183.7,266.6,182.4,268.7L182.4,268.7z M177.1,268.5
		c1.1,1,2.8,1,3.9-0.1c0.1-0.1,0.2-0.3,0.3-0.4c0.8-1.5,0.6-3.4-0.6-4.7c-1.1-1-2.9-1-3.9,0.2c-0.1,0.1-0.2,0.2-0.3,0.4
		c-0.4,0.7-0.6,1.6-0.5,2.4C176.1,267.1,176.4,267.9,177.1,268.5z"/>
	<path class="st0" d="M195,267.7l-1.3,0.2l-1.2-6.7l-1.6,7.2l-0.5,0.1l-4-6.2l1.2,6.7l-1.3,0.2l-1.6-8.5l1.8-0.3l3.8,5.9l1.4-6.8
		l1.8-0.3L195,267.7z"/>
	<path class="st0" d="M205.7,265.3c-1.4,0.5-2.9,0.3-4.1-0.4l0.4-1c1.1,0.5,2.3,0.7,3.4,0.3c0.6-0.1,1.2-0.4,1.7-0.9
		c0.4-0.3,0.5-0.8,0.4-1.2c-0.2-0.9-1.2-1.2-3-0.7l-1.9,0.5l-0.3-1.1l1.9-0.5c0.6-0.1,1.2-0.4,1.7-0.8c0.4-0.3,0.5-0.8,0.4-1.2
		c-0.1-0.4-0.5-0.7-0.9-0.8c-0.6-0.1-1.3-0.1-1.9,0.1c-1.1,0.2-2,0.9-2.5,1.8l-0.9-0.6c0.7-1.1,1.8-2,3.1-2.2c1-0.3,2-0.4,2.9-0.2
		c0.7,0.1,1.3,0.7,1.5,1.4c0.2,0.6,0,1.2-0.3,1.6c-0.4,0.5-0.8,0.8-1.4,1c0.6-0.1,1.2-0.1,1.8,0.2c0.6,0.2,1,0.7,1.2,1.3
		c0.2,0.7,0,1.5-0.6,2C207.7,264.6,206.7,265.1,205.7,265.3z"/>
	<path class="st0" d="M218.5,261.3l-1.3,0.4l-0.3-0.9c-0.5,1-1.3,1.7-2.4,2c-0.7,0.2-1.5,0.2-2.3-0.1c-1.4-0.7-2.1-2.4-1.4-3.9
		c0-0.1,0-0.1,0.1-0.1c0.4-0.7,1.1-1.1,1.8-1.4c1-0.4,2.2-0.3,3.1,0.3l-0.5-1.5c-0.1-0.5-0.5-0.9-1-1.1c-0.5-0.2-1.1-0.2-1.7,0
		c-1,0.3-1.8,1-2.2,2l-0.9-0.7c0.6-1.2,1.6-2.1,2.9-2.4c0.8-0.3,1.7-0.3,2.5-0.1c0.8,0.3,1.4,1,1.6,1.8L218.5,261.3z M214.7,261.7
		c0.9-0.2,1.7-0.9,2-1.8l-0.5-1.6c-0.8-0.5-1.7-0.7-2.6-0.3c-0.5,0.2-1,0.5-1.3,1c-0.5,0.9-0.2,2,0.7,2.5c0,0,0.1,0,0.1,0.1
		C213.6,261.9,214.2,261.9,214.7,261.7L214.7,261.7z"/>
	<path class="st0" d="M228.2,257.8l-1.3,0.5l-2.6-7l-4.2,1.6l2.6,7l-1.3,0.5l-3.1-8.1l6.8-2.5L228.2,257.8z"/>
	<path class="st0" d="M231.9,259.9l-0.3-1.2c0.3,0,0.5-0.1,0.7-0.2c0.3-0.1,0.5-0.3,0.6-0.5c0.1-0.3,0.2-0.6,0.2-0.9v-1.4l-6.8-6.6
		l1.3-0.6l5.5,5.4l-0.2-7.7l1.4-0.6l0.1,11.3c0.1,1.1-0.6,2.2-1.6,2.6C232.6,259.8,232.2,259.9,231.9,259.9z"/>
	<path class="st0" d="M243,251.4c-1,0.6-2.3,0.6-3.4,0.2c-1.1-0.4-2-1.3-2.5-2.4c-0.6-1.1-0.7-2.3-0.4-3.5c0.3-1.1,1.2-2.1,2.2-2.5
		c1.1-0.6,2.4-0.6,3.5,0l-0.4,1.1c-0.8-0.4-1.7-0.4-2.5,0c-0.8,0.3-1.3,1-1.6,1.7c-0.2,0.9-0.1,1.8,0.3,2.5c0.4,0.8,1,1.5,1.8,1.8
		c0.8,0.3,1.6,0.3,2.4-0.1c0.8-0.4,1.4-1.1,1.5-2l1.2,0.4C244.9,249.9,244.1,250.9,243,251.4z"/>
	<path class="st0" d="M250.2,247.4l-1.2,0.7l-3.6-6.6l-2.2,1.2l-0.6-1.1l5.6-3.1l0.6,1.1l-2.2,1.2L250.2,247.4z"/>
	<path class="st0" d="M255.4,244.4l-1.1,0.7l-4.5-7.4l1.2-0.7l3.4,5.7l0.5-8l1.1-0.7l4.5,7.4l-1.1,0.7l-3.5-5.8L255.4,244.4z"/>
	<path class="st0" d="M262.4,240.5l-0.6-0.9c0.4-0.3,0.5-0.8,0.4-1.2c-0.2-0.9-0.5-1.8-1-2.6l-1.9-3.9l5-3.4l4.9,7.2l-1.1,0.8
		l-4.2-6.2l-2.9,2l1.5,2.9c0.6,1,1,2.2,1.1,3.4C263.4,239.3,263.1,240,262.4,240.5z"/>
	<path class="st0" d="M272.7,233.1l-1,0.8l-5.2-6.9l1.1-0.8l4,5.3l-0.4-8l1.1-0.8l5.2,6.9l-1.1,0.8l-4.1-5.4L272.7,233.1z"/>
</g>
<g>
	<path class="st0" d="M43.2,267.5l-4.2-2.5l4.4-7.5l4.1,2.4c0.6,0.3,1,0.8,1.2,1.4c0.2,0.6,0.1,1.2-0.2,1.7c-0.2,0.4-0.6,0.7-1,0.9
		c-0.4,0.2-0.8,0.2-1.2,0.1c0.3,0.3,0.5,0.8,0.6,1.2c0.1,1.2-0.6,2.2-1.7,2.5C44.5,268,43.8,267.9,43.2,267.5z M43.6,266.4
		c0.3,0.2,0.7,0.3,1.1,0.2c0.4-0.1,0.6-0.3,0.8-0.7c0.4-0.6,0.2-1.4-0.4-1.8c0,0-0.1,0-0.1-0.1l-2.8-1.6l-1.3,2.3L43.6,266.4z
		 M45.5,263c0.3,0.2,0.7,0.3,1,0.2c0.6-0.2,1-0.9,0.9-1.5c-0.1-0.3-0.3-0.6-0.7-0.8l-2.7-1.6l-1.2,2.1L45.5,263z"/>
	<path class="st0" d="M53.6,273.1l-1.3-0.7l5.3-10.8l4.3,2.1c0.9,0.4,1.7,1.2,2,2.2c0.6,1.9-0.4,3.9-2.3,4.6c-1,0.3-2,0.2-2.9-0.3
		l-3-1.5L53.6,273.1z M59.2,269.1c0.6,0.3,1.2,0.4,1.8,0.2c0.6-0.2,1.1-0.6,1.3-1.2c0.3-0.5,0.3-1.2,0.1-1.8
		c-0.2-0.6-0.7-1.1-1.3-1.3l-2.8-1.4l-2,4.1L59.2,269.1z"/>
	<path class="st0" d="M68.6,278.9c-2.2,0.9-4.8-0.2-5.7-2.4c0,0,0-0.1,0-0.1c-0.7-2.4,0.4-4.9,2.6-6c1.1-0.5,2.3-0.5,3.4,0
		c1.1,0.4,2,1.3,2.3,2.4C71.9,275.2,70.8,277.7,68.6,278.9L68.6,278.9z M64.2,276c0.4,1.5,2,2.3,3.4,1.9c0.2,0,0.3-0.1,0.5-0.2
		c0.8-0.4,1.3-1.1,1.7-1.9c0.4-0.8,0.4-1.7,0.2-2.5c-0.2-0.8-0.8-1.4-1.5-1.7c-0.7-0.4-1.6-0.3-2.3,0.1
		C64.6,272.5,63.8,274.3,64.2,276z"/>
	<path class="st0" d="M75.2,282.9c-1.1-0.4-2-1.2-2.5-2.3c-0.8-2.3,0.1-4.9,2.3-6.1c1.1-0.5,2.3-0.6,3.4-0.1
		c1.2,0.4,2.1,1.4,2.4,2.6l-1.1,0.4c-0.2-0.9-0.8-1.6-1.7-1.9c-0.8-0.3-1.6-0.3-2.4,0.1c-0.8,0.4-1.4,1.2-1.6,2
		c-0.3,0.8-0.4,1.7-0.1,2.6c0.3,0.8,0.9,1.4,1.7,1.7c0.8,0.3,1.7,0.2,2.5-0.3l0.5,1.1C77.6,283.3,76.3,283.4,75.2,282.9z"/>
	<path class="st0" d="M83.9,286c-1.1-0.3-2.1-1.2-2.6-2.2c-0.9-2.3,0-4.9,2.1-6.2c1-0.6,2.3-0.7,3.4-0.2c1.2,0.3,2.1,1.3,2.5,2.4
		l-1.1,0.5c-0.2-0.8-0.9-1.5-1.7-1.8c-0.8-0.3-1.6-0.2-2.4,0.2c-1.5,1-2.1,2.9-1.5,4.6c0.3,0.8,1,1.4,1.8,1.6
		c0.8,0.3,1.8,0.2,2.5-0.4l0.6,1.1C86.3,286.2,85,286.4,83.9,286z"/>
	<path class="st0" d="M90.3,287.8l-1.2-0.4l2.4-8.3l1.3,0.4l-1.8,6.4l6.2-5.1l1.3,0.4l-2.4,8.4l-1.3-0.4l1.9-6.5L90.3,287.8z"/>
	<path class="st0" d="M100.2,290.5l-1.3-0.3l2-8.5l1.3,0.3l-1.6,6.5l6-5.4l1.3,0.3l-2,8.5l-1.3-0.3l1.6-6.6L100.2,290.5z"/>
	<path class="st0" d="M120.8,294.7l-1.3-0.2l1.2-7.4l-4.5-0.8l-1.2,7.4l-1.3-0.2l1.4-8.6l7.1,1.2L120.8,294.7z"/>
	<path class="st0" d="M130.9,294.8c-1.9,1.5-4.6,1.2-6.1-0.7c0,0,0,0-0.1-0.1c-0.7-1-1-2.2-0.8-3.4c0.1-1.2,0.7-2.3,1.6-3.1
		c1.9-1.5,4.7-1.2,6.2,0.7c0,0,0,0,0,0C133,290.5,132.6,293.2,130.9,294.8L130.9,294.8z M125.8,293.3c0.4,0.7,1.2,1.2,2,1.2
		c0.8,0.1,1.6-0.1,2.2-0.7c0.6-0.6,1-1.4,1.1-2.3c0.1-0.9,0-1.7-0.5-2.5c-0.4-0.7-1.2-1.2-2-1.2c-0.8-0.1-1.6,0.1-2.2,0.7
		C125.1,289.9,124.9,291.8,125.8,293.3L125.8,293.3z"/>
	<path class="st0" d="M133.3,298.5l0.2-3.3c0.5-0.1,0.9-0.3,1.1-0.7c0.4-0.8,0.7-1.6,0.8-2.4l0.9-4.2l6,0.5l-0.6,7.5l1,0.1l-0.2,3.4
		l-1.4-0.1l0.2-2.2l-6.6-0.5l-0.2,2.2L133.3,298.5z M137.4,289l-0.6,3.2c-0.1,1.1-0.6,2.2-1.5,3l5.1,0.4l0.5-6.3L137.4,289z"/>
	<path class="st0" d="M152.1,297.2h-1.4l0.2-7.5l-4.5-0.1l-0.2,7.5h-1.4l0.2-8.7l7.2,0.2L152.1,297.2z"/>
	<path class="st0" d="M156.4,297.2h-1.3l-0.1-8.7h1.4l0.1,6.6l4.4-6.7h1.3l0.1,8.7H161l-0.1-6.8L156.4,297.2z"/>
	<path class="st0" d="M169.2,297c-1.2,0.1-2.3-0.3-3.2-1.1c-0.9-0.8-1.4-2-1.4-3.2c-0.1-1.2,0.2-2.4,1-3.3c0.8-0.9,1.9-1.5,3.1-1.5
		c1.2-0.1,2.5,0.4,3.3,1.3l-0.9,0.9c-0.5-0.7-1.4-1.1-2.3-1c-0.8,0-1.6,0.4-2.1,1.1c-1,1.5-0.9,3.5,0.3,4.8c0.6,0.6,1.4,0.9,2.2,0.8
		c0.9,0,1.7-0.5,2.1-1.3l0.9,0.8C171.6,296.3,170.5,297,169.2,297z"/>
	<path class="st0" d="M182.2,295.6l-1.7,0.2l-3.5-3.6l-1.3,1.6l0.2,2.5l-1.4,0.1l-0.9-8.7l1.3-0.1l0.5,4.6l4.1-5.1l1.7-0.2l-3.4,4.3
		L182.2,295.6z"/>
	<path class="st0" d="M184.1,298.8v-1.2c0.2,0.1,0.5,0.1,0.8,0c0.6,0,1.1-0.5,1.2-1.1l0.4-1.4l-4.8-8.2l1.4-0.2l3.9,6.6l1.8-7.5
		l1.5-0.2l-2.8,11c-0.2,1.1-1.1,2-2.3,2.1C184.8,298.8,184.5,298.8,184.1,298.8z"/>
	<path class="st0" d="M199.2,292.9l-1.3,0.3l-1.8-8.5l1.3-0.3l0.7,3.5l4.4-0.9l-0.8-3.5l1.3-0.3l1.8,8.5l-1.3,0.3l-0.8-3.8l-4.4,0.9
		L199.2,292.9z"/>
	<path class="st0" d="M214.5,289.3l-1.3,0.3l-0.2-1c-0.5,1-1.4,1.7-2.5,1.9c-0.8,0.2-1.6,0.1-2.2-0.2c-0.7-0.4-1.2-1-1.4-1.8
		c-0.2-0.8-0.1-1.6,0.4-2.3c0.5-0.6,1.1-1.1,1.9-1.2c1-0.3,2.2-0.2,3.1,0.4l-0.4-1.5c-0.1-0.5-0.4-0.9-0.9-1.1
		c-0.5-0.2-1.1-0.2-1.6-0.1c-1,0.3-1.8,0.9-2.3,1.8l-0.9-0.8c0.6-1.1,1.7-2,3-2.3c0.8-0.2,1.7-0.2,2.5,0.1c0.8,0.4,1.3,1.1,1.5,1.9
		L214.5,289.3z M210.7,289.5c0.9-0.2,1.7-0.8,2-1.6l-0.4-1.6c-0.7-0.6-1.7-0.8-2.6-0.5c-0.5,0.1-1,0.4-1.4,0.9
		c-0.3,0.4-0.4,1-0.2,1.5c0.1,0.5,0.5,0.9,0.9,1.2C209.6,289.6,210.2,289.7,210.7,289.5z"/>
	<path class="st0" d="M219.6,277.4c-0.5,0.1-1-0.1-1.1-0.6c-0.1-0.2,0-0.5,0.1-0.7c0.1-0.2,0.3-0.4,0.5-0.5c0.2-0.1,0.5,0,0.7,0.1
		c0.2,0.1,0.4,0.3,0.4,0.5c0.1,0.2,0,0.5-0.1,0.7C220,277.2,219.8,277.3,219.6,277.4z M223.2,286.7l-1.3,0.4l-2.6-8.3l1.3-0.4
		L223.2,286.7z"/>
	<path class="st0" d="M227.5,285.3l-1.4,0.5l-4-11.3l4.6-1.6c0.9-0.4,2-0.4,2.9,0.1c1.8,0.9,2.5,3,1.7,4.9c-0.4,0.9-1.3,1.6-2.2,1.9
		l-3.1,1.1L227.5,285.3z M228.5,278.5c0.6-0.2,1.1-0.6,1.4-1.2c0.3-0.6,0.3-1.2,0.1-1.8c-0.2-0.6-0.6-1.1-1.2-1.3
		c-0.6-0.3-1.3-0.3-1.8,0l-3,1l1.5,4.3L228.5,278.5z"/>
	<path class="st0" d="M243.1,279.4l-1.2,0.5l-2.2-5.3c-0.2-0.5-0.5-1-1-1.2c-0.5-0.2-1-0.1-1.5,0.1c-0.5,0.2-0.9,0.5-1.2,0.9
		c-0.3,0.4-0.5,0.8-0.7,1.3l2.4,5.9l-1.2,0.5l-4.5-11.1l1.2-0.5l1.7,4.2c0.2-0.5,0.5-1,0.9-1.5c0.4-0.5,0.9-0.8,1.5-1.1
		c1.2-0.7,2.7-0.3,3.3,0.9c0.1,0.2,0.2,0.4,0.3,0.7L243.1,279.4z"/>
	<path class="st0" d="M251.7,274.2c-0.8,2.3-3.3,3.5-5.6,2.7c0,0-0.1,0-0.1,0c-1.1-0.5-2-1.4-2.4-2.5c-0.5-1.1-0.6-2.3-0.3-3.4
		c0.8-2.3,3.4-3.5,5.6-2.6c0,0,0,0,0,0C251.2,269.4,252.3,271.9,251.7,274.2z M246.6,275.6c1.4,0.6,3,0.1,3.7-1.3
		c0.1-0.1,0.1-0.3,0.2-0.5c0.3-1.7-0.5-3.5-2-4.3c-1.4-0.6-3,0-3.7,1.4c-0.1,0.1-0.1,0.3-0.2,0.4C244.2,273.1,245,274.8,246.6,275.6
		L246.6,275.6z"/>
	<path class="st0" d="M261.9,270.3l-1.2,0.6l-2.6-5c-0.2-0.5-0.6-0.9-1.2-1.1c-0.5-0.1-1,0-1.5,0.2c-0.5,0.2-0.8,0.6-1.1,1
		c-0.3,0.4-0.5,0.9-0.5,1.4l2.9,5.6l-1.2,0.6l-4-7.7l1.2-0.6l0.6,1.1c0.1-0.6,0.4-1.1,0.7-1.5c0.3-0.5,0.8-0.9,1.3-1.2
		c1.1-0.8,2.7-0.5,3.4,0.6c0.1,0.2,0.2,0.4,0.3,0.6L261.9,270.3z"/>
	<path class="st0" d="M268.1,267.1c-1,0.6-2.2,0.8-3.4,0.5c-1.2-0.3-2.2-1.1-2.7-2.2c-0.6-1-0.8-2.2-0.6-3.4c0.2-1.1,1-2.1,2-2.7
		c1-0.6,2.2-0.8,3.3-0.4c1.1,0.4,2.1,1.3,2.6,2.3l0.2,0.3l-6.1,3.5c0.4,0.7,1.1,1.2,1.9,1.4c0.8,0.2,1.6,0.1,2.3-0.4
		c0.9-0.5,1.5-1.3,1.8-2.3l1,0.4C270,265.4,269.2,266.5,268.1,267.1z M267.8,261.3c-0.4-0.6-1-1.1-1.7-1.4c-1.5-0.4-3.1,0.4-3.6,1.9
		c0,0,0,0.1,0,0.1c-0.1,0.7,0,1.5,0.3,2.1L267.8,261.3z"/>
</g>
<path class="st1" d="M310,71.9c0,85.6-69.4,155-155,155S0,157.5,0,71.9"/>
</svg>
