<?xml version="1.0" encoding="utf-8"?>
<!-- Generator: Adobe Illustrator 24.0.3, SVG Export Plug-In . SVG Version: 6.00 Build 0)  -->
<svg version="1.1" id="Layer_1" xmlns="http://www.w3.org/2000/svg" xmlns:xlink="http://www.w3.org/1999/xlink" x="0px" y="0px"
	 viewBox="0 0 310 297.3" style="enable-background:new 0 0 310 297.3;" xml:space="preserve">
<style type="text/css">
	.st0{fill:#9588C8;}
	.st1{fill:none;}
</style>
<title>vedomosti 2 text</title>
<g>
	<path class="st0" d="M61.6,248.9l-1.3-0.7l2.7-4.8l-6.1-3.4l-2.7,4.8l-1.3-0.8l5.8-10.5l1.3,0.7l-2.5,4.5l6.1,3.4l2.5-4.5l1.3,0.7
		L61.6,248.9z"/>
	<path class="st0" d="M71.2,252.4c-2.3,0.8-4.8-0.3-5.6-2.6c0,0,0-0.1,0-0.1c-0.6-2.4,0.6-4.8,2.8-5.9c2.3-0.8,4.8,0.4,5.6,2.7
		c0,0,0,0,0,0C74.6,248.9,73.4,251.4,71.2,252.4L71.2,252.4z M66.9,249.3c0.4,1.5,1.9,2.4,3.4,2c0.2,0,0.3-0.1,0.4-0.2
		c0.8-0.4,1.4-1,1.7-1.8c0.4-0.8,0.5-1.6,0.3-2.5c-0.2-0.8-0.7-1.5-1.5-1.8c-0.7-0.4-1.6-0.4-2.3,0
		C67.4,245.9,66.5,247.6,66.9,249.3z"/>
	<path class="st0" d="M78.6,256.8l-4.5-1.9l3.3-8l4.4,1.8c0.6,0.2,1.1,0.7,1.4,1.3c0.3,0.6,0.3,1.2,0,1.7c-0.2,0.4-0.5,0.8-0.9,1
		c-0.4,0.2-0.8,0.3-1.2,0.3c0.4,0.3,0.6,0.7,0.7,1.1c0.1,0.5,0.1,1-0.1,1.4c-0.2,0.6-0.7,1.1-1.3,1.3
		C80,257.2,79.3,257.1,78.6,256.8z M78.8,255.6c0.3,0.2,0.7,0.2,1.1,0.1c0.3-0.1,0.6-0.4,0.7-0.8c0.1-0.3,0.1-0.7,0-1
		c-0.1-0.4-0.4-0.6-0.8-0.8l-3-1.2l-1,2.5L78.8,255.6z M80.3,252.1c0.3,0.1,0.7,0.2,1,0.1c0.3-0.1,0.5-0.4,0.7-0.7
		c0.1-0.3,0.1-0.7,0-1c-0.2-0.3-0.4-0.6-0.8-0.7l-3-1.2l-0.9,2.3L80.3,252.1z"/>
	<path class="st0" d="M86.7,250.7l1.3,0.4l-1.1,3.2l3.1,1.1c0.7,0.2,1.3,0.7,1.7,1.4c0.3,0.6,0.3,1.4,0.1,2
		c-0.2,0.7-0.7,1.2-1.3,1.6c-0.7,0.3-1.5,0.3-2.2,0.1l-4.3-1.5L86.7,250.7z M89.4,256.5l-2.9-1l-1,2.8l2.9,1c0.4,0.2,0.8,0.2,1.2,0
		c0.3-0.2,0.6-0.5,0.7-0.9c0.3-0.7,0-1.5-0.7-1.8C89.5,256.6,89.4,256.5,89.4,256.5L89.4,256.5z M93.4,262.3l-1.3-0.4l2.9-8.2
		l1.3,0.4L93.4,262.3z"/>
	<path class="st0" d="M97.6,263.5l-1.2-0.4l2.4-8.4l1.3,0.4l-1.8,6.4l6.2-5.1l1.3,0.4l-2.4,8.4l-1.3-0.4l1.8-6.5L97.6,263.5z
		 M106,254.2c-1,0.8-2.3,1-3.5,0.7c-1.2-0.3-2.2-1.2-2.6-2.4l0.8-0.4c0.3,0.9,1.1,1.7,2.1,1.9c1,0.3,2,0.1,2.7-0.6L106,254.2z"/>
	<path class="st0" d="M114.7,268c-1.2-0.2-2.2-0.9-2.8-1.9c-0.6-1-0.8-2.3-0.5-3.5c0.2-1.2,0.9-2.2,1.8-2.9c1-0.7,2.2-0.9,3.3-0.6
		c1.2,0.2,2.3,1,2.8,2.1l-1.1,0.6c-0.3-0.8-1.1-1.4-1.9-1.6c-0.8-0.2-1.7,0-2.3,0.5c-1.4,1.2-1.8,3.1-1,4.7c0.4,0.7,1.2,1.3,2,1.4
		c0.9,0.2,1.8-0.1,2.4-0.7l0.7,1C117.2,268,115.9,268.3,114.7,268z"/>
	<path class="st0" d="M124,269.6c-1.2-0.1-2.3-0.8-3-1.7c-1.4-2.1-0.9-4.9,1-6.5c0.9-0.7,2.1-1,3.2-0.9c1.2,0.1,2.2,0.8,2.8,1.8
		c0.6,1,0.8,2.3,0.6,3.5l-0.1,0.3l-7-1.1c-0.1,0.8,0.1,1.6,0.6,2.3c0.5,0.7,1.2,1.1,2,1.2c1,0.2,2-0.1,2.8-0.7l0.5,1
		C126.5,269.6,125.2,269.8,124,269.6z M127.4,265c0.1-0.7-0.1-1.5-0.4-2.1c-0.4-0.7-1.1-1.1-1.9-1.2c-0.8-0.2-1.6,0-2.2,0.6
		c-0.6,0.5-1,1.1-1.1,1.9L127.4,265z"/>
	<path class="st0" d="M134.8,271c-1.2-0.1-2.2-0.8-2.8-1.8l-0.5,4.6l-1.3-0.1l1.2-12l1.3,0.1l-0.1,1.3c0.4-0.4,0.8-0.8,1.4-1
		c0.5-0.2,1.1-0.3,1.7-0.2c1.1,0.1,2,0.6,2.7,1.5c0.7,1,0.9,2.2,0.7,3.4c-0.1,1.2-0.6,2.3-1.4,3.2
		C136.9,270.7,135.9,271.1,134.8,271z M134.6,269.7c0.8,0.1,1.6-0.2,2.1-0.7c0.6-0.6,1-1.5,1-2.3c0.1-0.9-0.1-1.7-0.5-2.5
		c-0.4-0.7-1.1-1.1-1.9-1.1c-0.5,0-1,0-1.5,0.2c-0.5,0.2-0.9,0.5-1.2,0.9l-0.4,3.9c0.2,0.5,0.6,0.8,1,1.1
		C133.6,269.5,134.1,269.7,134.6,269.7L134.6,269.7z"/>
	<path class="st0" d="M146.1,271.5l-4.9-0.2l0.4-8.7l4.8,0.2c0.7,0,1.3,0.2,1.8,0.7c0.4,0.4,0.6,1,0.6,1.7c0,0.5-0.2,0.9-0.5,1.2
		c-0.3,0.3-0.6,0.5-1,0.7c0.4,0.1,0.8,0.4,1.1,0.8c0.3,0.4,0.4,0.9,0.4,1.4c0,0.6-0.3,1.2-0.8,1.7
		C147.5,271.4,146.8,271.6,146.1,271.5z M145.9,270.3c0.4,0,0.7-0.1,1-0.3c0.3-0.2,0.4-0.6,0.4-0.9c0-0.4-0.1-0.7-0.3-1
		c-0.3-0.3-0.6-0.5-1-0.5l-3.3-0.1l-0.1,2.7L145.9,270.3z M146,266.5c0.4,0,0.7-0.1,1-0.3c0.2-0.2,0.4-0.5,0.4-0.9
		c0-0.3-0.1-0.7-0.3-0.9c-0.2-0.2-0.6-0.4-0.9-0.4l-3.2-0.1l-0.1,2.4L146,266.5z"/>
	<path class="st0" d="M153,271.8h-1.3l-0.1-8.7h1.4l0.1,6.6l4.4-6.7h1.3l0.1,8.7h-1.4l-0.1-6.8L153,271.8z"/>
	<path class="st0" d="M165.7,271.6c-1.2,0.1-2.3-0.3-3.2-1.1c-1.7-1.8-1.9-4.6-0.3-6.5c0.8-0.9,1.9-1.4,3.1-1.5
		c1.2-0.1,2.5,0.4,3.3,1.3l-0.9,0.9c-0.5-0.7-1.4-1.1-2.3-1c-0.8,0-1.6,0.4-2.1,1c-1,1.5-0.9,3.5,0.2,4.8c0.6,0.6,1.4,0.9,2.2,0.8
		c0.9,0,1.7-0.5,2.2-1.2l0.9,0.8C168.1,271,166.9,271.6,165.7,271.6z"/>
	<path class="st0" d="M183.1,269.7l-1.3,0.2l-0.9-7.4l-4.5,0.6l0.9,7.4l-1.3,0.2l-1.1-8.6l7.2-0.9L183.1,269.7z"/>
	<path class="st0" d="M192.8,267c-1.4,2-4.1,2.5-6.1,1.1c0,0,0,0-0.1,0c-0.9-0.7-1.6-1.8-1.7-3c-0.3-1.2,0-2.4,0.6-3.4
		c0.6-1,1.7-1.7,2.8-1.8c1.2-0.3,2.4,0,3.3,0.7c0.9,0.7,1.6,1.8,1.7,3C193.6,264.7,193.4,265.9,192.8,267z M187.5,267
		c0.6,0.5,1.4,0.8,2.2,0.6c0.8-0.1,1.5-0.6,1.9-1.3c0.8-1.6,0.4-3.5-0.8-4.7c-0.6-0.5-1.4-0.8-2.2-0.6c-0.8,0.1-1.5,0.6-1.9,1.3
		C185.9,263.9,186.2,265.8,187.5,267L187.5,267z"/>
	<path class="st0" d="M208,264.5l-1.3,0.3l-0.2-1c-0.5,1-1.4,1.7-2.5,1.9c-0.8,0.2-1.6,0.1-2.2-0.2c-1.4-0.8-1.9-2.5-1.2-3.9
		c0-0.1,0.1-0.1,0.1-0.2c0.5-0.6,1.1-1.1,1.9-1.2c1-0.3,2.2-0.2,3.1,0.4l-0.4-1.5c-0.1-0.5-0.4-0.9-0.9-1.1
		c-0.5-0.2-1.1-0.2-1.7-0.1c-1,0.3-1.8,0.9-2.3,1.8l-0.8-0.8c0.6-1.1,1.7-2,3-2.3c0.8-0.3,1.7-0.2,2.5,0.1c0.8,0.4,1.3,1.1,1.5,1.9
		L208,264.5z M204.2,264.7c0.9-0.2,1.7-0.8,2-1.6l-0.4-1.6c-0.7-0.6-1.7-0.7-2.6-0.4c-0.5,0.1-1,0.4-1.4,0.9c-0.3,0.4-0.4,1-0.2,1.5
		c0.1,0.5,0.5,0.9,0.9,1.2C203,264.8,203.6,264.9,204.2,264.7L204.2,264.7z"/>
	<path class="st0" d="M215.1,262.6c-1.1,0.4-2.3,0.2-3.3-0.6l1.4,4.4l-1.3,0.4l-3.6-11.5l1.3-0.4l0.4,1.2c0.2-0.5,0.5-1,0.9-1.4
		c0.4-0.4,0.9-0.7,1.5-0.9c1-0.4,2.1-0.2,3.1,0.3c2,1.5,2.8,4,2,6.3C217,261.6,216.1,262.3,215.1,262.6z M214.4,261.6
		c0.8-0.2,1.4-0.8,1.7-1.5c0.3-0.8,0.3-1.7,0-2.5c-0.2-0.8-0.7-1.6-1.4-2.1c-0.7-0.4-1.5-0.5-2.2-0.3c-0.5,0.2-1,0.4-1.3,0.8
		c-0.3,0.4-0.6,0.8-0.8,1.3l1.2,3.8c0.4,0.3,0.8,0.5,1.3,0.6C213.4,261.8,213.9,261.7,214.4,261.6L214.4,261.6z"/>
	<path class="st0" d="M224.9,259.2c-1.1,0.5-2.3,0.4-3.4-0.1c-2.2-1.2-3.2-3.8-2.3-6.1c0.4-1.1,1.3-1.9,2.4-2.3
		c1.1-0.5,2.3-0.4,3.3,0.2c1,0.6,1.8,1.6,2.2,2.7l0.1,0.3l-6.6,2.5c0.3,0.7,0.9,1.3,1.6,1.7c0.8,0.3,1.6,0.3,2.4,0
		c1-0.3,1.7-1.1,2.1-2l0.9,0.6C227.1,257.9,226.1,258.8,224.9,259.2z M225.6,253.5c-0.3-0.7-0.8-1.3-1.4-1.6
		c-0.7-0.4-1.6-0.4-2.3-0.1c-0.7,0.2-1.3,0.8-1.6,1.5c-0.3,0.7-0.3,1.5-0.1,2.2L225.6,253.5z"/>
	<path class="st0" d="M232.2,256.1l-1.2,0.5l-3.5-8l1.2-0.5l1.4,3.3l4.2-1.8l-1.4-3.3l1.2-0.5l3.5,8l-1.2,0.5l-1.6-3.6l-4.2,1.8
		L232.2,256.1z"/>
	<path class="st0" d="M240.5,254.8l-1.5-3c0.4-0.3,0.6-0.7,0.6-1.2c0-0.9-0.2-1.7-0.6-2.5l-1.4-4.1l5.4-2.7l3.4,6.7l0.9-0.4l1.5,3.1
		l-1.2,0.6l-1-2l-5.9,2.9l1,2L240.5,254.8z M239.2,244.6l1.1,3.1c0.5,1,0.6,2.2,0.2,3.3l4.6-2.3l-2.8-5.7L239.2,244.6z"/>
	<path class="st0" d="M253.3,245.9c-1,0.6-2.2,0.8-3.4,0.5c-1.2-0.4-2.2-1.2-2.7-2.3c-0.6-1-0.8-2.3-0.5-3.4c0.2-1.1,1-2.1,2-2.7
		c1-0.6,2.2-0.7,3.3-0.4c1.1,0.4,2.1,1.3,2.6,2.4l0.2,0.3l-6.1,3.5c0.4,0.7,1.1,1.2,1.9,1.4c0.8,0.2,1.6,0.1,2.3-0.3
		c0.9-0.5,1.5-1.3,1.8-2.3l1,0.4C255.3,244.3,254.4,245.3,253.3,245.9z M253.1,240.1c-0.4-0.6-1-1.1-1.6-1.4
		c-1.5-0.5-3.1,0.4-3.6,1.9c0,0,0,0.1,0,0.1c-0.1,0.7,0,1.5,0.3,2.1L253.1,240.1z"/>
</g>
<g>
	<path class="st0" d="M31.2,260.4c-1-0.6-1.7-1.7-1.9-2.8c-0.3-2.5,1.2-4.8,3.6-5.4c1.2-0.3,2.4,0,3.3,0.6c1.1,0.6,1.7,1.8,1.8,3
		l-1.2,0.2c0-0.9-0.5-1.7-1.2-2.2c-0.7-0.5-1.5-0.7-2.3-0.4c-0.8,0.3-1.5,0.8-2,1.6c-0.5,0.7-0.7,1.6-0.6,2.5c0.1,0.8,0.6,1.6,1.3,2
		c0.7,0.5,1.7,0.6,2.5,0.3l0.3,1.2C33.6,261.3,32.3,261.2,31.2,260.4z"/>
	<path class="st0" d="M43.5,267.8l-1.2-0.7l3.5-5.8l-5.9,4.4l-0.4-0.2l1-7.3l-3.5,5.9l-1.2-0.7l4.5-7.5l1.5,0.9l-1,6.9l5.6-4.2
		l1.5,0.9L43.5,267.8z"/>
	<path class="st0" d="M52.2,272.4l-1.2-0.6l0.5-0.9c-1,0.4-2.2,0.3-3.1-0.3c-0.7-0.4-1.2-1-1.5-1.7c-0.5-1.5,0.3-3.2,1.8-3.7
		c0.1,0,0.1,0,0.2-0.1c0.8-0.2,1.6,0,2.2,0.3c1,0.5,1.7,1.3,2,2.4l0.7-1.4c0.3-0.5,0.3-1,0.1-1.5c-0.2-0.5-0.7-0.9-1.2-1.2
		c-0.9-0.5-2-0.5-2.9-0.2l-0.1-1.1c1.2-0.4,2.6-0.3,3.7,0.4c0.8,0.4,1.4,1,1.8,1.8c0.3,0.8,0.2,1.7-0.2,2.4L52.2,272.4z M49.2,270
		c0.8,0.5,1.8,0.6,2.6,0.2l0.8-1.4c-0.1-0.9-0.7-1.7-1.6-2.1c-0.5-0.3-1.1-0.4-1.6-0.3c-0.5,0.1-0.9,0.5-1.2,0.9
		c-0.3,0.5-0.3,1-0.1,1.5C48.3,269.4,48.7,269.8,49.2,270L49.2,270z"/>
	<path class="st0" d="M58.7,275.8c-1.1-0.5-1.8-1.5-2-2.6l-2,4.2l-1.2-0.6l5.2-10.8l1.2,0.6l-0.6,1.2c0.5-0.3,1-0.4,1.6-0.4
		c1.7-0.1,3.2,1,3.7,2.7c0.4,2.4-0.7,4.8-2.9,6C60.8,276.4,59.6,276.3,58.7,275.8z M58.9,274.6c0.7,0.4,1.5,0.4,2.2,0
		c1.5-0.9,2.4-2.6,2.1-4.4c-0.2-0.8-0.7-1.4-1.4-1.7c-0.9-0.4-2-0.4-2.9,0.1l-1.7,3.5c0.1,0.5,0.2,1,0.5,1.4
		C58,274,58.4,274.4,58.9,274.6z"/>
	<path class="st0" d="M67.2,279.5l-1.2-0.5l3-6.9l-2.3-1l0.5-1.1l5.8,2.5l-0.5,1.1l-2.3-1L67.2,279.5z"/>
	<path class="st0" d="M77.2,273.9c0.9,0.4,1.6,1.2,1.7,2.3l1.6-4.3l1.3,0.5l-1.6,4.3c0.4-0.3,0.8-0.6,1.3-0.7c0.5-0.1,1-0.1,1.4,0.1
		c0.9,0.3,1.5,1,1.7,1.9c0.4,2.3-0.5,4.7-2.3,6.2c-1.1,0.9-2.8,0.7-3.7-0.5c-0.3-0.4-0.5-0.9-0.5-1.4l-1.6,4.3l-1.3-0.5l1.6-4.3
		c-0.4,0.3-0.8,0.6-1.3,0.7c-0.5,0.1-1,0.1-1.4-0.1c-0.9-0.3-1.5-1-1.7-1.9c-0.4-2.3,0.5-4.7,2.3-6.2
		C75.4,273.7,76.4,273.6,77.2,273.9z M77.2,275.2c-0.6-0.2-1.3-0.1-1.8,0.4c-1.3,1.2-1.9,2.8-1.7,4.5c0.1,0.6,0.5,1.2,1.1,1.4
		c0.4,0.1,0.8,0.1,1.2,0c0.4-0.1,0.8-0.3,1.1-0.6l1.4-3.7c0-0.4-0.2-0.9-0.4-1.2C77.9,275.6,77.6,275.3,77.2,275.2z M79.8,283.3
		c0.6,0.2,1.3,0.1,1.8-0.4c0.6-0.5,1.1-1.3,1.4-2.1c0.3-0.8,0.4-1.6,0.3-2.5c-0.1-0.6-0.5-1.2-1.1-1.4c-0.4-0.1-0.8-0.1-1.2,0
		c-0.4,0.1-0.8,0.3-1.1,0.6l-1.4,3.7c0,0.4,0.2,0.9,0.4,1.2C79.1,282.9,79.5,283.2,79.8,283.3z"/>
	<path class="st0" d="M92.4,287.3c-1,0.6-2.3,0.7-3.4,0.3c-1.1-0.3-2.1-1.1-2.6-2.2c-0.5-1.1-0.6-2.3-0.2-3.5
		c0.3-1.2,1.1-2.1,2.1-2.8c1-0.6,2.2-0.7,3.4-0.3c1.2,0.3,2.1,1.1,2.6,2.2C95.3,283.3,94.5,285.9,92.4,287.3L92.4,287.3z
		 M87.6,284.9c0.3,0.8,0.9,1.3,1.7,1.6c0.8,0.3,1.6,0.1,2.3-0.3c1.4-1,2-2.9,1.4-4.5c-0.3-0.8-0.9-1.3-1.7-1.5
		c-0.8-0.3-1.6-0.2-2.3,0.3C87.6,281.4,87.1,283.3,87.6,284.9L87.6,284.9z"/>
	<path class="st0" d="M97,289.7l-1.3-0.3l2.2-8.4l1.3,0.3l-0.9,3.5l4.4,1.1l0.9-3.5l1.3,0.3l-2.2,8.4l-1.3-0.3l1-3.8l-4.4-1.1
		L97,289.7z"/>
	<path class="st0" d="M112.7,292.1c-2,1.3-4.7,0.8-6.1-1.2c0,0,0-0.1-0.1-0.1c-1.2-2.2-0.6-4.8,1.3-6.4c2-1.3,4.7-0.8,6.1,1.2
		c0,0,0,0,0,0.1C115.2,287.9,114.6,290.6,112.7,292.1z M107.7,290.2c0.7,1.3,2.4,1.8,3.7,1.1c0.1-0.1,0.3-0.2,0.4-0.3
		c0.7-0.6,1.1-1.3,1.2-2.2c0.2-0.8,0.1-1.7-0.3-2.5c-0.7-1.3-2.4-1.8-3.7-1.1c-0.1,0.1-0.3,0.2-0.4,0.3c-0.7,0.6-1.1,1.3-1.2,2.2
		C107.2,288.6,107.3,289.5,107.7,290.2L107.7,290.2z"/>
	<path class="st0" d="M120.9,294.6l-4.8-0.8l1.3-8.6l4.7,0.8c0.7,0.1,1.3,0.4,1.7,0.9c0.4,0.5,0.5,1.1,0.4,1.7
		c-0.1,0.9-0.8,1.6-1.7,1.7c0.4,0.2,0.8,0.5,1,0.9c0.2,0.4,0.3,0.9,0.2,1.4c-0.1,0.6-0.4,1.2-0.9,1.6
		C122.3,294.7,121.6,294.8,120.9,294.6z M120.8,293.4c0.4,0.1,0.8,0,1.1-0.2c0.3-0.2,0.5-0.5,0.5-0.9c0.1-0.7-0.3-1.4-1.1-1.5
		c0,0-0.1,0-0.1,0l-3.2-0.5l-0.4,2.6L120.8,293.4z M121.4,289.6c0.3,0.1,0.7,0,1-0.2c0.3-0.2,0.4-0.5,0.5-0.8c0.1-0.3,0-0.7-0.2-1
		c-0.2-0.3-0.5-0.4-0.9-0.5l-3.2-0.5l-0.4,2.4L121.4,289.6z"/>
	<path class="st0" d="M138.3,296.6l-1.3-0.1l0.7-7.5l-4.5-0.4l-0.7,7.5l-1.4-0.1l0.8-8.7l7.2,0.6L138.3,296.6z"/>
	<path class="st0" d="M148.3,296.1c-1.8,1.7-4.5,1.6-6.2-0.2c0,0-0.1-0.1-0.1-0.1c-1.5-1.9-1.4-4.7,0.3-6.5c1.8-1.6,4.6-1.5,6.2,0.2
		c0,0,0,0,0,0c0.7,0.9,1.1,2.1,1,3.3C149.6,294,149.1,295.2,148.3,296.1z M143.1,295c0.9,1.2,2.7,1.4,3.9,0.5
		c0.1-0.1,0.2-0.2,0.4-0.3c1.1-1.4,1.2-3.3,0.2-4.8c-0.5-0.7-1.2-1.1-2.1-1.1c-0.8-0.1-1.6,0.3-2.2,0.9
		C142.2,291.6,142.1,293.5,143.1,295L143.1,295z"/>
	<path class="st0" d="M153.4,297.2h-1.6l2.3-3.5c-0.6-0.1-1.2-0.3-1.6-0.8c-0.9-1.1-0.9-2.6,0.1-3.7c0.5-0.5,1.3-0.8,2-0.8l4.6-0.1
		l0.1,8.7h-1.4l-0.1-3.4h-2.4L153.4,297.2z M154.7,292.7l3.1,0v-3h-3.1c-0.4,0-0.8,0.1-1.1,0.4c-0.3,0.3-0.4,0.7-0.4,1.1
		c0,0.4,0.1,0.8,0.4,1.1C153.9,292.5,154.3,292.7,154.7,292.7z"/>
	<path class="st0" d="M167.1,296.9l-4.9,0.2l-0.4-8.7l4.8-0.2c0.6-0.1,1.3,0.1,1.8,0.5c0.5,0.4,0.7,1,0.7,1.6c0,0.5-0.1,0.9-0.4,1.3
		c-0.2,0.4-0.6,0.6-1,0.8c0.5,0.1,0.9,0.3,1.2,0.7c0.3,0.4,0.5,0.8,0.5,1.3c0.1,0.6-0.2,1.3-0.6,1.7
		C168.4,296.6,167.8,296.9,167.1,296.9z M166.5,291.9c0.4,0,0.7-0.1,0.9-0.4c0.2-0.2,0.3-0.6,0.3-0.9c0-0.3-0.1-0.7-0.4-0.9
		c-0.3-0.2-0.6-0.3-1-0.3l-3.2,0.1l0.1,2.4L166.5,291.9z M166.7,295.8c0.4,0,0.7-0.1,1-0.4c0.2-0.3,0.4-0.6,0.3-1
		c0-0.7-0.6-1.3-1.4-1.3c0,0-0.1,0-0.1,0l-3.2,0.2l0.1,2.7L166.7,295.8z"/>
	<path class="st0" d="M173.7,296.5l-1.3,0.1l-0.8-8.7l1.3-0.1l0.6,6.6l3.9-7l1.3-0.1l0.8,8.7l-1.4,0.1l-0.6-6.7L173.7,296.5z"/>
	<path class="st0" d="M181.7,295.9l-0.1-1.1c0.4,0,0.7-0.4,0.9-0.9c0.2-0.9,0.3-1.8,0.3-2.8v-4.3l6-0.8l1.2,8.6l-1.3,0.2l-1-7.4
		l-3.5,0.5l0.1,3.3c0.1,1.2-0.1,2.4-0.5,3.5C183.3,295.4,182.5,295.9,181.7,295.9z"/>
	<path class="st0" d="M196.7,293.6c-1.2,0.3-2.4,0-3.3-0.7c-1.9-1.6-2.4-4.3-1.2-6.4c0.6-1,1.7-1.7,2.9-1.8c1.2-0.3,2.5,0.1,3.4,0.9
		l-0.7,1c-0.6-0.6-1.5-0.9-2.4-0.7c-0.8,0.1-1.6,0.6-2,1.3c-0.8,1.6-0.5,3.5,0.9,4.8c0.7,0.5,1.5,0.7,2.3,0.5c0.9-0.1,1.6-0.7,2-1.5
		l1,0.6C198.9,292.6,197.9,293.4,196.7,293.6z"/>
	<path class="st0" d="M203.2,292.1l-1.5,0.4l1.5-3.9c-0.6,0.1-1.2-0.1-1.8-0.5c-1.1-0.9-1.4-2.4-0.7-3.6c0.4-0.6,1.1-1.1,1.8-1.2
		l4.5-1l1.9,8.5l-1.3,0.3l-0.8-3.3l-2.3,0.5L203.2,292.1z M203.6,287.3l3-0.7l-0.7-2.9l-3,0.7c-0.4,0.1-0.8,0.3-1,0.6
		c-0.2,0.3-0.3,0.7-0.2,1.1c0.1,0.4,0.3,0.8,0.6,1C202.7,287.4,203.2,287.4,203.6,287.3L203.6,287.3z"/>
	<path class="st0" d="M221.2,287.3l-4.7,1.4l-2.5-8.3l4.6-1.3c0.6-0.2,1.3-0.2,1.9,0.1c0.5,0.3,0.9,0.8,1.1,1.4
		c0.2,0.4,0.2,0.9,0,1.3c-0.1,0.4-0.4,0.8-0.8,1c0.5,0,0.9,0.1,1.3,0.4c0.4,0.3,0.7,0.7,0.8,1.2c0.2,0.6,0.2,1.3-0.2,1.8
		C222.4,286.8,221.9,287.2,221.2,287.3z M219.4,282.6c0.3-0.1,0.6-0.3,0.8-0.6c0.1-0.3,0.2-0.6,0.1-0.9c-0.1-0.3-0.3-0.6-0.6-0.8
		c-0.3-0.1-0.7-0.1-1,0l-3.1,0.9l0.7,2.3L219.4,282.6z M220.6,286.3c0.4-0.1,0.7-0.3,0.9-0.6c0.2-0.3,0.2-0.7,0.1-1
		c-0.1-0.3-0.3-0.6-0.6-0.8c-0.3-0.2-0.7-0.2-1.1-0.1l-3.1,0.9l0.8,2.6L220.6,286.3z"/>
	<path class="st0" d="M232.4,283.6l-1.4,0.5l-4.2-11.2l4.5-1.7c0.9-0.4,2-0.4,2.9,0c0.9,0.4,1.5,1.1,1.9,2c0.4,0.9,0.3,1.9-0.1,2.8
		c-0.4,0.9-1.2,1.7-2.2,2l-3.1,1.1L232.4,283.6z M233.2,276.7c0.6-0.2,1.1-0.6,1.4-1.2c0.2-0.6,0.2-1.2,0-1.8
		c-0.2-0.6-0.6-1.1-1.2-1.3c-0.6-0.2-1.3-0.2-1.8,0l-2.9,1.1l1.6,4.3L233.2,276.7z"/>
	<path class="st0" d="M246.8,276.5c-0.9,2.3-3.4,3.4-5.7,2.5c0,0,0,0-0.1,0c-2.2-1.1-3.3-3.6-2.6-6c0.4-1.1,1.2-2,2.4-2.4
		c1.1-0.5,2.3-0.5,3.4,0C246.4,271.7,247.5,274.2,246.8,276.5L246.8,276.5z M241.7,277.8c0.7,0.4,1.6,0.4,2.3,0.1
		c0.8-0.3,1.3-0.9,1.5-1.7c0.2-0.8,0.1-1.7-0.2-2.5c-0.3-0.8-0.9-1.5-1.6-1.9c-1.4-0.7-3-0.1-3.7,1.3c-0.1,0.1-0.1,0.3-0.2,0.4
		C239.4,275.1,240.2,276.9,241.7,277.8z"/>
	<path class="st0" d="M254.2,274.5c-1,0.6-2.3,0.6-3.4,0.2c-2.3-1-3.5-3.5-2.9-5.9c0.3-1.1,1.2-2.1,2.2-2.5c1.1-0.6,2.4-0.6,3.5,0
		l-0.4,1.1c-0.8-0.4-1.7-0.5-2.5-0.1c-0.8,0.3-1.3,1-1.6,1.8c-0.3,1.8,0.5,3.5,2.1,4.3c0.8,0.3,1.6,0.3,2.4-0.1
		c0.8-0.4,1.4-1.1,1.5-2l1.2,0.4C256.1,273,255.3,274,254.2,274.5z"/>
	<path class="st0" d="M262.4,270.2c-1,0.6-2.3,0.7-3.4,0.3c-2.3-0.9-3.6-3.3-3.1-5.7c0.3-1.1,1.1-2.1,2.1-2.6
		c1.1-0.6,2.4-0.7,3.5-0.2l-0.4,1.2c-0.8-0.4-1.7-0.4-2.5,0c-0.8,0.4-1.3,1-1.5,1.9c-0.3,1.8,0.7,3.5,2.3,4.2
		c0.8,0.3,1.7,0.2,2.4-0.2c0.8-0.4,1.3-1.2,1.4-2.1l1.2,0.3C264.3,268.6,263.5,269.7,262.4,270.2z"/>
	<path class="st0" d="M268.1,266.8l-1.1,0.7l-4.5-7.5l1.2-0.7l3.4,5.7l0.5-8l1.1-0.7l4.5,7.5l-1.2,0.7l-3.5-5.8L268.1,266.8z"/>
	<path class="st0" d="M276.9,261.4l-1.1,0.7l-4.8-7.3l1.1-0.7l3.7,5.5l0.1-8.1l1.1-0.7l4.8,7.3l-1.1,0.7l-3.7-5.6L276.9,261.4z"/>
</g>
<path class="st1" d="M310,71.9c0,85.6-69.4,155-155,155S0,157.5,0,71.9"/>
</svg>
