<?xml version="1.0" encoding="utf-8"?>
<!-- Generator: Adobe Illustrator 24.0.3, SVG Export Plug-In . SVG Version: 6.00 Build 0)  -->
<svg version="1.1" id="Layer_1" xmlns="http://www.w3.org/2000/svg" xmlns:xlink="http://www.w3.org/1999/xlink" x="0px" y="0px"
	 viewBox="0 0 310 300.4" style="enable-background:new 0 0 310 300.4;" xml:space="preserve">
<style type="text/css">
	.st0{fill:#9588C8;}
	.st1{fill:none;}
</style>
<title>vedomosti 1 text</title>
<g>
	<path class="st0" d="M35.3,232.6c-1.5-1-2.4-2.5-2.6-4.3l1.4-0.4c0.1,1.4,0.8,2.8,2,3.6c0.6,0.5,1.3,0.8,2.1,0.8
		c0.6,0,1.1-0.3,1.4-0.8c0.2-0.3,0.4-0.7,0.3-1.1c0-0.4-0.2-0.8-0.4-1.1c-0.3-0.4-0.5-0.8-0.8-1.2c-0.3-0.4-0.7-0.8-1-1.3
		c-0.3-0.4-0.5-0.8-0.8-1.3c-0.2-0.4-0.3-0.9-0.2-1.4c0-0.5,0.2-1,0.6-1.4c0.5-0.8,1.4-1.2,2.4-1.2c1.1,0,2.1,0.3,2.9,1
		c1.3,0.9,2.2,2.3,2.5,3.9l-1.4,0.4c-0.1-1.3-0.8-2.5-1.9-3.2c-0.5-0.4-1.1-0.6-1.7-0.6c-0.5,0-1.1,0.2-1.4,0.7
		c-0.2,0.3-0.3,0.8-0.2,1.2c0.1,0.5,0.4,0.9,0.7,1.3c0.3,0.4,0.7,0.9,1.1,1.4s0.7,1,1,1.5c0.3,0.5,0.4,1.1,0.4,1.6
		c0,0.6-0.2,1.2-0.6,1.8c-0.6,0.8-1.4,1.3-2.4,1.4C37.4,233.8,36.2,233.4,35.3,232.6z"/>
	<path class="st0" d="M46.8,240.3l-1.1-0.8l0.5-0.8c-1.1,0.3-2.2,0-3.1-0.6c-0.7-0.4-1.1-1.1-1.3-1.8c-0.2-0.8-0.1-1.6,0.4-2.3
		c0.4-0.7,1.1-1.2,1.9-1.3c0.8-0.1,1.6,0.1,2.2,0.6c0.9,0.6,1.6,1.5,1.7,2.6l0.9-1.3c0.3-0.4,0.4-1,0.2-1.5c-0.2-0.5-0.5-1-1-1.3
		c-0.9-0.6-1.9-0.7-2.9-0.5v-1.1c1.3-0.3,2.6,0,3.7,0.7c0.7,0.4,1.3,1.1,1.6,1.9c0.2,0.8,0.1,1.7-0.5,2.4L46.8,240.3z M44.1,237.6
		c0.7,0.6,1.7,0.7,2.6,0.4l0.9-1.4c-0.1-0.9-0.6-1.8-1.4-2.2c-0.5-0.3-1-0.5-1.6-0.4c-1,0.2-1.7,1.1-1.5,2.1c0,0.1,0,0.1,0,0.2
		C43.2,236.8,43.6,237.3,44.1,237.6L44.1,237.6z"/>
	<path class="st0" d="M59.7,247.9l-1.2-0.7l3-5.1c0.6-1,0.4-1.8-0.5-2.4c-0.4-0.2-0.9-0.3-1.3-0.3c-0.5,0-0.9,0.1-1.3,0.3l-3.2,5.5
		l-1.1-0.7l3-5.1c0.6-1,0.4-1.8-0.5-2.4c-0.4-0.2-0.8-0.3-1.3-0.3c-0.5,0-0.9,0.1-1.4,0.3l-3.2,5.5l-1.2-0.6l4.3-7.5l1.2,0.7
		l-0.6,1.1c0.5-0.2,1-0.3,1.5-0.3c0.6,0,1.2,0.1,1.7,0.4c0.5,0.3,0.9,0.7,1.1,1.2c0.2,0.4,0.2,0.9,0.1,1.4c0.5-0.3,1.1-0.4,1.6-0.4
		c0.6,0,1.2,0.1,1.7,0.4c1.4,0.8,1.7,2,0.8,3.5L59.7,247.9z"/>
	<path class="st0" d="M64.9,250.8c-1.2-0.5-2.1-1.5-2.5-2.8l1.1-0.6c0.1,0.5,0.4,1,0.7,1.3c0.4,0.4,0.8,0.8,1.3,1.1
		c0.5,0.3,1,0.4,1.5,0.3c0.4-0.1,0.8-0.3,1-0.7c0.2-0.3,0.1-0.8-0.1-1.1c-0.3-0.4-0.6-0.8-1-1.1c-0.4-0.3-0.8-0.7-1.2-1.1
		c-0.4-0.4-0.7-0.8-0.9-1.3c-0.2-0.5-0.1-1.1,0.2-1.6c0.3-0.6,0.9-1.1,1.6-1.2c0.8-0.2,1.7,0,2.4,0.4c1.1,0.5,1.9,1.4,2.3,2.6
		l-1,0.6c-0.2-1-0.9-1.7-1.8-2.1c-0.4-0.2-0.9-0.3-1.4-0.3c-0.4,0-0.7,0.3-0.9,0.6c-0.2,0.3-0.1,0.7,0.1,1c0.3,0.4,0.6,0.7,1,1
		c0.4,0.3,0.8,0.7,1.2,1.1c0.4,0.4,0.7,0.8,0.8,1.3c0.2,0.5,0.1,1.1-0.2,1.6c-0.3,0.7-0.9,1.1-1.7,1.3
		C66.6,251.4,65.6,251.2,64.9,250.8z"/>
	<path class="st0" d="M77,256.2l-1.2-0.6l0.5-1.1c-0.5,0.2-1.1,0.4-1.7,0.4c-0.6,0-1.2-0.1-1.8-0.3c-1.3-0.4-2.1-1.7-1.7-3
		c0.1-0.2,0.2-0.4,0.3-0.6l2.5-5.6l1.2,0.5l-2.4,5.2c-0.3,0.5-0.3,1.1-0.2,1.6c0.2,0.5,0.7,0.8,1.2,1c0.5,0.2,1,0.3,1.5,0.2
		c0.5,0,1-0.2,1.4-0.4l2.6-5.8l1.2,0.6L77,256.2z"/>
	<path class="st0" d="M86.5,259.9l-1.3-0.5l2-5.3c0.5-0.8,0.2-1.9-0.6-2.4c-0.2-0.1-0.4-0.2-0.5-0.2c-0.5-0.2-1-0.2-1.5-0.2
		c-0.5,0.1-1,0.2-1.4,0.5l-2.3,5.9l-1.3-0.5l3.1-8.1l1.3,0.5l-0.4,1.2c0.5-0.3,1.1-0.4,1.6-0.5c0.6-0.1,1.2,0,1.8,0.2
		c1.3,0.3,2.2,1.6,1.8,2.9c-0.1,0.2-0.1,0.5-0.3,0.7L86.5,259.9z"/>
	<path class="st0" d="M91.7,265.4c-0.6-0.2-1.2-0.5-1.8-0.9c-0.5-0.4-0.9-0.9-1.2-1.5l1-0.8c0.4,1,1.3,1.7,2.3,2
		c0.7,0.2,1.4,0.2,2.1,0c0.7-0.3,1.2-0.9,1.3-1.6l0.4-1.2c-0.5,0.3-1,0.6-1.5,0.7c-0.6,0.1-1.2,0.1-1.7-0.1c-1-0.3-1.9-1-2.3-2
		c-0.8-2.3,0-4.8,2-6.3c0.9-0.5,2-0.7,3-0.3c1.1,0.3,2,1.2,2.3,2.4l0.4-1.2l1.3,0.4l-2.6,8c-0.2,1.1-1,2-2,2.4
		C93.8,265.7,92.7,265.7,91.7,265.4z M93.3,261c0.5,0.2,1,0.2,1.6,0.1c0.5-0.1,1-0.3,1.3-0.6l1.2-3.6c-0.1-0.5-0.4-0.9-0.7-1.3
		c-0.4-0.4-0.8-0.7-1.3-0.9c-0.7-0.3-1.6-0.2-2.2,0.2c-1.4,1.1-2,2.9-1.4,4.5C92,260.3,92.6,260.8,93.3,261L93.3,261z"/>
	<path class="st0" d="M111.4,267.1l-1.3-0.3l1.7-7.3l-4.4-1l-1.7,7.3l-1.3-0.3l2-8.5l7,1.7L111.4,267.1z"/>
	<path class="st0" d="M121.4,267.9c-2,1.4-4.7,0.9-6.1-1.1c0,0,0,0,0-0.1c-0.6-1-0.8-2.2-0.6-3.4c0.2-1.2,0.8-2.3,1.8-3
		c2-1.4,4.7-0.9,6.1,1.1c0,0,0,0,0,0.1c0.6,1,0.8,2.2,0.6,3.4C123,266.1,122.4,267.2,121.4,267.9z M116.4,266.1
		c0.4,0.7,1.1,1.2,1.9,1.4c0.8,0.2,1.6,0,2.2-0.6c1.3-1.2,1.6-3.1,0.9-4.7c-0.8-1.3-2.4-1.8-3.8-1c-0.1,0.1-0.3,0.2-0.4,0.3
		C116,262.6,115.7,264.5,116.4,266.1L116.4,266.1z"/>
	<path class="st0" d="M123.7,271.6l0.4-3.3c0.5,0,0.9-0.3,1.1-0.7c0.4-0.7,0.8-1.5,0.9-2.4l1.1-4.2l6,0.8l-1,7.4l1,0.1l-0.4,3.4
		l-1.3-0.2l0.3-2.2l-6.5-0.9l-0.3,2.2L123.7,271.6z M128.3,262.4l-0.8,3.2c-0.2,1.1-0.8,2.1-1.6,2.9l5.1,0.7l0.8-6.3L128.3,262.4z"
		/>
	<path class="st0" d="M140.3,271.2l-4.9-0.4l0.7-8.7l4.8,0.4c0.7,0,1.3,0.3,1.7,0.8c0.4,0.5,0.6,1.1,0.5,1.7c0,0.5-0.2,0.9-0.5,1.2
		c-0.3,0.3-0.6,0.5-1.1,0.6c0.4,0.2,0.8,0.5,1.1,0.9c0.6,1,0.4,2.2-0.4,3C141.6,271.1,141,271.3,140.3,271.2z M140.1,270.1
		c0.4,0.1,0.8,0,1.1-0.3c0.3-0.2,0.4-0.6,0.4-0.9c0.1-0.7-0.5-1.4-1.2-1.4c0,0-0.1,0-0.1,0l-3.2-0.2l-0.2,2.7L140.1,270.1z
		 M140.3,266.2c0.4,0.1,0.7,0,1-0.3c0.2-0.2,0.4-0.5,0.4-0.8c0-0.3-0.1-0.7-0.3-0.9c-0.2-0.3-0.6-0.4-0.9-0.4l-3.2-0.2l-0.2,2.5
		L140.3,266.2z"/>
	<path class="st0" d="M149.7,271.9c-1.2,0-2.3-0.5-3.1-1.4c-0.8-0.9-1.2-2.1-1.2-3.3c0-1.2,0.5-2.3,1.3-3.2c0.8-0.8,1.9-1.3,3.1-1.2
		c1.2,0,2.3,0.5,3,1.4c0.7,1,1.1,2.2,1,3.4v0.3l-7-0.2c0,0.8,0.3,1.6,0.9,2.2c0.6,0.6,1.4,0.9,2.2,0.9c1,0.1,2-0.3,2.7-1l0.6,0.9
		C152.2,271.5,150.9,272,149.7,271.9z M152.5,266.9c0-0.7-0.3-1.4-0.7-2c-1.1-1.2-2.9-1.3-4.1-0.2c0,0-0.1,0.1-0.1,0.1
		c-0.5,0.5-0.8,1.3-0.9,2L152.5,266.9z"/>
	<path class="st0" d="M155.3,272v-1.1c0.4,0,0.7-0.3,1-0.8c0.3-0.9,0.5-1.8,0.6-2.7l0.4-4.3l6-0.2l0.2,8.7h-1.4l-0.2-7.5l-3.5,0.1
		l-0.3,3.3c0,1.2-0.4,2.4-0.9,3.5C156.8,271.6,156.1,272,155.3,272z"/>
	<path class="st0" d="M178.6,270.3l-1.3,0.1l-0.8-7.5l-4.5,0.5l0.8,7.5l-1.4,0.1l-0.9-8.6l7.2-0.7L178.6,270.3z"/>
	<path class="st0" d="M185.6,269.5c-1.2,0.2-2.4-0.1-3.3-0.8c-1-0.7-1.6-1.9-1.7-3.1c-0.2-1.2,0.1-2.4,0.7-3.4
		c0.6-1,1.7-1.6,2.8-1.8c1.1-0.2,2.3,0.1,3.2,0.8c0.9,0.8,1.5,1.9,1.6,3.1l0.1,0.3l-6.9,1.1c0.1,0.8,0.6,1.5,1.2,2
		c0.7,0.5,1.5,0.7,2.3,0.5c1-0.1,1.9-0.7,2.5-1.5l0.8,0.8C188,268.7,186.9,269.4,185.6,269.5z M187.5,264.1
		c-0.1-0.7-0.5-1.4-1.1-1.9c-0.6-0.5-1.4-0.7-2.2-0.6c-0.8,0.1-1.5,0.5-1.9,1.2c-0.4,0.6-0.6,1.4-0.5,2.1L187.5,264.1z"/>
	<path class="st0" d="M196.3,267.6c-1.1,0.3-2.3-0.1-3.2-0.9l1,4.5l-1.3,0.3l-2.5-11.8l1.3-0.3l0.3,1.3c0.2-0.5,0.6-1,1-1.3
		c0.5-0.4,1-0.6,1.6-0.8c1-0.3,2.1,0,3,0.6c0.9,0.8,1.5,1.8,1.7,3c0.3,1.2,0.2,2.4-0.4,3.5C198.3,266.7,197.4,267.4,196.3,267.6z
		 M195.7,266.4c0.8-0.1,1.4-0.6,1.8-1.3c0.4-0.8,0.5-1.7,0.2-2.5c-0.1-0.9-0.6-1.6-1.2-2.2c-0.6-0.5-1.4-0.7-2.2-0.5
		c-0.5,0.1-1,0.4-1.4,0.7c-0.4,0.3-0.7,0.7-0.9,1.2l0.8,3.8c0.4,0.4,0.8,0.6,1.3,0.8C194.7,266.5,195.2,266.5,195.7,266.4z"/>
	<path class="st0" d="M207.3,264.7l-4.7,1.2l-2.2-8.4l4.6-1.2c0.6-0.2,1.3-0.2,1.9,0.1c0.5,0.3,0.9,0.8,1.1,1.4
		c0.1,0.4,0.1,0.9-0.1,1.3c-0.1,0.4-0.4,0.8-0.8,1c0.5,0,0.9,0.2,1.3,0.5c0.4,0.3,0.7,0.7,0.8,1.2c0.2,0.6,0.1,1.3-0.2,1.8
		C208.5,264.2,207.9,264.6,207.3,264.7z M205.6,259.9c0.3-0.1,0.7-0.3,0.8-0.6c0.2-0.3,0.2-0.6,0.1-0.9c-0.1-0.3-0.3-0.6-0.6-0.8
		c-0.3-0.2-0.7-0.2-1-0.1l-3.1,0.8l0.6,2.4L205.6,259.9z M206.7,263.6c0.4-0.1,0.7-0.3,0.9-0.6c0.3-0.7,0.1-1.5-0.5-1.9
		c-0.3-0.2-0.7-0.2-1.1-0.1l-3.1,0.8l0.7,2.6L206.7,263.6z"/>
	<path class="st0" d="M209.9,254.9l1.3-0.4l1.1,3.2l3.1-1c0.7-0.3,1.5-0.2,2.2,0.1c0.6,0.3,1.1,0.9,1.3,1.6c0.2,0.7,0.2,1.4-0.1,2
		c-0.3,0.7-0.9,1.2-1.6,1.4l-4.4,1.4L209.9,254.9z M215.6,257.9l-3,1l0.9,2.8l3-1c0.4-0.1,0.7-0.4,0.9-0.7c0.2-0.4,0.2-0.8,0-1.1
		c-0.1-0.4-0.4-0.7-0.7-0.9C216.3,257.7,215.9,257.7,215.6,257.9z M222.2,260l-1.3,0.4l-2.7-8.3l1.3-0.4L222.2,260z"/>
	<path class="st0" d="M228.9,257.6c-1.1,0.5-2.3,0.5-3.4,0c-2.2-1.1-3.3-3.7-2.4-6.1c0.4-1.1,1.3-2,2.4-2.4c1.1-0.5,2.3-0.4,3.3,0.1
		c1.1,0.6,1.9,1.6,2.3,2.7l0.1,0.3l-6.5,2.6c0.3,0.7,0.9,1.3,1.7,1.6c0.8,0.3,1.6,0.3,2.4,0c0.9-0.3,1.7-1.1,2.1-2l0.9,0.6
		C231.1,256.4,230.1,257.2,228.9,257.6z M229.5,251.9c-0.3-0.7-0.8-1.2-1.4-1.6c-0.7-0.4-1.6-0.4-2.3,0c-0.7,0.3-1.3,0.8-1.6,1.6
		c-0.2,0.7-0.2,1.5,0,2.2L229.5,251.9z"/>
	<path class="st0" d="M240.5,252.3l-1.2,0.6l-3.8-7.8l1.2-0.6l2.9,6l1.2-8l1.2-0.6l3.8,7.8l-1.2,0.6l-3-6.1L240.5,252.3z"/>
	<path class="st0" d="M251.1,246.9l-1.2,0.6l-3.6-6.6l-2.2,1.2l-0.6-1l5.6-3.1l0.6,1l-2.2,1.2L251.1,246.9z"/>
	<path class="st0" d="M260.5,240.1c-0.6,2.4-2.9,3.8-5.3,3.3c0,0-0.1,0-0.1,0c-1.1-0.4-2.1-1.1-2.7-2.2c-0.7-1-0.9-2.2-0.7-3.4
		c0.6-2.4,2.9-3.8,5.3-3.3c0,0,0,0,0,0c1.1,0.3,2.1,1.1,2.7,2.2C260.4,237.7,260.7,238.9,260.5,240.1z M255.5,242.1
		c0.8,0.3,1.6,0.2,2.3-0.3c0.7-0.4,1.2-1.1,1.3-1.9c0.1-0.9-0.1-1.7-0.6-2.4c-0.4-0.7-1.1-1.3-1.9-1.6c-1.5-0.5-3,0.3-3.5,1.8
		c0,0.1-0.1,0.3-0.1,0.4c-0.1,0.9,0.1,1.7,0.6,2.4C254.1,241.2,254.7,241.8,255.5,242.1L255.5,242.1z"/>
	<path class="st0" d="M264.4,228.4l0.7,1l-3.9,2.7l4.2,6.2l-1.1,0.8l-4.9-7.2L264.4,228.4z"/>
	<path class="st0" d="M272,233.6l-1,0.8l-5.2-7l1.1-0.8l4,5.3l-0.3-8l1.1-0.8l5.2,7l-1.1,0.8l-4-5.4L272,233.6z"/>
</g>
<g>
	<path class="st0" d="M10.8,245.3l0.7-0.9c0.4,0.3,0.9,0.3,1.3,0c0.8-0.5,1.5-1,2.2-1.7l3.1-3l4.7,3.8l-5.4,6.8l-1-0.8l4.7-5.9
		l-2.7-2.2l-2.4,2.3c-0.8,0.9-1.8,1.6-2.9,2C12.2,245.9,11.4,245.8,10.8,245.3z"/>
	<path class="st0" d="M20.8,252.8l-1-0.8l5.1-7l1.1,0.8l-3.9,5.4l7.6-2.7l1.1,0.8l-5.1,7l-1.1-0.8l4-5.5L20.8,252.8z"/>
	<path class="st0" d="M30.6,260c-1.3-0.7-2.1-1.9-2.5-3.4l1-0.4c0.3,1.2,1.1,2.2,2.1,2.8c0.5,0.4,1.1,0.6,1.8,0.7
		c0.5,0.1,0.9-0.2,1.2-0.5c0.5-0.8,0-1.7-1.5-2.7l-1.6-1.1l0.6-0.9l1.6,1.1c0.5,0.4,1.1,0.6,1.8,0.7c0.5,0.1,0.9-0.1,1.2-0.5
		c0.2-0.4,0.2-0.9,0-1.2c-0.3-0.5-0.8-1-1.3-1.3c-0.9-0.6-2-0.9-3-0.7l-0.1-1.1c1.3-0.3,2.7,0,3.7,0.8c0.9,0.5,1.6,1.2,2.1,2.1
		c0.4,0.6,0.4,1.4,0,2c-0.3,0.5-0.8,0.8-1.4,0.8c-0.6,0-1.2-0.1-1.7-0.3c0.5,0.4,0.9,0.9,1.1,1.5c0.2,0.6,0.2,1.2-0.2,1.7
		c-0.4,0.6-1.1,1-1.9,0.9C32.4,260.9,31.4,260.6,30.6,260z"/>
	<path class="st0" d="M37.3,264.1l-1.1-0.7l4.5-7.5l1.2,0.7l-3.4,5.7l7.3-3.4l1.2,0.7l-4.5,7.4l-1.2-0.7l3.5-5.8L37.3,264.1z"/>
	<path class="st0" d="M46.2,269.2l-1.2-0.6l4.1-7.7l1.2,0.6l-1.7,3.2l4,2.2l1.7-3.2l1.2,0.6l-4.1,7.7l-1.2-0.6L52,268l-4-2.2
		L46.2,269.2z"/>
	<path class="st0" d="M63.3,268.2l-0.5,1.1l-4.2-2.1l-3.3,6.8l-1.2-0.6l3.8-7.8L63.3,268.2z"/>
	<path class="st0" d="M68.2,278.7c-2.2,0.9-4.8-0.2-5.7-2.4c0,0,0-0.1,0-0.1c-0.7-2.4,0.4-4.9,2.6-6c2.3-0.9,4.8,0.2,5.7,2.5
		c0,0,0,0,0,0C71.5,275.1,70.4,277.6,68.2,278.7z M63.8,275.8c0.4,1.5,2,2.3,3.5,1.9c0.1,0,0.3-0.1,0.4-0.2c0.8-0.4,1.3-1.1,1.7-1.9
		c0.4-0.8,0.5-1.7,0.2-2.5c-0.2-0.8-0.8-1.4-1.5-1.7c-0.7-0.4-1.6-0.4-2.3,0C64.1,272.3,63.4,274,63.8,275.8L63.8,275.8z"/>
	<path class="st0" d="M75.7,282.9l-4.6-1.8l3.1-8.1l4.5,1.7c0.6,0.2,1.1,0.6,1.4,1.2c0.3,0.6,0.3,1.2,0,1.8c-0.2,0.4-0.4,0.8-0.8,1
		c-0.4,0.2-0.8,0.3-1.2,0.3c0.4,0.3,0.7,0.7,0.8,1.1c0.2,0.5,0.2,1,0,1.5c-0.2,0.6-0.6,1.1-1.2,1.4
		C77.1,283.2,76.4,283.2,75.7,282.9z M75.9,281.6c0.3,0.1,0.7,0.1,1.1,0c0.3-0.1,0.6-0.4,0.7-0.8c0.1-0.3,0.1-0.7,0-1
		c-0.2-0.4-0.5-0.6-0.8-0.7l-3-1.2l-1,2.5L75.9,281.6z M77.2,278.1c0.3,0.1,0.7,0.1,1,0c0.6-0.3,0.9-1,0.6-1.7
		c-0.2-0.3-0.4-0.5-0.8-0.7l-3-1.1l-0.9,2.3L77.2,278.1z"/>
	<path class="st0" d="M87.8,285.9c-1,0.6-2.3,0.7-3.4,0.3c-1.1-0.3-2.1-1.1-2.6-2.2c-0.5-1.1-0.5-2.3-0.1-3.5
		c0.3-1.1,1.1-2.1,2.1-2.7c2.2-1.1,4.8-0.3,5.9,1.9c0,0,0,0,0,0C90.7,282,89.9,284.6,87.8,285.9L87.8,285.9z M83.1,283.4
		c0.6,1.4,2.2,2.1,3.6,1.5c0.1-0.1,0.3-0.1,0.4-0.2c0.7-0.5,1.2-1.2,1.5-2c0.3-0.8,0.3-1.7,0-2.5c-0.6-1.4-2.2-2.1-3.6-1.5
		c-0.1,0.1-0.3,0.1-0.4,0.2C83.1,279.9,82.5,281.8,83.1,283.4L83.1,283.4z"/>
	<path class="st0" d="M92.3,288.4l-1.3-0.3l2.3-8.4l1.3,0.4l-1.8,6.4l6.1-5.2l1.3,0.4L98,290l-1.3-0.4l1.8-6.5L92.3,288.4z
		 M100.6,279c-1,0.8-2.3,1.1-3.5,0.7c-1.2-0.3-2.2-1.2-2.6-2.4l0.8-0.4c0.3,0.9,1.1,1.7,2.1,1.9c1,0.3,2,0.1,2.7-0.6L100.6,279z"/>
	<path class="st0" d="M112.7,293.3l-1.3-0.3l1.5-7.4l-4.4-0.9l-1.5,7.3l-1.3-0.3l1.8-8.5l7.1,1.5L112.7,293.3z"/>
	<path class="st0" d="M119.9,294.7c-1.2-0.2-2.2-0.9-2.7-2l-0.7,4.6l-1.3-0.2l1.9-11.9l1.3,0.2l-0.2,1.3c0.4-0.4,0.9-0.7,1.4-0.9
		c0.6-0.2,1.1-0.3,1.7-0.1c1.1,0.1,2,0.7,2.6,1.7c0.6,1,0.8,2.3,0.5,3.4c-0.1,1.2-0.7,2.3-1.6,3.1
		C122.1,294.6,121,294.9,119.9,294.7z M119.8,293.5c0.8,0.2,1.6-0.1,2.2-0.6c0.6-0.6,1-1.4,1.1-2.3c0.2-0.9,0-1.7-0.4-2.5
		c-0.4-0.7-1.1-1.1-1.9-1.2c-0.5-0.1-1.1,0-1.6,0.2c-0.5,0.2-0.9,0.4-1.2,0.8l-0.6,3.9c0.2,0.5,0.5,0.9,0.9,1.1
		C118.8,293.2,119.2,293.4,119.8,293.5L119.8,293.5z"/>
	<path class="st0" d="M133.3,295.1c-0.9,0.8-2.1,1.2-3.2,1c-1.2-0.1-2.3-0.7-3-1.6c-1.4-2-1.1-4.8,0.7-6.5c1.9-1.5,4.7-1.2,6.2,0.7
		c0,0,0,0,0,0c0.7,1,1,2.2,0.8,3.4C134.7,293.2,134.1,294.3,133.3,295.1z M128.2,293.6c0.4,0.7,1.2,1.1,2,1.2
		c0.8,0.1,1.6-0.2,2.2-0.7c0.6-0.6,0.9-1.4,1-2.3c0.1-0.9-0.1-1.7-0.5-2.4c-0.4-0.7-1.2-1.1-2-1.2c-0.8-0.1-1.6,0.2-2.2,0.7
		c-0.6,0.6-0.9,1.4-1,2.3C127.5,292,127.7,292.9,128.2,293.6L128.2,293.6z"/>
	<path class="st0" d="M143.5,288.2l-0.1,1.2l-4.7-0.3l-0.5,7.5l-1.4-0.1l0.6-8.7L143.5,288.2z"/>
	<path class="st0" d="M149.2,297.4c-1.2,0-2.3-0.6-2.9-1.6l-0.1,4.6h-1.4l0.3-12h1.4v1.3c0.3-0.5,0.8-0.8,1.3-1.1
		c1.5-0.7,3.4-0.3,4.4,0.9c1.4,2,1.3,4.7-0.2,6.7C151.4,297,150.3,297.4,149.2,297.4z M148.9,296.1c0.8,0.1,1.6-0.3,2.1-0.9
		c1.1-1.4,1.1-3.4,0.1-4.8c-0.5-0.6-1.2-1-2-1c-0.5,0-1.1,0.1-1.5,0.4c-0.4,0.2-0.8,0.6-1.1,1l-0.1,3.9c0.3,0.4,0.6,0.8,1.1,1
		C147.9,296,148.4,296.1,148.9,296.1z"/>
	<path class="st0" d="M162.4,297.1H161v-1c-0.7,0.8-1.8,1.3-2.9,1.3c-0.8,0-1.5-0.2-2.1-0.7c-1.2-1.1-1.3-2.9-0.2-4.1
		c0-0.1,0.1-0.1,0.1-0.2c0.6-0.5,1.3-0.8,2.1-0.8c1.1-0.1,2.2,0.3,2.9,1.1v-1.6c0-0.5-0.2-1-0.6-1.3c-0.5-0.3-1-0.5-1.6-0.5
		c-1,0-2,0.5-2.6,1.2l-0.6-0.9c0.9-1,2.1-1.5,3.4-1.5c0.9-0.1,1.7,0.2,2.4,0.7c0.7,0.5,1,1.3,1,2.2L162.4,297.1z M158.6,296.4
		c0.9,0,1.8-0.4,2.4-1.1v-1.6c-0.6-0.7-1.5-1.1-2.4-1c-0.6,0-1.1,0.2-1.5,0.6c-0.7,0.7-0.8,1.9-0.1,2.6c0,0,0.1,0.1,0.1,0.1
		C157.6,296.3,158.1,296.5,158.6,296.4z"/>
	<path class="st0" d="M174.3,296.4l-1.3,0.1l-0.4-6.8l-2.4,7h-0.5l-3.3-6.6l0.4,6.8l-1.4,0.1l-0.6-8.7l1.8-0.1l3.1,6.2l2.2-6.6
		l1.8-0.1L174.3,296.4z"/>
	<path class="st0" d="M186.2,295.1l-1.3,0.2l-0.8-6.8l-2,7.1l-0.5,0.1l-3.6-6.4l0.8,6.8l-1.4,0.1l-1-8.6l1.8-0.2l3.4,6.1l1.9-6.7
		l1.8-0.2L186.2,295.1z"/>
	<path class="st0" d="M187.8,286.1l1.3-0.2l0.6,3.3l3.2-0.6c0.7-0.2,1.5,0,2.1,0.4c1.2,0.9,1.5,2.5,0.7,3.7c-0.4,0.6-1.1,1-1.8,1.1
		l-4.5,0.8L187.8,286.1z M193,289.8l-3.1,0.5l0.5,2.9l3.1-0.5c0.8-0.2,1.4-1,1.2-1.8c-0.1-0.4-0.3-0.7-0.6-0.9
		C193.8,289.8,193.4,289.7,193,289.8L193,289.8z M199.2,292.9l-1.3,0.2l-1.5-8.6l1.3-0.2L199.2,292.9z"/>
	<path class="st0" d="M210.7,290.5c-1.1,0.3-2.4,0.1-3.4-0.5c-1-0.7-1.7-1.7-2-2.9c-0.3-1.2-0.2-2.4,0.4-3.4c0.6-1,1.6-1.8,2.7-2
		c1.2-0.4,2.5-0.1,3.5,0.7l-0.7,1c-0.7-0.6-1.6-0.8-2.4-0.6c-0.8,0.2-1.5,0.7-1.9,1.4c-0.4,0.8-0.5,1.7-0.2,2.5
		c0.2,0.9,0.7,1.6,1.4,2.1c0.7,0.5,1.5,0.6,2.4,0.4c0.9-0.2,1.6-0.8,1.9-1.6l1.1,0.6C212.9,289.4,211.9,290.2,210.7,290.5z"/>
	<path class="st0" d="M224.4,286.3l-1.3,0.4l-2-6.5l-0.7,7.3l-0.5,0.1l-4.7-5.7l2,6.5l-1.3,0.4l-2.5-8.3l1.7-0.5l4.4,5.4l0.6-6.9
		l1.7-0.5L224.4,286.3z"/>
	<path class="st0" d="M233.7,283.1l-1.3,0.5l-0.3-0.9c-0.4,1-1.3,1.8-2.3,2.1c-0.7,0.3-1.5,0.3-2.3,0c-1.5-0.6-2.2-2.4-1.5-3.8
		c0-0.1,0.1-0.1,0.1-0.2c0.4-0.7,1-1.2,1.8-1.4c1-0.4,2.1-0.4,3.1,0.1l-0.5-1.5c-0.2-0.5-0.5-0.9-1-1.1c-0.5-0.2-1.1-0.1-1.7,0.1
		c-1,0.3-1.7,1.1-2.1,2l-0.9-0.7c0.5-1.2,1.5-2.1,2.8-2.5c0.8-0.3,1.7-0.4,2.5-0.1c0.8,0.3,1.4,1,1.6,1.8L233.7,283.1z M230,283.6
		c0.9-0.2,1.6-0.9,1.9-1.8l-0.6-1.5c-0.8-0.5-1.8-0.6-2.6-0.2c-0.5,0.2-1,0.5-1.3,1c-0.3,0.5-0.3,1-0.1,1.5c0.2,0.5,0.5,0.9,1,1.1
		C228.9,283.8,229.5,283.8,230,283.6L230,283.6z"/>
	<path class="st0" d="M240.7,280.6c-1.1,0.5-2.3,0.3-3.3-0.3l1.8,4.3l-1.2,0.5l-4.6-11.1l1.2-0.5l0.5,1.2c0.1-0.5,0.4-1.1,0.8-1.5
		c1.1-1.3,2.9-1.7,4.4-0.9c1.1,0.6,1.9,1.5,2.2,2.7c0.5,1.1,0.6,2.3,0.3,3.5C242.4,279.4,241.7,280.2,240.7,280.6z M239.9,279.6
		c0.7-0.3,1.3-0.9,1.5-1.6c0.2-0.8,0.2-1.7-0.2-2.5c-0.3-0.8-0.9-1.5-1.6-1.9c-0.7-0.4-1.5-0.4-2.2-0.1c-0.5,0.2-0.9,0.5-1.2,0.9
		c-0.3,0.4-0.5,0.8-0.6,1.3l1.5,3.6c0.4,0.3,0.9,0.5,1.4,0.5C238.9,279.8,239.4,279.8,239.9,279.6L239.9,279.6z"/>
	<path class="st0" d="M249.1,276.7l-1.2,0.6l-3.1-6.8l-2.3,1l-0.5-1.1l5.8-2.7l0.5,1.1l-2.3,1L249.1,276.7z"/>
	<path class="st0" d="M251.7,265.5c0.9-0.4,2-0.3,2.8,0.3l-2.1-4.1l1.2-0.6l2.1,4.1c0-0.5,0.2-1,0.4-1.4c0.2-0.4,0.6-0.8,1-1
		c0.8-0.4,1.8-0.4,2.6,0c2,1.3,3.1,3.5,3.1,5.9c-0.1,0.9-0.6,1.7-1.4,2.1c-0.9,0.5-2,0.4-2.8-0.3l2.1,4.1l-1.2,0.6l-2.1-4.1
		c0,0.5-0.2,1-0.4,1.4c-0.2,0.4-0.6,0.8-1,1c-0.8,0.4-1.8,0.4-2.6,0c-1-0.6-1.8-1.4-2.3-2.5c-0.6-1-0.9-2.2-0.8-3.4
		C250.3,266.8,250.9,266,251.7,265.5z M252.6,266.4c-0.6,0.3-1,0.9-1,1.6c0,0.8,0.2,1.7,0.6,2.4c0.4,0.8,0.9,1.4,1.6,1.9
		c0.5,0.4,1.2,0.4,1.8,0.1c0.4-0.2,0.7-0.5,0.9-0.9c0.2-0.4,0.3-0.8,0.3-1.3l-1.8-3.5c-0.4-0.3-0.8-0.4-1.2-0.5
		C253.4,266.2,253,266.3,252.6,266.4L252.6,266.4z M260.4,269.9c0.6-0.3,1-0.9,1-1.6c0-0.8-0.2-1.7-0.6-2.4
		c-0.4-0.8-0.9-1.4-1.6-1.9c-0.5-0.4-1.2-0.4-1.8-0.1c-0.4,0.2-0.7,0.5-0.8,0.9c-0.2,0.4-0.3,0.8-0.3,1.2l1.8,3.5
		c0.4,0.3,0.8,0.4,1.2,0.5C259.6,270.2,260,270.1,260.4,269.9L260.4,269.9z"/>
	<path class="st0" d="M271.8,263.3c-0.6,2.3-2.9,3.8-5.2,3.2c0,0-0.1,0-0.1,0c-1.1-0.4-2.1-1.2-2.7-2.2c-0.6-1-0.9-2.2-0.6-3.4
		c0.6-2.4,3-3.8,5.3-3.2c0,0,0,0,0,0C270.8,258.5,272.1,260.9,271.8,263.3L271.8,263.3z M266.8,265.2c0.8,0.3,1.6,0.2,2.3-0.2
		c0.7-0.4,1.2-1.1,1.3-1.9c0.1-0.9-0.1-1.7-0.5-2.4c-0.4-0.8-1.1-1.3-1.9-1.6c-0.8-0.3-1.6-0.2-2.3,0.2c-0.7,0.4-1.2,1.1-1.3,1.9
		c-0.1,0.8,0.1,1.7,0.5,2.4C265.3,264.3,266,264.9,266.8,265.2L266.8,265.2z"/>
	<path class="st0" d="M276.6,261.6l-1.1,0.7l-4.8-7.2l1.1-0.7l2,3l3.8-2.5l-2-3l1.1-0.7l4.8,7.3l-1.1,0.8l-2.1-3.2l-3.8,2.5
		L276.6,261.6z"/>
	<path class="st0" d="M289,251.6c-0.4,2.4-2.6,4-4.9,3.7c0,0,0,0-0.1,0c-2.4-0.6-4-2.8-3.8-5.3c0.1-1.2,0.8-2.2,1.8-2.9
		c0.9-0.7,2.1-1,3.3-0.8c1.2,0.3,2.2,0.9,2.9,1.9C288.8,249.2,289.1,250.4,289,251.6z M284.2,254c1.5,0.4,3-0.5,3.3-2
		c0-0.1,0.1-0.3,0.1-0.4c0-1.8-1.1-3.3-2.8-3.9c-1.5-0.4-3,0.5-3.3,2c0,0.2-0.1,0.3-0.1,0.5c0,0.9,0.2,1.7,0.8,2.4
		C282.7,253.2,283.4,253.8,284.2,254L284.2,254z"/>
	<path class="st0" d="M296.4,247.2l-3.8,3l-5.4-6.8l3.7-3c0.5-0.4,1.1-0.7,1.8-0.6c0.6,0.1,1.2,0.4,1.5,0.9c0.3,0.4,0.5,0.8,0.5,1.2
		c0,0.4-0.1,0.8-0.3,1.2c0.4-0.2,0.9-0.2,1.4-0.1c0.5,0.1,0.9,0.4,1.2,0.8c0.4,0.5,0.6,1.1,0.5,1.8
		C297.4,246.2,297,246.8,296.4,247.2z M293,243.5c0.3-0.2,0.5-0.5,0.5-0.9c0-0.3-0.1-0.6-0.3-0.9c-0.2-0.3-0.5-0.5-0.8-0.5
		c-0.3,0-0.7,0.1-1,0.3l-2.5,2l1.5,1.9L293,243.5z M295.5,246.5c0.3-0.2,0.5-0.5,0.6-0.9c0-0.4-0.1-0.7-0.3-1
		c-0.2-0.3-0.5-0.5-0.9-0.5c-0.4,0-0.8,0.1-1,0.3l-2.5,2l1.7,2.1L295.5,246.5z"/>
</g>
<path class="st1" d="M310,71.9c0,85.6-69.4,155-155,155S0,157.5,0,71.9"/>
</svg>
