<svg id="Layer_1" data-name="Layer 1" xmlns="http://www.w3.org/2000/svg" viewBox="0 0 310 225.49">
  <defs>
    <style>
      .cls-1 {
        fill: #9588c8;
      }

      .cls-2 {
        fill: none;
      }
    </style>
  </defs>
  <title>whp_news</title>
  <g>
    <path class="cls-1" d="M52.22,172l-1.37-.86,2.89-9.61-7.38,6.81L45,167.47l3.47-12,1.4.87-3,9.9,7.64-7,1.06.66-3,9.94,7.55-7.08,1.4.88Z" transform="translate(0 -0.25)"/>
    <path class="cls-1" d="M63.43,178.18l-1.2-.64,2.71-5a1.93,1.93,0,0,0,.27-1.58,2.08,2.08,0,0,0-1.07-1.09,2.94,2.94,0,0,0-1.46-.33,3.43,3.43,0,0,0-1.44.31l-3,5.6-1.19-.64,5.66-10.58,1.19.63-2.15,4a4.34,4.34,0,0,1,1.67-.27,3.8,3.8,0,0,1,1.77.44,2.46,2.46,0,0,1,1.13,3.76Z" transform="translate(0 -0.25)"/>
    <path class="cls-1" d="M67.31,180.08l-1.21-.59,3.82-7.81,1.21.59Zm3.75-9.23a.9.9,0,0,1-.41-1.2.86.86,0,0,1,.53-.46.81.81,0,0,1,.68,0,.91.91,0,0,1,.47.53.86.86,0,0,1,0,.7.8.8,0,0,1-.52.45A.9.9,0,0,1,71.06,170.85Z" transform="translate(0 -0.25)"/>
    <path class="cls-1" d="M71.16,181.89l-1.23-.56,3.61-7.91,1.23.57-.58,1.27a3.56,3.56,0,0,1,3.29-.23l-.57,1.26a3.07,3.07,0,0,0-.47-.28,2.65,2.65,0,0,0-1.39-.16,2.94,2.94,0,0,0-1.33.44Z" transform="translate(0 -0.25)"/>
    <path class="cls-1" d="M76.78,184.37l-1.24-.53,4.71-11,1.24.53Z" transform="translate(0 -0.25)"/>
    <path class="cls-1" d="M83.47,187.28a3.42,3.42,0,0,1-2.2-2.47l-1.65,4.32-1.26-.48,4.29-11.22,1.26.48-.47,1.21a3.58,3.58,0,0,1,1.57-.57,3.4,3.4,0,0,1,1.72.21,3.53,3.53,0,0,1,2.17,2.15,5.7,5.7,0,0,1-2.38,6.21A3.5,3.5,0,0,1,83.47,187.28Zm.11-1.25a2.43,2.43,0,0,0,2.23-.15,3.79,3.79,0,0,0,1.58-2,3.73,3.73,0,0,0,.15-2.53,2.51,2.51,0,0,0-1.56-1.6,3.1,3.1,0,0,0-1.55-.15,2.85,2.85,0,0,0-1.37.52l-1.4,3.67a2.84,2.84,0,0,0,.66,1.32A3,3,0,0,0,83.58,186Z" transform="translate(0 -0.25)"/>
    <path class="cls-1" d="M96.51,190.37a4.36,4.36,0,0,1-6-1.91,4.68,4.68,0,0,1-.12-3.46,4.61,4.61,0,0,1,2.12-2.73,4.38,4.38,0,0,1,5.94,1.91,5.07,5.07,0,0,1-2,6.19Zm-4.72-2.43a2.58,2.58,0,0,0,1.71,1.58,2.54,2.54,0,0,0,2.31-.29,4.08,4.08,0,0,0,1.46-4.53,2.56,2.56,0,0,0-1.71-1.57,2.59,2.59,0,0,0-2.32.28,3.79,3.79,0,0,0-1.47,2A3.72,3.72,0,0,0,91.79,187.94Z" transform="translate(0 -0.25)"/>
    <path class="cls-1" d="M106.77,193.2a4.38,4.38,0,0,1-6-1.59,5.07,5.07,0,0,1,1.66-6.29,4,4,0,0,1,3.35-.47,4,4,0,0,1,2.69,2.05,4.68,4.68,0,0,1,.31,3.45A4.73,4.73,0,0,1,106.77,193.2ZM101.93,191a2.75,2.75,0,0,0,4.08,1.07,4,4,0,0,0,1.21-4.6,2.55,2.55,0,0,0-1.79-1.48,2.6,2.6,0,0,0-2.29.41,4,4,0,0,0-1.21,4.6Z" transform="translate(0 -0.25)"/>
    <path class="cls-1" d="M111.36,195.37l-1.32-.3,2.62-11.71,1.32.29Z" transform="translate(0 -0.25)"/>
    <path class="cls-1" d="M122,197.62a5.26,5.26,0,0,1-3.64-2l.79-.74a4.52,4.52,0,0,0,3,1.67,3.57,3.57,0,0,0,1.91-.11,1.25,1.25,0,0,0,.86-1c.15-.95-.67-1.57-2.47-1.86l-1.92-.31.18-1.09,1.91.31a4,4,0,0,0,1.89-.06,1.18,1.18,0,0,0,.89-1,1.15,1.15,0,0,0-.55-1.1,3.74,3.74,0,0,0-1.74-.68,3.9,3.9,0,0,0-3,.64l-.56-.93a4.72,4.72,0,0,1,3.74-.8,5.73,5.73,0,0,1,2.75,1.06,1.9,1.9,0,0,1,.82,1.87,1.76,1.76,0,0,1-1,1.33,3.2,3.2,0,0,1-1.7.39,3.57,3.57,0,0,1,1.6.88,1.75,1.75,0,0,1,.55,1.63,2.14,2.14,0,0,1-1.35,1.63A5.22,5.22,0,0,1,122,197.62Z" transform="translate(0 -0.25)"/>
    <path class="cls-1" d="M135.22,199.15l-1.34-.16.11-1a3.69,3.69,0,0,1-3,.88,3.22,3.22,0,0,1-2-1,2.91,2.91,0,0,1,.47-4.2,3.28,3.28,0,0,1,2.2-.5,3.61,3.61,0,0,1,2.73,1.5l.17-1.55a1.6,1.6,0,0,0-.45-1.41,2.46,2.46,0,0,0-1.52-.66,3.52,3.52,0,0,0-2.79.9l-.52-1a4.66,4.66,0,0,1,3.62-1.05,3.94,3.94,0,0,1,2.33,1,2.6,2.6,0,0,1,.68,2.31ZM131.59,198a2.72,2.72,0,0,0,2.5-.8l.18-1.63A2.74,2.74,0,0,0,132,194.2a2.19,2.19,0,0,0-1.58.36,1.73,1.73,0,0,0-.76,1.3,1.75,1.75,0,0,0,.45,1.42A2.27,2.27,0,0,0,131.59,198Z" transform="translate(0 -0.25)"/>
    <path class="cls-1" d="M145.55,199.87l-1.35-.09.47-7.49-4.53-.28-.46,7.49-1.35-.08.54-8.68,7.22.45Z" transform="translate(0 -0.25)"/>
    <path class="cls-1" d="M148.08,203.36l.23-1.22a1.75,1.75,0,0,0,.74.15,1.37,1.37,0,0,0,.78-.18,1.59,1.59,0,0,0,.53-.71l.6-1.31-3.5-8.84,1.46,0,2.78,7.17,3-7.08,1.47,0-4.52,10.39a2.63,2.63,0,0,1-2.59,1.72A3.74,3.74,0,0,1,148.08,203.36Z" transform="translate(0 -0.25)"/>
    <path class="cls-1" d="M161.61,200.13a4,4,0,0,1-3.17-1.21,5,5,0,0,1-.21-6.52,4.09,4.09,0,0,1,3.09-1.39,3.8,3.8,0,0,1,3.23,1.41l-.87.85a2.61,2.61,0,0,0-2.25-1.06,2.78,2.78,0,0,0-2.16,1,3.58,3.58,0,0,0-.74,2.44,3.53,3.53,0,0,0,.9,2.39,2.71,2.71,0,0,0,2.21.88,2.65,2.65,0,0,0,2.18-1.2l.92.8A3.79,3.79,0,0,1,161.61,200.13Z" transform="translate(0 -0.25)"/>
    <path class="cls-1" d="M169.92,199.45l-1.35.1-.54-7.49-2.51.18-.09-1.18,6.39-.47.09,1.19-2.54.18Z" transform="translate(0 -0.25)"/>
    <path class="cls-1" d="M175.83,198.92l-1.29.16-1-8.64,1.34-.16.77,6.6,3.75-7.13,1.32-.15,1,8.63-1.34.16-.79-6.72Z" transform="translate(0 -0.25)"/>
    <path class="cls-1" d="M183.82,198.17l-.18-1.1c.4-.07.69-.39.85-1a9.44,9.44,0,0,0,.19-2.78l-.17-4.31,6-1,1.46,8.57-1.33.23-1.26-7.4-3.46.59.16,3.28a7.84,7.84,0,0,1-.42,3.55A2.3,2.3,0,0,1,183.82,198.17Z" transform="translate(0 -0.25)"/>
    <path class="cls-1" d="M204.42,193.76l-4.74,1.18-2.11-8.43,4.65-1.16a2.48,2.48,0,0,1,1.88.16,2.13,2.13,0,0,1,1,1.41,2.07,2.07,0,0,1-.09,1.33,1.93,1.93,0,0,1-.8.93,2,2,0,0,1,1.28.48,2.18,2.18,0,0,1,.78,1.2,2.27,2.27,0,0,1-.24,1.82A2.58,2.58,0,0,1,204.42,193.76Zm-1.55-4.83a1.32,1.32,0,0,0,.85-.55,1.14,1.14,0,0,0,.12-.93,1.2,1.2,0,0,0-.55-.8,1.32,1.32,0,0,0-1-.09l-3.11.78.6,2.37Zm1,3.74a1.38,1.38,0,0,0,.9-.6,1.28,1.28,0,0,0,.14-1,1.34,1.34,0,0,0-1.7-1l-3.16.79.66,2.6Z" transform="translate(0 -0.25)"/>
    <path class="cls-1" d="M215.84,190.47l-1.41.47-3.82-11.38,4.57-1.53a3.65,3.65,0,0,1,2.95.11,3.54,3.54,0,0,1,1.77,2.12,3.47,3.47,0,0,1-.15,2.76,3.64,3.64,0,0,1-2.26,1.87l-3.16,1.05Zm1-6.79a2.41,2.41,0,0,0,1.44-1.15,2.39,2.39,0,0,0-1.05-3.13,2.38,2.38,0,0,0-1.84-.05l-3,1,1.45,4.33Z" transform="translate(0 -0.25)"/>
    <path class="cls-1" d="M230.55,183.91a4.37,4.37,0,0,1-5.81,2.3,5.1,5.1,0,0,1-2.39-6.06,4.38,4.38,0,0,1,5.81-2.29,4.68,4.68,0,0,1,2.29,2.58A4.74,4.74,0,0,1,230.55,183.91ZM225.36,185a2.58,2.58,0,0,0,2.33.14,2.53,2.53,0,0,0,1.59-1.69,4,4,0,0,0-1.75-4.43,2.77,2.77,0,0,0-3.92,1.56,4,4,0,0,0,1.75,4.42Z" transform="translate(0 -0.25)"/>
    <path class="cls-1" d="M238,182.07a4,4,0,0,1-3.39.11,4.63,4.63,0,0,1-2.45-2.47,4.54,4.54,0,0,1-.25-3.47,4,4,0,0,1,2.31-2.47,3.82,3.82,0,0,1,3.53,0l-.48,1.13a2.62,2.62,0,0,0-2.49-.12,2.78,2.78,0,0,0-1.6,1.76,3.53,3.53,0,0,0,.26,2.54,3.57,3.57,0,0,0,1.74,1.86,2.76,2.76,0,0,0,2.38,0,2.65,2.65,0,0,0,1.55-1.95l1.16.38A3.79,3.79,0,0,1,238,182.07Z" transform="translate(0 -0.25)"/>
    <path class="cls-1" d="M246.33,178a4.07,4.07,0,0,1-3.38.26,5,5,0,0,1-3-5.8,4.09,4.09,0,0,1,2.19-2.59,3.83,3.83,0,0,1,3.53-.1l-.43,1.14a2.6,2.6,0,0,0-2.48,0,2.78,2.78,0,0,0-1.52,1.83,3.55,3.55,0,0,0,.37,2.53,3.63,3.63,0,0,0,1.83,1.78,2.75,2.75,0,0,0,2.38-.16,2.63,2.63,0,0,0,1.45-2l1.18.33A3.82,3.82,0,0,1,246.33,178Z" transform="translate(0 -0.25)"/>
    <path class="cls-1" d="M252.17,174.62l-1.12.65-4.34-7.54,1.17-.67,3.32,5.76.63-8,1.15-.67,4.34,7.54-1.17.67-3.38-5.87Z" transform="translate(0 -0.25)"/>
    <path class="cls-1" d="M261.05,169.34,260,170l-4.72-7.3,1.13-.73,3.61,5.58.21-8.06,1.12-.72,4.73,7.3-1.14.73-3.67-5.68Z" transform="translate(0 -0.25)"/>
  </g>
  <g>
    <path class="cls-1" d="M8.56,171.4l-1-.9,5-5.61-3.4-3-5,5.62-1-.9,5.76-6.51,5.42,4.8Z" transform="translate(0 -0.25)"/>
    <path class="cls-1" d="M14.09,176.23a3.42,3.42,0,0,1-1.32-3l-2.91,3.6-1-.85,7.54-9.35,1,.85-.82,1a3.62,3.62,0,0,1,1.67-.06,3.49,3.49,0,0,1,1.57.73,3.53,3.53,0,0,1,1.4,2.71A4.9,4.9,0,0,1,20,175.1,5,5,0,0,1,17.05,177,3.51,3.51,0,0,1,14.09,176.23Zm.49-1.16a2.47,2.47,0,0,0,2.18.55,3.8,3.8,0,0,0,2.1-1.41,3.72,3.72,0,0,0,.93-2.35,2.45,2.45,0,0,0-1-2,3.12,3.12,0,0,0-1.42-.63,2.92,2.92,0,0,0-1.46.08l-2.47,3.06a2.87,2.87,0,0,0,.22,1.46A3.07,3.07,0,0,0,14.58,175.07Z" transform="translate(0 -0.25)"/>
    <path class="cls-1" d="M25.45,183.2a4.37,4.37,0,0,1-5-3.69,4.7,4.7,0,0,1,1-3.32,4.64,4.64,0,0,1,2.87-1.93,4.39,4.39,0,0,1,5,3.69,5.08,5.08,0,0,1-3.85,5.25Zm-3.71-3.8a2.78,2.78,0,0,0,3.41,2.5,3.79,3.79,0,0,0,2-1.47,3.75,3.75,0,0,0,.78-2.38,2.77,2.77,0,0,0-3.41-2.48,3.63,3.63,0,0,0-2,1.45A3.73,3.73,0,0,0,21.74,179.4Z" transform="translate(0 -0.25)"/>
    <path class="cls-1" d="M25.77,187.5l1.83-2.78a1.48,1.48,0,0,0,1.32-.09,7.86,7.86,0,0,0,1.88-1.74l2.83-3.26,5,3.33-4.15,6.26.84.56-1.88,2.84-1.12-.75L33.59,190l-5.48-3.62-1.22,1.84Zm8.2-6.23-2.13,2.5a4.59,4.59,0,0,1-2.74,1.85l4.31,2.86,3.49-5.27Z" transform="translate(0 -0.25)"/>
    <path class="cls-1" d="M42.4,195.4l-1.15-.69.51-.85a3.68,3.68,0,0,1-3.09-.44,3.23,3.23,0,0,1-1.43-1.76A2.91,2.91,0,0,1,39.4,188a3.3,3.3,0,0,1,2.22.46,3.62,3.62,0,0,1,1.86,2.5l.8-1.34a1.64,1.64,0,0,0,.17-1.48,2.49,2.49,0,0,0-1.11-1.23,3.55,3.55,0,0,0-2.9-.33l-.06-1.13a4.64,4.64,0,0,1,3.72.55,3.9,3.9,0,0,1,1.71,1.87,2.61,2.61,0,0,1-.33,2.38Zm-2.82-2.57a2.75,2.75,0,0,0,2.61.31l.84-1.41a2.75,2.75,0,0,0-1.5-2.16,2.21,2.21,0,0,0-1.59-.33,1.75,1.75,0,0,0-1.22.87,1.72,1.72,0,0,0-.19,1.48A2.28,2.28,0,0,0,39.58,192.83Z" transform="translate(0 -0.25)"/>
    <path class="cls-1" d="M45.65,197.27l-1.52-.81,5.64-2.38-1.55-5.29,1.51.8,1.51,5.15,1.8-3.39,1.19.63-1.79,3.37,5.1-1.61,1.51.8-5.27,1.67,1.2,6-1.52-.81-.94-4.92-.83.25-1.54,2.91L49,199l1.54-2.91-.25-.83Z" transform="translate(0 -0.25)"/>
    <path class="cls-1" d="M54.88,205.91l.72-1a1.75,1.75,0,0,0,.6.45,1.48,1.48,0,0,0,.79.15,1.62,1.62,0,0,0,.78-.43l1.08-.95.44-9.5,1.32.62-.41,7.69,5.64-5.23,1.33.63-8.38,7.61a2.63,2.63,0,0,1-3.06.51A3.73,3.73,0,0,1,54.88,205.91Z" transform="translate(0 -0.25)"/>
    <path class="cls-1" d="M73,210.35a3.9,3.9,0,0,1-2.41-2.43,5.4,5.4,0,0,1,.21-3.77,7.65,7.65,0,0,1,2.71-3.86,4.84,4.84,0,0,1,3.85-.41,12,12,0,0,0,1.94.31c.38,0,.6-.08.66-.24l1.23.48a1.35,1.35,0,0,1-.61.7,2,2,0,0,1-1,.22,7.5,7.5,0,0,1-1.11-.07q-.51-.08-1.17-.24a4.77,4.77,0,0,0-2.79,0,3.53,3.53,0,0,0-1.69,1.44,3.88,3.88,0,0,1,6,1.76,4.79,4.79,0,0,1-.12,3.41,4.74,4.74,0,0,1-2.28,2.62A4,4,0,0,1,73,210.35Zm-1.17-2.81a2.77,2.77,0,0,0,3.93,1.54,3.74,3.74,0,0,0,1.59-2,3.62,3.62,0,0,0,.14-2.48A2.53,2.53,0,0,0,75.86,203a2.56,2.56,0,0,0-2.32.14A3.66,3.66,0,0,0,72,205,3.74,3.74,0,0,0,71.81,207.54Z" transform="translate(0 -0.25)"/>
    <path class="cls-1" d="M82.32,204.39l1.28.42L82.54,208l3.1,1a2.71,2.71,0,0,1,.47,5,2.58,2.58,0,0,1-2.14.1l-4.38-1.44Zm2.81,5.72-3-1-.92,2.8,3,1a1.37,1.37,0,0,0,1.88-.94,1.38,1.38,0,0,0-1-1.87Zm4.07,5.71-1.28-.43,2.72-8.25,1.28.42Z" transform="translate(0 -0.25)"/>
    <path class="cls-1" d="M95,217.44l-1.3-.37,2-7.23-2.43-.68.32-1.14,6.17,1.73-.32,1.14L97,210.21Z" transform="translate(0 -0.25)"/>
    <path class="cls-1" d="M106.42,219.17a4.38,4.38,0,0,1-6.08-1.43,4.7,4.7,0,0,1-.4-3.44,4.65,4.65,0,0,1,1.9-2.89,4.37,4.37,0,0,1,6.07,1.43,5.05,5.05,0,0,1-1.49,6.33Zm-4.9-2a2.55,2.55,0,0,0,1.83,1.44,2.52,2.52,0,0,0,2.28-.47,3.72,3.72,0,0,0,1.3-2.14,3.63,3.63,0,0,0-.21-2.49,2.76,2.76,0,0,0-4.11-1,4,4,0,0,0-1.09,4.62Z" transform="translate(0 -0.25)"/>
    <path class="cls-1" d="M114.62,221.92l-4.79-.89,1.6-8.55,4.7.88a2.53,2.53,0,0,1,1.65.93,2.1,2.1,0,0,1,.35,1.71,2,2,0,0,1-.63,1.18,1.89,1.89,0,0,1-1.12.51,2,2,0,0,1,1,1,2.38,2.38,0,0,1-.78,3A2.56,2.56,0,0,1,114.62,221.92Zm0-1.21a1.41,1.41,0,0,0,1.07-.17,1.26,1.26,0,0,0,.55-.89,1.35,1.35,0,0,0-.19-1,1.36,1.36,0,0,0-.94-.58l-3.2-.6-.5,2.64Zm.65-3.82a1.26,1.26,0,0,0,1-.15,1.17,1.17,0,0,0,.5-.8,1.22,1.22,0,0,0-.17-.95,1.27,1.27,0,0,0-.88-.5l-3.15-.59-.45,2.4Z" transform="translate(0 -0.25)"/>
    <path class="cls-1" d="M127,222.72a4.35,4.35,0,0,1-6.19-.86,4.75,4.75,0,0,1-.72-3.38,4.66,4.66,0,0,1,1.62-3.06,4.4,4.4,0,0,1,6.19.86,4.75,4.75,0,0,1,.72,3.38A4.7,4.7,0,0,1,127,222.72Zm-5.07-1.58a2.56,2.56,0,0,0,2,1.26,2.53,2.53,0,0,0,2.22-.68,3.76,3.76,0,0,0,1.1-2.26,3.72,3.72,0,0,0-.44-2.46,2.54,2.54,0,0,0-2-1.25,2.58,2.58,0,0,0-2.23.68,3.69,3.69,0,0,0-1.11,2.24A3.8,3.8,0,0,0,121.93,221.14Z" transform="translate(0 -0.25)"/>
    <path class="cls-1" d="M131.82,224.36l-1.29-.11.79-8.66,1.35.12-.61,6.62,5.14-6.2,1.33.12-.8,8.66-1.34-.12.62-6.74Zm6.48-10.71a3.69,3.69,0,0,1-3.28,1.28,3.76,3.76,0,0,1-3-1.86l.71-.52a2.94,2.94,0,0,0,2.38,1.52,2.84,2.84,0,0,0,2.59-1.06Z" transform="translate(0 -0.25)"/>
    <path class="cls-1" d="M148.46,225.44l-1.35,0,.24-7.5-2.52-.08,0-1.19,6.4.2,0,1.19-2.53-.08Z" transform="translate(0 -0.25)"/>
    <path class="cls-1" d="M157,225.74a4.23,4.23,0,0,1-3.2-1.22,4.47,4.47,0,0,1-1.3-3.28A4.59,4.59,0,0,1,153.7,218a4,4,0,0,1,3-1.37,3.79,3.79,0,0,1,3.07,1.27,4.94,4.94,0,0,1,1.18,3.32v.34l-7,.12a3.26,3.26,0,0,0,1,2.12,2.9,2.9,0,0,0,2.21.83,3.58,3.58,0,0,0,2.66-1.14l.67.87A4.69,4.69,0,0,1,157,225.74Zm2.62-5.16a3.2,3.2,0,0,0-.79-2,2.58,2.58,0,0,0-2.12-.86,2.56,2.56,0,0,0-2,.92,3.3,3.3,0,0,0-.77,2Z" transform="translate(0 -0.25)"/>
    <path class="cls-1" d="M170.71,225l-1.56.08-2.79-3.43-2.43,3.69-1.54.08,3.1-4.62-3.36-4.07,1.56-.08,2.58,3.19,2.24-3.43,1.56-.08-2.93,4.38Z" transform="translate(0 -0.25)"/>
    <path class="cls-1" d="M173.93,224.76l-1.34.13-.81-8.66,1.34-.13.34,3.61,4.52-.43-.34-3.6,1.34-.12.81,8.65-1.34.13-.37-3.87-4.51.42Z" transform="translate(0 -0.25)"/>
    <path class="cls-1" d="M184.08,223.68l-1.28.18-1.2-8.61,1.33-.18.92,6.57,3.6-7.2,1.31-.19,1.21,8.61-1.34.19-.94-6.7Z" transform="translate(0 -0.25)"/>
    <path class="cls-1" d="M200.52,221l-1.7.32L195,218l-1.16,1.67.45,2.44-1.33.24-1.58-8.55,1.33-.24.84,4.55,3.66-5.38,1.68-.31L195.85,217Z" transform="translate(0 -0.25)"/>
    <path class="cls-1" d="M203.64,220.28l-1.26.29-2-8.47,1.31-.31,1.5,6.47,2.94-7.49,1.3-.3,2,8.47-1.32.3-1.52-6.59Z" transform="translate(0 -0.25)"/>
    <path class="cls-1" d="M224,214.8l-1.29.39L220.49,208l-4.34,1.32,2.18,7.18-1.29.39-2.52-8.32,6.92-2.1Z" transform="translate(0 -0.25)"/>
    <path class="cls-1" d="M233,210.5a4.35,4.35,0,0,1-5.89,2.09,5.08,5.08,0,0,1-2.18-6.13,4.41,4.41,0,0,1,5.89-2.09A5.08,5.08,0,0,1,233,210.5Zm-5.23.93a2.76,2.76,0,0,0,4-1.41,3.81,3.81,0,0,0-.07-2.51,3.77,3.77,0,0,0-1.53-2,2.59,2.59,0,0,0-2.31-.21,2.56,2.56,0,0,0-1.66,1.64,3.68,3.68,0,0,0,0,2.49A3.73,3.73,0,0,0,227.77,211.43Z" transform="translate(0 -0.25)"/>
    <path class="cls-1" d="M248,205.51l-1.24.54-3-6.88L239.59,201l3,6.88-1.24.54-3.47-8,6.64-2.89Z" transform="translate(0 -0.25)"/>
    <path class="cls-1" d="M256.48,200.2a4.35,4.35,0,0,1-5.61,2.75,5.08,5.08,0,0,1-2.87-5.83,4.4,4.4,0,0,1,5.61-2.76,4.64,4.64,0,0,1,2.49,2.39A4.72,4.72,0,0,1,256.48,200.2Zm-5.09,1.53a2.56,2.56,0,0,0,2.33-.06,2.51,2.51,0,0,0,1.46-1.81,4.05,4.05,0,0,0-2.1-4.27,2.77,2.77,0,0,0-3.78,1.87,3.66,3.66,0,0,0,.34,2.47A3.74,3.74,0,0,0,251.39,201.73Z" transform="translate(0 -0.25)"/>
    <path class="cls-1" d="M260.45,201.9,258.84,199a1.48,1.48,0,0,0,.53-1.21,7.83,7.83,0,0,0-.67-2.48l-1.58-4,5.3-2.92,3.62,6.57.88-.48,1.65,3-1.18.65-1.07-1.94-5.76,3.17,1.07,1.94Zm-1.71-10.15,1.22,3a4.66,4.66,0,0,1,.38,3.29l4.52-2.49-3.05-5.54Z" transform="translate(0 -0.25)"/>
    <path class="cls-1" d="M275.56,190.58l-1.16.71-3.92-6.4-3.87,2.37,3.93,6.4-1.15.71L264.84,187l6.17-3.78Z" transform="translate(0 -0.25)"/>
    <path class="cls-1" d="M279.2,188.2l-1.08.72-4.87-7.19,1.11-.76,3.73,5.5,0-8.05,1.1-.75,4.88,7.19-1.11.76-3.8-5.6Z" transform="translate(0 -0.25)"/>
    <path class="cls-1" d="M289.8,181a4.11,4.11,0,0,1-3.3.82,4.67,4.67,0,0,1-2.91-1.9,4.62,4.62,0,0,1-1-3.34,4.1,4.1,0,0,1,1.74-2.91,3.8,3.8,0,0,1,3.46-.68l-.23,1.2a2.6,2.6,0,0,0-2.45.41,2.78,2.78,0,0,0-1.2,2,3.6,3.6,0,0,0,.78,2.43,3.56,3.56,0,0,0,2.11,1.45,2.74,2.74,0,0,0,2.31-.54,2.66,2.66,0,0,0,1.11-2.23l1.21.12A3.82,3.82,0,0,1,289.8,181Z" transform="translate(0 -0.25)"/>
    <path class="cls-1" d="M299.89,172.74l-1.34,1.09-4.89-1.07-.23,2L295,176.7l-1.05.85-5.47-6.75,1-.85,2.91,3.59.65-6.47,1.33-1.08-.52,5.49Z" transform="translate(0 -0.25)"/>
    <path class="cls-1" d="M304.39,169.08a4.25,4.25,0,0,1-3.23,1.16,4.49,4.49,0,0,1-3.12-1.65,4.57,4.57,0,0,1-1.22-3.23,4,4,0,0,1,1.41-3,3.81,3.81,0,0,1,3.16-1,5,5,0,0,1,3.06,1.75l.22.26L299.41,168a3.3,3.3,0,0,0,2.12,1,2.9,2.9,0,0,0,2.21-.81,3.55,3.55,0,0,0,1.28-2.6l1.07.23A4.66,4.66,0,0,1,304.39,169.08ZM303,163.46a3.13,3.13,0,0,0-1.9-1A2.88,2.88,0,0,0,298,165.2a3.27,3.27,0,0,0,.74,2Z" transform="translate(0 -0.25)"/>
  </g>
  <path class="cls-2" d="M310,.25A155,155,0,0,1,0,.25" transform="translate(0 -0.25)"/>
</svg>
