<svg width="94" height="115" viewBox="0 0 94 115" fill="none" xmlns="http://www.w3.org/2000/svg">
<path d="M15.2862 112V95.6653H3V80.8571H15.2862V68.9496H3V50.0196H15.2862V3H50.3019C64.4311 3 74.7208 5.84967 81.171 11.549C87.7237 17.2484 91 25.085 91 35.0588C91 40.9617 89.669 46.5084 87.007 51.6989C84.345 56.8894 79.8912 61.0621 73.6457 64.2171C67.5026 67.3721 59.107 68.9496 48.459 68.9496H38.4764V80.8571H62.1274V95.6653H38.4764V112H15.2862ZM46.1553 50.0196C52.708 50.0196 57.8784 48.9001 61.6667 46.6611C65.5573 44.422 67.5026 40.8091 67.5026 35.8221C67.5026 26.5607 61.3595 21.93 49.0733 21.93H38.4764V50.0196H46.1553Z" stroke="#FF6732" stroke-width="4.0215"/>
</svg>
