<svg width="99" height="111" viewBox="0 0 99 111" fill="none" xmlns="http://www.w3.org/2000/svg">
<path d="M49.5 5.33087e-06C26.7634 5.33087e-06 7.75092 14.615 0 35.2656L8.20476 38.7344C14.6876 21.46 30.4119 9.25 49.5 9.25C63.9162 9.25 76.7928 16.6038 84.8196 27.75H67.2978V37H98.4438V4.62501H89.5449V18.9348C84.5606 12.9861 78.4068 8.21768 71.4988 4.95131C64.5908 1.68494 57.0892 -0.00346241 49.5 5.33087e-06ZM90.7908 72.2656C84.3124 89.54 68.5881 101.75 49.5 101.75C34.9236 101.75 22.1048 94.2945 14.038 83.25H31.7022V74H0.55618V106.375H9.45506V92.0652C19.1993 103.535 33.4598 111 49.5 111C72.2366 111 91.2491 96.385 99 75.7344L90.7908 72.2656Z" fill="#FF6732"/>
</svg>
